<svg width="487" height="221" viewBox="0 0 487 221" fill="none" xmlns="http://www.w3.org/2000/svg">
<path d="M161.898 39.0078C161.898 37.7383 162.102 36.748 162.509 36.0371C162.966 35.3262 163.906 34.9707 165.328 34.9707C165.48 34.9707 165.76 34.9961 166.166 35.0469C166.623 35.0469 166.902 35.0469 167.004 35.0469C167.358 36.6211 167.713 38.3476 168.067 40.2266C168.472 42.0547 168.928 43.9082 169.434 45.7871C169.941 47.666 170.498 49.5195 171.106 51.3476C171.765 53.1758 172.551 54.8262 173.464 56.2988C174.379 55.334 175.04 54.1914 175.447 52.8711C175.854 51.5508 176.16 50.2305 176.364 48.9101C176.568 47.5391 176.746 46.2441 176.9 45.0254C177.103 43.7559 177.485 42.6894 178.044 41.8262C178.603 40.9121 179.416 40.2519 180.483 39.8457C181.6 39.4394 183.124 39.4394 185.053 39.8457C187.186 39.8457 188.887 40.2519 190.156 41.0644C191.425 41.8262 192.516 42.8164 193.429 44.0351C194.394 45.2031 195.307 46.4726 196.169 47.8437C197.082 49.1641 198.224 50.3574 199.595 51.4238C199.9 50.7637 200.281 49.9512 200.739 48.9863C201.196 47.9707 201.756 46.9297 202.417 45.8633C203.128 44.7461 203.865 43.6543 204.628 42.5879C205.441 41.4707 206.279 40.4805 207.143 39.6172C208.007 38.7031 208.896 37.9668 209.811 37.4082C210.725 36.7988 211.614 36.4941 212.477 36.4941C214.559 36.4941 216.362 37.1543 217.884 38.4746C219.407 39.7441 220.701 41.3691 221.766 43.3496C222.882 45.2793 223.794 47.4629 224.504 49.9004C225.213 52.2871 225.77 54.5976 226.175 56.832C226.58 59.0664 226.858 61.123 227.009 63.0019C227.211 64.8301 227.311 66.1504 227.311 66.9629C227.31 67.623 227.158 68.1308 226.853 68.4863C226.548 68.8418 226.167 69.1211 225.71 69.3242C225.253 69.4766 224.745 69.5781 224.186 69.6289C223.678 69.6797 223.196 69.7051 222.739 69.7051C222.637 69.7051 222.485 69.7051 222.282 69.7051C222.079 69.6543 221.85 69.6035 221.596 69.5527C221.393 69.5019 221.114 69.4258 220.759 69.3242L215.822 46.5488C215.822 46.3965 215.62 46.1172 215.214 45.7109C214.808 45.2539 214.503 44.9746 214.3 44.873C214.148 44.873 214.021 44.8476 213.919 44.7969C213.818 44.7969 213.741 44.7969 213.691 44.7969C213.64 44.7461 213.589 44.7207 213.538 44.7207C212.472 44.7207 211.456 45.1523 210.491 46.0156C209.576 46.8789 208.712 47.9707 207.899 49.291C207.085 50.6113 206.323 52.084 205.611 53.709C204.899 55.334 204.263 56.959 203.703 58.584C203.143 60.1582 202.635 61.6308 202.177 63.0019C201.77 64.3223 201.439 65.3379 201.185 66.0488C200.981 66.1504 200.575 66.2519 199.966 66.3535C199.356 66.4043 198.95 66.4297 198.747 66.4297C197.325 66.4297 196.233 65.9473 195.472 64.9824C194.711 63.9668 194.077 62.7226 193.57 61.25C193.114 59.7773 192.709 58.1777 192.355 56.4512C192.051 54.6738 191.646 53.0488 191.139 51.5762C190.683 50.1035 190.024 48.8848 189.161 47.9199C188.349 46.9043 187.182 46.3965 185.658 46.3965C185.1 46.3965 184.566 46.9551 184.058 48.0723C183.549 49.1894 183.091 50.6113 182.684 52.3379C182.276 54.0137 181.894 55.8418 181.538 57.8223C181.181 59.7519 180.875 61.5801 180.62 63.3066C180.416 64.9824 180.262 66.4043 180.16 67.5723C180.058 68.7402 180.007 69.3242 180.007 69.3242C179.905 69.4766 179.702 69.6543 179.397 69.8574C179.092 70.0098 178.762 70.1875 178.406 70.3906C178.101 70.5937 177.771 70.7461 177.416 70.8476C177.111 70.9492 176.882 71 176.73 71C175.308 71 173.938 70.3652 172.618 69.0957C171.299 67.7754 170.081 66.0996 168.965 64.0683C167.9 61.9863 166.911 59.7012 165.999 57.2129C165.137 54.7246 164.403 52.2871 163.795 49.9004C163.187 47.5137 162.706 45.3555 162.352 43.4258C162.048 41.4961 161.897 40.0234 161.898 39.0078ZM302.518 27.8867C302.519 26.4141 302.419 24.9922 302.216 23.6211C302.014 22.1992 301.964 20.9551 302.066 19.8887C302.169 18.7715 302.55 17.8828 303.211 17.2227C303.922 16.5625 305.192 16.2324 307.02 16.2324C307.578 17.4004 308.11 19.1777 308.616 21.5644C309.173 23.9512 309.705 26.6934 310.21 29.791C310.716 32.8887 311.196 36.2656 311.651 39.9219C312.106 43.5273 312.509 47.1582 312.863 50.8144C313.266 54.4707 313.594 58.0762 313.846 61.6308C314.148 65.1348 314.374 68.334 314.525 71.2285C312.848 72.3457 311.503 72.4219 310.488 71.457C309.473 70.4922 308.636 68.8672 307.977 66.582C307.319 64.2461 306.813 61.4277 306.459 58.1269C306.106 54.7754 305.753 51.3223 305.4 47.7676C305.097 44.1621 304.719 40.6328 304.264 37.1797C303.809 33.6758 303.227 30.5781 302.518 27.8867Z" fill="black"/>
<path d="M4.48145 124.1C4.48145 123.908 4.48145 123.566 4.48145 123.074C4.50879 122.555 4.52246 122.021 4.52246 121.475C4.52246 120.9 4.52246 120.367 4.52246 119.875C4.5498 119.383 4.56348 119.027 4.56348 118.809C4.59082 118.754 4.71387 118.617 4.93262 118.398C5.17871 118.152 5.3291 118.002 5.38379 117.947C5.43848 117.947 5.50684 117.934 5.58887 117.906C5.64355 117.906 5.68457 117.906 5.71191 117.906C5.7666 117.879 5.80762 117.865 5.83496 117.865C5.8623 117.865 5.90332 117.879 5.95801 117.906C6.0127 117.906 6.05371 117.906 6.08105 117.906C6.16309 117.934 6.24512 117.947 6.32715 117.947C6.35449 117.975 6.40918 118.029 6.49121 118.111C6.57324 118.166 6.65527 118.248 6.7373 118.357C6.84668 118.439 6.94238 118.535 7.02441 118.645C7.10645 118.727 7.14746 118.781 7.14746 118.809C7.03809 120.148 7.12012 121.406 7.39355 122.582C7.69434 123.758 8.03613 124.879 8.41895 125.945C8.80176 126.984 9.15723 127.969 9.48535 128.898C9.81348 129.828 9.97754 130.73 9.97754 131.605C9.97754 131.906 9.93652 132.248 9.85449 132.631C9.77246 132.986 9.62207 133.328 9.40332 133.656C9.21191 133.957 8.96582 134.217 8.66504 134.436C8.3916 134.627 8.02246 134.723 7.55762 134.723C6.92871 134.723 6.39551 134.504 5.95801 134.066C5.54785 133.629 5.2334 133.068 5.01465 132.385C4.7959 131.674 4.64551 130.895 4.56348 130.047C4.48145 129.199 4.42676 128.393 4.39941 127.627C4.39941 126.834 4.41309 126.123 4.44043 125.494C4.46777 124.838 4.48145 124.373 4.48145 124.1ZM11.5771 121.352C11.5771 121.051 11.6318 120.75 11.7412 120.449C11.8506 120.121 11.9873 119.834 12.1514 119.588C12.3428 119.342 12.5752 119.15 12.8486 119.014C13.1221 118.85 13.4229 118.768 13.751 118.768C14.1064 118.768 14.4346 119.068 14.7354 119.67C15.0361 120.271 15.3096 121.037 15.5557 121.967C15.8018 122.869 15.9932 123.854 16.1299 124.92C16.2939 125.986 16.4307 126.984 16.54 127.914C16.6768 128.844 16.7725 129.623 16.8271 130.252C16.8818 130.881 16.9092 131.209 16.9092 131.236C16.9092 132.412 16.2666 133 14.9814 133C14.5166 133 14.1064 132.754 13.751 132.262C13.3955 131.742 13.0811 131.1 12.8076 130.334C12.5615 129.541 12.3564 128.68 12.1924 127.75C12.0283 126.793 11.8916 125.891 11.7822 125.043C11.7002 124.168 11.6455 123.402 11.6182 122.746C11.5908 122.062 11.5771 121.598 11.5771 121.352ZM18.5088 136.773C18.5088 136.09 18.6182 135.557 18.8369 135.174C19.083 134.791 19.5889 134.6 20.3545 134.6C20.4365 134.6 20.5869 134.613 20.8057 134.641C21.0518 134.641 21.2021 134.641 21.2568 134.641C21.4482 135.488 21.6396 136.418 21.8311 137.43C22.0498 138.414 22.2959 139.412 22.5693 140.424C22.8428 141.436 23.1436 142.434 23.4717 143.418C23.8271 144.402 24.251 145.291 24.7432 146.084C25.2354 145.564 25.5908 144.949 25.8096 144.238C26.0283 143.527 26.1924 142.816 26.3018 142.105C26.4111 141.367 26.5068 140.67 26.5889 140.014C26.6982 139.33 26.9033 138.756 27.2041 138.291C27.5049 137.799 27.9424 137.443 28.5166 137.225C29.1182 137.006 29.9385 137.006 30.9775 137.225C32.126 137.225 33.042 137.443 33.7256 137.881C34.4092 138.291 34.9971 138.824 35.4893 139.48C36.0088 140.109 36.501 140.793 36.9658 141.531C37.458 142.242 38.0732 142.885 38.8115 143.459C38.9756 143.104 39.1807 142.666 39.4268 142.146C39.6729 141.6 39.9736 141.039 40.3291 140.465C40.7119 139.863 41.1084 139.275 41.5186 138.701C41.9561 138.1 42.4072 137.566 42.8721 137.102C43.3369 136.609 43.8154 136.213 44.3076 135.912C44.7998 135.584 45.2783 135.42 45.7432 135.42C46.8643 135.42 47.835 135.775 48.6553 136.486C49.4756 137.17 50.1729 138.045 50.7471 139.111C51.3486 140.15 51.8408 141.326 52.2236 142.639C52.6064 143.924 52.9072 145.168 53.126 146.371C53.3447 147.574 53.4951 148.682 53.5771 149.693C53.6865 150.678 53.7412 151.389 53.7412 151.826C53.7412 152.182 53.6592 152.455 53.4951 152.646C53.3311 152.838 53.126 152.988 52.8799 153.098C52.6338 153.18 52.3604 153.234 52.0596 153.262C51.7861 153.289 51.5264 153.303 51.2803 153.303C51.2256 153.303 51.1436 153.303 51.0342 153.303C50.9248 153.275 50.8018 153.248 50.665 153.221C50.5557 153.193 50.4053 153.152 50.2139 153.098L47.5479 140.834C47.5479 140.752 47.4385 140.602 47.2197 140.383C47.001 140.137 46.8369 139.986 46.7275 139.932C46.6455 139.932 46.5771 139.918 46.5225 139.891C46.4678 139.891 46.4268 139.891 46.3994 139.891C46.3721 139.863 46.3447 139.85 46.3174 139.85C45.7432 139.85 45.1963 140.082 44.6768 140.547C44.1846 141.012 43.7197 141.6 43.2822 142.311C42.8447 143.021 42.4346 143.814 42.0518 144.689C41.6689 145.564 41.3271 146.439 41.0264 147.314C40.7256 148.162 40.4521 148.955 40.2061 149.693C39.9873 150.404 39.8096 150.951 39.6729 151.334C39.5635 151.389 39.3447 151.443 39.0166 151.498C38.6885 151.525 38.4697 151.539 38.3604 151.539C37.5947 151.539 37.0068 151.279 36.5967 150.76C36.1865 150.213 35.8447 149.543 35.5713 148.75C35.3252 147.957 35.1064 147.096 34.915 146.166C34.751 145.209 34.5322 144.334 34.2588 143.541C34.0127 142.748 33.6572 142.092 33.1924 141.572C32.7549 141.025 32.126 140.752 31.3057 140.752C31.0049 140.752 30.7178 141.053 30.4443 141.654C30.1709 142.256 29.9248 143.021 29.7061 143.951C29.4873 144.854 29.2822 145.838 29.0908 146.904C28.8994 147.943 28.7354 148.928 28.5986 149.857C28.4893 150.76 28.4072 151.525 28.3525 152.154C28.2979 152.783 28.2705 153.098 28.2705 153.098C28.2158 153.18 28.1064 153.275 27.9424 153.385C27.7783 153.467 27.6006 153.562 27.4092 153.672C27.2451 153.781 27.0674 153.863 26.876 153.918C26.7119 153.973 26.5889 154 26.5068 154C25.7412 154 25.0029 153.658 24.292 152.975C23.5811 152.264 22.9248 151.361 22.3232 150.268C21.749 149.146 21.2158 147.916 20.7236 146.576C20.2588 145.236 19.8623 143.924 19.5342 142.639C19.2061 141.354 18.9463 140.191 18.7549 139.152C18.5908 138.113 18.5088 137.32 18.5088 136.773ZM73.0596 148.709C72.0205 149.42 71.1182 150.062 70.3525 150.637C69.6143 151.184 68.8896 151.648 68.1787 152.031C67.4678 152.414 66.7021 152.701 65.8818 152.893C65.0889 153.084 64.1045 153.18 62.9287 153.18C60.3857 153.18 58.499 152.51 57.2686 151.17C56.0381 149.803 55.4229 147.779 55.4229 145.1C55.4229 144.061 55.5596 142.98 55.833 141.859C56.1064 140.738 56.5029 139.631 57.0225 138.537C57.5693 137.416 58.2119 136.363 58.9502 135.379C59.6885 134.367 60.5225 133.479 61.4521 132.713C62.3818 131.947 63.3662 131.346 64.4053 130.908C65.4717 130.443 66.5928 130.211 67.7686 130.211C69.7373 130.402 71.2822 130.895 72.4033 131.688C73.5244 132.453 74.3721 133.451 74.9463 134.682C75.5205 135.885 75.917 137.238 76.1357 138.742C76.3545 140.219 76.5186 141.75 76.6279 143.336C76.7646 144.922 76.9287 146.508 77.1201 148.094C77.3115 149.68 77.708 151.143 78.3096 152.482C77.9541 153.385 77.6123 154.014 77.2842 154.369C76.9834 154.752 76.6416 154.82 76.2588 154.574C75.876 154.328 75.4248 153.727 74.9053 152.77C74.4131 151.812 73.7979 150.459 73.0596 148.709ZM58.9092 145.182C58.9092 146.74 59.1963 147.889 59.7705 148.627C60.3721 149.338 61.4248 149.693 62.9287 149.693C64.0498 149.693 65.1162 149.502 66.1279 149.119C67.167 148.709 68.0693 148.162 68.835 147.479C69.6006 146.768 70.2158 145.92 70.6807 144.936C71.1455 143.951 71.3779 142.857 71.3779 141.654C71.3779 141.162 71.3916 140.479 71.4189 139.604C71.4463 138.701 71.3916 137.812 71.2549 136.938C71.1182 136.062 70.8584 135.311 70.4756 134.682C70.0928 134.025 69.5186 133.697 68.7529 133.697C67.3311 133.697 66.0186 134.066 64.8154 134.805C63.6123 135.516 62.5732 136.432 61.6982 137.553C60.8232 138.674 60.1396 139.918 59.6475 141.285C59.1553 142.625 58.9092 143.924 58.9092 145.182ZM79.9912 136.773C79.9912 136.09 80.1006 135.557 80.3193 135.174C80.5654 134.791 81.0713 134.6 81.8369 134.6C81.9189 134.6 82.0693 134.613 82.2881 134.641C82.5342 134.641 82.6846 134.641 82.7393 134.641C82.9307 135.488 83.1221 136.418 83.3135 137.43C83.5322 138.414 83.7783 139.412 84.0518 140.424C84.3252 141.436 84.626 142.434 84.9541 143.418C85.3096 144.402 85.7334 145.291 86.2256 146.084C86.7178 145.564 87.0732 144.949 87.292 144.238C87.5107 143.527 87.6748 142.816 87.7842 142.105C87.8936 141.367 87.9893 140.67 88.0713 140.014C88.1807 139.33 88.3857 138.756 88.6865 138.291C88.9873 137.799 89.4248 137.443 89.999 137.225C90.6006 137.006 91.4209 137.006 92.46 137.225C93.6084 137.225 94.5244 137.443 95.208 137.881C95.8916 138.291 96.4795 138.824 96.9717 139.48C97.4912 140.109 97.9834 140.793 98.4482 141.531C98.9404 142.242 99.5557 142.885 100.294 143.459C100.458 143.104 100.663 142.666 100.909 142.146C101.155 141.6 101.456 141.039 101.812 140.465C102.194 139.863 102.591 139.275 103.001 138.701C103.438 138.1 103.89 137.566 104.354 137.102C104.819 136.609 105.298 136.213 105.79 135.912C106.282 135.584 106.761 135.42 107.226 135.42C108.347 135.42 109.317 135.775 110.138 136.486C110.958 137.17 111.655 138.045 112.229 139.111C112.831 140.15 113.323 141.326 113.706 142.639C114.089 143.924 114.39 145.168 114.608 146.371C114.827 147.574 114.978 148.682 115.06 149.693C115.169 150.678 115.224 151.389 115.224 151.826C115.224 152.182 115.142 152.455 114.978 152.646C114.813 152.838 114.608 152.988 114.362 153.098C114.116 153.18 113.843 153.234 113.542 153.262C113.269 153.289 113.009 153.303 112.763 153.303C112.708 153.303 112.626 153.303 112.517 153.303C112.407 153.275 112.284 153.248 112.147 153.221C112.038 153.193 111.888 153.152 111.696 153.098L109.03 140.834C109.03 140.752 108.921 140.602 108.702 140.383C108.483 140.137 108.319 139.986 108.21 139.932C108.128 139.932 108.06 139.918 108.005 139.891C107.95 139.891 107.909 139.891 107.882 139.891C107.854 139.863 107.827 139.85 107.8 139.85C107.226 139.85 106.679 140.082 106.159 140.547C105.667 141.012 105.202 141.6 104.765 142.311C104.327 143.021 103.917 143.814 103.534 144.689C103.151 145.564 102.81 146.439 102.509 147.314C102.208 148.162 101.935 148.955 101.688 149.693C101.47 150.404 101.292 150.951 101.155 151.334C101.046 151.389 100.827 151.443 100.499 151.498C100.171 151.525 99.9521 151.539 99.8428 151.539C99.0771 151.539 98.4893 151.279 98.0791 150.76C97.6689 150.213 97.3271 149.543 97.0537 148.75C96.8076 147.957 96.5889 147.096 96.3975 146.166C96.2334 145.209 96.0146 144.334 95.7412 143.541C95.4951 142.748 95.1396 142.092 94.6748 141.572C94.2373 141.025 93.6084 140.752 92.7881 140.752C92.4873 140.752 92.2002 141.053 91.9268 141.654C91.6533 142.256 91.4072 143.021 91.1885 143.951C90.9697 144.854 90.7646 145.838 90.5732 146.904C90.3818 147.943 90.2178 148.928 90.0811 149.857C89.9717 150.76 89.8896 151.525 89.835 152.154C89.7803 152.783 89.7529 153.098 89.7529 153.098C89.6982 153.18 89.5889 153.275 89.4248 153.385C89.2607 153.467 89.083 153.562 88.8916 153.672C88.7275 153.781 88.5498 153.863 88.3584 153.918C88.1943 153.973 88.0713 154 87.9893 154C87.2236 154 86.4854 153.658 85.7744 152.975C85.0635 152.264 84.4072 151.361 83.8057 150.268C83.2314 149.146 82.6982 147.916 82.2061 146.576C81.7412 145.236 81.3447 143.924 81.0166 142.639C80.6885 141.354 80.4287 140.191 80.2373 139.152C80.0732 138.113 79.9912 137.32 79.9912 136.773ZM116.003 136.773C116.003 136.09 116.112 135.557 116.331 135.174C116.577 134.791 117.083 134.6 117.849 134.6C117.931 134.6 118.081 134.613 118.3 134.641C118.546 134.641 118.696 134.641 118.751 134.641C118.942 135.488 119.134 136.418 119.325 137.43C119.544 138.414 119.79 139.412 120.063 140.424C120.337 141.436 120.638 142.434 120.966 143.418C121.321 144.402 121.745 145.291 122.237 146.084C122.729 145.564 123.085 144.949 123.304 144.238C123.522 143.527 123.687 142.816 123.796 142.105C123.905 141.367 124.001 140.67 124.083 140.014C124.192 139.33 124.397 138.756 124.698 138.291C124.999 137.799 125.437 137.443 126.011 137.225C126.612 137.006 127.433 137.006 128.472 137.225C129.62 137.225 130.536 137.443 131.22 137.881C131.903 138.291 132.491 138.824 132.983 139.48C133.503 140.109 133.995 140.793 134.46 141.531C134.952 142.242 135.567 142.885 136.306 143.459C136.47 143.104 136.675 142.666 136.921 142.146C137.167 141.6 137.468 141.039 137.823 140.465C138.206 139.863 138.603 139.275 139.013 138.701C139.45 138.1 139.901 137.566 140.366 137.102C140.831 136.609 141.31 136.213 141.802 135.912C142.294 135.584 142.772 135.42 143.237 135.42C144.358 135.42 145.329 135.775 146.149 136.486C146.97 137.17 147.667 138.045 148.241 139.111C148.843 140.15 149.335 141.326 149.718 142.639C150.101 143.924 150.401 145.168 150.62 146.371C150.839 147.574 150.989 148.682 151.071 149.693C151.181 150.678 151.235 151.389 151.235 151.826C151.235 152.182 151.153 152.455 150.989 152.646C150.825 152.838 150.62 152.988 150.374 153.098C150.128 153.18 149.854 153.234 149.554 153.262C149.28 153.289 149.021 153.303 148.774 153.303C148.72 153.303 148.638 153.303 148.528 153.303C148.419 153.275 148.296 153.248 148.159 153.221C148.05 153.193 147.899 153.152 147.708 153.098L145.042 140.834C145.042 140.752 144.933 140.602 144.714 140.383C144.495 140.137 144.331 139.986 144.222 139.932C144.14 139.932 144.071 139.918 144.017 139.891C143.962 139.891 143.921 139.891 143.894 139.891C143.866 139.863 143.839 139.85 143.812 139.85C143.237 139.85 142.69 140.082 142.171 140.547C141.679 141.012 141.214 141.6 140.776 142.311C140.339 143.021 139.929 143.814 139.546 144.689C139.163 145.564 138.821 146.439 138.521 147.314C138.22 148.162 137.946 148.955 137.7 149.693C137.481 150.404 137.304 150.951 137.167 151.334C137.058 151.389 136.839 151.443 136.511 151.498C136.183 151.525 135.964 151.539 135.854 151.539C135.089 151.539 134.501 151.279 134.091 150.76C133.681 150.213 133.339 149.543 133.065 148.75C132.819 147.957 132.601 147.096 132.409 146.166C132.245 145.209 132.026 144.334 131.753 143.541C131.507 142.748 131.151 142.092 130.687 141.572C130.249 141.025 129.62 140.752 128.8 140.752C128.499 140.752 128.212 141.053 127.938 141.654C127.665 142.256 127.419 143.021 127.2 143.951C126.981 144.854 126.776 145.838 126.585 146.904C126.394 147.943 126.229 148.928 126.093 149.857C125.983 150.76 125.901 151.525 125.847 152.154C125.792 152.783 125.765 153.098 125.765 153.098C125.71 153.18 125.601 153.275 125.437 153.385C125.272 153.467 125.095 153.562 124.903 153.672C124.739 153.781 124.562 153.863 124.37 153.918C124.206 153.973 124.083 154 124.001 154C123.235 154 122.497 153.658 121.786 152.975C121.075 152.264 120.419 151.361 119.817 150.268C119.243 149.146 118.71 147.916 118.218 146.576C117.753 145.236 117.356 143.924 117.028 142.639C116.7 141.354 116.44 140.191 116.249 139.152C116.085 138.113 116.003 137.32 116.003 136.773ZM170.554 148.709C169.515 149.42 168.612 150.062 167.847 150.637C167.108 151.184 166.384 151.648 165.673 152.031C164.962 152.414 164.196 152.701 163.376 152.893C162.583 153.084 161.599 153.18 160.423 153.18C157.88 153.18 155.993 152.51 154.763 151.17C153.532 149.803 152.917 147.779 152.917 145.1C152.917 144.061 153.054 142.98 153.327 141.859C153.601 140.738 153.997 139.631 154.517 138.537C155.063 137.416 155.706 136.363 156.444 135.379C157.183 134.367 158.017 133.479 158.946 132.713C159.876 131.947 160.86 131.346 161.899 130.908C162.966 130.443 164.087 130.211 165.263 130.211C167.231 130.402 168.776 130.895 169.897 131.688C171.019 132.453 171.866 133.451 172.44 134.682C173.015 135.885 173.411 137.238 173.63 138.742C173.849 140.219 174.013 141.75 174.122 143.336C174.259 144.922 174.423 146.508 174.614 148.094C174.806 149.68 175.202 151.143 175.804 152.482C175.448 153.385 175.106 154.014 174.778 154.369C174.478 154.752 174.136 154.82 173.753 154.574C173.37 154.328 172.919 153.727 172.399 152.77C171.907 151.812 171.292 150.459 170.554 148.709ZM156.403 145.182C156.403 146.74 156.69 147.889 157.265 148.627C157.866 149.338 158.919 149.693 160.423 149.693C161.544 149.693 162.61 149.502 163.622 149.119C164.661 148.709 165.563 148.162 166.329 147.479C167.095 146.768 167.71 145.92 168.175 144.936C168.64 143.951 168.872 142.857 168.872 141.654C168.872 141.162 168.886 140.479 168.913 139.604C168.94 138.701 168.886 137.812 168.749 136.938C168.612 136.062 168.353 135.311 167.97 134.682C167.587 134.025 167.013 133.697 166.247 133.697C164.825 133.697 163.513 134.066 162.31 134.805C161.106 135.516 160.067 136.432 159.192 137.553C158.317 138.674 157.634 139.918 157.142 141.285C156.649 142.625 156.403 143.924 156.403 145.182ZM179.372 130.785C179.372 129.992 179.317 129.227 179.208 128.488C179.099 127.723 179.071 127.053 179.126 126.479C179.181 125.877 179.386 125.398 179.741 125.043C180.124 124.688 180.808 124.51 181.792 124.51C182.093 125.139 182.38 126.096 182.653 127.381C182.954 128.666 183.241 130.143 183.515 131.811C183.788 133.479 184.048 135.297 184.294 137.266C184.54 139.207 184.759 141.162 184.95 143.131C185.169 145.1 185.347 147.041 185.483 148.955C185.647 150.842 185.771 152.564 185.853 154.123C184.95 154.725 184.226 154.766 183.679 154.246C183.132 153.727 182.681 152.852 182.325 151.621C181.97 150.363 181.696 148.846 181.505 147.068C181.313 145.264 181.122 143.404 180.931 141.49C180.767 139.549 180.562 137.648 180.315 135.789C180.069 133.902 179.755 132.234 179.372 130.785ZM195.86 152.154C196.298 151.854 196.817 151.471 197.419 151.006C198.048 150.514 198.677 149.994 199.306 149.447C199.935 148.9 200.522 148.326 201.069 147.725C201.616 147.123 202.04 146.549 202.341 146.002C202.669 145.428 202.833 144.895 202.833 144.402C202.833 143.91 202.587 143.5 202.095 143.172C201.22 143.172 200.263 143.213 199.224 143.295C198.185 143.35 197.146 143.377 196.106 143.377C195.067 143.35 194.056 143.254 193.071 143.09C192.114 142.926 191.253 142.625 190.487 142.188C189.722 141.75 189.106 141.135 188.642 140.342C188.204 139.521 187.985 138.482 187.985 137.225C187.985 135.748 188.259 134.422 188.806 133.246C189.38 132.043 190.132 130.99 191.062 130.088C191.991 129.158 193.03 128.352 194.179 127.668C195.354 126.957 196.53 126.355 197.706 125.863C198.417 126.055 199.073 126.396 199.675 126.889C200.276 127.381 200.796 127.928 201.233 128.529C201.042 129.131 200.659 129.596 200.085 129.924C199.538 130.252 198.896 130.539 198.157 130.785C197.446 131.031 196.694 131.291 195.901 131.564C195.108 131.838 194.384 132.207 193.728 132.672C193.099 133.109 192.565 133.697 192.128 134.436C191.69 135.146 191.472 136.09 191.472 137.266C191.472 138.141 191.69 138.783 192.128 139.193C192.565 139.604 193.14 139.891 193.851 140.055C194.562 140.191 195.368 140.246 196.271 140.219C197.173 140.164 198.089 140.096 199.019 140.014C199.976 139.932 200.905 139.891 201.808 139.891C202.71 139.863 203.517 139.973 204.228 140.219C204.938 140.438 205.499 140.807 205.909 141.326C206.347 141.846 206.565 142.611 206.565 143.623C206.565 144.061 206.415 144.621 206.114 145.305C205.841 145.988 205.458 146.727 204.966 147.52C204.501 148.285 203.94 149.051 203.284 149.816C202.655 150.582 201.985 151.279 201.274 151.908C200.591 152.51 199.894 153.016 199.183 153.426C198.499 153.809 197.856 154 197.255 154C196.681 154 196.298 153.795 196.106 153.385C195.942 152.975 195.86 152.564 195.86 152.154ZM416.483 175.82C418.015 175.82 419.382 175.533 420.585 174.959C421.788 174.412 422.8 173.646 423.62 172.662C424.468 171.705 425.11 170.598 425.548 169.34C426.013 168.109 426.245 166.824 426.245 165.484C426.245 164.801 426.204 163.898 426.122 162.777C426.067 161.656 425.972 160.439 425.835 159.127C425.698 157.814 425.493 156.475 425.22 155.107C424.974 153.74 424.659 152.455 424.276 151.252C423.894 150.021 423.415 148.955 422.841 148.053C422.294 147.123 421.651 146.467 420.913 146.084C420.202 146.631 419.505 147.137 418.821 147.602C418.138 148.039 417.427 148.408 416.688 148.709C415.95 149.01 415.185 149.256 414.392 149.447C413.599 149.611 412.751 149.693 411.849 149.693C410.673 149.693 409.661 149.584 408.813 149.365C407.993 149.146 407.296 148.777 406.722 148.258C406.175 147.738 405.765 147.055 405.491 146.207C405.218 145.359 405.081 144.293 405.081 143.008C405.081 142.105 405.3 141.23 405.737 140.383C406.175 139.508 406.749 138.701 407.46 137.963C408.198 137.197 409.019 136.5 409.921 135.871C410.851 135.242 411.794 134.695 412.751 134.23C413.735 133.766 414.692 133.41 415.622 133.164C416.579 132.918 417.427 132.795 418.165 132.795C418.876 132.795 419.464 132.822 419.929 132.877C420.394 132.904 420.79 133.014 421.118 133.205C421.446 133.369 421.72 133.643 421.938 134.025C422.185 134.381 422.417 134.873 422.636 135.502C423.265 137.635 423.989 139.932 424.81 142.393C425.63 144.854 426.409 147.383 427.147 149.98C427.886 152.578 428.501 155.189 428.993 157.814C429.513 160.467 429.772 163.023 429.772 165.484C429.772 167.672 429.458 169.518 428.829 171.021C428.228 172.553 427.421 173.797 426.409 174.754C425.425 175.738 424.29 176.49 423.005 177.01C421.747 177.529 420.476 177.857 419.19 177.994C417.905 178.158 416.661 178.199 415.458 178.117C414.255 178.035 413.216 177.871 412.341 177.625C411.466 177.406 410.796 177.146 410.331 176.846C409.894 176.545 409.784 176.285 410.003 176.066C410.249 175.875 410.878 175.738 411.89 175.656C412.901 175.574 414.433 175.629 416.483 175.82ZM417.058 136.24C415.034 136.678 413.394 137.293 412.136 138.086C410.905 138.852 409.976 139.686 409.347 140.588C408.745 141.463 408.417 142.352 408.362 143.254C408.308 144.129 408.472 144.881 408.854 145.51C409.237 146.139 409.784 146.617 410.495 146.945C411.233 147.246 412.067 147.26 412.997 146.986C413.927 146.686 414.911 146.057 415.95 145.1C417.017 144.143 418.083 142.721 419.149 140.834C419.149 140.369 419.149 139.863 419.149 139.316C419.177 138.77 419.136 138.277 419.026 137.84C418.917 137.375 418.712 136.992 418.411 136.691C418.11 136.391 417.659 136.24 417.058 136.24ZM431.372 138.619C431.372 138.455 431.372 138.195 431.372 137.84C431.399 137.457 431.413 137.061 431.413 136.65C431.44 136.24 431.454 135.844 431.454 135.461C431.481 135.078 431.495 134.805 431.495 134.641C431.796 134.203 432.179 133.848 432.644 133.574C433.136 133.301 433.628 133.082 434.12 132.918C434.202 134.395 434.435 135.967 434.817 137.635C435.2 139.303 435.61 140.984 436.048 142.68C436.485 144.348 436.868 146.002 437.196 147.643C437.552 149.283 437.729 150.814 437.729 152.236C437.729 153.467 437.101 154.082 435.843 154.082C435.077 154.082 434.435 153.768 433.915 153.139C433.396 152.51 432.972 151.717 432.644 150.76C432.343 149.775 432.097 148.695 431.905 147.52C431.714 146.316 431.577 145.141 431.495 143.992C431.44 142.844 431.399 141.791 431.372 140.834C431.372 139.877 431.372 139.139 431.372 138.619ZM431.946 123.238C432.466 123.457 432.903 123.812 433.259 124.305C433.614 124.797 433.765 125.248 433.71 125.658C433.683 126.041 433.382 126.314 432.808 126.479C432.233 126.615 431.276 126.451 429.937 125.986C429.937 125.248 430.073 124.605 430.347 124.059C430.647 123.512 431.181 123.238 431.946 123.238ZM439.083 132.631C439.274 131.975 439.493 131.674 439.739 131.729C440.013 131.783 440.341 132.098 440.724 132.672C441.106 133.246 441.53 134.012 441.995 134.969C442.487 135.926 443.007 136.965 443.554 138.086C444.101 139.18 444.688 140.301 445.317 141.449C445.974 142.598 446.644 143.65 447.327 144.607C448.038 145.564 448.776 146.357 449.542 146.986C450.335 147.615 451.142 147.984 451.962 148.094L455.243 131.113C455.298 130.648 455.503 130.389 455.858 130.334C456.241 130.252 456.61 130.211 456.966 130.211C458.196 130.211 458.812 130.785 458.812 131.934C458.812 132.535 458.757 133.492 458.647 134.805C458.538 136.117 458.36 137.566 458.114 139.152C457.868 140.711 457.567 142.324 457.212 143.992C456.856 145.633 456.433 147.137 455.94 148.504C455.448 149.871 454.874 150.992 454.218 151.867C453.589 152.742 452.892 153.18 452.126 153.18C451.005 153.18 449.897 152.811 448.804 152.072C447.71 151.307 446.671 150.322 445.687 149.119C444.729 147.889 443.841 146.521 443.021 145.018C442.228 143.514 441.53 142.01 440.929 140.506C440.354 138.975 439.903 137.512 439.575 136.117C439.247 134.723 439.083 133.561 439.083 132.631ZM461.272 142.598C461.272 141.121 461.45 139.645 461.806 138.168C462.161 136.691 462.722 135.365 463.487 134.189C464.28 133.014 465.292 132.057 466.522 131.318C467.78 130.58 469.298 130.211 471.075 130.211C472.087 130.211 472.976 130.402 473.741 130.785C474.507 131.141 475.149 131.619 475.669 132.221C476.188 132.822 476.571 133.533 476.817 134.354C477.091 135.146 477.228 135.98 477.228 136.855C477.228 138.25 476.899 139.604 476.243 140.916C475.614 142.229 474.753 143.391 473.659 144.402C472.593 145.387 471.362 146.139 469.968 146.658C468.573 147.15 467.151 147.26 465.702 146.986C465.729 147.779 465.989 148.422 466.481 148.914C467.001 149.379 467.616 149.734 468.327 149.98C469.038 150.227 469.776 150.391 470.542 150.473C471.308 150.527 471.991 150.555 472.593 150.555C473.222 150.555 473.81 150.5 474.356 150.391C474.903 150.281 475.45 150.158 475.997 150.021C476.544 149.885 477.091 149.762 477.638 149.652C478.212 149.543 478.813 149.488 479.442 149.488C479.688 149.488 479.935 149.502 480.181 149.529C480.427 149.557 480.659 149.625 480.878 149.734C481.097 149.816 481.274 149.967 481.411 150.186C481.548 150.377 481.616 150.623 481.616 150.924C481.616 151.443 481.425 151.881 481.042 152.236C480.659 152.564 480.167 152.852 479.565 153.098C478.991 153.344 478.349 153.535 477.638 153.672C476.927 153.781 476.229 153.877 475.546 153.959C474.89 154.014 474.274 154.041 473.7 154.041C473.153 154.068 472.743 154.082 472.47 154.082C470.72 154.082 469.147 153.809 467.753 153.262C466.358 152.688 465.183 151.908 464.226 150.924C463.269 149.912 462.53 148.709 462.011 147.314C461.519 145.893 461.272 144.32 461.272 142.598ZM465.62 139.932C465.62 140.889 465.743 141.586 465.989 142.023C466.263 142.461 466.905 142.68 467.917 142.68C468.628 142.68 469.325 142.557 470.009 142.311C470.692 142.037 471.308 141.668 471.854 141.203C472.429 140.738 472.88 140.191 473.208 139.562C473.536 138.934 473.7 138.25 473.7 137.512C473.7 137.102 473.659 136.678 473.577 136.24C473.522 135.803 473.386 135.406 473.167 135.051C472.948 134.668 472.661 134.367 472.306 134.148C471.978 133.902 471.54 133.779 470.993 133.779C470.173 133.779 469.421 133.971 468.737 134.354C468.081 134.709 467.521 135.188 467.056 135.789C466.591 136.363 466.235 137.02 465.989 137.758C465.743 138.469 465.62 139.193 465.62 139.932ZM52.2646 194.236C51.417 191.775 50.6104 189.479 49.8447 187.346C49.1064 185.186 48.4502 183.08 47.876 181.029C47.3291 178.951 46.8916 176.846 46.5635 174.713C46.2354 172.58 46.0713 170.297 46.0713 167.863C46.0713 167.672 46.0713 167.33 46.0713 166.838C46.0986 166.318 46.1123 165.785 46.1123 165.238C46.1123 164.691 46.1123 164.172 46.1123 163.68C46.1396 163.16 46.1533 162.805 46.1533 162.613C46.3994 162.066 46.8232 161.561 47.4248 161.096C48.0537 160.631 48.6826 160.398 49.3115 160.398C49.3115 162.422 49.3389 164.582 49.3936 166.879C49.4482 169.148 49.6123 171.418 49.8857 173.688C50.1865 175.957 50.6514 178.186 51.2803 180.373C51.9365 182.533 52.8525 184.516 54.0283 186.32C54.0557 185.664 54.083 184.939 54.1104 184.146C54.1377 183.354 54.2061 182.561 54.3154 181.768C54.4521 180.975 54.6572 180.209 54.9307 179.471C55.2041 178.732 55.6006 178.076 56.1201 177.502C56.667 176.928 57.3643 176.477 58.2119 176.148C59.0869 175.82 60.1807 175.67 61.4932 175.697C62.6689 175.697 63.7217 175.916 64.6514 176.354C65.6084 176.791 66.4014 177.393 67.0303 178.158C67.6865 178.896 68.1787 179.771 68.5068 180.783C68.8623 181.768 69.04 182.82 69.04 183.941C69.04 185.445 68.6709 186.922 67.9326 188.371C67.1943 189.82 66.21 191.119 64.9795 192.268C63.7764 193.416 62.4229 194.346 60.9189 195.057C59.415 195.74 57.8838 196.082 56.3252 196.082C55.5322 196.082 54.7666 195.945 54.0283 195.672C53.29 195.371 52.7021 194.893 52.2646 194.236ZM61.9854 179.266C61.4385 179.566 60.8643 179.922 60.2627 180.332C59.6611 180.742 59.1006 181.385 58.5811 182.26C58.0889 183.107 57.665 184.27 57.3096 185.746C56.9541 187.223 56.7354 189.178 56.6533 191.611C56.708 191.611 56.8447 191.625 57.0635 191.652C57.3096 191.68 57.4736 191.693 57.5557 191.693C58.2939 191.693 59.1279 191.461 60.0576 190.996C61.0146 190.531 61.9307 189.957 62.8057 189.273C63.708 188.59 64.4873 187.838 65.1436 187.018C65.7998 186.17 66.1963 185.363 66.333 184.598C66.415 184.133 66.3193 183.6 66.0459 182.998C65.7725 182.396 65.4033 181.822 64.9385 181.275C64.501 180.701 64.0088 180.223 63.4619 179.84C62.9424 179.457 62.4502 179.266 61.9854 179.266ZM73.2646 180.619C73.2646 180.455 73.2646 180.195 73.2646 179.84C73.292 179.457 73.3057 179.061 73.3057 178.65C73.333 178.24 73.3467 177.844 73.3467 177.461C73.374 177.078 73.3877 176.805 73.3877 176.641C73.6885 176.203 74.0713 175.848 74.5361 175.574C75.0283 175.301 75.5205 175.082 76.0127 174.918C76.0947 176.395 76.3271 177.967 76.71 179.635C77.0928 181.303 77.5029 182.984 77.9404 184.68C78.3779 186.348 78.7607 188.002 79.0889 189.643C79.4443 191.283 79.6221 192.814 79.6221 194.236C79.6221 195.467 78.9932 196.082 77.7354 196.082C76.9697 196.082 76.3271 195.768 75.8076 195.139C75.2881 194.51 74.8643 193.717 74.5361 192.76C74.2354 191.775 73.9893 190.695 73.7979 189.52C73.6064 188.316 73.4697 187.141 73.3877 185.992C73.333 184.844 73.292 183.791 73.2646 182.834C73.2646 181.877 73.2646 181.139 73.2646 180.619ZM73.8389 165.238C74.3584 165.457 74.7959 165.812 75.1514 166.305C75.5068 166.797 75.6572 167.248 75.6025 167.658C75.5752 168.041 75.2744 168.314 74.7002 168.479C74.126 168.615 73.1689 168.451 71.8291 167.986C71.8291 167.248 71.9658 166.605 72.2393 166.059C72.54 165.512 73.0732 165.238 73.8389 165.238ZM81.2217 178.773C81.2217 178.527 81.2354 178.281 81.2627 178.035C81.29 177.762 81.3447 177.529 81.4268 177.338C81.5088 177.119 81.6318 176.941 81.7959 176.805C81.9873 176.668 82.2471 176.6 82.5752 176.6C82.8486 176.6 83.1494 176.818 83.4775 177.256C83.833 177.666 84.1885 178.199 84.5439 178.855C84.8994 179.484 85.2412 180.182 85.5693 180.947C85.9248 181.713 86.2256 182.424 86.4717 183.08C86.7451 183.709 86.9639 184.256 87.1279 184.721C87.292 185.186 87.3877 185.432 87.415 185.459C87.7705 184.502 88.167 183.463 88.6045 182.342C89.042 181.221 89.5752 180.182 90.2041 179.225C90.8604 178.24 91.626 177.42 92.501 176.764C93.4033 176.107 94.4971 175.779 95.7822 175.779C96.4385 175.779 97.0537 175.889 97.6279 176.107C98.2295 176.299 98.749 176.6 99.1865 177.01C99.6514 177.393 100.021 177.857 100.294 178.404C100.567 178.951 100.704 179.58 100.704 180.291C100.704 180.893 100.458 181.316 99.9658 181.562C99.501 181.809 98.9678 181.932 98.3662 181.932H97.9561L96.1924 180.168C96.1377 180.168 96.0967 180.154 96.0693 180.127C96.0146 180.127 95.96 180.127 95.9053 180.127C95.8779 180.1 95.8369 180.086 95.7822 180.086C94.8252 180.086 94.0732 180.359 93.5264 180.906C93.0068 181.426 92.6104 182.082 92.3369 182.875C92.0635 183.641 91.8857 184.461 91.8037 185.336C91.749 186.184 91.7217 186.963 91.7217 187.674C91.7217 188.221 91.7764 188.781 91.8857 189.355C91.9951 189.902 92.1182 190.449 92.2549 190.996C92.3916 191.516 92.5146 192.062 92.624 192.637C92.7334 193.184 92.7881 193.758 92.7881 194.359C92.7881 195.508 92.1729 196.082 90.9424 196.082C90.2588 196.082 89.5479 195.727 88.8096 195.016C88.0713 194.277 87.333 193.348 86.5947 192.227C85.8838 191.105 85.2002 189.875 84.5439 188.535C83.8877 187.168 83.3135 185.842 82.8213 184.557C82.3291 183.271 81.9326 182.109 81.6318 181.07C81.3584 180.031 81.2217 179.266 81.2217 178.773ZM101.278 175.328C101.278 175.246 101.292 175.178 101.319 175.123C101.319 175.068 101.333 175 101.36 174.918C101.47 174.781 101.634 174.604 101.853 174.385C102.071 174.166 102.208 174.057 102.263 174.057H110.507C110.507 173.756 110.466 173.277 110.384 172.621C110.302 171.965 110.22 171.24 110.138 170.447C110.083 169.654 110.069 168.834 110.097 167.986C110.124 167.111 110.233 166.332 110.425 165.648C110.644 164.938 110.972 164.363 111.409 163.926C111.874 163.461 112.517 163.229 113.337 163.229C113.337 165.99 113.528 168.205 113.911 169.873C114.294 171.541 114.8 172.826 115.429 173.729C116.085 174.631 116.823 175.219 117.644 175.492C118.464 175.766 119.298 175.889 120.146 175.861C121.021 175.807 121.868 175.67 122.688 175.451C123.509 175.232 124.233 175.082 124.862 175C125.519 174.918 126.038 174.986 126.421 175.205C126.804 175.396 126.995 175.875 126.995 176.641C126.995 177.215 126.858 177.625 126.585 177.871C126.339 178.117 125.847 178.309 125.108 178.445C124.89 178.473 124.521 178.527 124.001 178.609C123.509 178.664 122.948 178.719 122.319 178.773C121.69 178.828 121.021 178.896 120.31 178.979C119.599 179.033 118.929 179.088 118.3 179.143C117.671 179.197 117.097 179.238 116.577 179.266C116.058 179.266 115.675 179.266 115.429 179.266C115.429 179.402 115.415 179.635 115.388 179.963C115.36 180.291 115.347 180.51 115.347 180.619C115.347 181.822 115.538 182.998 115.921 184.146C116.304 185.268 116.714 186.389 117.151 187.51C117.616 188.631 118.04 189.752 118.423 190.873C118.806 191.994 118.997 193.156 118.997 194.359C118.997 194.578 118.97 194.811 118.915 195.057C118.888 195.275 118.806 195.48 118.669 195.672C118.56 195.836 118.382 195.959 118.136 196.041C117.917 196.15 117.603 196.137 117.192 196C116.153 195.727 115.374 195.139 114.854 194.236C114.362 193.334 113.993 192.268 113.747 191.037C113.501 189.779 113.337 188.453 113.255 187.059C113.173 185.664 113.036 184.365 112.845 183.162C112.681 181.932 112.407 180.893 112.024 180.045C111.642 179.17 111.026 178.637 110.179 178.445L102.263 176.641C102.153 176.641 101.989 176.531 101.771 176.312C101.552 176.066 101.415 175.889 101.36 175.779C101.333 175.725 101.319 175.656 101.319 175.574C101.292 175.52 101.278 175.438 101.278 175.328ZM129.743 169.34C129.743 169.039 129.771 168.67 129.825 168.232C129.907 167.768 130.03 167.33 130.194 166.92C130.386 166.51 130.618 166.168 130.892 165.895C131.165 165.594 131.521 165.443 131.958 165.443C131.985 165.443 132.054 165.457 132.163 165.484C132.272 165.512 132.341 165.525 132.368 165.525C132.833 167.221 133.106 168.902 133.188 170.57C133.271 172.238 133.243 173.865 133.106 175.451C132.97 177.01 132.765 178.527 132.491 180.004C132.218 181.453 131.985 182.793 131.794 184.023C131.63 185.254 131.521 186.361 131.466 187.346C131.438 188.33 131.589 189.164 131.917 189.848C131.862 189.41 131.821 188.891 131.794 188.289C131.794 187.66 131.849 187.018 131.958 186.361C132.095 185.705 132.3 185.049 132.573 184.393C132.874 183.736 133.298 183.148 133.845 182.629C134.392 182.109 135.089 181.699 135.937 181.398C136.812 181.098 137.892 180.947 139.177 180.947C140.517 180.947 141.665 181.18 142.622 181.645C143.606 182.109 144.413 182.752 145.042 183.572C145.671 184.365 146.136 185.309 146.437 186.402C146.765 187.469 146.929 188.617 146.929 189.848C146.929 190.422 146.915 191.078 146.888 191.816C146.888 192.527 146.792 193.197 146.601 193.826C146.437 194.428 146.122 194.947 145.657 195.385C145.22 195.795 144.563 196 143.688 196C143.688 195.562 143.716 194.975 143.771 194.236C143.825 193.471 143.853 192.664 143.853 191.816C143.88 190.969 143.853 190.107 143.771 189.232C143.716 188.357 143.538 187.578 143.237 186.895C142.937 186.184 142.513 185.609 141.966 185.172C141.446 184.707 140.722 184.475 139.792 184.475C139.464 184.475 139.054 184.502 138.562 184.557C138.097 184.584 137.618 184.707 137.126 184.926C136.634 185.145 136.155 185.486 135.69 185.951C135.226 186.389 134.856 187.004 134.583 187.797C134.31 188.562 134.146 189.547 134.091 190.75C134.063 191.926 134.214 193.375 134.542 195.098C134.351 195.59 134.104 195.877 133.804 195.959C133.53 196.041 133.175 196.082 132.737 196.082C131.862 196.082 131.138 195.781 130.563 195.18C130.017 194.551 129.593 193.717 129.292 192.678C128.991 191.639 128.786 190.436 128.677 189.068C128.595 187.701 128.567 186.279 128.595 184.803C128.622 183.299 128.69 181.781 128.8 180.25C128.937 178.691 129.06 177.229 129.169 175.861C129.306 174.467 129.429 173.209 129.538 172.088C129.675 170.939 129.743 170.023 129.743 169.34ZM166.575 175.328C166.575 175.246 166.589 175.178 166.616 175.123C166.616 175.068 166.63 175 166.657 174.918C166.767 174.781 166.931 174.604 167.149 174.385C167.368 174.166 167.505 174.057 167.56 174.057H175.804C175.804 173.756 175.763 173.277 175.681 172.621C175.599 171.965 175.517 171.24 175.435 170.447C175.38 169.654 175.366 168.834 175.394 167.986C175.421 167.111 175.53 166.332 175.722 165.648C175.94 164.938 176.269 164.363 176.706 163.926C177.171 163.461 177.813 163.229 178.634 163.229C178.634 165.99 178.825 168.205 179.208 169.873C179.591 171.541 180.097 172.826 180.726 173.729C181.382 174.631 182.12 175.219 182.94 175.492C183.761 175.766 184.595 175.889 185.442 175.861C186.317 175.807 187.165 175.67 187.985 175.451C188.806 175.232 189.53 175.082 190.159 175C190.815 174.918 191.335 174.986 191.718 175.205C192.101 175.396 192.292 175.875 192.292 176.641C192.292 177.215 192.155 177.625 191.882 177.871C191.636 178.117 191.144 178.309 190.405 178.445C190.187 178.473 189.817 178.527 189.298 178.609C188.806 178.664 188.245 178.719 187.616 178.773C186.987 178.828 186.317 178.896 185.606 178.979C184.896 179.033 184.226 179.088 183.597 179.143C182.968 179.197 182.394 179.238 181.874 179.266C181.354 179.266 180.972 179.266 180.726 179.266C180.726 179.402 180.712 179.635 180.685 179.963C180.657 180.291 180.644 180.51 180.644 180.619C180.644 181.822 180.835 182.998 181.218 184.146C181.601 185.268 182.011 186.389 182.448 187.51C182.913 188.631 183.337 189.752 183.72 190.873C184.103 191.994 184.294 193.156 184.294 194.359C184.294 194.578 184.267 194.811 184.212 195.057C184.185 195.275 184.103 195.48 183.966 195.672C183.856 195.836 183.679 195.959 183.433 196.041C183.214 196.15 182.899 196.137 182.489 196C181.45 195.727 180.671 195.139 180.151 194.236C179.659 193.334 179.29 192.268 179.044 191.037C178.798 189.779 178.634 188.453 178.552 187.059C178.47 185.664 178.333 184.365 178.142 183.162C177.978 181.932 177.704 180.893 177.321 180.045C176.938 179.17 176.323 178.637 175.476 178.445L167.56 176.641C167.45 176.641 167.286 176.531 167.067 176.312C166.849 176.066 166.712 175.889 166.657 175.779C166.63 175.725 166.616 175.656 166.616 175.574C166.589 175.52 166.575 175.438 166.575 175.328ZM193.851 187.674C193.851 185.979 194.247 184.406 195.04 182.957C195.833 181.48 196.872 180.223 198.157 179.184C199.47 178.117 200.933 177.283 202.546 176.682C204.187 176.08 205.841 175.779 207.509 175.779C208.438 175.779 209.259 176.08 209.97 176.682C210.708 177.283 211.323 178.021 211.815 178.896C212.308 179.744 212.677 180.646 212.923 181.604C213.196 182.561 213.333 183.395 213.333 184.105C213.333 185.637 212.964 187.127 212.226 188.576C211.487 189.998 210.53 191.27 209.354 192.391C208.179 193.484 206.853 194.373 205.376 195.057C203.899 195.74 202.423 196.082 200.946 196.082C199.634 196.082 198.526 195.863 197.624 195.426C196.722 194.961 195.997 194.359 195.45 193.621C194.903 192.855 194.493 191.967 194.22 190.955C193.974 189.916 193.851 188.822 193.851 187.674ZM197.337 188.084C197.337 188.795 197.392 189.424 197.501 189.971C197.638 190.49 197.856 190.941 198.157 191.324C198.485 191.707 198.909 192.008 199.429 192.227C199.948 192.418 200.591 192.514 201.356 192.514C202.368 192.514 203.38 192.24 204.392 191.693C205.403 191.119 206.306 190.408 207.099 189.561C207.919 188.686 208.575 187.729 209.067 186.689C209.56 185.65 209.806 184.639 209.806 183.654C209.806 183.217 209.765 182.738 209.683 182.219C209.601 181.699 209.464 181.221 209.272 180.783C209.081 180.346 208.808 179.977 208.452 179.676C208.097 179.375 207.646 179.225 207.099 179.225C206.606 179.225 206.019 179.389 205.335 179.717C204.679 180.045 203.981 180.469 203.243 180.988C202.532 181.508 201.821 182.096 201.11 182.752C200.427 183.408 199.798 184.064 199.224 184.721C198.649 185.377 198.185 186.006 197.829 186.607C197.501 187.209 197.337 187.701 197.337 188.084ZM234.825 172.785C234.825 171.992 234.771 171.227 234.661 170.488C234.552 169.723 234.524 169.053 234.579 168.479C234.634 167.877 234.839 167.398 235.194 167.043C235.577 166.688 236.261 166.51 237.245 166.51C237.546 167.139 237.833 168.096 238.106 169.381C238.407 170.666 238.694 172.143 238.968 173.811C239.241 175.479 239.501 177.297 239.747 179.266C239.993 181.207 240.212 183.162 240.403 185.131C240.622 187.1 240.8 189.041 240.937 190.955C241.101 192.842 241.224 194.564 241.306 196.123C240.403 196.725 239.679 196.766 239.132 196.246C238.585 195.727 238.134 194.852 237.778 193.621C237.423 192.363 237.149 190.846 236.958 189.068C236.767 187.264 236.575 185.404 236.384 183.49C236.22 181.549 236.015 179.648 235.769 177.789C235.522 175.902 235.208 174.234 234.825 172.785ZM245.161 180.619C245.161 180.455 245.161 180.195 245.161 179.84C245.188 179.457 245.202 179.061 245.202 178.65C245.229 178.24 245.243 177.844 245.243 177.461C245.271 177.078 245.284 176.805 245.284 176.641C245.585 176.203 245.968 175.848 246.433 175.574C246.925 175.301 247.417 175.082 247.909 174.918C247.991 176.395 248.224 177.967 248.606 179.635C248.989 181.303 249.399 182.984 249.837 184.68C250.274 186.348 250.657 188.002 250.985 189.643C251.341 191.283 251.519 192.814 251.519 194.236C251.519 195.467 250.89 196.082 249.632 196.082C248.866 196.082 248.224 195.768 247.704 195.139C247.185 194.51 246.761 193.717 246.433 192.76C246.132 191.775 245.886 190.695 245.694 189.52C245.503 188.316 245.366 187.141 245.284 185.992C245.229 184.844 245.188 183.791 245.161 182.834C245.161 181.877 245.161 181.139 245.161 180.619ZM245.735 165.238C246.255 165.457 246.692 165.812 247.048 166.305C247.403 166.797 247.554 167.248 247.499 167.658C247.472 168.041 247.171 168.314 246.597 168.479C246.022 168.615 245.065 168.451 243.726 167.986C243.726 167.248 243.862 166.605 244.136 166.059C244.437 165.512 244.97 165.238 245.735 165.238ZM252.872 174.631C253.063 173.975 253.282 173.674 253.528 173.729C253.802 173.783 254.13 174.098 254.513 174.672C254.896 175.246 255.319 176.012 255.784 176.969C256.276 177.926 256.796 178.965 257.343 180.086C257.89 181.18 258.478 182.301 259.106 183.449C259.763 184.598 260.433 185.65 261.116 186.607C261.827 187.564 262.565 188.357 263.331 188.986C264.124 189.615 264.931 189.984 265.751 190.094L269.032 173.113C269.087 172.648 269.292 172.389 269.647 172.334C270.03 172.252 270.399 172.211 270.755 172.211C271.985 172.211 272.601 172.785 272.601 173.934C272.601 174.535 272.546 175.492 272.437 176.805C272.327 178.117 272.149 179.566 271.903 181.152C271.657 182.711 271.356 184.324 271.001 185.992C270.646 187.633 270.222 189.137 269.729 190.504C269.237 191.871 268.663 192.992 268.007 193.867C267.378 194.742 266.681 195.18 265.915 195.18C264.794 195.18 263.687 194.811 262.593 194.072C261.499 193.307 260.46 192.322 259.476 191.119C258.519 189.889 257.63 188.521 256.81 187.018C256.017 185.514 255.319 184.01 254.718 182.506C254.144 180.975 253.692 179.512 253.364 178.117C253.036 176.723 252.872 175.561 252.872 174.631ZM275.062 184.598C275.062 183.121 275.239 181.645 275.595 180.168C275.95 178.691 276.511 177.365 277.276 176.189C278.069 175.014 279.081 174.057 280.312 173.318C281.569 172.58 283.087 172.211 284.864 172.211C285.876 172.211 286.765 172.402 287.53 172.785C288.296 173.141 288.938 173.619 289.458 174.221C289.978 174.822 290.36 175.533 290.606 176.354C290.88 177.146 291.017 177.98 291.017 178.855C291.017 180.25 290.688 181.604 290.032 182.916C289.403 184.229 288.542 185.391 287.448 186.402C286.382 187.387 285.151 188.139 283.757 188.658C282.362 189.15 280.94 189.26 279.491 188.986C279.519 189.779 279.778 190.422 280.271 190.914C280.79 191.379 281.405 191.734 282.116 191.98C282.827 192.227 283.565 192.391 284.331 192.473C285.097 192.527 285.78 192.555 286.382 192.555C287.011 192.555 287.599 192.5 288.146 192.391C288.692 192.281 289.239 192.158 289.786 192.021C290.333 191.885 290.88 191.762 291.427 191.652C292.001 191.543 292.603 191.488 293.231 191.488C293.478 191.488 293.724 191.502 293.97 191.529C294.216 191.557 294.448 191.625 294.667 191.734C294.886 191.816 295.063 191.967 295.2 192.186C295.337 192.377 295.405 192.623 295.405 192.924C295.405 193.443 295.214 193.881 294.831 194.236C294.448 194.564 293.956 194.852 293.354 195.098C292.78 195.344 292.138 195.535 291.427 195.672C290.716 195.781 290.019 195.877 289.335 195.959C288.679 196.014 288.063 196.041 287.489 196.041C286.942 196.068 286.532 196.082 286.259 196.082C284.509 196.082 282.937 195.809 281.542 195.262C280.147 194.688 278.972 193.908 278.015 192.924C277.058 191.912 276.319 190.709 275.8 189.314C275.308 187.893 275.062 186.32 275.062 184.598ZM279.409 181.932C279.409 182.889 279.532 183.586 279.778 184.023C280.052 184.461 280.694 184.68 281.706 184.68C282.417 184.68 283.114 184.557 283.798 184.311C284.481 184.037 285.097 183.668 285.644 183.203C286.218 182.738 286.669 182.191 286.997 181.562C287.325 180.934 287.489 180.25 287.489 179.512C287.489 179.102 287.448 178.678 287.366 178.24C287.312 177.803 287.175 177.406 286.956 177.051C286.737 176.668 286.45 176.367 286.095 176.148C285.767 175.902 285.329 175.779 284.782 175.779C283.962 175.779 283.21 175.971 282.526 176.354C281.87 176.709 281.31 177.188 280.845 177.789C280.38 178.363 280.024 179.02 279.778 179.758C279.532 180.469 279.409 181.193 279.409 181.932ZM316.159 174.795C316.159 174.549 316.159 174.303 316.159 174.057C316.187 173.783 316.241 173.537 316.323 173.318C316.433 173.072 316.569 172.895 316.733 172.785C316.925 172.648 317.198 172.58 317.554 172.58C317.581 172.58 317.608 172.58 317.636 172.58C317.69 172.58 317.745 172.58 317.8 172.58C317.882 172.607 317.95 172.621 318.005 172.621C318.524 173.332 318.976 174.248 319.358 175.369C319.741 176.463 320.11 177.639 320.466 178.896C320.821 180.127 321.204 181.385 321.614 182.67C322.024 183.928 322.558 185.062 323.214 186.074C323.87 187.086 324.677 187.893 325.634 188.494C326.591 189.096 327.78 189.355 329.202 189.273C329.831 189.273 330.241 188.932 330.433 188.248C330.624 187.564 330.72 186.689 330.72 185.623C330.747 184.557 330.72 183.381 330.638 182.096C330.583 180.811 330.583 179.594 330.638 178.445C330.72 177.27 330.925 176.244 331.253 175.369C331.608 174.494 332.21 173.906 333.058 173.605C333.413 174.316 333.7 175.438 333.919 176.969C334.165 178.473 334.343 180.223 334.452 182.219C334.562 184.188 334.616 186.334 334.616 188.658C334.616 190.955 334.562 193.252 334.452 195.549C334.343 197.818 334.179 200.006 333.96 202.111C333.741 204.217 333.495 206.062 333.222 207.648C332.948 209.234 332.62 210.479 332.237 211.381C331.882 212.311 331.499 212.707 331.089 212.57C330.515 212.023 330.063 211.312 329.735 210.438C329.435 209.562 329.216 208.592 329.079 207.525C328.97 206.459 328.929 205.324 328.956 204.121C328.983 202.945 329.024 201.756 329.079 200.553C329.161 199.35 329.243 198.174 329.325 197.025C329.435 195.877 329.489 194.824 329.489 193.867C328.505 193.949 327.493 193.799 326.454 193.416C325.442 193.033 324.444 192.445 323.46 191.652C322.476 190.832 321.532 189.848 320.63 188.699C319.755 187.551 318.976 186.252 318.292 184.803C317.636 183.354 317.116 181.795 316.733 180.127C316.351 178.432 316.159 176.654 316.159 174.795ZM337.077 187.674C337.077 185.979 337.474 184.406 338.267 182.957C339.06 181.48 340.099 180.223 341.384 179.184C342.696 178.117 344.159 177.283 345.772 176.682C347.413 176.08 349.067 175.779 350.735 175.779C351.665 175.779 352.485 176.08 353.196 176.682C353.935 177.283 354.55 178.021 355.042 178.896C355.534 179.744 355.903 180.646 356.149 181.604C356.423 182.561 356.56 183.395 356.56 184.105C356.56 185.637 356.19 187.127 355.452 188.576C354.714 189.998 353.757 191.27 352.581 192.391C351.405 193.484 350.079 194.373 348.603 195.057C347.126 195.74 345.649 196.082 344.173 196.082C342.86 196.082 341.753 195.863 340.851 195.426C339.948 194.961 339.224 194.359 338.677 193.621C338.13 192.855 337.72 191.967 337.446 190.955C337.2 189.916 337.077 188.822 337.077 187.674ZM340.563 188.084C340.563 188.795 340.618 189.424 340.728 189.971C340.864 190.49 341.083 190.941 341.384 191.324C341.712 191.707 342.136 192.008 342.655 192.227C343.175 192.418 343.817 192.514 344.583 192.514C345.595 192.514 346.606 192.24 347.618 191.693C348.63 191.119 349.532 190.408 350.325 189.561C351.146 188.686 351.802 187.729 352.294 186.689C352.786 185.65 353.032 184.639 353.032 183.654C353.032 183.217 352.991 182.738 352.909 182.219C352.827 181.699 352.69 181.221 352.499 180.783C352.308 180.346 352.034 179.977 351.679 179.676C351.323 179.375 350.872 179.225 350.325 179.225C349.833 179.225 349.245 179.389 348.562 179.717C347.905 180.045 347.208 180.469 346.47 180.988C345.759 181.508 345.048 182.096 344.337 182.752C343.653 183.408 343.024 184.064 342.45 184.721C341.876 185.377 341.411 186.006 341.056 186.607C340.728 187.209 340.563 187.701 340.563 188.084ZM358.159 179.266C358.159 179.102 358.159 178.814 358.159 178.404C358.187 177.967 358.2 177.516 358.2 177.051C358.2 176.586 358.2 176.162 358.2 175.779C358.228 175.369 358.241 175.082 358.241 174.918C358.433 174.59 358.651 174.275 358.897 173.975C359.171 173.646 359.444 173.428 359.718 173.318C360.019 173.182 360.333 173.154 360.661 173.236C361.017 173.318 361.372 173.592 361.728 174.057V174.385V174.918C361.7 175.055 361.646 175.383 361.563 175.902C361.481 176.395 361.386 176.941 361.276 177.543C361.167 178.145 361.058 178.705 360.948 179.225C360.866 179.717 360.825 180.031 360.825 180.168C360.825 180.688 360.88 181.344 360.989 182.137C361.099 182.902 361.249 183.709 361.44 184.557C361.659 185.404 361.919 186.252 362.22 187.1C362.548 187.947 362.931 188.713 363.368 189.396C363.806 190.053 364.284 190.6 364.804 191.037C365.351 191.475 365.979 191.693 366.69 191.693C367.565 191.693 368.331 191.461 368.987 190.996C369.671 190.531 370.259 189.93 370.751 189.191C371.243 188.453 371.64 187.619 371.94 186.689C372.269 185.76 372.528 184.83 372.72 183.9C372.911 182.943 373.048 182.027 373.13 181.152C373.212 180.277 373.253 179.512 373.253 178.855C373.253 178.199 373.198 177.584 373.089 177.01C373.007 176.408 372.897 175.82 372.761 175.246C372.624 174.672 372.501 174.111 372.392 173.564C372.31 172.99 372.269 172.416 372.269 171.842C372.269 171.322 372.446 170.953 372.802 170.734C373.185 170.516 373.608 170.406 374.073 170.406C374.647 170.406 375.112 170.584 375.468 170.939C375.823 171.268 376.097 171.691 376.288 172.211C376.507 172.73 376.644 173.332 376.698 174.016C376.78 174.672 376.821 175.328 376.821 175.984C376.821 176.641 376.808 177.27 376.78 177.871C376.753 178.445 376.739 178.91 376.739 179.266C376.739 180.195 376.671 181.248 376.534 182.424C376.397 183.6 376.151 184.816 375.796 186.074C375.468 187.305 375.044 188.521 374.524 189.725C374.032 190.928 373.417 192.008 372.679 192.965C371.968 193.895 371.134 194.646 370.177 195.221C369.247 195.795 368.194 196.082 367.019 196.082C365.788 196.082 364.708 195.795 363.778 195.221C362.849 194.619 362.056 193.84 361.399 192.883C360.771 191.898 360.237 190.791 359.8 189.561C359.362 188.33 359.021 187.1 358.774 185.869C358.556 184.639 358.392 183.449 358.282 182.301C358.2 181.125 358.159 180.113 358.159 179.266ZM379.241 182.178C379.241 181.467 379.419 180.961 379.774 180.66C380.13 180.332 380.704 180.168 381.497 180.168H381.907C381.989 180.605 382.085 181.111 382.194 181.686C382.304 182.26 382.468 182.848 382.687 183.449C382.905 184.051 383.165 184.611 383.466 185.131C383.767 185.623 384.136 186.02 384.573 186.32C384.601 185.363 384.833 184.447 385.271 183.572C385.735 182.67 386.296 181.877 386.952 181.193C387.636 180.482 388.374 179.895 389.167 179.43C389.987 178.938 390.794 178.609 391.587 178.445H392.489C393.802 178.445 394.923 178.746 395.853 179.348C396.782 179.922 397.548 180.688 398.149 181.645C398.778 182.574 399.257 183.641 399.585 184.844C399.913 186.047 400.159 187.277 400.323 188.535C400.515 189.766 400.624 190.969 400.651 192.145C400.706 193.293 400.733 194.277 400.733 195.098H397.739C397.575 193.457 397.37 191.885 397.124 190.381C397.042 189.779 396.933 189.15 396.796 188.494C396.659 187.811 396.509 187.182 396.345 186.607C396.181 186.006 396.003 185.459 395.812 184.967C395.62 184.447 395.401 184.01 395.155 183.654C395.046 183.545 394.896 183.395 394.704 183.203C394.54 183.012 394.362 182.82 394.171 182.629C393.979 182.438 393.802 182.273 393.638 182.137C393.474 182 393.378 181.932 393.351 181.932C392.53 181.713 391.819 181.877 391.218 182.424C390.616 182.943 390.083 183.654 389.618 184.557C389.153 185.459 388.771 186.484 388.47 187.633C388.196 188.781 387.964 189.889 387.772 190.955C387.581 191.994 387.444 192.91 387.362 193.703C387.28 194.469 387.226 194.934 387.198 195.098C386.515 195.59 385.872 195.74 385.271 195.549C384.669 195.33 384.095 194.893 383.548 194.236C383.028 193.58 382.55 192.76 382.112 191.775C381.702 190.791 381.319 189.752 380.964 188.658C380.608 187.537 380.28 186.416 379.979 185.295C379.706 184.174 379.46 183.135 379.241 182.178ZM413.571 217.82C415.103 217.82 416.47 217.533 417.673 216.959C418.876 216.412 419.888 215.646 420.708 214.662C421.556 213.705 422.198 212.598 422.636 211.34C423.101 210.109 423.333 208.824 423.333 207.484C423.333 206.801 423.292 205.898 423.21 204.777C423.155 203.656 423.06 202.439 422.923 201.127C422.786 199.814 422.581 198.475 422.308 197.107C422.062 195.74 421.747 194.455 421.364 193.252C420.981 192.021 420.503 190.955 419.929 190.053C419.382 189.123 418.739 188.467 418.001 188.084C417.29 188.631 416.593 189.137 415.909 189.602C415.226 190.039 414.515 190.408 413.776 190.709C413.038 191.01 412.272 191.256 411.479 191.447C410.687 191.611 409.839 191.693 408.937 191.693C407.761 191.693 406.749 191.584 405.901 191.365C405.081 191.146 404.384 190.777 403.81 190.258C403.263 189.738 402.853 189.055 402.579 188.207C402.306 187.359 402.169 186.293 402.169 185.008C402.169 184.105 402.388 183.23 402.825 182.383C403.263 181.508 403.837 180.701 404.548 179.963C405.286 179.197 406.106 178.5 407.009 177.871C407.938 177.242 408.882 176.695 409.839 176.23C410.823 175.766 411.78 175.41 412.71 175.164C413.667 174.918 414.515 174.795 415.253 174.795C415.964 174.795 416.552 174.822 417.017 174.877C417.481 174.904 417.878 175.014 418.206 175.205C418.534 175.369 418.808 175.643 419.026 176.025C419.272 176.381 419.505 176.873 419.724 177.502C420.353 179.635 421.077 181.932 421.897 184.393C422.718 186.854 423.497 189.383 424.235 191.98C424.974 194.578 425.589 197.189 426.081 199.814C426.601 202.467 426.86 205.023 426.86 207.484C426.86 209.672 426.546 211.518 425.917 213.021C425.315 214.553 424.509 215.797 423.497 216.754C422.513 217.738 421.378 218.49 420.093 219.01C418.835 219.529 417.563 219.857 416.278 219.994C414.993 220.158 413.749 220.199 412.546 220.117C411.343 220.035 410.304 219.871 409.429 219.625C408.554 219.406 407.884 219.146 407.419 218.846C406.981 218.545 406.872 218.285 407.091 218.066C407.337 217.875 407.966 217.738 408.978 217.656C409.989 217.574 411.521 217.629 413.571 217.82ZM414.146 178.24C412.122 178.678 410.481 179.293 409.224 180.086C407.993 180.852 407.063 181.686 406.435 182.588C405.833 183.463 405.505 184.352 405.45 185.254C405.396 186.129 405.56 186.881 405.942 187.51C406.325 188.139 406.872 188.617 407.583 188.945C408.321 189.246 409.155 189.26 410.085 188.986C411.015 188.686 411.999 188.057 413.038 187.1C414.104 186.143 415.171 184.721 416.237 182.834C416.237 182.369 416.237 181.863 416.237 181.316C416.265 180.77 416.224 180.277 416.114 179.84C416.005 179.375 415.8 178.992 415.499 178.691C415.198 178.391 414.747 178.24 414.146 178.24ZM425.835 174.016C425.835 173.332 425.985 172.73 426.286 172.211C426.587 171.664 426.901 171.117 427.229 170.57C427.585 169.996 427.913 169.408 428.214 168.807C428.515 168.205 428.665 167.535 428.665 166.797C428.665 166.168 428.624 165.621 428.542 165.156C428.487 164.691 428.364 164.24 428.173 163.803C428.009 163.365 427.735 162.928 427.353 162.49C426.997 162.025 426.519 161.479 425.917 160.85C426.081 160.357 426.327 160.07 426.655 159.988C427.011 159.906 427.353 159.865 427.681 159.865C428.31 159.865 428.884 160.111 429.403 160.604C429.95 161.096 430.429 161.697 430.839 162.408C431.249 163.092 431.563 163.816 431.782 164.582C432.028 165.348 432.151 166.004 432.151 166.551C432.151 167.18 432.028 168.014 431.782 169.053C431.563 170.092 431.235 171.117 430.798 172.129C430.36 173.113 429.8 173.975 429.116 174.713C428.46 175.424 427.694 175.779 426.819 175.779C426.573 175.779 426.382 175.711 426.245 175.574C426.136 175.438 426.04 175.273 425.958 175.082C425.903 174.891 425.876 174.699 425.876 174.508C425.849 174.289 425.835 174.125 425.835 174.016ZM434.612 173.277C434.612 172.621 434.708 172.006 434.899 171.432C435.118 170.83 435.337 170.256 435.556 169.709C435.774 169.135 435.979 168.547 436.171 167.945C436.362 167.344 436.458 166.729 436.458 166.1C436.458 165.361 436.308 164.705 436.007 164.131C435.706 163.529 435.364 162.941 434.981 162.367C434.599 161.793 434.243 161.205 433.915 160.604C433.614 160.002 433.464 159.318 433.464 158.553C434.558 158.553 435.501 158.771 436.294 159.209C437.114 159.646 437.798 160.234 438.345 160.973C438.919 161.684 439.343 162.518 439.616 163.475C439.917 164.404 440.067 165.389 440.067 166.428C440.067 167.084 440.013 167.891 439.903 168.848C439.794 169.805 439.589 170.734 439.288 171.637C439.015 172.512 438.604 173.277 438.058 173.934C437.538 174.59 436.854 174.918 436.007 174.918C435.515 174.918 435.159 174.74 434.94 174.385C434.722 174.002 434.612 173.633 434.612 173.277Z" fill="black"/>
<path d="M226.212 133.328C226.212 133.246 226.226 133.178 226.253 133.123C226.253 133.068 226.267 133 226.294 132.918C226.403 132.781 226.567 132.604 226.786 132.385C227.005 132.166 227.142 132.057 227.196 132.057H235.44C235.44 131.756 235.399 131.277 235.317 130.621C235.235 129.965 235.153 129.24 235.071 128.447C235.017 127.654 235.003 126.834 235.03 125.986C235.058 125.111 235.167 124.332 235.358 123.648C235.577 122.938 235.905 122.363 236.343 121.926C236.808 121.461 237.45 121.229 238.271 121.229C238.271 123.99 238.462 126.205 238.845 127.873C239.228 129.541 239.733 130.826 240.362 131.729C241.019 132.631 241.757 133.219 242.577 133.492C243.397 133.766 244.231 133.889 245.079 133.861C245.954 133.807 246.802 133.67 247.622 133.451C248.442 133.232 249.167 133.082 249.796 133C250.452 132.918 250.972 132.986 251.354 133.205C251.737 133.396 251.929 133.875 251.929 134.641C251.929 135.215 251.792 135.625 251.519 135.871C251.272 136.117 250.78 136.309 250.042 136.445C249.823 136.473 249.454 136.527 248.935 136.609C248.442 136.664 247.882 136.719 247.253 136.773C246.624 136.828 245.954 136.896 245.243 136.979C244.532 137.033 243.862 137.088 243.233 137.143C242.604 137.197 242.03 137.238 241.511 137.266C240.991 137.266 240.608 137.266 240.362 137.266C240.362 137.402 240.349 137.635 240.321 137.963C240.294 138.291 240.28 138.51 240.28 138.619C240.28 139.822 240.472 140.998 240.854 142.146C241.237 143.268 241.647 144.389 242.085 145.51C242.55 146.631 242.974 147.752 243.356 148.873C243.739 149.994 243.931 151.156 243.931 152.359C243.931 152.578 243.903 152.811 243.849 153.057C243.821 153.275 243.739 153.48 243.603 153.672C243.493 153.836 243.315 153.959 243.069 154.041C242.851 154.15 242.536 154.137 242.126 154C241.087 153.727 240.308 153.139 239.788 152.236C239.296 151.334 238.927 150.268 238.681 149.037C238.435 147.779 238.271 146.453 238.188 145.059C238.106 143.664 237.97 142.365 237.778 141.162C237.614 139.932 237.341 138.893 236.958 138.045C236.575 137.17 235.96 136.637 235.112 136.445L227.196 134.641C227.087 134.641 226.923 134.531 226.704 134.312C226.485 134.066 226.349 133.889 226.294 133.779C226.267 133.725 226.253 133.656 226.253 133.574C226.226 133.52 226.212 133.438 226.212 133.328ZM252.79 132.795C252.79 132.549 252.79 132.303 252.79 132.057C252.817 131.783 252.872 131.537 252.954 131.318C253.063 131.072 253.2 130.895 253.364 130.785C253.556 130.648 253.829 130.58 254.185 130.58C254.212 130.58 254.239 130.58 254.267 130.58C254.321 130.58 254.376 130.58 254.431 130.58C254.513 130.607 254.581 130.621 254.636 130.621C255.155 131.332 255.606 132.248 255.989 133.369C256.372 134.463 256.741 135.639 257.097 136.896C257.452 138.127 257.835 139.385 258.245 140.67C258.655 141.928 259.188 143.062 259.845 144.074C260.501 145.086 261.308 145.893 262.265 146.494C263.222 147.096 264.411 147.355 265.833 147.273C266.462 147.273 266.872 146.932 267.063 146.248C267.255 145.564 267.351 144.689 267.351 143.623C267.378 142.557 267.351 141.381 267.269 140.096C267.214 138.811 267.214 137.594 267.269 136.445C267.351 135.27 267.556 134.244 267.884 133.369C268.239 132.494 268.841 131.906 269.688 131.605C270.044 132.316 270.331 133.438 270.55 134.969C270.796 136.473 270.974 138.223 271.083 140.219C271.192 142.188 271.247 144.334 271.247 146.658C271.247 148.955 271.192 151.252 271.083 153.549C270.974 155.818 270.81 158.006 270.591 160.111C270.372 162.217 270.126 164.062 269.853 165.648C269.579 167.234 269.251 168.479 268.868 169.381C268.513 170.311 268.13 170.707 267.72 170.57C267.146 170.023 266.694 169.312 266.366 168.438C266.065 167.562 265.847 166.592 265.71 165.525C265.601 164.459 265.56 163.324 265.587 162.121C265.614 160.945 265.655 159.756 265.71 158.553C265.792 157.35 265.874 156.174 265.956 155.025C266.065 153.877 266.12 152.824 266.12 151.867C265.136 151.949 264.124 151.799 263.085 151.416C262.073 151.033 261.075 150.445 260.091 149.652C259.106 148.832 258.163 147.848 257.261 146.699C256.386 145.551 255.606 144.252 254.923 142.803C254.267 141.354 253.747 139.795 253.364 138.127C252.981 136.432 252.79 134.654 252.79 132.795ZM273.708 138.865C273.708 136.213 274.323 134.244 275.554 132.959C276.784 131.674 278.671 131.031 281.214 131.031C282.253 131.031 283.319 131.127 284.413 131.318C285.534 131.51 286.56 131.852 287.489 132.344C288.419 132.809 289.171 133.465 289.745 134.312C290.347 135.16 290.647 136.254 290.647 137.594C290.647 139.07 290.319 140.465 289.663 141.777C289.034 143.062 288.228 144.279 287.243 145.428C286.286 146.549 285.22 147.602 284.044 148.586C282.896 149.543 281.815 150.459 280.804 151.334C280.749 151.443 280.694 151.676 280.64 152.031C280.612 152.359 280.599 152.578 280.599 152.688C280.599 153.59 280.858 154.492 281.378 155.395C281.925 156.324 282.513 157.254 283.142 158.184C283.771 159.141 284.345 160.125 284.864 161.137C285.384 162.148 285.644 163.201 285.644 164.295C285.644 164.951 285.507 165.334 285.233 165.443C284.96 165.58 284.386 165.648 283.511 165.648C282.964 165.43 282.417 164.91 281.87 164.09C281.351 163.297 280.817 162.312 280.271 161.137C279.751 159.961 279.231 158.635 278.712 157.158C278.22 155.709 277.741 154.232 277.276 152.729C276.839 151.197 276.415 149.693 276.005 148.217C275.622 146.713 275.28 145.332 274.979 144.074C274.679 142.816 274.405 141.736 274.159 140.834C273.94 139.904 273.79 139.248 273.708 138.865ZM277.194 139.234C277.194 139.645 277.222 140.246 277.276 141.039C277.331 141.805 277.44 142.57 277.604 143.336C277.796 144.102 278.069 144.771 278.425 145.346C278.78 145.893 279.272 146.166 279.901 146.166C280.749 146.166 281.597 145.879 282.444 145.305C283.319 144.73 284.085 144.006 284.741 143.131C285.425 142.256 285.972 141.326 286.382 140.342C286.819 139.33 287.038 138.414 287.038 137.594C287.038 136.91 286.874 136.377 286.546 135.994C286.218 135.584 285.794 135.27 285.274 135.051C284.782 134.805 284.249 134.654 283.675 134.6C283.101 134.518 282.554 134.477 282.034 134.477C280.476 134.477 279.272 134.9 278.425 135.748C277.604 136.568 277.194 137.73 277.194 139.234ZM294.79 138.619C294.79 138.455 294.79 138.195 294.79 137.84C294.817 137.457 294.831 137.061 294.831 136.65C294.858 136.24 294.872 135.844 294.872 135.461C294.899 135.078 294.913 134.805 294.913 134.641C295.214 134.203 295.597 133.848 296.062 133.574C296.554 133.301 297.046 133.082 297.538 132.918C297.62 134.395 297.853 135.967 298.235 137.635C298.618 139.303 299.028 140.984 299.466 142.68C299.903 144.348 300.286 146.002 300.614 147.643C300.97 149.283 301.147 150.814 301.147 152.236C301.147 153.467 300.519 154.082 299.261 154.082C298.495 154.082 297.853 153.768 297.333 153.139C296.813 152.51 296.39 151.717 296.062 150.76C295.761 149.775 295.515 148.695 295.323 147.52C295.132 146.316 294.995 145.141 294.913 143.992C294.858 142.844 294.817 141.791 294.79 140.834C294.79 139.877 294.79 139.139 294.79 138.619ZM295.364 123.238C295.884 123.457 296.321 123.812 296.677 124.305C297.032 124.797 297.183 125.248 297.128 125.658C297.101 126.041 296.8 126.314 296.226 126.479C295.651 126.615 294.694 126.451 293.354 125.986C293.354 125.248 293.491 124.605 293.765 124.059C294.065 123.512 294.599 123.238 295.364 123.238ZM301.927 141.654C301.927 140.506 302.173 139.303 302.665 138.045C303.185 136.787 303.868 135.652 304.716 134.641C305.563 133.602 306.534 132.74 307.628 132.057C308.749 131.373 309.925 131.031 311.155 131.031C311.784 131.031 312.413 131.141 313.042 131.359C313.671 131.578 314.231 131.893 314.724 132.303C315.243 132.713 315.653 133.205 315.954 133.779C316.282 134.354 316.446 134.996 316.446 135.707C315.954 135.707 315.503 135.652 315.093 135.543C314.71 135.434 314.327 135.311 313.944 135.174C313.562 135.01 313.179 134.873 312.796 134.764C312.44 134.654 312.044 134.6 311.606 134.6C310.485 134.6 309.569 134.887 308.858 135.461C308.175 136.008 307.628 136.705 307.218 137.553C306.808 138.4 306.521 139.316 306.356 140.301C306.22 141.258 306.151 142.16 306.151 143.008C306.151 143.145 306.151 143.404 306.151 143.787C306.179 144.17 306.192 144.58 306.192 145.018C306.22 145.428 306.233 145.824 306.233 146.207C306.261 146.59 306.288 146.85 306.315 146.986C306.616 147.643 306.903 148.148 307.177 148.504C307.478 148.859 307.792 149.133 308.12 149.324C308.448 149.488 308.804 149.598 309.187 149.652C309.569 149.68 310.021 149.693 310.54 149.693C311.251 149.693 311.866 149.584 312.386 149.365C312.933 149.146 313.438 148.887 313.903 148.586C314.368 148.285 314.806 147.957 315.216 147.602C315.626 147.219 316.05 146.877 316.487 146.576C316.952 146.248 317.444 145.988 317.964 145.797C318.511 145.578 319.126 145.469 319.81 145.469C319.81 146.809 319.563 147.998 319.071 149.037C318.606 150.076 317.937 150.965 317.062 151.703C316.214 152.441 315.202 153.016 314.026 153.426C312.878 153.809 311.62 154 310.253 154C308.968 154 307.806 153.562 306.767 152.688C305.755 151.812 304.88 150.746 304.142 149.488C303.431 148.203 302.884 146.85 302.501 145.428C302.118 144.006 301.927 142.748 301.927 141.654ZM339.743 148.709C338.704 149.42 337.802 150.062 337.036 150.637C336.298 151.184 335.573 151.648 334.862 152.031C334.151 152.414 333.386 152.701 332.565 152.893C331.772 153.084 330.788 153.18 329.612 153.18C327.069 153.18 325.183 152.51 323.952 151.17C322.722 149.803 322.106 147.779 322.106 145.1C322.106 144.061 322.243 142.98 322.517 141.859C322.79 140.738 323.187 139.631 323.706 138.537C324.253 137.416 324.896 136.363 325.634 135.379C326.372 134.367 327.206 133.479 328.136 132.713C329.065 131.947 330.05 131.346 331.089 130.908C332.155 130.443 333.276 130.211 334.452 130.211C336.421 130.402 337.966 130.895 339.087 131.688C340.208 132.453 341.056 133.451 341.63 134.682C342.204 135.885 342.601 137.238 342.819 138.742C343.038 140.219 343.202 141.75 343.312 143.336C343.448 144.922 343.612 146.508 343.804 148.094C343.995 149.68 344.392 151.143 344.993 152.482C344.638 153.385 344.296 154.014 343.968 154.369C343.667 154.752 343.325 154.82 342.942 154.574C342.56 154.328 342.108 153.727 341.589 152.77C341.097 151.812 340.481 150.459 339.743 148.709ZM325.593 145.182C325.593 146.74 325.88 147.889 326.454 148.627C327.056 149.338 328.108 149.693 329.612 149.693C330.733 149.693 331.8 149.502 332.812 149.119C333.851 148.709 334.753 148.162 335.519 147.479C336.284 146.768 336.899 145.92 337.364 144.936C337.829 143.951 338.062 142.857 338.062 141.654C338.062 141.162 338.075 140.479 338.103 139.604C338.13 138.701 338.075 137.812 337.938 136.938C337.802 136.062 337.542 135.311 337.159 134.682C336.776 134.025 336.202 133.697 335.437 133.697C334.015 133.697 332.702 134.066 331.499 134.805C330.296 135.516 329.257 136.432 328.382 137.553C327.507 138.674 326.823 139.918 326.331 141.285C325.839 142.625 325.593 143.924 325.593 145.182ZM348.562 130.785C348.562 129.992 348.507 129.227 348.397 128.488C348.288 127.723 348.261 127.053 348.315 126.479C348.37 125.877 348.575 125.398 348.931 125.043C349.313 124.688 349.997 124.51 350.981 124.51C351.282 125.139 351.569 126.096 351.843 127.381C352.144 128.666 352.431 130.143 352.704 131.811C352.978 133.479 353.237 135.297 353.483 137.266C353.729 139.207 353.948 141.162 354.14 143.131C354.358 145.1 354.536 147.041 354.673 148.955C354.837 150.842 354.96 152.564 355.042 154.123C354.14 154.725 353.415 154.766 352.868 154.246C352.321 153.727 351.87 152.852 351.515 151.621C351.159 150.363 350.886 148.846 350.694 147.068C350.503 145.264 350.312 143.404 350.12 141.49C349.956 139.549 349.751 137.648 349.505 135.789C349.259 133.902 348.944 132.234 348.562 130.785ZM358.159 130.785C358.159 129.992 358.104 129.227 357.995 128.488C357.886 127.723 357.858 127.053 357.913 126.479C357.968 125.877 358.173 125.398 358.528 125.043C358.911 124.688 359.595 124.51 360.579 124.51C360.88 125.139 361.167 126.096 361.44 127.381C361.741 128.666 362.028 130.143 362.302 131.811C362.575 133.479 362.835 135.297 363.081 137.266C363.327 139.207 363.546 141.162 363.737 143.131C363.956 145.1 364.134 147.041 364.271 148.955C364.435 150.842 364.558 152.564 364.64 154.123C363.737 154.725 363.013 154.766 362.466 154.246C361.919 153.727 361.468 152.852 361.112 151.621C360.757 150.363 360.483 148.846 360.292 147.068C360.101 145.264 359.909 143.404 359.718 141.49C359.554 139.549 359.349 137.648 359.103 135.789C358.856 133.902 358.542 132.234 358.159 130.785ZM366.075 132.795C366.075 132.549 366.075 132.303 366.075 132.057C366.103 131.783 366.157 131.537 366.239 131.318C366.349 131.072 366.485 130.895 366.649 130.785C366.841 130.648 367.114 130.58 367.47 130.58C367.497 130.58 367.524 130.58 367.552 130.58C367.606 130.58 367.661 130.58 367.716 130.58C367.798 130.607 367.866 130.621 367.921 130.621C368.44 131.332 368.892 132.248 369.274 133.369C369.657 134.463 370.026 135.639 370.382 136.896C370.737 138.127 371.12 139.385 371.53 140.67C371.94 141.928 372.474 143.062 373.13 144.074C373.786 145.086 374.593 145.893 375.55 146.494C376.507 147.096 377.696 147.355 379.118 147.273C379.747 147.273 380.157 146.932 380.349 146.248C380.54 145.564 380.636 144.689 380.636 143.623C380.663 142.557 380.636 141.381 380.554 140.096C380.499 138.811 380.499 137.594 380.554 136.445C380.636 135.27 380.841 134.244 381.169 133.369C381.524 132.494 382.126 131.906 382.974 131.605C383.329 132.316 383.616 133.438 383.835 134.969C384.081 136.473 384.259 138.223 384.368 140.219C384.478 142.188 384.532 144.334 384.532 146.658C384.532 148.955 384.478 151.252 384.368 153.549C384.259 155.818 384.095 158.006 383.876 160.111C383.657 162.217 383.411 164.062 383.138 165.648C382.864 167.234 382.536 168.479 382.153 169.381C381.798 170.311 381.415 170.707 381.005 170.57C380.431 170.023 379.979 169.312 379.651 168.438C379.351 167.562 379.132 166.592 378.995 165.525C378.886 164.459 378.845 163.324 378.872 162.121C378.899 160.945 378.94 159.756 378.995 158.553C379.077 157.35 379.159 156.174 379.241 155.025C379.351 153.877 379.405 152.824 379.405 151.867C378.421 151.949 377.409 151.799 376.37 151.416C375.358 151.033 374.36 150.445 373.376 149.652C372.392 148.832 371.448 147.848 370.546 146.699C369.671 145.551 368.892 144.252 368.208 142.803C367.552 141.354 367.032 139.795 366.649 138.127C366.267 136.432 366.075 134.654 366.075 132.795Z" fill="#0BAFF9"/>
<path d="M244.009 32V68" stroke="#0BAFF9" stroke-width="7" stroke-linecap="round"/>
<path d="M244.603 53.6705C244.676 53.6548 244.863 53.4651 244.939 53.4037C245.135 53.2451 245.842 52.4846 245.959 52.2551C246.441 51.6969 246.368 51.7149 246.793 51.1718C247.129 50.743 247.695 50.2102 247.989 49.7598C248.248 49.3632 248.498 49.2053 248.793 48.8416C249.43 48.2446 249.895 47.7541 251.014 47.1303C251.419 46.9046 252.308 46.6591 252.732 46.4941C253.945 46.267 254.393 46.1988 255.059 46.1838C255.969 46.1633 256.433 46.3058 257.361 46.5405C258.163 46.7434 259.325 47.3644 260.002 47.8773C260.83 48.5035 261.239 48.6274 262.025 49.309C262.851 50.0252 263.881 50.5403 264.68 51.2857C265.515 52.0646 266.577 52.6395 267.594 53.1081C268.738 53.6348 269.82 54.3832 271.044 54.7002C272.222 55.0054 273.453 55.4276 274.681 55.3539C275.23 55.321 275.744 55.1813 276.289 55.1361C277.008 55.0763 277.846 54.6762 278.521 54.4606C279.319 54.2061 279.976 53.6855 280.572 53.0863C280.869 52.7882 281.131 52.5077 281.397 52.1806C281.668 51.8466 281.638 51.7548 281.834 51.3818C281.925 51.2086 282.072 50.7322 282.115 50.541C282.157 50.3545 282.268 50.2008 282.312 50.0267C282.392 49.7135 282.517 49.5566 282.555 49.2383C282.583 49.0141 282.829 48.6236 282.903 48.3977C282.963 48.2143 283.182 47.8687 283.164 47.6774" stroke="#0BAFF9" stroke-width="7" stroke-linecap="round"/>
</svg>
