<svg width="1189" height="148" viewBox="0 0 1189 148" fill="none" xmlns="http://www.w3.org/2000/svg">
<path d="M25.9141 110.578C24.6224 111.708 23.25 111.184 21.7969 109.004C20.4245 106.824 19.0117 103.555 17.5586 99.1953C16.1055 94.7552 14.6523 89.4674 13.1992 83.332C11.8268 77.1966 10.4948 70.6979 9.20312 63.8359C7.91146 56.974 6.66016 50.0312 5.44922 43.0078C4.31901 35.9036 3.3099 29.2435 2.42188 23.0273C2.42188 21.8971 2.38151 20.7669 2.30078 19.6367C2.30078 18.4258 2.42188 17.3359 2.66406 16.3672C2.98698 15.3177 3.51172 14.3893 4.23828 13.582C5.04557 12.7747 6.25651 12.1693 7.87109 11.7656C8.03255 11.6849 8.35547 11.7656 8.83984 12.0078C9.40495 12.1693 9.97005 12.4115 10.5352 12.7344C11.1003 12.9766 11.5846 13.2591 11.9883 13.582C12.4727 13.9049 12.7956 14.1875 12.957 14.4297C11.9076 29.526 13.6432 44.2188 18.1641 58.5078C18.4062 58.2656 19.0521 57.4583 20.1016 56.0859C21.151 54.6328 22.4831 52.9779 24.0977 51.1211C25.7122 49.1836 27.5286 47.125 29.5469 44.9453C31.6458 42.7656 33.8255 40.7474 36.0859 38.8906C38.3464 37.0339 40.6068 35.5 42.8672 34.2891C45.1276 32.9974 47.3073 32.3516 49.4062 32.3516C50.6172 32.3516 51.7878 32.6341 52.918 33.1992C54.1289 33.7643 54.7344 34.8542 54.7344 36.4688C54.7344 36.6302 54.694 36.8724 54.6133 37.1953C54.5326 37.4375 54.4922 37.6393 54.4922 37.8008C53.2005 38.931 51.2227 40.6667 48.5586 43.0078C45.9753 45.349 43.2305 47.9727 40.3242 50.8789C37.418 53.7852 34.6328 56.8125 31.9688 59.9609C29.3047 63.1094 27.2865 66.0964 25.9141 68.9219C25.6719 69.4062 25.5911 69.8503 25.6719 70.2539C25.7526 70.5768 25.8333 70.9805 25.9141 71.4648C26.8021 71.7878 28.2148 72.2721 30.1523 72.918C32.0898 73.5638 34.2292 74.3307 36.5703 75.2188C38.9115 76.026 41.4141 76.9141 44.0781 77.8828C46.7422 78.7708 49.2448 79.6589 51.5859 80.5469C53.9271 81.4349 56.026 82.2422 57.8828 82.9688C59.8203 83.6146 61.2734 84.099 62.2422 84.4219C63.3724 84.9062 64.3008 85.2292 65.0273 85.3906C65.7539 85.5521 66.319 85.7943 66.7227 86.1172C67.1263 86.3594 67.4089 86.7227 67.5703 87.207C67.7318 87.6914 67.8125 88.418 67.8125 89.3867C67.8125 91.7279 67.2474 93.2617 66.1172 93.9883C64.987 94.7148 63.3724 95.0781 61.2734 95.0781C55.0573 94.6745 48.9622 93.3828 42.9883 91.2031C37.0143 88.9427 30.9596 86.2383 24.8242 83.0898C24.582 84.6237 24.6628 86.3997 25.0664 88.418C25.5508 90.4362 26.1159 92.4544 26.7617 94.4727C27.4076 96.4909 28.013 98.4688 28.5781 100.406C29.224 102.344 29.5872 104.079 29.668 105.613C29.8294 107.147 29.668 108.358 29.1836 109.246C28.6992 110.134 27.6094 110.578 25.9141 110.578ZM124.605 68.8008C126.947 68.6393 128.44 69.0833 129.086 70.1328C129.732 71.1823 130.055 72.4336 130.055 73.8867C130.055 75.7435 129.49 77.1966 128.359 78.2461C127.31 79.2956 125.938 80.0625 124.242 80.5469C122.628 81.0312 120.892 81.3542 119.035 81.5156C117.259 81.6771 115.645 81.7982 114.191 81.8789C113.223 81.9596 111.689 82 109.59 82C107.572 82 105.23 82.0807 102.566 82.2422C99.9831 82.3229 97.2383 82.4036 94.332 82.4844C91.5065 82.5651 88.7617 82.6458 86.0977 82.7266C83.5143 82.8073 81.1732 82.888 79.0742 82.9688C77.056 82.9688 75.5625 82.9688 74.5938 82.9688C74.5938 79.5781 75.724 76.9141 77.9844 74.9766C80.2448 73.0391 83.0703 71.5456 86.4609 70.4961C89.9323 69.4466 93.7266 68.8008 97.8438 68.5586C101.961 68.3164 105.876 68.2357 109.59 68.3164C113.303 68.3164 116.533 68.4375 119.277 68.6797C122.022 68.8411 123.798 68.8815 124.605 68.8008ZM75.8047 47.125C82.5052 46.8021 88.8828 46.4792 94.9375 46.1562C97.6016 46.0755 100.306 45.9544 103.051 45.793C105.796 45.6315 108.5 45.4701 111.164 45.3086C113.909 45.1471 116.452 45.026 118.793 44.9453C121.134 44.8646 123.233 44.7435 125.09 44.582H126.664C128.279 44.582 129.328 45.1471 129.812 46.2773C130.297 47.4076 130.539 48.5378 130.539 49.668C130.539 51.6055 130.176 53.1393 129.449 54.2695C128.803 55.3997 127.35 56.4896 125.09 57.5391C124.444 57.5391 123.314 57.5794 121.699 57.6602C120.165 57.6602 118.51 57.6602 116.734 57.6602C114.958 57.6602 113.263 57.7005 111.648 57.7812C110.034 57.7812 108.904 57.7812 108.258 57.7812C106.159 57.7812 103.374 57.862 99.9023 58.0234C96.431 58.1849 92.9193 58.1042 89.3672 57.7812C85.8151 57.4583 82.5052 56.7318 79.4375 55.6016C76.4505 54.3906 74.3919 52.4128 73.2617 49.668L75.8047 47.125ZM152.578 80.9102C152.578 79.457 152.982 78.0039 153.789 76.5508C154.596 75.0977 155.565 73.7253 156.695 72.4336C157.826 71.0612 158.996 69.7292 160.207 68.4375C161.418 67.1458 162.427 65.8138 163.234 64.4414C161.055 61.6159 158.835 58.7904 156.574 55.9648C154.314 53.0586 152.296 50.112 150.52 47.125C148.743 44.138 147.29 41.0299 146.16 37.8008C145.03 34.4909 144.465 30.9792 144.465 27.2656C144.465 24.4401 145.07 21.6549 146.281 18.9102C147.573 16.1654 149.228 13.7435 151.246 11.6445C153.345 9.54557 155.767 7.85026 158.512 6.55859C161.257 5.26693 164.122 4.62109 167.109 4.62109C168.078 4.62109 169.128 4.74219 170.258 4.98438C171.469 5.14583 172.599 5.42839 173.648 5.83203C174.779 6.23568 175.788 6.76042 176.676 7.40625C177.564 8.05208 178.25 8.85938 178.734 9.82812C176.797 10.9583 174.496 11.9674 171.832 12.8555C169.249 13.7435 166.706 14.793 164.203 16.0039C161.701 17.1341 159.561 18.6276 157.785 20.4844C156.009 22.2604 155.121 24.6823 155.121 27.75C155.121 30.2526 155.565 32.5534 156.453 34.6523C157.422 36.7513 158.592 38.7695 159.965 40.707C161.337 42.5638 162.831 44.3802 164.445 46.1562C166.141 47.9323 167.674 49.7891 169.047 51.7266C170.419 53.5833 171.549 55.5612 172.438 57.6602C173.326 59.7591 173.77 62.0599 173.77 64.5625C173.77 66.1771 173.487 67.6706 172.922 69.043C172.357 70.4154 171.751 71.7474 171.105 73.0391C170.46 74.25 169.814 75.5013 169.168 76.793C168.603 78.0846 168.32 79.457 168.32 80.9102C168.32 81.2331 168.24 82.5247 168.078 84.7852C167.917 87.0456 167.796 89.7904 167.715 93.0195C167.715 96.2487 167.796 99.7201 167.957 103.434C168.118 107.066 168.562 110.417 169.289 113.484C170.016 116.633 171.065 119.257 172.438 121.355C173.891 123.454 175.828 124.504 178.25 124.504C179.865 124.504 181.277 124.181 182.488 123.535C183.78 122.889 184.951 122.203 186 121.477C187.13 120.75 188.22 120.064 189.27 119.418C190.4 118.853 191.691 118.57 193.145 118.57C194.598 118.57 195.607 119.135 196.172 120.266C196.818 121.477 197.141 122.809 197.141 124.262C197.141 126.603 196.414 128.581 194.961 130.195C193.589 131.891 191.853 133.263 189.754 134.312C187.655 135.362 185.435 136.089 183.094 136.492C180.753 136.977 178.654 137.219 176.797 137.219C173.164 137.219 170.056 136.169 167.473 134.07C164.97 131.971 162.79 129.227 160.934 125.836C159.158 122.445 157.704 118.651 156.574 114.453C155.525 110.255 154.677 106.098 154.031 101.98C153.466 97.7826 153.062 93.8268 152.82 90.1133C152.659 86.3997 152.578 83.332 152.578 80.9102ZM457.371 94.5938C458.259 94.5938 458.986 94.7956 459.551 95.1992C460.197 95.6029 460.641 96.1276 460.883 96.7734C461.125 97.3385 461.286 98.0247 461.367 98.832C461.448 99.5586 461.488 100.285 461.488 101.012C461.488 102.707 461.286 104.725 460.883 107.066C460.56 109.327 460.035 111.708 459.309 114.211C458.582 116.714 457.654 119.176 456.523 121.598C455.474 124.1 454.223 126.28 452.77 128.137C451.316 130.074 449.661 131.608 447.805 132.738C446.029 133.949 444.051 134.555 441.871 134.555C441.871 132.859 442.033 130.68 442.355 128.016C442.759 125.352 443.284 122.526 443.93 119.539C444.656 116.552 445.504 113.605 446.473 110.699C447.441 107.712 448.491 105.048 449.621 102.707C450.751 100.285 451.962 98.3477 453.254 96.8945C454.546 95.3607 455.918 94.5938 457.371 94.5938ZM816.414 94.5938C817.302 94.5938 818.029 94.7956 818.594 95.1992C819.24 95.6029 819.684 96.1276 819.926 96.7734C820.168 97.3385 820.329 98.0247 820.41 98.832C820.491 99.5586 820.531 100.285 820.531 101.012C820.531 102.707 820.329 104.725 819.926 107.066C819.603 109.327 819.078 111.708 818.352 114.211C817.625 116.714 816.697 119.176 815.566 121.598C814.517 124.1 813.266 126.28 811.812 128.137C810.359 130.074 808.704 131.608 806.848 132.738C805.072 133.949 803.094 134.555 800.914 134.555C800.914 132.859 801.076 130.68 801.398 128.016C801.802 125.352 802.327 122.526 802.973 119.539C803.699 116.552 804.547 113.605 805.516 110.699C806.484 107.712 807.534 105.048 808.664 102.707C809.794 100.285 811.005 98.3477 812.297 96.8945C813.589 95.3607 814.961 94.5938 816.414 94.5938ZM1139.13 128.984C1139.13 126.885 1139.49 125.352 1140.22 124.383C1140.95 123.495 1141.91 122.849 1143.12 122.445C1144.34 122.042 1145.59 121.759 1146.88 121.598C1148.25 121.436 1149.54 121.113 1150.75 120.629C1151.96 120.145 1152.93 119.337 1153.66 118.207C1154.47 117.077 1154.87 115.301 1154.87 112.879C1154.87 111.184 1154.43 109.488 1153.54 107.793C1152.73 106.017 1151.84 104.201 1150.88 102.344C1149.91 100.487 1148.98 98.5898 1148.09 96.6523C1147.28 94.7148 1146.88 92.6966 1146.88 90.5977C1146.88 90.4362 1146.88 90.2344 1146.88 89.9922C1146.88 89.75 1146.92 89.5078 1147 89.2656C1147 88.9427 1147.04 88.6198 1147.12 88.2969C1147.28 87.974 1147.77 87.207 1148.57 85.9961C1149.46 84.7044 1150.35 83.332 1151.24 81.8789C1152.13 80.4258 1152.93 79.0534 1153.66 77.7617C1154.47 76.4701 1154.87 75.6628 1154.87 75.3398C1154.87 73.6445 1154.31 71.9089 1153.18 70.1328C1152.13 68.276 1150.92 66.3789 1149.54 64.4414C1148.25 62.4232 1147.04 60.3646 1145.91 58.2656C1144.86 56.0859 1144.34 53.8255 1144.34 51.4844C1144.34 49.0625 1144.74 46.8424 1145.55 44.8242C1146.43 42.806 1147.4 40.8685 1148.45 39.0117C1149.5 37.1549 1150.43 35.2982 1151.24 33.4414C1152.13 31.5039 1152.57 29.4857 1152.57 27.3867C1152.57 25.2878 1151.8 23.7135 1150.27 22.6641C1148.82 21.5339 1147.12 20.7266 1145.18 20.2422C1143.25 19.7578 1141.27 19.4753 1139.25 19.3945C1137.31 19.3138 1135.86 19.2734 1134.89 19.2734C1134.89 17.4974 1135.17 16.0039 1135.74 14.793C1136.38 13.582 1137.23 12.6536 1138.28 12.0078C1139.33 11.2812 1140.5 10.7969 1141.79 10.5547C1143.17 10.2318 1144.62 10.0703 1146.15 10.0703C1148.01 10.0703 1150.03 10.4336 1152.21 11.1602C1154.47 11.8867 1156.57 12.8958 1158.5 14.1875C1160.52 15.3984 1162.18 16.9323 1163.47 18.7891C1164.84 20.5651 1165.53 22.543 1165.53 24.7227C1165.53 24.8034 1165.49 24.9245 1165.41 25.0859C1165.41 25.1667 1165.41 25.2474 1165.41 25.3281C1165.33 25.5703 1165.29 25.7721 1165.29 25.9336C1165.2 26.3372 1164.88 27.1445 1164.32 28.3555C1163.75 29.5664 1163.11 30.9792 1162.38 32.5938C1161.65 34.2083 1160.89 35.944 1160.08 37.8008C1159.27 39.5768 1158.5 41.2721 1157.78 42.8867C1157.05 44.4206 1156.4 45.793 1155.84 47.0039C1155.36 48.2148 1155.03 48.9818 1154.87 49.3047V50.6367C1154.87 53.0586 1155.32 55.0768 1156.2 56.6914C1157.17 58.306 1158.34 59.6784 1159.71 60.8086C1161.09 61.9388 1162.54 62.9479 1164.07 63.8359C1165.61 64.724 1167.06 65.612 1168.43 66.5C1169.89 67.388 1171.06 68.3971 1171.95 69.5273C1172.83 70.5768 1173.28 71.9089 1173.28 73.5234C1173.28 75.2188 1172.95 76.6719 1172.31 77.8828C1171.66 79.013 1170.82 80.0221 1169.77 80.9102C1168.8 81.7174 1167.71 82.5247 1166.5 83.332C1165.37 84.1393 1164.28 85.0273 1163.23 85.9961C1162.26 86.8841 1161.45 87.9336 1160.8 89.1445C1160.16 90.2747 1159.84 91.7279 1159.84 93.5039C1159.84 95.3607 1160.12 97.0964 1160.68 98.7109C1161.33 100.245 1161.98 101.819 1162.62 103.434C1163.35 104.967 1163.99 106.542 1164.56 108.156C1165.2 109.771 1165.53 111.587 1165.53 113.605C1165.53 116.027 1165.24 118.49 1164.68 120.992C1164.2 123.576 1163.31 125.876 1162.02 127.895C1160.72 129.993 1159.07 131.689 1157.05 132.98C1155.11 134.353 1152.69 135.039 1149.79 135.039C1148.49 135.039 1147.2 134.999 1145.91 134.918C1144.7 134.837 1143.57 134.595 1142.52 134.191C1141.55 133.868 1140.74 133.303 1140.1 132.496C1139.45 131.689 1139.13 130.518 1139.13 128.984Z" fill="black"/>
<path d="M191.812 62.1406C191.812 60.1224 192.135 58.5482 192.781 57.418C193.508 56.2878 195.001 55.7227 197.262 55.7227C197.504 55.7227 197.948 55.763 198.594 55.8438C199.32 55.8438 199.764 55.8438 199.926 55.8438C200.491 58.3464 201.056 61.0911 201.621 64.0781C202.267 66.9844 202.993 69.931 203.801 72.918C204.608 75.9049 205.496 78.8516 206.465 81.7578C207.514 84.6641 208.766 87.2878 210.219 89.6289C211.672 88.0951 212.721 86.2786 213.367 84.1797C214.013 82.0807 214.497 79.9818 214.82 77.8828C215.143 75.7031 215.426 73.6445 215.668 71.707C215.991 69.6888 216.596 67.9935 217.484 66.6211C218.372 65.168 219.664 64.1185 221.359 63.4727C223.135 62.8268 225.557 62.8268 228.625 63.4727C232.016 63.4727 234.72 64.1185 236.738 65.4102C238.757 66.6211 240.492 68.1953 241.945 70.1328C243.479 71.9896 244.932 74.0078 246.305 76.1875C247.758 78.2865 249.574 80.1836 251.754 81.8789C252.238 80.8294 252.844 79.5378 253.57 78.0039C254.297 76.3893 255.185 74.7344 256.234 73.0391C257.365 71.263 258.535 69.5273 259.746 67.832C261.038 66.056 262.37 64.4818 263.742 63.1094C265.115 61.6562 266.527 60.4857 267.98 59.5977C269.434 58.6289 270.846 58.1445 272.219 58.1445C275.529 58.1445 278.395 59.194 280.816 61.293C283.238 63.3112 285.297 65.8945 286.992 69.043C288.768 72.1107 290.221 75.582 291.352 79.457C292.482 83.2513 293.37 86.9245 294.016 90.4766C294.661 94.0286 295.105 97.2982 295.348 100.285C295.671 103.191 295.832 105.29 295.832 106.582C295.832 107.632 295.59 108.439 295.105 109.004C294.621 109.569 294.016 110.013 293.289 110.336C292.562 110.578 291.755 110.74 290.867 110.82C290.06 110.901 289.293 110.941 288.566 110.941C288.405 110.941 288.163 110.941 287.84 110.941C287.517 110.861 287.154 110.78 286.75 110.699C286.427 110.618 285.983 110.497 285.418 110.336L277.547 74.1289C277.547 73.8867 277.224 73.4427 276.578 72.7969C275.932 72.0703 275.448 71.6263 275.125 71.4648C274.883 71.4648 274.681 71.4245 274.52 71.3438C274.358 71.3438 274.237 71.3438 274.156 71.3438C274.076 71.263 273.995 71.2227 273.914 71.2227C272.219 71.2227 270.604 71.9089 269.07 73.2812C267.617 74.6536 266.245 76.3893 264.953 78.4883C263.661 80.5872 262.451 82.9284 261.32 85.5117C260.19 88.0951 259.181 90.6784 258.293 93.2617C257.405 95.7643 256.598 98.1055 255.871 100.285C255.225 102.384 254.701 103.999 254.297 105.129C253.974 105.29 253.328 105.452 252.359 105.613C251.391 105.694 250.745 105.734 250.422 105.734C248.161 105.734 246.426 104.967 245.215 103.434C244.004 101.819 242.995 99.8411 242.188 97.5C241.461 95.1589 240.815 92.6159 240.25 89.8711C239.766 87.0456 239.12 84.4622 238.312 82.1211C237.586 79.7799 236.536 77.8424 235.164 76.3086C233.872 74.694 232.016 73.8867 229.594 73.8867C228.706 73.8867 227.858 74.7747 227.051 76.5508C226.243 78.3268 225.517 80.5872 224.871 83.332C224.225 85.9961 223.62 88.9023 223.055 92.0508C222.49 95.1185 222.005 98.0247 221.602 100.77C221.279 103.434 221.036 105.694 220.875 107.551C220.714 109.408 220.633 110.336 220.633 110.336C220.471 110.578 220.148 110.861 219.664 111.184C219.18 111.426 218.655 111.708 218.09 112.031C217.605 112.354 217.081 112.596 216.516 112.758C216.031 112.919 215.668 113 215.426 113C213.165 113 210.986 111.991 208.887 109.973C206.788 107.874 204.85 105.21 203.074 101.98C201.379 98.6706 199.805 95.0378 198.352 91.082C196.979 87.1263 195.809 83.2513 194.84 79.457C193.871 75.6628 193.104 72.2318 192.539 69.1641C192.055 66.0964 191.812 63.7552 191.812 62.1406ZM415.352 44.4609C415.352 42.1198 415.19 39.8594 414.867 37.6797C414.544 35.4193 414.464 33.4414 414.625 31.7461C414.786 29.9701 415.392 28.5573 416.441 27.5078C417.572 26.4583 419.59 25.9336 422.496 25.9336C423.384 27.7904 424.232 30.6159 425.039 34.4102C425.927 38.2044 426.775 42.5638 427.582 47.4883C428.389 52.4128 429.156 57.7812 429.883 63.5938C430.609 69.3255 431.255 75.0977 431.82 80.9102C432.466 86.7227 432.991 92.4544 433.395 98.1055C433.879 103.676 434.242 108.762 434.484 113.363C431.82 115.139 429.681 115.26 428.066 113.727C426.452 112.193 425.12 109.609 424.07 105.977C423.021 102.263 422.214 97.7826 421.648 92.5352C421.083 87.207 420.518 81.7174 419.953 76.0664C419.469 70.3346 418.863 64.724 418.137 59.2344C417.41 53.6641 416.482 48.7396 415.352 44.4609Z" fill="#EA5D2D"/>
<path d="M524.699 68.3164C524.699 60.4857 526.516 54.6732 530.148 50.8789C533.781 47.0846 539.352 45.1875 546.859 45.1875C549.927 45.1875 553.076 45.4701 556.305 46.0352C559.615 46.6003 562.642 47.6094 565.387 49.0625C568.132 50.4349 570.352 52.3724 572.047 54.875C573.823 57.3776 574.711 60.6068 574.711 64.5625C574.711 68.9219 573.742 73.0391 571.805 76.9141C569.948 80.7083 567.566 84.3008 564.66 87.6914C561.835 91.0013 558.686 94.1094 555.215 97.0156C551.824 99.8411 548.635 102.546 545.648 105.129C545.487 105.452 545.326 106.138 545.164 107.188C545.083 108.156 545.043 108.802 545.043 109.125C545.043 111.789 545.81 114.453 547.344 117.117C548.958 119.862 550.694 122.607 552.551 125.352C554.408 128.177 556.103 131.083 557.637 134.07C559.171 137.057 559.938 140.165 559.938 143.395C559.938 145.332 559.534 146.462 558.727 146.785C557.919 147.189 556.224 147.391 553.641 147.391C552.026 146.745 550.411 145.211 548.797 142.789C547.263 140.448 545.689 137.542 544.074 134.07C542.54 130.599 541.007 126.684 539.473 122.324C538.02 118.046 536.607 113.686 535.234 109.246C533.943 104.725 532.691 100.285 531.48 95.9258C530.35 91.4857 529.341 87.4089 528.453 83.6953C527.565 79.9818 526.758 76.793 526.031 74.1289C525.385 71.3841 524.941 69.4466 524.699 68.3164ZM534.992 69.4062C534.992 70.6172 535.073 72.3932 535.234 74.7344C535.396 76.9948 535.719 79.2552 536.203 81.5156C536.768 83.776 537.576 85.7539 538.625 87.4492C539.674 89.0638 541.128 89.8711 542.984 89.8711C545.487 89.8711 547.99 89.0234 550.492 87.3281C553.076 85.6328 555.336 83.4935 557.273 80.9102C559.292 78.3268 560.906 75.582 562.117 72.6758C563.409 69.6888 564.055 66.9844 564.055 64.5625C564.055 62.5443 563.57 60.9701 562.602 59.8398C561.633 58.6289 560.382 57.7005 558.848 57.0547C557.395 56.3281 555.82 55.8841 554.125 55.7227C552.43 55.4805 550.815 55.3594 549.281 55.3594C544.68 55.3594 541.128 56.6107 538.625 59.1133C536.203 61.5352 534.992 64.9661 534.992 69.4062ZM690.84 62.1406C690.84 60.1224 691.163 58.5482 691.809 57.418C692.535 56.2878 694.029 55.7227 696.289 55.7227C696.531 55.7227 696.975 55.763 697.621 55.8438C698.348 55.8438 698.792 55.8438 698.953 55.8438C699.518 58.3464 700.083 61.0911 700.648 64.0781C701.294 66.9844 702.021 69.931 702.828 72.918C703.635 75.9049 704.523 78.8516 705.492 81.7578C706.542 84.6641 707.793 87.2878 709.246 89.6289C710.699 88.0951 711.749 86.2786 712.395 84.1797C713.04 82.0807 713.525 79.9818 713.848 77.8828C714.171 75.7031 714.453 73.6445 714.695 71.707C715.018 69.6888 715.624 67.9935 716.512 66.6211C717.4 65.168 718.691 64.1185 720.387 63.4727C722.163 62.8268 724.585 62.8268 727.652 63.4727C731.043 63.4727 733.747 64.1185 735.766 65.4102C737.784 66.6211 739.52 68.1953 740.973 70.1328C742.507 71.9896 743.96 74.0078 745.332 76.1875C746.785 78.2865 748.602 80.1836 750.781 81.8789C751.266 80.8294 751.871 79.5378 752.598 78.0039C753.324 76.3893 754.212 74.7344 755.262 73.0391C756.392 71.263 757.562 69.5273 758.773 67.832C760.065 66.056 761.397 64.4818 762.77 63.1094C764.142 61.6562 765.555 60.4857 767.008 59.5977C768.461 58.6289 769.874 58.1445 771.246 58.1445C774.556 58.1445 777.422 59.194 779.844 61.293C782.266 63.3112 784.324 65.8945 786.02 69.043C787.796 72.1107 789.249 75.582 790.379 79.457C791.509 83.2513 792.397 86.9245 793.043 90.4766C793.689 94.0286 794.133 97.2982 794.375 100.285C794.698 103.191 794.859 105.29 794.859 106.582C794.859 107.632 794.617 108.439 794.133 109.004C793.648 109.569 793.043 110.013 792.316 110.336C791.59 110.578 790.783 110.74 789.895 110.82C789.087 110.901 788.32 110.941 787.594 110.941C787.432 110.941 787.19 110.941 786.867 110.941C786.544 110.861 786.181 110.78 785.777 110.699C785.454 110.618 785.01 110.497 784.445 110.336L776.574 74.1289C776.574 73.8867 776.251 73.4427 775.605 72.7969C774.96 72.0703 774.475 71.6263 774.152 71.4648C773.91 71.4648 773.708 71.4245 773.547 71.3438C773.385 71.3438 773.264 71.3438 773.184 71.3438C773.103 71.263 773.022 71.2227 772.941 71.2227C771.246 71.2227 769.632 71.9089 768.098 73.2812C766.645 74.6536 765.272 76.3893 763.98 78.4883C762.689 80.5872 761.478 82.9284 760.348 85.5117C759.217 88.0951 758.208 90.6784 757.32 93.2617C756.432 95.7643 755.625 98.1055 754.898 100.285C754.253 102.384 753.728 103.999 753.324 105.129C753.001 105.29 752.355 105.452 751.387 105.613C750.418 105.694 749.772 105.734 749.449 105.734C747.189 105.734 745.453 104.967 744.242 103.434C743.031 101.819 742.022 99.8411 741.215 97.5C740.488 95.1589 739.842 92.6159 739.277 89.8711C738.793 87.0456 738.147 84.4622 737.34 82.1211C736.613 79.7799 735.564 77.8424 734.191 76.3086C732.9 74.694 731.043 73.8867 728.621 73.8867C727.733 73.8867 726.885 74.7747 726.078 76.5508C725.271 78.3268 724.544 80.5872 723.898 83.332C723.253 85.9961 722.647 88.9023 722.082 92.0508C721.517 95.1185 721.033 98.0247 720.629 100.77C720.306 103.434 720.064 105.694 719.902 107.551C719.741 109.408 719.66 110.336 719.66 110.336C719.499 110.578 719.176 110.861 718.691 111.184C718.207 111.426 717.682 111.708 717.117 112.031C716.633 112.354 716.108 112.596 715.543 112.758C715.059 112.919 714.695 113 714.453 113C712.193 113 710.013 111.991 707.914 109.973C705.815 107.874 703.878 105.21 702.102 101.98C700.406 98.6706 698.832 95.0378 697.379 91.082C696.007 87.1263 694.836 83.2513 693.867 79.457C692.898 75.6628 692.132 72.2318 691.566 69.1641C691.082 66.0964 690.84 63.7552 690.84 62.1406Z" fill="#FF7A00"/>
<path d="M883.742 68.3164C883.742 60.4857 885.559 54.6732 889.191 50.8789C892.824 47.0846 898.395 45.1875 905.902 45.1875C908.97 45.1875 912.118 45.4701 915.348 46.0352C918.658 46.6003 921.685 47.6094 924.43 49.0625C927.174 50.4349 929.395 52.3724 931.09 54.875C932.866 57.3776 933.754 60.6068 933.754 64.5625C933.754 68.9219 932.785 73.0391 930.848 76.9141C928.991 80.7083 926.609 84.3008 923.703 87.6914C920.878 91.0013 917.729 94.1094 914.258 97.0156C910.867 99.8411 907.678 102.546 904.691 105.129C904.53 105.452 904.368 106.138 904.207 107.188C904.126 108.156 904.086 108.802 904.086 109.125C904.086 111.789 904.853 114.453 906.387 117.117C908.001 119.862 909.737 122.607 911.594 125.352C913.451 128.177 915.146 131.083 916.68 134.07C918.214 137.057 918.98 140.165 918.98 143.395C918.98 145.332 918.577 146.462 917.77 146.785C916.962 147.189 915.267 147.391 912.684 147.391C911.069 146.745 909.454 145.211 907.84 142.789C906.306 140.448 904.732 137.542 903.117 134.07C901.583 130.599 900.049 126.684 898.516 122.324C897.062 118.046 895.65 113.686 894.277 109.246C892.986 104.725 891.734 100.285 890.523 95.9258C889.393 91.4857 888.384 87.4089 887.496 83.6953C886.608 79.9818 885.801 76.793 885.074 74.1289C884.428 71.3841 883.984 69.4466 883.742 68.3164ZM894.035 69.4062C894.035 70.6172 894.116 72.3932 894.277 74.7344C894.439 76.9948 894.762 79.2552 895.246 81.5156C895.811 83.776 896.618 85.7539 897.668 87.4492C898.717 89.0638 900.171 89.8711 902.027 89.8711C904.53 89.8711 907.033 89.0234 909.535 87.3281C912.118 85.6328 914.379 83.4935 916.316 80.9102C918.335 78.3268 919.949 75.582 921.16 72.6758C922.452 69.6888 923.098 66.9844 923.098 64.5625C923.098 62.5443 922.613 60.9701 921.645 59.8398C920.676 58.6289 919.424 57.7005 917.891 57.0547C916.438 56.3281 914.863 55.8841 913.168 55.7227C911.473 55.4805 909.858 55.3594 908.324 55.3594C903.723 55.3594 900.171 56.6107 897.668 59.1133C895.246 61.5352 894.035 64.9661 894.035 69.4062ZM1111.28 44.4609C1111.28 42.1198 1111.12 39.8594 1110.79 37.6797C1110.47 35.4193 1110.39 33.4414 1110.55 31.7461C1110.71 29.9701 1111.32 28.5573 1112.37 27.5078C1113.5 26.4583 1115.52 25.9336 1118.42 25.9336C1119.31 27.7904 1120.16 30.6159 1120.96 34.4102C1121.85 38.2044 1122.7 42.5638 1123.51 47.4883C1124.32 52.4128 1125.08 57.7812 1125.81 63.5938C1126.54 69.3255 1127.18 75.0977 1127.75 80.9102C1128.39 86.7227 1128.92 92.4544 1129.32 98.1055C1129.8 103.676 1130.17 108.762 1130.41 113.363C1127.75 115.139 1125.61 115.26 1123.99 113.727C1122.38 112.193 1121.05 109.609 1120 105.977C1118.95 102.263 1118.14 97.7826 1117.57 92.5352C1117.01 87.207 1116.44 81.7174 1115.88 76.0664C1115.39 70.3346 1114.79 64.724 1114.06 59.2344C1113.34 53.6641 1112.41 48.7396 1111.28 44.4609Z" fill="#0BAFF9"/>
<path d="M1057.21 70.0151L1056.44 73.5128C1055.49 77.8248 1055.01 82.2273 1055.01 86.6427L1055.01 90.634" stroke="#0BAFF9" stroke-width="10" stroke-linecap="round"/>
<path d="M1057.54 70.0527L1069.69 71.3343C1073.89 71.7769 1078.11 71.7832 1082.31 71.3532L1095 70.0527" stroke="#0BAFF9" stroke-width="10" stroke-linecap="round"/>
<path d="M959 76.2568L976.401 79.375C982.792 80.5204 989.326 80.6379 995.754 79.7231L1020.11 76.2568" stroke="#0BAFF9" stroke-width="11" stroke-linecap="round"/>
<path d="M1000.9 57.4359L1004.15 59.7549C1009.33 63.4456 1013.89 67.898 1017.66 72.9519L1019.77 75.7699" stroke="#0BAFF9" stroke-width="11" stroke-linecap="round"/>
<path d="M1001.83 96.0576L1002.08 95.9022C1009.34 91.3471 1015.55 85.3623 1020.29 78.334L1020.7 77.7236" stroke="#0BAFF9" stroke-width="11" stroke-linecap="round"/>
<path d="M602 78.2568L619.401 81.375C625.792 82.5204 632.326 82.6379 638.754 81.7231L663.113 78.2568" stroke="#FF7A00" stroke-width="11" stroke-linecap="round"/>
<path d="M643.896 59.4359L647.152 61.7549C652.334 65.4456 656.893 69.898 660.664 74.9519L662.767 77.7699" stroke="#FF7A00" stroke-width="11" stroke-linecap="round"/>
<path d="M644.829 98.0576L645.077 97.9022C652.344 93.3471 658.548 87.3623 663.288 80.334L663.7 79.7236" stroke="#FF7A00" stroke-width="11" stroke-linecap="round"/>
<path d="M327.013 46V100" stroke="#EA5D2D" stroke-width="11" stroke-linecap="round"/>
<path d="M327.904 78.5058C328.014 78.4822 328.294 78.1977 328.408 78.1055C328.703 77.8676 329.763 76.7269 329.939 76.3827C330.662 75.5454 330.553 75.5723 331.19 74.7577C331.693 74.1145 332.542 73.3154 332.984 72.6396C333.372 72.0448 333.747 71.808 334.19 71.2624C335.145 70.3669 335.842 69.6311 337.521 68.6955C338.128 68.3569 339.462 67.9886 340.099 67.7412C341.917 67.4004 342.59 67.2983 343.588 67.2758C344.953 67.245 345.649 67.4588 347.041 67.8107C348.244 68.115 349.987 69.0465 351.004 69.816C352.244 70.7553 352.858 70.941 354.038 71.9635C355.277 73.0378 356.822 73.8105 358.02 74.9286C359.272 76.0969 360.865 76.9593 362.391 77.6622C364.107 78.4521 365.73 79.5747 367.565 80.0503C369.333 80.5081 371.18 81.1414 373.021 81.0309C373.845 80.9815 374.617 80.772 375.433 80.7041C376.512 80.6145 377.768 80.0143 378.782 79.6909C379.978 79.3091 380.964 78.5283 381.858 77.6294C382.303 77.1823 382.696 76.7616 383.095 76.2708C383.502 75.7699 383.457 75.6322 383.751 75.0727C383.888 74.8129 384.108 74.0984 384.173 73.8115C384.236 73.5317 384.402 73.3012 384.469 73.04C384.588 72.5703 384.775 72.3349 384.833 71.8574C384.874 71.5211 385.244 70.9353 385.355 70.5966C385.445 70.3214 385.773 69.803 385.746 69.5161" stroke="#EA5D2D" stroke-width="11" stroke-linecap="round"/>
</svg>
