<svg width="453" height="218" viewBox="0 0 453 218" fill="none" xmlns="http://www.w3.org/2000/svg">
<path d="M118.896 39.0078C118.897 37.7383 119.101 36.748 119.508 36.0371C119.965 35.3262 120.905 34.9707 122.327 34.9707C122.479 34.9707 122.758 34.9961 123.164 35.0469C123.621 35.0469 123.901 35.0469 124.002 35.0469C124.357 36.6211 124.711 38.3476 125.065 40.2266C125.47 42.0547 125.926 43.9082 126.433 45.7871C126.939 47.666 127.497 49.5195 128.105 51.3476C128.764 53.1758 129.55 54.8262 130.463 56.2988C131.378 55.334 132.039 54.1914 132.446 52.8711C132.853 51.5508 133.158 50.2305 133.362 48.9101C133.566 47.5391 133.745 46.2441 133.898 45.0254C134.102 43.7559 134.484 42.6894 135.043 41.8262C135.602 40.9121 136.415 40.2519 137.482 39.8457C138.599 39.4394 140.122 39.4394 142.052 39.8457C144.185 39.8457 145.886 40.2519 147.155 41.0644C148.424 41.8262 149.515 42.8164 150.428 44.0351C151.392 45.2031 152.305 46.4726 153.168 47.8437C154.081 49.1641 155.223 50.3574 156.593 51.4238C156.898 50.7637 157.28 49.9512 157.737 48.9863C158.195 47.9707 158.754 46.9297 159.415 45.8633C160.127 44.7461 160.864 43.6543 161.626 42.5879C162.439 41.4707 163.278 40.4805 164.142 39.6172C165.006 38.7031 165.895 37.9668 166.809 37.4082C167.724 36.7988 168.613 36.4941 169.476 36.4941C171.558 36.4941 173.36 37.1543 174.883 38.4746C176.405 39.7441 177.699 41.3691 178.764 43.3496C179.88 45.2793 180.793 47.4629 181.502 49.9004C182.212 52.2871 182.769 54.5976 183.173 56.832C183.578 59.0664 183.856 61.123 184.007 63.0019C184.209 64.8301 184.31 66.1504 184.309 66.9629C184.309 67.623 184.156 68.1308 183.851 68.4863C183.546 68.8418 183.165 69.1211 182.708 69.3242C182.251 69.4766 181.743 69.5781 181.185 69.6289C180.677 69.6797 180.194 69.7051 179.737 69.7051C179.636 69.7051 179.483 69.7051 179.28 69.7051C179.077 69.6543 178.849 69.6035 178.595 69.5527C178.392 69.5019 178.112 69.4258 177.757 69.3242L172.821 46.5488C172.821 46.3965 172.618 46.1172 172.212 45.7109C171.806 45.2539 171.502 44.9746 171.299 44.873C171.146 44.873 171.019 44.8476 170.918 44.7969C170.816 44.7969 170.74 44.7969 170.689 44.7969C170.638 44.7461 170.588 44.7207 170.537 44.7207C169.471 44.7207 168.455 45.1523 167.489 46.0156C166.575 46.8789 165.711 47.9707 164.897 49.291C164.084 50.6113 163.321 52.084 162.609 53.709C161.897 55.334 161.261 56.959 160.702 58.584C160.142 60.1582 159.633 61.6308 159.175 63.0019C158.768 64.3223 158.437 65.3379 158.183 66.0488C157.98 66.1504 157.574 66.2519 156.964 66.3535C156.355 66.4043 155.948 66.4297 155.745 66.4297C154.323 66.4297 153.232 65.9473 152.471 64.9824C151.71 63.9668 151.076 62.7226 150.569 61.25C150.113 59.7773 149.708 58.1777 149.353 56.4512C149.05 54.6738 148.645 53.0488 148.138 51.5762C147.682 50.1035 147.022 48.8848 146.16 47.9199C145.348 46.9043 144.18 46.3965 142.657 46.3965C142.098 46.3965 141.565 46.9551 141.056 48.0723C140.548 49.1894 140.09 50.6113 139.682 52.3379C139.275 54.0137 138.893 55.8418 138.536 57.8223C138.179 59.7519 137.873 61.5801 137.618 63.3066C137.414 64.9824 137.261 66.4043 137.159 67.5723C137.056 68.7402 137.005 69.3242 137.005 69.3242C136.903 69.4766 136.7 69.6543 136.395 69.8574C136.091 70.0098 135.76 70.1875 135.405 70.3906C135.1 70.5937 134.77 70.7461 134.414 70.8476C134.11 70.9492 133.881 71 133.729 71C132.307 71 130.936 70.3652 129.617 69.0957C128.297 67.7754 127.079 66.0996 125.964 64.0683C124.899 61.9863 123.91 59.7012 122.997 57.2129C122.136 54.7246 121.401 52.2871 120.793 49.9004C120.185 47.5137 119.704 45.3555 119.35 43.4258C119.047 41.4961 118.896 40.0234 118.896 39.0078ZM259.517 27.8867C259.518 26.4141 259.417 24.9922 259.215 23.6211C259.013 22.1992 258.963 20.9551 259.065 19.8887C259.167 18.7715 259.549 17.8828 260.209 17.2227C260.921 16.5625 262.19 16.2324 264.019 16.2324C264.576 17.4004 265.108 19.1777 265.615 21.5644C266.172 23.9512 266.703 26.6934 267.209 29.791C267.715 32.8887 268.195 36.2656 268.649 39.9219C269.104 43.5273 269.508 47.1582 269.861 50.8144C270.265 54.4707 270.593 58.0762 270.844 61.6308C271.147 65.1348 271.373 68.334 271.523 71.2285C269.847 72.3457 268.501 72.4219 267.486 71.457C266.471 70.4922 265.634 68.8672 264.976 66.582C264.317 64.2461 263.811 61.4277 263.458 58.1269C263.105 54.7754 262.751 51.3223 262.398 47.7676C262.096 44.1621 261.717 40.6328 261.263 37.1797C260.808 33.6758 260.226 30.5781 259.517 27.8867Z" fill="black"/>
<path d="M195 47.1973L205.803 49.1332C212.09 50.2598 218.517 50.3754 224.84 49.4756L240.85 47.1973" stroke="#0BAFF9" stroke-width="7" stroke-linecap="round"/>
<path d="M226.432 33.0773L231.025 36.348C233.488 38.1026 235.655 40.2193 237.448 42.6219L240.591 46.8324" stroke="#0BAFF9" stroke-width="7" stroke-linecap="round"/>
<path d="M227.132 62.0527L231.432 59.3578C234.172 57.6403 236.512 55.3838 238.299 52.7338L241.291 48.2976" stroke="#0BAFF9" stroke-width="7" stroke-linecap="round"/>
<path d="M1.5293 121.1C1.5293 120.908 1.5293 120.566 1.5293 120.074C1.55664 119.555 1.57031 119.021 1.57031 118.475C1.57031 117.9 1.57031 117.367 1.57031 116.875C1.59766 116.383 1.61133 116.027 1.61133 115.809C1.63867 115.754 1.76172 115.617 1.98047 115.398C2.22656 115.152 2.37695 115.002 2.43164 114.947C2.48633 114.947 2.55469 114.934 2.63672 114.906C2.69141 114.906 2.73242 114.906 2.75977 114.906C2.81445 114.879 2.85547 114.865 2.88281 114.865C2.91016 114.865 2.95117 114.879 3.00586 114.906C3.06055 114.906 3.10156 114.906 3.12891 114.906C3.21094 114.934 3.29297 114.947 3.375 114.947C3.40234 114.975 3.45703 115.029 3.53906 115.111C3.62109 115.166 3.70312 115.248 3.78516 115.357C3.89453 115.439 3.99023 115.535 4.07227 115.645C4.1543 115.727 4.19531 115.781 4.19531 115.809C4.08594 117.148 4.16797 118.406 4.44141 119.582C4.74219 120.758 5.08398 121.879 5.4668 122.945C5.84961 123.984 6.20508 124.969 6.5332 125.898C6.86133 126.828 7.02539 127.73 7.02539 128.605C7.02539 128.906 6.98438 129.248 6.90234 129.631C6.82031 129.986 6.66992 130.328 6.45117 130.656C6.25977 130.957 6.01367 131.217 5.71289 131.436C5.43945 131.627 5.07031 131.723 4.60547 131.723C3.97656 131.723 3.44336 131.504 3.00586 131.066C2.5957 130.629 2.28125 130.068 2.0625 129.385C1.84375 128.674 1.69336 127.895 1.61133 127.047C1.5293 126.199 1.47461 125.393 1.44727 124.627C1.44727 123.834 1.46094 123.123 1.48828 122.494C1.51562 121.838 1.5293 121.373 1.5293 121.1ZM8.625 118.352C8.625 118.051 8.67969 117.75 8.78906 117.449C8.89844 117.121 9.03516 116.834 9.19922 116.588C9.39062 116.342 9.62305 116.15 9.89648 116.014C10.1699 115.85 10.4707 115.768 10.7988 115.768C11.1543 115.768 11.4824 116.068 11.7832 116.67C12.084 117.271 12.3574 118.037 12.6035 118.967C12.8496 119.869 13.041 120.854 13.1777 121.92C13.3418 122.986 13.4785 123.984 13.5879 124.914C13.7246 125.844 13.8203 126.623 13.875 127.252C13.9297 127.881 13.957 128.209 13.957 128.236C13.957 129.412 13.3145 130 12.0293 130C11.5645 130 11.1543 129.754 10.7988 129.262C10.4434 128.742 10.1289 128.1 9.85547 127.334C9.60938 126.541 9.4043 125.68 9.24023 124.75C9.07617 123.793 8.93945 122.891 8.83008 122.043C8.74805 121.168 8.69336 120.402 8.66602 119.746C8.63867 119.062 8.625 118.598 8.625 118.352ZM15.5566 133.773C15.5566 133.09 15.666 132.557 15.8848 132.174C16.1309 131.791 16.6367 131.6 17.4023 131.6C17.4844 131.6 17.6348 131.613 17.8535 131.641C18.0996 131.641 18.25 131.641 18.3047 131.641C18.4961 132.488 18.6875 133.418 18.8789 134.43C19.0977 135.414 19.3438 136.412 19.6172 137.424C19.8906 138.436 20.1914 139.434 20.5195 140.418C20.875 141.402 21.2988 142.291 21.791 143.084C22.2832 142.564 22.6387 141.949 22.8574 141.238C23.0762 140.527 23.2402 139.816 23.3496 139.105C23.459 138.367 23.5547 137.67 23.6367 137.014C23.7461 136.33 23.9512 135.756 24.252 135.291C24.5527 134.799 24.9902 134.443 25.5645 134.225C26.166 134.006 26.9863 134.006 28.0254 134.225C29.1738 134.225 30.0898 134.443 30.7734 134.881C31.457 135.291 32.0449 135.824 32.5371 136.48C33.0566 137.109 33.5488 137.793 34.0137 138.531C34.5059 139.242 35.1211 139.885 35.8594 140.459C36.0234 140.104 36.2285 139.666 36.4746 139.146C36.7207 138.6 37.0215 138.039 37.377 137.465C37.7598 136.863 38.1562 136.275 38.5664 135.701C39.0039 135.1 39.4551 134.566 39.9199 134.102C40.3848 133.609 40.8633 133.213 41.3555 132.912C41.8477 132.584 42.3262 132.42 42.791 132.42C43.9121 132.42 44.8828 132.775 45.7031 133.486C46.5234 134.17 47.2207 135.045 47.7949 136.111C48.3965 137.15 48.8887 138.326 49.2715 139.639C49.6543 140.924 49.9551 142.168 50.1738 143.371C50.3926 144.574 50.543 145.682 50.625 146.693C50.7344 147.678 50.7891 148.389 50.7891 148.826C50.7891 149.182 50.707 149.455 50.543 149.646C50.3789 149.838 50.1738 149.988 49.9277 150.098C49.6816 150.18 49.4082 150.234 49.1074 150.262C48.834 150.289 48.5742 150.303 48.3281 150.303C48.2734 150.303 48.1914 150.303 48.082 150.303C47.9727 150.275 47.8496 150.248 47.7129 150.221C47.6035 150.193 47.4531 150.152 47.2617 150.098L44.5957 137.834C44.5957 137.752 44.4863 137.602 44.2676 137.383C44.0488 137.137 43.8848 136.986 43.7754 136.932C43.6934 136.932 43.625 136.918 43.5703 136.891C43.5156 136.891 43.4746 136.891 43.4473 136.891C43.4199 136.863 43.3926 136.85 43.3652 136.85C42.791 136.85 42.2441 137.082 41.7246 137.547C41.2324 138.012 40.7676 138.6 40.3301 139.311C39.8926 140.021 39.4824 140.814 39.0996 141.689C38.7168 142.564 38.375 143.439 38.0742 144.314C37.7734 145.162 37.5 145.955 37.2539 146.693C37.0352 147.404 36.8574 147.951 36.7207 148.334C36.6113 148.389 36.3926 148.443 36.0645 148.498C35.7363 148.525 35.5176 148.539 35.4082 148.539C34.6426 148.539 34.0547 148.279 33.6445 147.76C33.2344 147.213 32.8926 146.543 32.6191 145.75C32.373 144.957 32.1543 144.096 31.9629 143.166C31.7988 142.209 31.5801 141.334 31.3066 140.541C31.0605 139.748 30.7051 139.092 30.2402 138.572C29.8027 138.025 29.1738 137.752 28.3535 137.752C28.0527 137.752 27.7656 138.053 27.4922 138.654C27.2188 139.256 26.9727 140.021 26.7539 140.951C26.5352 141.854 26.3301 142.838 26.1387 143.904C25.9473 144.943 25.7832 145.928 25.6465 146.857C25.5371 147.76 25.4551 148.525 25.4004 149.154C25.3457 149.783 25.3184 150.098 25.3184 150.098C25.2637 150.18 25.1543 150.275 24.9902 150.385C24.8262 150.467 24.6484 150.562 24.457 150.672C24.293 150.781 24.1152 150.863 23.9238 150.918C23.7598 150.973 23.6367 151 23.5547 151C22.7891 151 22.0508 150.658 21.3398 149.975C20.6289 149.264 19.9727 148.361 19.3711 147.268C18.7969 146.146 18.2637 144.916 17.7715 143.576C17.3066 142.236 16.9102 140.924 16.582 139.639C16.2539 138.354 15.9941 137.191 15.8027 136.152C15.6387 135.113 15.5566 134.32 15.5566 133.773ZM70.1074 145.709C69.0684 146.42 68.166 147.062 67.4004 147.637C66.6621 148.184 65.9375 148.648 65.2266 149.031C64.5156 149.414 63.75 149.701 62.9297 149.893C62.1367 150.084 61.1523 150.18 59.9766 150.18C57.4336 150.18 55.5469 149.51 54.3164 148.17C53.0859 146.803 52.4707 144.779 52.4707 142.1C52.4707 141.061 52.6074 139.98 52.8809 138.859C53.1543 137.738 53.5508 136.631 54.0703 135.537C54.6172 134.416 55.2598 133.363 55.998 132.379C56.7363 131.367 57.5703 130.479 58.5 129.713C59.4297 128.947 60.4141 128.346 61.4531 127.908C62.5195 127.443 63.6406 127.211 64.8164 127.211C66.7852 127.402 68.3301 127.895 69.4512 128.688C70.5723 129.453 71.4199 130.451 71.9941 131.682C72.5684 132.885 72.9648 134.238 73.1836 135.742C73.4023 137.219 73.5664 138.75 73.6758 140.336C73.8125 141.922 73.9766 143.508 74.168 145.094C74.3594 146.68 74.7559 148.143 75.3574 149.482C75.002 150.385 74.6602 151.014 74.332 151.369C74.0312 151.752 73.6895 151.82 73.3066 151.574C72.9238 151.328 72.4727 150.727 71.9531 149.77C71.4609 148.812 70.8457 147.459 70.1074 145.709ZM55.957 142.182C55.957 143.74 56.2441 144.889 56.8184 145.627C57.4199 146.338 58.4727 146.693 59.9766 146.693C61.0977 146.693 62.1641 146.502 63.1758 146.119C64.2148 145.709 65.1172 145.162 65.8828 144.479C66.6484 143.768 67.2637 142.92 67.7285 141.936C68.1934 140.951 68.4258 139.857 68.4258 138.654C68.4258 138.162 68.4395 137.479 68.4668 136.604C68.4941 135.701 68.4395 134.812 68.3027 133.938C68.166 133.062 67.9062 132.311 67.5234 131.682C67.1406 131.025 66.5664 130.697 65.8008 130.697C64.3789 130.697 63.0664 131.066 61.8633 131.805C60.6602 132.516 59.6211 133.432 58.7461 134.553C57.8711 135.674 57.1875 136.918 56.6953 138.285C56.2031 139.625 55.957 140.924 55.957 142.182ZM77.0391 133.773C77.0391 133.09 77.1484 132.557 77.3672 132.174C77.6133 131.791 78.1191 131.6 78.8848 131.6C78.9668 131.6 79.1172 131.613 79.3359 131.641C79.582 131.641 79.7324 131.641 79.7871 131.641C79.9785 132.488 80.1699 133.418 80.3613 134.43C80.5801 135.414 80.8262 136.412 81.0996 137.424C81.373 138.436 81.6738 139.434 82.002 140.418C82.3574 141.402 82.7812 142.291 83.2734 143.084C83.7656 142.564 84.1211 141.949 84.3398 141.238C84.5586 140.527 84.7227 139.816 84.832 139.105C84.9414 138.367 85.0371 137.67 85.1191 137.014C85.2285 136.33 85.4336 135.756 85.7344 135.291C86.0352 134.799 86.4727 134.443 87.0469 134.225C87.6484 134.006 88.4688 134.006 89.5078 134.225C90.6562 134.225 91.5723 134.443 92.2559 134.881C92.9395 135.291 93.5273 135.824 94.0195 136.48C94.5391 137.109 95.0312 137.793 95.4961 138.531C95.9883 139.242 96.6035 139.885 97.3418 140.459C97.5059 140.104 97.7109 139.666 97.957 139.146C98.2031 138.6 98.5039 138.039 98.8594 137.465C99.2422 136.863 99.6387 136.275 100.049 135.701C100.486 135.1 100.938 134.566 101.402 134.102C101.867 133.609 102.346 133.213 102.838 132.912C103.33 132.584 103.809 132.42 104.273 132.42C105.395 132.42 106.365 132.775 107.186 133.486C108.006 134.17 108.703 135.045 109.277 136.111C109.879 137.15 110.371 138.326 110.754 139.639C111.137 140.924 111.438 142.168 111.656 143.371C111.875 144.574 112.025 145.682 112.107 146.693C112.217 147.678 112.271 148.389 112.271 148.826C112.271 149.182 112.189 149.455 112.025 149.646C111.861 149.838 111.656 149.988 111.41 150.098C111.164 150.18 110.891 150.234 110.59 150.262C110.316 150.289 110.057 150.303 109.811 150.303C109.756 150.303 109.674 150.303 109.564 150.303C109.455 150.275 109.332 150.248 109.195 150.221C109.086 150.193 108.936 150.152 108.744 150.098L106.078 137.834C106.078 137.752 105.969 137.602 105.75 137.383C105.531 137.137 105.367 136.986 105.258 136.932C105.176 136.932 105.107 136.918 105.053 136.891C104.998 136.891 104.957 136.891 104.93 136.891C104.902 136.863 104.875 136.85 104.848 136.85C104.273 136.85 103.727 137.082 103.207 137.547C102.715 138.012 102.25 138.6 101.812 139.311C101.375 140.021 100.965 140.814 100.582 141.689C100.199 142.564 99.8574 143.439 99.5566 144.314C99.2559 145.162 98.9824 145.955 98.7363 146.693C98.5176 147.404 98.3398 147.951 98.2031 148.334C98.0938 148.389 97.875 148.443 97.5469 148.498C97.2188 148.525 97 148.539 96.8906 148.539C96.125 148.539 95.5371 148.279 95.127 147.76C94.7168 147.213 94.375 146.543 94.1016 145.75C93.8555 144.957 93.6367 144.096 93.4453 143.166C93.2812 142.209 93.0625 141.334 92.7891 140.541C92.543 139.748 92.1875 139.092 91.7227 138.572C91.2852 138.025 90.6562 137.752 89.8359 137.752C89.5352 137.752 89.248 138.053 88.9746 138.654C88.7012 139.256 88.4551 140.021 88.2363 140.951C88.0176 141.854 87.8125 142.838 87.6211 143.904C87.4297 144.943 87.2656 145.928 87.1289 146.857C87.0195 147.76 86.9375 148.525 86.8828 149.154C86.8281 149.783 86.8008 150.098 86.8008 150.098C86.7461 150.18 86.6367 150.275 86.4727 150.385C86.3086 150.467 86.1309 150.562 85.9395 150.672C85.7754 150.781 85.5977 150.863 85.4062 150.918C85.2422 150.973 85.1191 151 85.0371 151C84.2715 151 83.5332 150.658 82.8223 149.975C82.1113 149.264 81.4551 148.361 80.8535 147.268C80.2793 146.146 79.7461 144.916 79.2539 143.576C78.7891 142.236 78.3926 140.924 78.0645 139.639C77.7363 138.354 77.4766 137.191 77.2852 136.152C77.1211 135.113 77.0391 134.32 77.0391 133.773ZM113.051 133.773C113.051 133.09 113.16 132.557 113.379 132.174C113.625 131.791 114.131 131.6 114.896 131.6C114.979 131.6 115.129 131.613 115.348 131.641C115.594 131.641 115.744 131.641 115.799 131.641C115.99 132.488 116.182 133.418 116.373 134.43C116.592 135.414 116.838 136.412 117.111 137.424C117.385 138.436 117.686 139.434 118.014 140.418C118.369 141.402 118.793 142.291 119.285 143.084C119.777 142.564 120.133 141.949 120.352 141.238C120.57 140.527 120.734 139.816 120.844 139.105C120.953 138.367 121.049 137.67 121.131 137.014C121.24 136.33 121.445 135.756 121.746 135.291C122.047 134.799 122.484 134.443 123.059 134.225C123.66 134.006 124.48 134.006 125.52 134.225C126.668 134.225 127.584 134.443 128.268 134.881C128.951 135.291 129.539 135.824 130.031 136.48C130.551 137.109 131.043 137.793 131.508 138.531C132 139.242 132.615 139.885 133.354 140.459C133.518 140.104 133.723 139.666 133.969 139.146C134.215 138.6 134.516 138.039 134.871 137.465C135.254 136.863 135.65 136.275 136.061 135.701C136.498 135.1 136.949 134.566 137.414 134.102C137.879 133.609 138.357 133.213 138.85 132.912C139.342 132.584 139.82 132.42 140.285 132.42C141.406 132.42 142.377 132.775 143.197 133.486C144.018 134.17 144.715 135.045 145.289 136.111C145.891 137.15 146.383 138.326 146.766 139.639C147.148 140.924 147.449 142.168 147.668 143.371C147.887 144.574 148.037 145.682 148.119 146.693C148.229 147.678 148.283 148.389 148.283 148.826C148.283 149.182 148.201 149.455 148.037 149.646C147.873 149.838 147.668 149.988 147.422 150.098C147.176 150.18 146.902 150.234 146.602 150.262C146.328 150.289 146.068 150.303 145.822 150.303C145.768 150.303 145.686 150.303 145.576 150.303C145.467 150.275 145.344 150.248 145.207 150.221C145.098 150.193 144.947 150.152 144.756 150.098L142.09 137.834C142.09 137.752 141.98 137.602 141.762 137.383C141.543 137.137 141.379 136.986 141.27 136.932C141.188 136.932 141.119 136.918 141.064 136.891C141.01 136.891 140.969 136.891 140.941 136.891C140.914 136.863 140.887 136.85 140.859 136.85C140.285 136.85 139.738 137.082 139.219 137.547C138.727 138.012 138.262 138.6 137.824 139.311C137.387 140.021 136.977 140.814 136.594 141.689C136.211 142.564 135.869 143.439 135.568 144.314C135.268 145.162 134.994 145.955 134.748 146.693C134.529 147.404 134.352 147.951 134.215 148.334C134.105 148.389 133.887 148.443 133.559 148.498C133.23 148.525 133.012 148.539 132.902 148.539C132.137 148.539 131.549 148.279 131.139 147.76C130.729 147.213 130.387 146.543 130.113 145.75C129.867 144.957 129.648 144.096 129.457 143.166C129.293 142.209 129.074 141.334 128.801 140.541C128.555 139.748 128.199 139.092 127.734 138.572C127.297 138.025 126.668 137.752 125.848 137.752C125.547 137.752 125.26 138.053 124.986 138.654C124.713 139.256 124.467 140.021 124.248 140.951C124.029 141.854 123.824 142.838 123.633 143.904C123.441 144.943 123.277 145.928 123.141 146.857C123.031 147.76 122.949 148.525 122.895 149.154C122.84 149.783 122.812 150.098 122.812 150.098C122.758 150.18 122.648 150.275 122.484 150.385C122.32 150.467 122.143 150.562 121.951 150.672C121.787 150.781 121.609 150.863 121.418 150.918C121.254 150.973 121.131 151 121.049 151C120.283 151 119.545 150.658 118.834 149.975C118.123 149.264 117.467 148.361 116.865 147.268C116.291 146.146 115.758 144.916 115.266 143.576C114.801 142.236 114.404 140.924 114.076 139.639C113.748 138.354 113.488 137.191 113.297 136.152C113.133 135.113 113.051 134.32 113.051 133.773ZM167.602 145.709C166.562 146.42 165.66 147.062 164.895 147.637C164.156 148.184 163.432 148.648 162.721 149.031C162.01 149.414 161.244 149.701 160.424 149.893C159.631 150.084 158.646 150.18 157.471 150.18C154.928 150.18 153.041 149.51 151.811 148.17C150.58 146.803 149.965 144.779 149.965 142.1C149.965 141.061 150.102 139.98 150.375 138.859C150.648 137.738 151.045 136.631 151.564 135.537C152.111 134.416 152.754 133.363 153.492 132.379C154.23 131.367 155.064 130.479 155.994 129.713C156.924 128.947 157.908 128.346 158.947 127.908C160.014 127.443 161.135 127.211 162.311 127.211C164.279 127.402 165.824 127.895 166.945 128.688C168.066 129.453 168.914 130.451 169.488 131.682C170.062 132.885 170.459 134.238 170.678 135.742C170.896 137.219 171.061 138.75 171.17 140.336C171.307 141.922 171.471 143.508 171.662 145.094C171.854 146.68 172.25 148.143 172.852 149.482C172.496 150.385 172.154 151.014 171.826 151.369C171.525 151.752 171.184 151.82 170.801 151.574C170.418 151.328 169.967 150.727 169.447 149.77C168.955 148.812 168.34 147.459 167.602 145.709ZM153.451 142.182C153.451 143.74 153.738 144.889 154.312 145.627C154.914 146.338 155.967 146.693 157.471 146.693C158.592 146.693 159.658 146.502 160.67 146.119C161.709 145.709 162.611 145.162 163.377 144.479C164.143 143.768 164.758 142.92 165.223 141.936C165.688 140.951 165.92 139.857 165.92 138.654C165.92 138.162 165.934 137.479 165.961 136.604C165.988 135.701 165.934 134.812 165.797 133.938C165.66 133.062 165.4 132.311 165.018 131.682C164.635 131.025 164.061 130.697 163.295 130.697C161.873 130.697 160.561 131.066 159.357 131.805C158.154 132.516 157.115 133.432 156.24 134.553C155.365 135.674 154.682 136.918 154.189 138.285C153.697 139.625 153.451 140.924 153.451 142.182ZM176.42 127.785C176.42 126.992 176.365 126.227 176.256 125.488C176.146 124.723 176.119 124.053 176.174 123.479C176.229 122.877 176.434 122.398 176.789 122.043C177.172 121.688 177.855 121.51 178.84 121.51C179.141 122.139 179.428 123.096 179.701 124.381C180.002 125.666 180.289 127.143 180.562 128.811C180.836 130.479 181.096 132.297 181.342 134.266C181.588 136.207 181.807 138.162 181.998 140.131C182.217 142.1 182.395 144.041 182.531 145.955C182.695 147.842 182.818 149.564 182.9 151.123C181.998 151.725 181.273 151.766 180.727 151.246C180.18 150.727 179.729 149.852 179.373 148.621C179.018 147.363 178.744 145.846 178.553 144.068C178.361 142.264 178.17 140.404 177.979 138.49C177.814 136.549 177.609 134.648 177.363 132.789C177.117 130.902 176.803 129.234 176.42 127.785ZM192.908 149.154C193.346 148.854 193.865 148.471 194.467 148.006C195.096 147.514 195.725 146.994 196.354 146.447C196.982 145.9 197.57 145.326 198.117 144.725C198.664 144.123 199.088 143.549 199.389 143.002C199.717 142.428 199.881 141.895 199.881 141.402C199.881 140.91 199.635 140.5 199.143 140.172C198.268 140.172 197.311 140.213 196.271 140.295C195.232 140.35 194.193 140.377 193.154 140.377C192.115 140.35 191.104 140.254 190.119 140.09C189.162 139.926 188.301 139.625 187.535 139.188C186.77 138.75 186.154 138.135 185.689 137.342C185.252 136.521 185.033 135.482 185.033 134.225C185.033 132.748 185.307 131.422 185.854 130.246C186.428 129.043 187.18 127.99 188.109 127.088C189.039 126.158 190.078 125.352 191.227 124.668C192.402 123.957 193.578 123.355 194.754 122.863C195.465 123.055 196.121 123.396 196.723 123.889C197.324 124.381 197.844 124.928 198.281 125.529C198.09 126.131 197.707 126.596 197.133 126.924C196.586 127.252 195.943 127.539 195.205 127.785C194.494 128.031 193.742 128.291 192.949 128.564C192.156 128.838 191.432 129.207 190.775 129.672C190.146 130.109 189.613 130.697 189.176 131.436C188.738 132.146 188.52 133.09 188.52 134.266C188.52 135.141 188.738 135.783 189.176 136.193C189.613 136.604 190.188 136.891 190.898 137.055C191.609 137.191 192.416 137.246 193.318 137.219C194.221 137.164 195.137 137.096 196.066 137.014C197.023 136.932 197.953 136.891 198.855 136.891C199.758 136.863 200.564 136.973 201.275 137.219C201.986 137.438 202.547 137.807 202.957 138.326C203.395 138.846 203.613 139.611 203.613 140.623C203.613 141.061 203.463 141.621 203.162 142.305C202.889 142.988 202.506 143.727 202.014 144.52C201.549 145.285 200.988 146.051 200.332 146.816C199.703 147.582 199.033 148.279 198.322 148.908C197.639 149.51 196.941 150.016 196.23 150.426C195.547 150.809 194.904 151 194.303 151C193.729 151 193.346 150.795 193.154 150.385C192.99 149.975 192.908 149.564 192.908 149.154ZM385.436 172.82C386.967 172.82 388.334 172.533 389.537 171.959C390.74 171.412 391.752 170.646 392.572 169.662C393.42 168.705 394.062 167.598 394.5 166.34C394.965 165.109 395.197 163.824 395.197 162.484C395.197 161.801 395.156 160.898 395.074 159.777C395.02 158.656 394.924 157.439 394.787 156.127C394.65 154.814 394.445 153.475 394.172 152.107C393.926 150.74 393.611 149.455 393.229 148.252C392.846 147.021 392.367 145.955 391.793 145.053C391.246 144.123 390.604 143.467 389.865 143.084C389.154 143.631 388.457 144.137 387.773 144.602C387.09 145.039 386.379 145.408 385.641 145.709C384.902 146.01 384.137 146.256 383.344 146.447C382.551 146.611 381.703 146.693 380.801 146.693C379.625 146.693 378.613 146.584 377.766 146.365C376.945 146.146 376.248 145.777 375.674 145.258C375.127 144.738 374.717 144.055 374.443 143.207C374.17 142.359 374.033 141.293 374.033 140.008C374.033 139.105 374.252 138.23 374.689 137.383C375.127 136.508 375.701 135.701 376.412 134.963C377.15 134.197 377.971 133.5 378.873 132.871C379.803 132.242 380.746 131.695 381.703 131.23C382.688 130.766 383.645 130.41 384.574 130.164C385.531 129.918 386.379 129.795 387.117 129.795C387.828 129.795 388.416 129.822 388.881 129.877C389.346 129.904 389.742 130.014 390.07 130.205C390.398 130.369 390.672 130.643 390.891 131.025C391.137 131.381 391.369 131.873 391.588 132.502C392.217 134.635 392.941 136.932 393.762 139.393C394.582 141.854 395.361 144.383 396.1 146.98C396.838 149.578 397.453 152.189 397.945 154.814C398.465 157.467 398.725 160.023 398.725 162.484C398.725 164.672 398.41 166.518 397.781 168.021C397.18 169.553 396.373 170.797 395.361 171.754C394.377 172.738 393.242 173.49 391.957 174.01C390.699 174.529 389.428 174.857 388.143 174.994C386.857 175.158 385.613 175.199 384.41 175.117C383.207 175.035 382.168 174.871 381.293 174.625C380.418 174.406 379.748 174.146 379.283 173.846C378.846 173.545 378.736 173.285 378.955 173.066C379.201 172.875 379.83 172.738 380.842 172.656C381.854 172.574 383.385 172.629 385.436 172.82ZM386.01 133.24C383.986 133.678 382.346 134.293 381.088 135.086C379.857 135.852 378.928 136.686 378.299 137.588C377.697 138.463 377.369 139.352 377.314 140.254C377.26 141.129 377.424 141.881 377.807 142.51C378.189 143.139 378.736 143.617 379.447 143.945C380.186 144.246 381.02 144.26 381.949 143.986C382.879 143.686 383.863 143.057 384.902 142.1C385.969 141.143 387.035 139.721 388.102 137.834C388.102 137.369 388.102 136.863 388.102 136.316C388.129 135.77 388.088 135.277 387.979 134.84C387.869 134.375 387.664 133.992 387.363 133.691C387.062 133.391 386.611 133.24 386.01 133.24ZM400.324 135.619C400.324 135.455 400.324 135.195 400.324 134.84C400.352 134.457 400.365 134.061 400.365 133.65C400.393 133.24 400.406 132.844 400.406 132.461C400.434 132.078 400.447 131.805 400.447 131.641C400.748 131.203 401.131 130.848 401.596 130.574C402.088 130.301 402.58 130.082 403.072 129.918C403.154 131.395 403.387 132.967 403.77 134.635C404.152 136.303 404.562 137.984 405 139.68C405.438 141.348 405.82 143.002 406.148 144.643C406.504 146.283 406.682 147.814 406.682 149.236C406.682 150.467 406.053 151.082 404.795 151.082C404.029 151.082 403.387 150.768 402.867 150.139C402.348 149.51 401.924 148.717 401.596 147.76C401.295 146.775 401.049 145.695 400.857 144.52C400.666 143.316 400.529 142.141 400.447 140.992C400.393 139.844 400.352 138.791 400.324 137.834C400.324 136.877 400.324 136.139 400.324 135.619ZM400.898 120.238C401.418 120.457 401.855 120.812 402.211 121.305C402.566 121.797 402.717 122.248 402.662 122.658C402.635 123.041 402.334 123.314 401.76 123.479C401.186 123.615 400.229 123.451 398.889 122.986C398.889 122.248 399.025 121.605 399.299 121.059C399.6 120.512 400.133 120.238 400.898 120.238ZM408.035 129.631C408.227 128.975 408.445 128.674 408.691 128.729C408.965 128.783 409.293 129.098 409.676 129.672C410.059 130.246 410.482 131.012 410.947 131.969C411.439 132.926 411.959 133.965 412.506 135.086C413.053 136.18 413.641 137.301 414.27 138.449C414.926 139.598 415.596 140.65 416.279 141.607C416.99 142.564 417.729 143.357 418.494 143.986C419.287 144.615 420.094 144.984 420.914 145.094L424.195 128.113C424.25 127.648 424.455 127.389 424.811 127.334C425.193 127.252 425.562 127.211 425.918 127.211C427.148 127.211 427.764 127.785 427.764 128.934C427.764 129.535 427.709 130.492 427.6 131.805C427.49 133.117 427.312 134.566 427.066 136.152C426.82 137.711 426.52 139.324 426.164 140.992C425.809 142.633 425.385 144.137 424.893 145.504C424.4 146.871 423.826 147.992 423.17 148.867C422.541 149.742 421.844 150.18 421.078 150.18C419.957 150.18 418.85 149.811 417.756 149.072C416.662 148.307 415.623 147.322 414.639 146.119C413.682 144.889 412.793 143.521 411.973 142.018C411.18 140.514 410.482 139.01 409.881 137.506C409.307 135.975 408.855 134.512 408.527 133.117C408.199 131.723 408.035 130.561 408.035 129.631ZM430.225 139.598C430.225 138.121 430.402 136.645 430.758 135.168C431.113 133.691 431.674 132.365 432.439 131.189C433.232 130.014 434.244 129.057 435.475 128.318C436.732 127.58 438.25 127.211 440.027 127.211C441.039 127.211 441.928 127.402 442.693 127.785C443.459 128.141 444.102 128.619 444.621 129.221C445.141 129.822 445.523 130.533 445.77 131.354C446.043 132.146 446.18 132.98 446.18 133.855C446.18 135.25 445.852 136.604 445.195 137.916C444.566 139.229 443.705 140.391 442.611 141.402C441.545 142.387 440.314 143.139 438.92 143.658C437.525 144.15 436.104 144.26 434.654 143.986C434.682 144.779 434.941 145.422 435.434 145.914C435.953 146.379 436.568 146.734 437.279 146.98C437.99 147.227 438.729 147.391 439.494 147.473C440.26 147.527 440.943 147.555 441.545 147.555C442.174 147.555 442.762 147.5 443.309 147.391C443.855 147.281 444.402 147.158 444.949 147.021C445.496 146.885 446.043 146.762 446.59 146.652C447.164 146.543 447.766 146.488 448.395 146.488C448.641 146.488 448.887 146.502 449.133 146.529C449.379 146.557 449.611 146.625 449.83 146.734C450.049 146.816 450.227 146.967 450.363 147.186C450.5 147.377 450.568 147.623 450.568 147.924C450.568 148.443 450.377 148.881 449.994 149.236C449.611 149.564 449.119 149.852 448.518 150.098C447.943 150.344 447.301 150.535 446.59 150.672C445.879 150.781 445.182 150.877 444.498 150.959C443.842 151.014 443.227 151.041 442.652 151.041C442.105 151.068 441.695 151.082 441.422 151.082C439.672 151.082 438.1 150.809 436.705 150.262C435.311 149.688 434.135 148.908 433.178 147.924C432.221 146.912 431.482 145.709 430.963 144.314C430.471 142.893 430.225 141.32 430.225 139.598ZM434.572 136.932C434.572 137.889 434.695 138.586 434.941 139.023C435.215 139.461 435.857 139.68 436.869 139.68C437.58 139.68 438.277 139.557 438.961 139.311C439.645 139.037 440.26 138.668 440.807 138.203C441.381 137.738 441.832 137.191 442.16 136.562C442.488 135.934 442.652 135.25 442.652 134.512C442.652 134.102 442.611 133.678 442.529 133.24C442.475 132.803 442.338 132.406 442.119 132.051C441.9 131.668 441.613 131.367 441.258 131.148C440.93 130.902 440.492 130.779 439.945 130.779C439.125 130.779 438.373 130.971 437.689 131.354C437.033 131.709 436.473 132.188 436.008 132.789C435.543 133.363 435.188 134.02 434.941 134.758C434.695 135.469 434.572 136.193 434.572 136.932ZM35.2646 191.236C34.417 188.775 33.6104 186.479 32.8447 184.346C32.1064 182.186 31.4502 180.08 30.876 178.029C30.3291 175.951 29.8916 173.846 29.5635 171.713C29.2354 169.58 29.0713 167.297 29.0713 164.863C29.0713 164.672 29.0713 164.33 29.0713 163.838C29.0986 163.318 29.1123 162.785 29.1123 162.238C29.1123 161.691 29.1123 161.172 29.1123 160.68C29.1396 160.16 29.1533 159.805 29.1533 159.613C29.3994 159.066 29.8232 158.561 30.4248 158.096C31.0537 157.631 31.6826 157.398 32.3115 157.398C32.3115 159.422 32.3389 161.582 32.3936 163.879C32.4482 166.148 32.6123 168.418 32.8857 170.688C33.1865 172.957 33.6514 175.186 34.2803 177.373C34.9365 179.533 35.8525 181.516 37.0283 183.32C37.0557 182.664 37.083 181.939 37.1104 181.146C37.1377 180.354 37.2061 179.561 37.3154 178.768C37.4521 177.975 37.6572 177.209 37.9307 176.471C38.2041 175.732 38.6006 175.076 39.1201 174.502C39.667 173.928 40.3643 173.477 41.2119 173.148C42.0869 172.82 43.1807 172.67 44.4932 172.697C45.6689 172.697 46.7217 172.916 47.6514 173.354C48.6084 173.791 49.4014 174.393 50.0303 175.158C50.6865 175.896 51.1787 176.771 51.5068 177.783C51.8623 178.768 52.04 179.82 52.04 180.941C52.04 182.445 51.6709 183.922 50.9326 185.371C50.1943 186.82 49.21 188.119 47.9795 189.268C46.7764 190.416 45.4229 191.346 43.9189 192.057C42.415 192.74 40.8838 193.082 39.3252 193.082C38.5322 193.082 37.7666 192.945 37.0283 192.672C36.29 192.371 35.7021 191.893 35.2646 191.236ZM44.9854 176.266C44.4385 176.566 43.8643 176.922 43.2627 177.332C42.6611 177.742 42.1006 178.385 41.5811 179.26C41.0889 180.107 40.665 181.27 40.3096 182.746C39.9541 184.223 39.7354 186.178 39.6533 188.611C39.708 188.611 39.8447 188.625 40.0635 188.652C40.3096 188.68 40.4736 188.693 40.5557 188.693C41.2939 188.693 42.1279 188.461 43.0576 187.996C44.0146 187.531 44.9307 186.957 45.8057 186.273C46.708 185.59 47.4873 184.838 48.1436 184.018C48.7998 183.17 49.1963 182.363 49.333 181.598C49.415 181.133 49.3193 180.6 49.0459 179.998C48.7725 179.396 48.4033 178.822 47.9385 178.275C47.501 177.701 47.0088 177.223 46.4619 176.84C45.9424 176.457 45.4502 176.266 44.9854 176.266ZM56.2646 177.619C56.2646 177.455 56.2646 177.195 56.2646 176.84C56.292 176.457 56.3057 176.061 56.3057 175.65C56.333 175.24 56.3467 174.844 56.3467 174.461C56.374 174.078 56.3877 173.805 56.3877 173.641C56.6885 173.203 57.0713 172.848 57.5361 172.574C58.0283 172.301 58.5205 172.082 59.0127 171.918C59.0947 173.395 59.3271 174.967 59.71 176.635C60.0928 178.303 60.5029 179.984 60.9404 181.68C61.3779 183.348 61.7607 185.002 62.0889 186.643C62.4443 188.283 62.6221 189.814 62.6221 191.236C62.6221 192.467 61.9932 193.082 60.7354 193.082C59.9697 193.082 59.3271 192.768 58.8076 192.139C58.2881 191.51 57.8643 190.717 57.5361 189.76C57.2354 188.775 56.9893 187.695 56.7979 186.52C56.6064 185.316 56.4697 184.141 56.3877 182.992C56.333 181.844 56.292 180.791 56.2646 179.834C56.2646 178.877 56.2646 178.139 56.2646 177.619ZM56.8389 162.238C57.3584 162.457 57.7959 162.812 58.1514 163.305C58.5068 163.797 58.6572 164.248 58.6025 164.658C58.5752 165.041 58.2744 165.314 57.7002 165.479C57.126 165.615 56.1689 165.451 54.8291 164.986C54.8291 164.248 54.9658 163.605 55.2393 163.059C55.54 162.512 56.0732 162.238 56.8389 162.238ZM64.2217 175.773C64.2217 175.527 64.2354 175.281 64.2627 175.035C64.29 174.762 64.3447 174.529 64.4268 174.338C64.5088 174.119 64.6318 173.941 64.7959 173.805C64.9873 173.668 65.2471 173.6 65.5752 173.6C65.8486 173.6 66.1494 173.818 66.4775 174.256C66.833 174.666 67.1885 175.199 67.5439 175.855C67.8994 176.484 68.2412 177.182 68.5693 177.947C68.9248 178.713 69.2256 179.424 69.4717 180.08C69.7451 180.709 69.9639 181.256 70.1279 181.721C70.292 182.186 70.3877 182.432 70.415 182.459C70.7705 181.502 71.167 180.463 71.6045 179.342C72.042 178.221 72.5752 177.182 73.2041 176.225C73.8604 175.24 74.626 174.42 75.501 173.764C76.4033 173.107 77.4971 172.779 78.7822 172.779C79.4385 172.779 80.0537 172.889 80.6279 173.107C81.2295 173.299 81.749 173.6 82.1865 174.01C82.6514 174.393 83.0205 174.857 83.2939 175.404C83.5674 175.951 83.7041 176.58 83.7041 177.291C83.7041 177.893 83.458 178.316 82.9658 178.562C82.501 178.809 81.9678 178.932 81.3662 178.932H80.9561L79.1924 177.168C79.1377 177.168 79.0967 177.154 79.0693 177.127C79.0146 177.127 78.96 177.127 78.9053 177.127C78.8779 177.1 78.8369 177.086 78.7822 177.086C77.8252 177.086 77.0732 177.359 76.5264 177.906C76.0068 178.426 75.6104 179.082 75.3369 179.875C75.0635 180.641 74.8857 181.461 74.8037 182.336C74.749 183.184 74.7217 183.963 74.7217 184.674C74.7217 185.221 74.7764 185.781 74.8857 186.355C74.9951 186.902 75.1182 187.449 75.2549 187.996C75.3916 188.516 75.5146 189.062 75.624 189.637C75.7334 190.184 75.7881 190.758 75.7881 191.359C75.7881 192.508 75.1729 193.082 73.9424 193.082C73.2588 193.082 72.5479 192.727 71.8096 192.016C71.0713 191.277 70.333 190.348 69.5947 189.227C68.8838 188.105 68.2002 186.875 67.5439 185.535C66.8877 184.168 66.3135 182.842 65.8213 181.557C65.3291 180.271 64.9326 179.109 64.6318 178.07C64.3584 177.031 64.2217 176.266 64.2217 175.773ZM84.2783 172.328C84.2783 172.246 84.292 172.178 84.3193 172.123C84.3193 172.068 84.333 172 84.3604 171.918C84.4697 171.781 84.6338 171.604 84.8525 171.385C85.0713 171.166 85.208 171.057 85.2627 171.057H93.5068C93.5068 170.756 93.4658 170.277 93.3838 169.621C93.3018 168.965 93.2197 168.24 93.1377 167.447C93.083 166.654 93.0693 165.834 93.0967 164.986C93.124 164.111 93.2334 163.332 93.4248 162.648C93.6436 161.938 93.9717 161.363 94.4092 160.926C94.874 160.461 95.5166 160.229 96.3369 160.229C96.3369 162.99 96.5283 165.205 96.9111 166.873C97.2939 168.541 97.7998 169.826 98.4287 170.729C99.085 171.631 99.8232 172.219 100.644 172.492C101.464 172.766 102.298 172.889 103.146 172.861C104.021 172.807 104.868 172.67 105.688 172.451C106.509 172.232 107.233 172.082 107.862 172C108.519 171.918 109.038 171.986 109.421 172.205C109.804 172.396 109.995 172.875 109.995 173.641C109.995 174.215 109.858 174.625 109.585 174.871C109.339 175.117 108.847 175.309 108.108 175.445C107.89 175.473 107.521 175.527 107.001 175.609C106.509 175.664 105.948 175.719 105.319 175.773C104.69 175.828 104.021 175.896 103.31 175.979C102.599 176.033 101.929 176.088 101.3 176.143C100.671 176.197 100.097 176.238 99.5771 176.266C99.0576 176.266 98.6748 176.266 98.4287 176.266C98.4287 176.402 98.415 176.635 98.3877 176.963C98.3604 177.291 98.3467 177.51 98.3467 177.619C98.3467 178.822 98.5381 179.998 98.9209 181.146C99.3037 182.268 99.7139 183.389 100.151 184.51C100.616 185.631 101.04 186.752 101.423 187.873C101.806 188.994 101.997 190.156 101.997 191.359C101.997 191.578 101.97 191.811 101.915 192.057C101.888 192.275 101.806 192.48 101.669 192.672C101.56 192.836 101.382 192.959 101.136 193.041C100.917 193.15 100.603 193.137 100.192 193C99.1533 192.727 98.374 192.139 97.8545 191.236C97.3623 190.334 96.9932 189.268 96.7471 188.037C96.501 186.779 96.3369 185.453 96.2549 184.059C96.1729 182.664 96.0361 181.365 95.8447 180.162C95.6807 178.932 95.4072 177.893 95.0244 177.045C94.6416 176.17 94.0264 175.637 93.1787 175.445L85.2627 173.641C85.1533 173.641 84.9893 173.531 84.7705 173.312C84.5518 173.066 84.415 172.889 84.3604 172.779C84.333 172.725 84.3193 172.656 84.3193 172.574C84.292 172.52 84.2783 172.438 84.2783 172.328ZM112.743 166.34C112.743 166.039 112.771 165.67 112.825 165.232C112.907 164.768 113.03 164.33 113.194 163.92C113.386 163.51 113.618 163.168 113.892 162.895C114.165 162.594 114.521 162.443 114.958 162.443C114.985 162.443 115.054 162.457 115.163 162.484C115.272 162.512 115.341 162.525 115.368 162.525C115.833 164.221 116.106 165.902 116.188 167.57C116.271 169.238 116.243 170.865 116.106 172.451C115.97 174.01 115.765 175.527 115.491 177.004C115.218 178.453 114.985 179.793 114.794 181.023C114.63 182.254 114.521 183.361 114.466 184.346C114.438 185.33 114.589 186.164 114.917 186.848C114.862 186.41 114.821 185.891 114.794 185.289C114.794 184.66 114.849 184.018 114.958 183.361C115.095 182.705 115.3 182.049 115.573 181.393C115.874 180.736 116.298 180.148 116.845 179.629C117.392 179.109 118.089 178.699 118.937 178.398C119.812 178.098 120.892 177.947 122.177 177.947C123.517 177.947 124.665 178.18 125.622 178.645C126.606 179.109 127.413 179.752 128.042 180.572C128.671 181.365 129.136 182.309 129.437 183.402C129.765 184.469 129.929 185.617 129.929 186.848C129.929 187.422 129.915 188.078 129.888 188.816C129.888 189.527 129.792 190.197 129.601 190.826C129.437 191.428 129.122 191.947 128.657 192.385C128.22 192.795 127.563 193 126.688 193C126.688 192.562 126.716 191.975 126.771 191.236C126.825 190.471 126.853 189.664 126.853 188.816C126.88 187.969 126.853 187.107 126.771 186.232C126.716 185.357 126.538 184.578 126.237 183.895C125.937 183.184 125.513 182.609 124.966 182.172C124.446 181.707 123.722 181.475 122.792 181.475C122.464 181.475 122.054 181.502 121.562 181.557C121.097 181.584 120.618 181.707 120.126 181.926C119.634 182.145 119.155 182.486 118.69 182.951C118.226 183.389 117.856 184.004 117.583 184.797C117.31 185.562 117.146 186.547 117.091 187.75C117.063 188.926 117.214 190.375 117.542 192.098C117.351 192.59 117.104 192.877 116.804 192.959C116.53 193.041 116.175 193.082 115.737 193.082C114.862 193.082 114.138 192.781 113.563 192.18C113.017 191.551 112.593 190.717 112.292 189.678C111.991 188.639 111.786 187.436 111.677 186.068C111.595 184.701 111.567 183.279 111.595 181.803C111.622 180.299 111.69 178.781 111.8 177.25C111.937 175.691 112.06 174.229 112.169 172.861C112.306 171.467 112.429 170.209 112.538 169.088C112.675 167.939 112.743 167.023 112.743 166.34ZM149.575 172.328C149.575 172.246 149.589 172.178 149.616 172.123C149.616 172.068 149.63 172 149.657 171.918C149.767 171.781 149.931 171.604 150.149 171.385C150.368 171.166 150.505 171.057 150.56 171.057H158.804C158.804 170.756 158.763 170.277 158.681 169.621C158.599 168.965 158.517 168.24 158.435 167.447C158.38 166.654 158.366 165.834 158.394 164.986C158.421 164.111 158.53 163.332 158.722 162.648C158.94 161.938 159.269 161.363 159.706 160.926C160.171 160.461 160.813 160.229 161.634 160.229C161.634 162.99 161.825 165.205 162.208 166.873C162.591 168.541 163.097 169.826 163.726 170.729C164.382 171.631 165.12 172.219 165.94 172.492C166.761 172.766 167.595 172.889 168.442 172.861C169.317 172.807 170.165 172.67 170.985 172.451C171.806 172.232 172.53 172.082 173.159 172C173.815 171.918 174.335 171.986 174.718 172.205C175.101 172.396 175.292 172.875 175.292 173.641C175.292 174.215 175.155 174.625 174.882 174.871C174.636 175.117 174.144 175.309 173.405 175.445C173.187 175.473 172.817 175.527 172.298 175.609C171.806 175.664 171.245 175.719 170.616 175.773C169.987 175.828 169.317 175.896 168.606 175.979C167.896 176.033 167.226 176.088 166.597 176.143C165.968 176.197 165.394 176.238 164.874 176.266C164.354 176.266 163.972 176.266 163.726 176.266C163.726 176.402 163.712 176.635 163.685 176.963C163.657 177.291 163.644 177.51 163.644 177.619C163.644 178.822 163.835 179.998 164.218 181.146C164.601 182.268 165.011 183.389 165.448 184.51C165.913 185.631 166.337 186.752 166.72 187.873C167.103 188.994 167.294 190.156 167.294 191.359C167.294 191.578 167.267 191.811 167.212 192.057C167.185 192.275 167.103 192.48 166.966 192.672C166.856 192.836 166.679 192.959 166.433 193.041C166.214 193.15 165.899 193.137 165.489 193C164.45 192.727 163.671 192.139 163.151 191.236C162.659 190.334 162.29 189.268 162.044 188.037C161.798 186.779 161.634 185.453 161.552 184.059C161.47 182.664 161.333 181.365 161.142 180.162C160.978 178.932 160.704 177.893 160.321 177.045C159.938 176.17 159.323 175.637 158.476 175.445L150.56 173.641C150.45 173.641 150.286 173.531 150.067 173.312C149.849 173.066 149.712 172.889 149.657 172.779C149.63 172.725 149.616 172.656 149.616 172.574C149.589 172.52 149.575 172.438 149.575 172.328ZM176.851 184.674C176.851 182.979 177.247 181.406 178.04 179.957C178.833 178.48 179.872 177.223 181.157 176.184C182.47 175.117 183.933 174.283 185.546 173.682C187.187 173.08 188.841 172.779 190.509 172.779C191.438 172.779 192.259 173.08 192.97 173.682C193.708 174.283 194.323 175.021 194.815 175.896C195.308 176.744 195.677 177.646 195.923 178.604C196.196 179.561 196.333 180.395 196.333 181.105C196.333 182.637 195.964 184.127 195.226 185.576C194.487 186.998 193.53 188.27 192.354 189.391C191.179 190.484 189.853 191.373 188.376 192.057C186.899 192.74 185.423 193.082 183.946 193.082C182.634 193.082 181.526 192.863 180.624 192.426C179.722 191.961 178.997 191.359 178.45 190.621C177.903 189.855 177.493 188.967 177.22 187.955C176.974 186.916 176.851 185.822 176.851 184.674ZM180.337 185.084C180.337 185.795 180.392 186.424 180.501 186.971C180.638 187.49 180.856 187.941 181.157 188.324C181.485 188.707 181.909 189.008 182.429 189.227C182.948 189.418 183.591 189.514 184.356 189.514C185.368 189.514 186.38 189.24 187.392 188.693C188.403 188.119 189.306 187.408 190.099 186.561C190.919 185.686 191.575 184.729 192.067 183.689C192.56 182.65 192.806 181.639 192.806 180.654C192.806 180.217 192.765 179.738 192.683 179.219C192.601 178.699 192.464 178.221 192.272 177.783C192.081 177.346 191.808 176.977 191.452 176.676C191.097 176.375 190.646 176.225 190.099 176.225C189.606 176.225 189.019 176.389 188.335 176.717C187.679 177.045 186.981 177.469 186.243 177.988C185.532 178.508 184.821 179.096 184.11 179.752C183.427 180.408 182.798 181.064 182.224 181.721C181.649 182.377 181.185 183.006 180.829 183.607C180.501 184.209 180.337 184.701 180.337 185.084ZM217.825 169.785C217.825 168.992 217.771 168.227 217.661 167.488C217.552 166.723 217.524 166.053 217.579 165.479C217.634 164.877 217.839 164.398 218.194 164.043C218.577 163.688 219.261 163.51 220.245 163.51C220.546 164.139 220.833 165.096 221.106 166.381C221.407 167.666 221.694 169.143 221.968 170.811C222.241 172.479 222.501 174.297 222.747 176.266C222.993 178.207 223.212 180.162 223.403 182.131C223.622 184.1 223.8 186.041 223.937 187.955C224.101 189.842 224.224 191.564 224.306 193.123C223.403 193.725 222.679 193.766 222.132 193.246C221.585 192.727 221.134 191.852 220.778 190.621C220.423 189.363 220.149 187.846 219.958 186.068C219.767 184.264 219.575 182.404 219.384 180.49C219.22 178.549 219.015 176.648 218.769 174.789C218.522 172.902 218.208 171.234 217.825 169.785ZM228.161 177.619C228.161 177.455 228.161 177.195 228.161 176.84C228.188 176.457 228.202 176.061 228.202 175.65C228.229 175.24 228.243 174.844 228.243 174.461C228.271 174.078 228.284 173.805 228.284 173.641C228.585 173.203 228.968 172.848 229.433 172.574C229.925 172.301 230.417 172.082 230.909 171.918C230.991 173.395 231.224 174.967 231.606 176.635C231.989 178.303 232.399 179.984 232.837 181.68C233.274 183.348 233.657 185.002 233.985 186.643C234.341 188.283 234.519 189.814 234.519 191.236C234.519 192.467 233.89 193.082 232.632 193.082C231.866 193.082 231.224 192.768 230.704 192.139C230.185 191.51 229.761 190.717 229.433 189.76C229.132 188.775 228.886 187.695 228.694 186.52C228.503 185.316 228.366 184.141 228.284 182.992C228.229 181.844 228.188 180.791 228.161 179.834C228.161 178.877 228.161 178.139 228.161 177.619ZM228.735 162.238C229.255 162.457 229.692 162.812 230.048 163.305C230.403 163.797 230.554 164.248 230.499 164.658C230.472 165.041 230.171 165.314 229.597 165.479C229.022 165.615 228.065 165.451 226.726 164.986C226.726 164.248 226.862 163.605 227.136 163.059C227.437 162.512 227.97 162.238 228.735 162.238ZM235.872 171.631C236.063 170.975 236.282 170.674 236.528 170.729C236.802 170.783 237.13 171.098 237.513 171.672C237.896 172.246 238.319 173.012 238.784 173.969C239.276 174.926 239.796 175.965 240.343 177.086C240.89 178.18 241.478 179.301 242.106 180.449C242.763 181.598 243.433 182.65 244.116 183.607C244.827 184.564 245.565 185.357 246.331 185.986C247.124 186.615 247.931 186.984 248.751 187.094L252.032 170.113C252.087 169.648 252.292 169.389 252.647 169.334C253.03 169.252 253.399 169.211 253.755 169.211C254.985 169.211 255.601 169.785 255.601 170.934C255.601 171.535 255.546 172.492 255.437 173.805C255.327 175.117 255.149 176.566 254.903 178.152C254.657 179.711 254.356 181.324 254.001 182.992C253.646 184.633 253.222 186.137 252.729 187.504C252.237 188.871 251.663 189.992 251.007 190.867C250.378 191.742 249.681 192.18 248.915 192.18C247.794 192.18 246.687 191.811 245.593 191.072C244.499 190.307 243.46 189.322 242.476 188.119C241.519 186.889 240.63 185.521 239.81 184.018C239.017 182.514 238.319 181.01 237.718 179.506C237.144 177.975 236.692 176.512 236.364 175.117C236.036 173.723 235.872 172.561 235.872 171.631ZM258.062 181.598C258.062 180.121 258.239 178.645 258.595 177.168C258.95 175.691 259.511 174.365 260.276 173.189C261.069 172.014 262.081 171.057 263.312 170.318C264.569 169.58 266.087 169.211 267.864 169.211C268.876 169.211 269.765 169.402 270.53 169.785C271.296 170.141 271.938 170.619 272.458 171.221C272.978 171.822 273.36 172.533 273.606 173.354C273.88 174.146 274.017 174.98 274.017 175.855C274.017 177.25 273.688 178.604 273.032 179.916C272.403 181.229 271.542 182.391 270.448 183.402C269.382 184.387 268.151 185.139 266.757 185.658C265.362 186.15 263.94 186.26 262.491 185.986C262.519 186.779 262.778 187.422 263.271 187.914C263.79 188.379 264.405 188.734 265.116 188.98C265.827 189.227 266.565 189.391 267.331 189.473C268.097 189.527 268.78 189.555 269.382 189.555C270.011 189.555 270.599 189.5 271.146 189.391C271.692 189.281 272.239 189.158 272.786 189.021C273.333 188.885 273.88 188.762 274.427 188.652C275.001 188.543 275.603 188.488 276.231 188.488C276.478 188.488 276.724 188.502 276.97 188.529C277.216 188.557 277.448 188.625 277.667 188.734C277.886 188.816 278.063 188.967 278.2 189.186C278.337 189.377 278.405 189.623 278.405 189.924C278.405 190.443 278.214 190.881 277.831 191.236C277.448 191.564 276.956 191.852 276.354 192.098C275.78 192.344 275.138 192.535 274.427 192.672C273.716 192.781 273.019 192.877 272.335 192.959C271.679 193.014 271.063 193.041 270.489 193.041C269.942 193.068 269.532 193.082 269.259 193.082C267.509 193.082 265.937 192.809 264.542 192.262C263.147 191.688 261.972 190.908 261.015 189.924C260.058 188.912 259.319 187.709 258.8 186.314C258.308 184.893 258.062 183.32 258.062 181.598ZM262.409 178.932C262.409 179.889 262.532 180.586 262.778 181.023C263.052 181.461 263.694 181.68 264.706 181.68C265.417 181.68 266.114 181.557 266.798 181.311C267.481 181.037 268.097 180.668 268.644 180.203C269.218 179.738 269.669 179.191 269.997 178.562C270.325 177.934 270.489 177.25 270.489 176.512C270.489 176.102 270.448 175.678 270.366 175.24C270.312 174.803 270.175 174.406 269.956 174.051C269.737 173.668 269.45 173.367 269.095 173.148C268.767 172.902 268.329 172.779 267.782 172.779C266.962 172.779 266.21 172.971 265.526 173.354C264.87 173.709 264.31 174.188 263.845 174.789C263.38 175.363 263.024 176.02 262.778 176.758C262.532 177.469 262.409 178.193 262.409 178.932ZM299.159 171.795C299.159 171.549 299.159 171.303 299.159 171.057C299.187 170.783 299.241 170.537 299.323 170.318C299.433 170.072 299.569 169.895 299.733 169.785C299.925 169.648 300.198 169.58 300.554 169.58C300.581 169.58 300.608 169.58 300.636 169.58C300.69 169.58 300.745 169.58 300.8 169.58C300.882 169.607 300.95 169.621 301.005 169.621C301.524 170.332 301.976 171.248 302.358 172.369C302.741 173.463 303.11 174.639 303.466 175.896C303.821 177.127 304.204 178.385 304.614 179.67C305.024 180.928 305.558 182.062 306.214 183.074C306.87 184.086 307.677 184.893 308.634 185.494C309.591 186.096 310.78 186.355 312.202 186.273C312.831 186.273 313.241 185.932 313.433 185.248C313.624 184.564 313.72 183.689 313.72 182.623C313.747 181.557 313.72 180.381 313.638 179.096C313.583 177.811 313.583 176.594 313.638 175.445C313.72 174.27 313.925 173.244 314.253 172.369C314.608 171.494 315.21 170.906 316.058 170.605C316.413 171.316 316.7 172.438 316.919 173.969C317.165 175.473 317.343 177.223 317.452 179.219C317.562 181.188 317.616 183.334 317.616 185.658C317.616 187.955 317.562 190.252 317.452 192.549C317.343 194.818 317.179 197.006 316.96 199.111C316.741 201.217 316.495 203.062 316.222 204.648C315.948 206.234 315.62 207.479 315.237 208.381C314.882 209.311 314.499 209.707 314.089 209.57C313.515 209.023 313.063 208.312 312.735 207.438C312.435 206.562 312.216 205.592 312.079 204.525C311.97 203.459 311.929 202.324 311.956 201.121C311.983 199.945 312.024 198.756 312.079 197.553C312.161 196.35 312.243 195.174 312.325 194.025C312.435 192.877 312.489 191.824 312.489 190.867C311.505 190.949 310.493 190.799 309.454 190.416C308.442 190.033 307.444 189.445 306.46 188.652C305.476 187.832 304.532 186.848 303.63 185.699C302.755 184.551 301.976 183.252 301.292 181.803C300.636 180.354 300.116 178.795 299.733 177.127C299.351 175.432 299.159 173.654 299.159 171.795ZM320.077 184.674C320.077 182.979 320.474 181.406 321.267 179.957C322.06 178.48 323.099 177.223 324.384 176.184C325.696 175.117 327.159 174.283 328.772 173.682C330.413 173.08 332.067 172.779 333.735 172.779C334.665 172.779 335.485 173.08 336.196 173.682C336.935 174.283 337.55 175.021 338.042 175.896C338.534 176.744 338.903 177.646 339.149 178.604C339.423 179.561 339.56 180.395 339.56 181.105C339.56 182.637 339.19 184.127 338.452 185.576C337.714 186.998 336.757 188.27 335.581 189.391C334.405 190.484 333.079 191.373 331.603 192.057C330.126 192.74 328.649 193.082 327.173 193.082C325.86 193.082 324.753 192.863 323.851 192.426C322.948 191.961 322.224 191.359 321.677 190.621C321.13 189.855 320.72 188.967 320.446 187.955C320.2 186.916 320.077 185.822 320.077 184.674ZM323.563 185.084C323.563 185.795 323.618 186.424 323.728 186.971C323.864 187.49 324.083 187.941 324.384 188.324C324.712 188.707 325.136 189.008 325.655 189.227C326.175 189.418 326.817 189.514 327.583 189.514C328.595 189.514 329.606 189.24 330.618 188.693C331.63 188.119 332.532 187.408 333.325 186.561C334.146 185.686 334.802 184.729 335.294 183.689C335.786 182.65 336.032 181.639 336.032 180.654C336.032 180.217 335.991 179.738 335.909 179.219C335.827 178.699 335.69 178.221 335.499 177.783C335.308 177.346 335.034 176.977 334.679 176.676C334.323 176.375 333.872 176.225 333.325 176.225C332.833 176.225 332.245 176.389 331.562 176.717C330.905 177.045 330.208 177.469 329.47 177.988C328.759 178.508 328.048 179.096 327.337 179.752C326.653 180.408 326.024 181.064 325.45 181.721C324.876 182.377 324.411 183.006 324.056 183.607C323.728 184.209 323.563 184.701 323.563 185.084ZM341.159 176.266C341.159 176.102 341.159 175.814 341.159 175.404C341.187 174.967 341.2 174.516 341.2 174.051C341.2 173.586 341.2 173.162 341.2 172.779C341.228 172.369 341.241 172.082 341.241 171.918C341.433 171.59 341.651 171.275 341.897 170.975C342.171 170.646 342.444 170.428 342.718 170.318C343.019 170.182 343.333 170.154 343.661 170.236C344.017 170.318 344.372 170.592 344.728 171.057V171.385V171.918C344.7 172.055 344.646 172.383 344.563 172.902C344.481 173.395 344.386 173.941 344.276 174.543C344.167 175.145 344.058 175.705 343.948 176.225C343.866 176.717 343.825 177.031 343.825 177.168C343.825 177.688 343.88 178.344 343.989 179.137C344.099 179.902 344.249 180.709 344.44 181.557C344.659 182.404 344.919 183.252 345.22 184.1C345.548 184.947 345.931 185.713 346.368 186.396C346.806 187.053 347.284 187.6 347.804 188.037C348.351 188.475 348.979 188.693 349.69 188.693C350.565 188.693 351.331 188.461 351.987 187.996C352.671 187.531 353.259 186.93 353.751 186.191C354.243 185.453 354.64 184.619 354.94 183.689C355.269 182.76 355.528 181.83 355.72 180.9C355.911 179.943 356.048 179.027 356.13 178.152C356.212 177.277 356.253 176.512 356.253 175.855C356.253 175.199 356.198 174.584 356.089 174.01C356.007 173.408 355.897 172.82 355.761 172.246C355.624 171.672 355.501 171.111 355.392 170.564C355.31 169.99 355.269 169.416 355.269 168.842C355.269 168.322 355.446 167.953 355.802 167.734C356.185 167.516 356.608 167.406 357.073 167.406C357.647 167.406 358.112 167.584 358.468 167.939C358.823 168.268 359.097 168.691 359.288 169.211C359.507 169.73 359.644 170.332 359.698 171.016C359.78 171.672 359.821 172.328 359.821 172.984C359.821 173.641 359.808 174.27 359.78 174.871C359.753 175.445 359.739 175.91 359.739 176.266C359.739 177.195 359.671 178.248 359.534 179.424C359.397 180.6 359.151 181.816 358.796 183.074C358.468 184.305 358.044 185.521 357.524 186.725C357.032 187.928 356.417 189.008 355.679 189.965C354.968 190.895 354.134 191.646 353.177 192.221C352.247 192.795 351.194 193.082 350.019 193.082C348.788 193.082 347.708 192.795 346.778 192.221C345.849 191.619 345.056 190.84 344.399 189.883C343.771 188.898 343.237 187.791 342.8 186.561C342.362 185.33 342.021 184.1 341.774 182.869C341.556 181.639 341.392 180.449 341.282 179.301C341.2 178.125 341.159 177.113 341.159 176.266ZM362.241 179.178C362.241 178.467 362.419 177.961 362.774 177.66C363.13 177.332 363.704 177.168 364.497 177.168H364.907C364.989 177.605 365.085 178.111 365.194 178.686C365.304 179.26 365.468 179.848 365.687 180.449C365.905 181.051 366.165 181.611 366.466 182.131C366.767 182.623 367.136 183.02 367.573 183.32C367.601 182.363 367.833 181.447 368.271 180.572C368.735 179.67 369.296 178.877 369.952 178.193C370.636 177.482 371.374 176.895 372.167 176.43C372.987 175.938 373.794 175.609 374.587 175.445H375.489C376.802 175.445 377.923 175.746 378.853 176.348C379.782 176.922 380.548 177.688 381.149 178.645C381.778 179.574 382.257 180.641 382.585 181.844C382.913 183.047 383.159 184.277 383.323 185.535C383.515 186.766 383.624 187.969 383.651 189.145C383.706 190.293 383.733 191.277 383.733 192.098H380.739C380.575 190.457 380.37 188.885 380.124 187.381C380.042 186.779 379.933 186.15 379.796 185.494C379.659 184.811 379.509 184.182 379.345 183.607C379.181 183.006 379.003 182.459 378.812 181.967C378.62 181.447 378.401 181.01 378.155 180.654C378.046 180.545 377.896 180.395 377.704 180.203C377.54 180.012 377.362 179.82 377.171 179.629C376.979 179.438 376.802 179.273 376.638 179.137C376.474 179 376.378 178.932 376.351 178.932C375.53 178.713 374.819 178.877 374.218 179.424C373.616 179.943 373.083 180.654 372.618 181.557C372.153 182.459 371.771 183.484 371.47 184.633C371.196 185.781 370.964 186.889 370.772 187.955C370.581 188.994 370.444 189.91 370.362 190.703C370.28 191.469 370.226 191.934 370.198 192.098C369.515 192.59 368.872 192.74 368.271 192.549C367.669 192.33 367.095 191.893 366.548 191.236C366.028 190.58 365.55 189.76 365.112 188.775C364.702 187.791 364.319 186.752 363.964 185.658C363.608 184.537 363.28 183.416 362.979 182.295C362.706 181.174 362.46 180.135 362.241 179.178ZM396.571 214.82C398.103 214.82 399.47 214.533 400.673 213.959C401.876 213.412 402.888 212.646 403.708 211.662C404.556 210.705 405.198 209.598 405.636 208.34C406.101 207.109 406.333 205.824 406.333 204.484C406.333 203.801 406.292 202.898 406.21 201.777C406.155 200.656 406.06 199.439 405.923 198.127C405.786 196.814 405.581 195.475 405.308 194.107C405.062 192.74 404.747 191.455 404.364 190.252C403.981 189.021 403.503 187.955 402.929 187.053C402.382 186.123 401.739 185.467 401.001 185.084C400.29 185.631 399.593 186.137 398.909 186.602C398.226 187.039 397.515 187.408 396.776 187.709C396.038 188.01 395.272 188.256 394.479 188.447C393.687 188.611 392.839 188.693 391.937 188.693C390.761 188.693 389.749 188.584 388.901 188.365C388.081 188.146 387.384 187.777 386.81 187.258C386.263 186.738 385.853 186.055 385.579 185.207C385.306 184.359 385.169 183.293 385.169 182.008C385.169 181.105 385.388 180.23 385.825 179.383C386.263 178.508 386.837 177.701 387.548 176.963C388.286 176.197 389.106 175.5 390.009 174.871C390.938 174.242 391.882 173.695 392.839 173.23C393.823 172.766 394.78 172.41 395.71 172.164C396.667 171.918 397.515 171.795 398.253 171.795C398.964 171.795 399.552 171.822 400.017 171.877C400.481 171.904 400.878 172.014 401.206 172.205C401.534 172.369 401.808 172.643 402.026 173.025C402.272 173.381 402.505 173.873 402.724 174.502C403.353 176.635 404.077 178.932 404.897 181.393C405.718 183.854 406.497 186.383 407.235 188.98C407.974 191.578 408.589 194.189 409.081 196.814C409.601 199.467 409.86 202.023 409.86 204.484C409.86 206.672 409.546 208.518 408.917 210.021C408.315 211.553 407.509 212.797 406.497 213.754C405.513 214.738 404.378 215.49 403.093 216.01C401.835 216.529 400.563 216.857 399.278 216.994C397.993 217.158 396.749 217.199 395.546 217.117C394.343 217.035 393.304 216.871 392.429 216.625C391.554 216.406 390.884 216.146 390.419 215.846C389.981 215.545 389.872 215.285 390.091 215.066C390.337 214.875 390.966 214.738 391.978 214.656C392.989 214.574 394.521 214.629 396.571 214.82ZM397.146 175.24C395.122 175.678 393.481 176.293 392.224 177.086C390.993 177.852 390.063 178.686 389.435 179.588C388.833 180.463 388.505 181.352 388.45 182.254C388.396 183.129 388.56 183.881 388.942 184.51C389.325 185.139 389.872 185.617 390.583 185.945C391.321 186.246 392.155 186.26 393.085 185.986C394.015 185.686 394.999 185.057 396.038 184.1C397.104 183.143 398.171 181.721 399.237 179.834C399.237 179.369 399.237 178.863 399.237 178.316C399.265 177.77 399.224 177.277 399.114 176.84C399.005 176.375 398.8 175.992 398.499 175.691C398.198 175.391 397.747 175.24 397.146 175.24ZM408.835 171.016C408.835 170.332 408.985 169.73 409.286 169.211C409.587 168.664 409.901 168.117 410.229 167.57C410.585 166.996 410.913 166.408 411.214 165.807C411.515 165.205 411.665 164.535 411.665 163.797C411.665 163.168 411.624 162.621 411.542 162.156C411.487 161.691 411.364 161.24 411.173 160.803C411.009 160.365 410.735 159.928 410.353 159.49C409.997 159.025 409.519 158.479 408.917 157.85C409.081 157.357 409.327 157.07 409.655 156.988C410.011 156.906 410.353 156.865 410.681 156.865C411.31 156.865 411.884 157.111 412.403 157.604C412.95 158.096 413.429 158.697 413.839 159.408C414.249 160.092 414.563 160.816 414.782 161.582C415.028 162.348 415.151 163.004 415.151 163.551C415.151 164.18 415.028 165.014 414.782 166.053C414.563 167.092 414.235 168.117 413.798 169.129C413.36 170.113 412.8 170.975 412.116 171.713C411.46 172.424 410.694 172.779 409.819 172.779C409.573 172.779 409.382 172.711 409.245 172.574C409.136 172.438 409.04 172.273 408.958 172.082C408.903 171.891 408.876 171.699 408.876 171.508C408.849 171.289 408.835 171.125 408.835 171.016ZM417.612 170.277C417.612 169.621 417.708 169.006 417.899 168.432C418.118 167.83 418.337 167.256 418.556 166.709C418.774 166.135 418.979 165.547 419.171 164.945C419.362 164.344 419.458 163.729 419.458 163.1C419.458 162.361 419.308 161.705 419.007 161.131C418.706 160.529 418.364 159.941 417.981 159.367C417.599 158.793 417.243 158.205 416.915 157.604C416.614 157.002 416.464 156.318 416.464 155.553C417.558 155.553 418.501 155.771 419.294 156.209C420.114 156.646 420.798 157.234 421.345 157.973C421.919 158.684 422.343 159.518 422.616 160.475C422.917 161.404 423.067 162.389 423.067 163.428C423.067 164.084 423.013 164.891 422.903 165.848C422.794 166.805 422.589 167.734 422.288 168.637C422.015 169.512 421.604 170.277 421.058 170.934C420.538 171.59 419.854 171.918 419.007 171.918C418.515 171.918 418.159 171.74 417.94 171.385C417.722 171.002 417.612 170.633 417.612 170.277Z" fill="black"/>
<path d="M241.799 145.709C240.76 146.42 239.857 147.062 239.092 147.637C238.354 148.184 237.629 148.648 236.918 149.031C236.207 149.414 235.441 149.701 234.621 149.893C233.828 150.084 232.844 150.18 231.668 150.18C229.125 150.18 227.238 149.51 226.008 148.17C224.777 146.803 224.162 144.779 224.162 142.1C224.162 141.061 224.299 139.98 224.572 138.859C224.846 137.738 225.242 136.631 225.762 135.537C226.309 134.416 226.951 133.363 227.689 132.379C228.428 131.367 229.262 130.479 230.191 129.713C231.121 128.947 232.105 128.346 233.145 127.908C234.211 127.443 235.332 127.211 236.508 127.211C238.477 127.402 240.021 127.895 241.143 128.688C242.264 129.453 243.111 130.451 243.686 131.682C244.26 132.885 244.656 134.238 244.875 135.742C245.094 137.219 245.258 138.75 245.367 140.336C245.504 141.922 245.668 143.508 245.859 145.094C246.051 146.68 246.447 148.143 247.049 149.482C246.693 150.385 246.352 151.014 246.023 151.369C245.723 151.752 245.381 151.82 244.998 151.574C244.615 151.328 244.164 150.727 243.645 149.77C243.152 148.812 242.537 147.459 241.799 145.709ZM227.648 142.182C227.648 143.74 227.936 144.889 228.51 145.627C229.111 146.338 230.164 146.693 231.668 146.693C232.789 146.693 233.855 146.502 234.867 146.119C235.906 145.709 236.809 145.162 237.574 144.479C238.34 143.768 238.955 142.92 239.42 141.936C239.885 140.951 240.117 139.857 240.117 138.654C240.117 138.162 240.131 137.479 240.158 136.604C240.186 135.701 240.131 134.812 239.994 133.938C239.857 133.062 239.598 132.311 239.215 131.682C238.832 131.025 238.258 130.697 237.492 130.697C236.07 130.697 234.758 131.066 233.555 131.805C232.352 132.516 231.312 133.432 230.438 134.553C229.562 135.674 228.879 136.918 228.387 138.285C227.895 139.625 227.648 140.924 227.648 142.182ZM250.617 127.785C250.617 126.992 250.562 126.227 250.453 125.488C250.344 124.723 250.316 124.053 250.371 123.479C250.426 122.877 250.631 122.398 250.986 122.043C251.369 121.688 252.053 121.51 253.037 121.51C253.338 122.139 253.625 123.096 253.898 124.381C254.199 125.666 254.486 127.143 254.76 128.811C255.033 130.479 255.293 132.297 255.539 134.266C255.785 136.207 256.004 138.162 256.195 140.131C256.414 142.1 256.592 144.041 256.729 145.955C256.893 147.842 257.016 149.564 257.098 151.123C256.195 151.725 255.471 151.766 254.924 151.246C254.377 150.727 253.926 149.852 253.57 148.621C253.215 147.363 252.941 145.846 252.75 144.068C252.559 142.264 252.367 140.404 252.176 138.49C252.012 136.549 251.807 134.648 251.561 132.789C251.314 130.902 251 129.234 250.617 127.785ZM258.328 133.445C258.328 132.98 258.424 132.557 258.615 132.174C258.834 131.791 259.203 131.6 259.723 131.6C259.75 131.6 259.791 131.613 259.846 131.641C259.9 131.641 259.955 131.641 260.01 131.641C260.064 131.641 260.119 131.641 260.174 131.641C260.256 131.695 260.406 131.832 260.625 132.051C260.871 132.27 261.021 132.434 261.076 132.543C261.158 132.707 261.322 133.062 261.568 133.609C261.842 134.156 262.156 134.799 262.512 135.537C262.895 136.248 263.277 137.014 263.66 137.834C264.07 138.627 264.453 139.393 264.809 140.131C265.191 140.869 265.506 141.512 265.752 142.059C266.025 142.578 266.217 142.92 266.326 143.084C266.354 143.166 266.477 143.33 266.695 143.576C266.941 143.795 267.119 143.932 267.229 143.986C267.447 143.604 267.666 143.029 267.885 142.264C268.104 141.498 268.322 140.664 268.541 139.762C268.787 138.832 269.033 137.889 269.279 136.932C269.525 135.947 269.799 135.072 270.1 134.307C270.428 133.514 270.783 132.871 271.166 132.379C271.549 131.859 271.986 131.6 272.479 131.6C273.189 131.6 273.859 131.873 274.488 132.42C275.145 132.967 275.76 133.678 276.334 134.553C276.936 135.428 277.496 136.412 278.016 137.506C278.562 138.572 279.068 139.639 279.533 140.705C280.025 141.744 280.477 142.715 280.887 143.617C281.324 144.492 281.748 145.189 282.158 145.709C282.486 145.6 282.76 145.326 282.979 144.889C283.197 144.451 283.361 144 283.471 143.535C283.607 143.043 283.703 142.592 283.758 142.182C283.812 141.744 283.854 141.457 283.881 141.32C283.908 141.02 283.949 140.555 284.004 139.926C284.059 139.27 284.113 138.531 284.168 137.711C284.25 136.891 284.318 136.043 284.373 135.168C284.428 134.293 284.482 133.445 284.537 132.625C284.619 131.805 284.674 131.08 284.701 130.451C284.756 129.795 284.783 129.33 284.783 129.057C284.838 129.057 284.975 129.043 285.193 129.016C285.412 128.961 285.562 128.934 285.645 128.934C286.027 128.934 286.369 128.975 286.67 129.057C286.971 129.139 287.203 129.426 287.367 129.918C287.367 130.109 287.367 130.451 287.367 130.943C287.395 131.436 287.408 131.969 287.408 132.543C287.436 133.09 287.449 133.623 287.449 134.143C287.477 134.635 287.49 134.977 287.49 135.168C287.49 135.605 287.49 136.289 287.49 137.219C287.518 138.121 287.504 139.133 287.449 140.254C287.422 141.375 287.34 142.523 287.203 143.699C287.066 144.848 286.848 145.914 286.547 146.898C286.273 147.855 285.891 148.648 285.398 149.277C284.906 149.879 284.291 150.18 283.553 150.18C282.705 150.18 281.912 149.975 281.174 149.564C280.436 149.154 279.738 148.607 279.082 147.924C278.453 147.24 277.852 146.488 277.277 145.668C276.703 144.82 276.17 143.973 275.678 143.125C275.213 142.25 274.775 141.43 274.365 140.664C273.982 139.871 273.641 139.201 273.34 138.654C273.121 139.146 272.916 139.762 272.725 140.5C272.561 141.238 272.369 142.045 272.15 142.92C271.932 143.768 271.686 144.629 271.412 145.504C271.139 146.352 270.824 147.131 270.469 147.842C270.141 148.525 269.744 149.086 269.279 149.523C268.842 149.961 268.336 150.18 267.762 150.18C267.488 150.18 267.242 150.193 267.023 150.221C266.805 150.221 266.6 150.207 266.408 150.18C266.217 150.125 266.039 150.029 265.875 149.893C265.711 149.756 265.561 149.537 265.424 149.236L258.41 134.266C258.41 134.238 258.396 134.129 258.369 133.938C258.342 133.719 258.328 133.555 258.328 133.445ZM307.67 145.709C306.631 146.42 305.729 147.062 304.963 147.637C304.225 148.184 303.5 148.648 302.789 149.031C302.078 149.414 301.312 149.701 300.492 149.893C299.699 150.084 298.715 150.18 297.539 150.18C294.996 150.18 293.109 149.51 291.879 148.17C290.648 146.803 290.033 144.779 290.033 142.1C290.033 141.061 290.17 139.98 290.443 138.859C290.717 137.738 291.113 136.631 291.633 135.537C292.18 134.416 292.822 133.363 293.561 132.379C294.299 131.367 295.133 130.479 296.062 129.713C296.992 128.947 297.977 128.346 299.016 127.908C300.082 127.443 301.203 127.211 302.379 127.211C304.348 127.402 305.893 127.895 307.014 128.688C308.135 129.453 308.982 130.451 309.557 131.682C310.131 132.885 310.527 134.238 310.746 135.742C310.965 137.219 311.129 138.75 311.238 140.336C311.375 141.922 311.539 143.508 311.73 145.094C311.922 146.68 312.318 148.143 312.92 149.482C312.564 150.385 312.223 151.014 311.895 151.369C311.594 151.752 311.252 151.82 310.869 151.574C310.486 151.328 310.035 150.727 309.516 149.77C309.023 148.812 308.408 147.459 307.67 145.709ZM293.52 142.182C293.52 143.74 293.807 144.889 294.381 145.627C294.982 146.338 296.035 146.693 297.539 146.693C298.66 146.693 299.727 146.502 300.738 146.119C301.777 145.709 302.68 145.162 303.445 144.479C304.211 143.768 304.826 142.92 305.291 141.936C305.756 140.951 305.988 139.857 305.988 138.654C305.988 138.162 306.002 137.479 306.029 136.604C306.057 135.701 306.002 134.812 305.865 133.938C305.729 133.062 305.469 132.311 305.086 131.682C304.703 131.025 304.129 130.697 303.363 130.697C301.941 130.697 300.629 131.066 299.426 131.805C298.223 132.516 297.184 133.432 296.309 134.553C295.434 135.674 294.75 136.918 294.258 138.285C293.766 139.625 293.52 140.924 293.52 142.182ZM314.807 129.795C314.807 129.549 314.807 129.303 314.807 129.057C314.834 128.783 314.889 128.537 314.971 128.318C315.08 128.072 315.217 127.895 315.381 127.785C315.572 127.648 315.846 127.58 316.201 127.58C316.229 127.58 316.256 127.58 316.283 127.58C316.338 127.58 316.393 127.58 316.447 127.58C316.529 127.607 316.598 127.621 316.652 127.621C317.172 128.332 317.623 129.248 318.006 130.369C318.389 131.463 318.758 132.639 319.113 133.896C319.469 135.127 319.852 136.385 320.262 137.67C320.672 138.928 321.205 140.062 321.861 141.074C322.518 142.086 323.324 142.893 324.281 143.494C325.238 144.096 326.428 144.355 327.85 144.273C328.479 144.273 328.889 143.932 329.08 143.248C329.271 142.564 329.367 141.689 329.367 140.623C329.395 139.557 329.367 138.381 329.285 137.096C329.23 135.811 329.23 134.594 329.285 133.445C329.367 132.27 329.572 131.244 329.9 130.369C330.256 129.494 330.857 128.906 331.705 128.605C332.061 129.316 332.348 130.438 332.566 131.969C332.812 133.473 332.99 135.223 333.1 137.219C333.209 139.188 333.264 141.334 333.264 143.658C333.264 145.955 333.209 148.252 333.1 150.549C332.99 152.818 332.826 155.006 332.607 157.111C332.389 159.217 332.143 161.062 331.869 162.648C331.596 164.234 331.268 165.479 330.885 166.381C330.529 167.311 330.146 167.707 329.736 167.57C329.162 167.023 328.711 166.312 328.383 165.438C328.082 164.562 327.863 163.592 327.727 162.525C327.617 161.459 327.576 160.324 327.604 159.121C327.631 157.945 327.672 156.756 327.727 155.553C327.809 154.35 327.891 153.174 327.973 152.025C328.082 150.877 328.137 149.824 328.137 148.867C327.152 148.949 326.141 148.799 325.102 148.416C324.09 148.033 323.092 147.445 322.107 146.652C321.123 145.832 320.18 144.848 319.277 143.699C318.402 142.551 317.623 141.252 316.939 139.803C316.283 138.354 315.764 136.795 315.381 135.127C314.998 133.432 314.807 131.654 314.807 129.795ZM343.6 149.154C344.037 148.854 344.557 148.471 345.158 148.006C345.787 147.514 346.416 146.994 347.045 146.447C347.674 145.9 348.262 145.326 348.809 144.725C349.355 144.123 349.779 143.549 350.08 143.002C350.408 142.428 350.572 141.895 350.572 141.402C350.572 140.91 350.326 140.5 349.834 140.172C348.959 140.172 348.002 140.213 346.963 140.295C345.924 140.35 344.885 140.377 343.846 140.377C342.807 140.35 341.795 140.254 340.811 140.09C339.854 139.926 338.992 139.625 338.227 139.188C337.461 138.75 336.846 138.135 336.381 137.342C335.943 136.521 335.725 135.482 335.725 134.225C335.725 132.748 335.998 131.422 336.545 130.246C337.119 129.043 337.871 127.99 338.801 127.088C339.73 126.158 340.77 125.352 341.918 124.668C343.094 123.957 344.27 123.355 345.445 122.863C346.156 123.055 346.812 123.396 347.414 123.889C348.016 124.381 348.535 124.928 348.973 125.529C348.781 126.131 348.398 126.596 347.824 126.924C347.277 127.252 346.635 127.539 345.896 127.785C345.186 128.031 344.434 128.291 343.641 128.564C342.848 128.838 342.123 129.207 341.467 129.672C340.838 130.109 340.305 130.697 339.867 131.436C339.43 132.146 339.211 133.09 339.211 134.266C339.211 135.141 339.43 135.783 339.867 136.193C340.305 136.604 340.879 136.891 341.59 137.055C342.301 137.191 343.107 137.246 344.01 137.219C344.912 137.164 345.828 137.096 346.758 137.014C347.715 136.932 348.645 136.891 349.547 136.891C350.449 136.863 351.256 136.973 351.967 137.219C352.678 137.438 353.238 137.807 353.648 138.326C354.086 138.846 354.305 139.611 354.305 140.623C354.305 141.061 354.154 141.621 353.854 142.305C353.58 142.988 353.197 143.727 352.705 144.52C352.24 145.285 351.68 146.051 351.023 146.816C350.395 147.582 349.725 148.279 349.014 148.908C348.33 149.51 347.633 150.016 346.922 150.426C346.238 150.809 345.596 151 344.994 151C344.42 151 344.037 150.795 343.846 150.385C343.682 149.975 343.6 149.564 343.6 149.154Z" fill="#0BAFF9"/>
</svg>
