<svg width="471" height="276" viewBox="0 0 471 276" fill="none" xmlns="http://www.w3.org/2000/svg">
<rect x="2.5" y="2.5" width="465.136" height="271" fill="white" stroke="black" stroke-width="5"/>
<path d="M80.75 208.57C80.75 213.897 80.1692 218.515 79.0075 222.425C77.8742 226.307 76.3158 229.522 74.3325 232.072C72.3492 234.622 69.9975 236.521 67.2775 237.767C64.5858 239.014 61.6958 239.638 58.6075 239.638C55.4908 239.638 52.5867 239.014 49.895 237.767C47.2317 236.521 44.9083 234.622 42.925 232.072C40.9417 229.522 39.3833 226.307 38.25 222.425C37.1167 218.515 36.55 213.897 36.55 208.57C36.55 203.243 37.1167 198.625 38.25 194.715C39.3833 190.805 40.9417 187.575 42.925 185.025C44.9083 182.447 47.2317 180.534 49.895 179.287C52.5867 178.041 55.4908 177.417 58.6075 177.417C61.6958 177.417 64.5858 178.041 67.2775 179.287C69.9975 180.534 72.3492 182.447 74.3325 185.025C76.3158 187.575 77.8742 190.805 79.0075 194.715C80.1692 198.625 80.75 203.243 80.75 208.57ZM72.8875 208.57C72.8875 203.923 72.4908 200.027 71.6975 196.882C70.9325 193.709 69.8842 191.159 68.5525 189.232C67.2492 187.306 65.7333 185.932 64.005 185.11C62.2767 184.26 60.4775 183.835 58.6075 183.835C56.7375 183.835 54.9383 184.26 53.21 185.11C51.4817 185.932 49.9658 187.306 48.6625 189.232C47.3592 191.159 46.3108 193.709 45.5175 196.882C44.7525 200.027 44.37 203.923 44.37 208.57C44.37 213.217 44.7525 217.112 45.5175 220.257C46.3108 223.402 47.3592 225.938 48.6625 227.865C49.9658 229.792 51.4817 231.18 53.21 232.03C54.9383 232.852 56.7375 233.262 58.6075 233.262C60.4775 233.262 62.2767 232.852 64.005 232.03C65.7333 231.18 67.2492 229.792 68.5525 227.865C69.8842 225.938 70.9325 223.402 71.6975 220.257C72.4908 217.112 72.8875 213.217 72.8875 208.57Z" fill="black"/>
<path d="M77.265 93.22V99H44.625V93.22H57.6725V51.6975C57.6725 50.4508 57.715 49.19 57.8 47.915L46.9625 57.2225C46.5942 57.5342 46.2258 57.7325 45.8575 57.8175C45.4892 57.8742 45.1492 57.8742 44.8375 57.8175C44.5258 57.7608 44.2283 57.6475 43.945 57.4775C43.69 57.3075 43.4917 57.1233 43.35 56.925L40.97 53.6525L59.1175 37.97H65.28V93.22H77.265Z" fill="black"/>
<rect x="2.5" y="139.331" width="465.136" height="134.169" stroke="black" stroke-width="5"/>
<rect x="2.5" y="2.5" width="120.136" height="271" stroke="black" stroke-width="5"/>
<circle cx="214.602" cy="209.924" r="35.178" stroke="black" stroke-width="8"/>
<circle cx="292.957" cy="68.4153" r="35.178" stroke="black" stroke-width="8"/>
<circle cx="371.314" cy="209.924" r="35.178" stroke="#0BAFF9" stroke-width="8"/>
</svg>
