<svg width="222" height="159" viewBox="0 0 222 159" fill="none" xmlns="http://www.w3.org/2000/svg">
<path d="M13.1406 43.0625C12.6403 43.5 12.1092 43.2969 11.5472 42.4531C11.0165 41.6094 10.4705 40.3437 9.9091 38.6562C9.34773 36.9375 8.78658 34.8906 8.22565 32.5156C7.69596 30.1406 7.18199 27.625 6.68374 24.9687C6.18549 22.3125 5.70289 19.625 5.23593 16.9062C4.80024 14.1562 4.41132 11.5781 4.06915 9.17187C4.06944 8.73437 4.0541 8.29687 4.02314 7.85937C4.02345 7.39062 4.0706 6.96875 4.1646 6.59375C4.28987 6.1875 4.49323 5.82812 4.77469 5.51562C5.08739 5.20312 5.5563 4.96875 6.1814 4.8125C6.24392 4.78125 6.3689 4.8125 6.55634 4.90625C6.77505 4.96875 6.99373 5.0625 7.2124 5.1875C7.43109 5.28125 7.61852 5.39062 7.77469 5.51562C7.9621 5.64062 8.08703 5.75 8.14947 5.84375C7.73937 11.6875 8.4075 17.375 10.1539 22.9062C10.2477 22.8125 10.4979 22.5 10.9045 21.9687C11.3111 21.4062 11.8271 20.7656 12.4526 20.0469C13.0781 19.2969 13.7818 18.5 14.5636 17.6562C15.3766 16.8125 16.2209 16.0312 17.0964 15.3125C17.9718 14.5937 18.8472 14 19.7225 13.5312C20.5979 13.0312 21.4418 12.7812 22.2543 12.7812C22.723 12.7812 23.1761 12.8906 23.6134 13.1094C24.082 13.3281 24.3161 13.75 24.3157 14.375C24.3157 14.4375 24.3 14.5312 24.2687 14.6562C24.2374 14.75 24.2217 14.8281 24.2216 14.8906C23.7213 15.3281 22.9553 16 21.9234 16.9062C20.9228 17.8125 19.8597 18.8281 18.7339 19.9531C17.6082 21.0781 16.5293 22.25 15.4972 23.4687C14.4652 24.6875 13.6832 25.8437 13.1512 26.9375C13.0573 27.125 13.026 27.2969 13.0571 27.4531C13.0883 27.5781 13.1194 27.7344 13.1505 27.9219C13.4942 28.0469 14.041 28.2344 14.7908 28.4844C15.5406 28.7344 16.3686 29.0312 17.2746 29.375C18.1806 29.6875 19.1492 30.0312 20.1802 30.4062C21.2112 30.75 22.1797 31.0937 23.0857 31.4375C23.9918 31.7812 24.804 32.0937 25.5226 32.375C26.2724 32.625 26.8348 32.8125 27.2097 32.9375C27.6471 33.125 28.0064 33.25 28.2876 33.3125C28.5688 33.375 28.7875 33.4687 28.9437 33.5937C29.0999 33.6875 29.2092 33.8281 29.2715 34.0156C29.3339 34.2031 29.365 34.4844 29.3647 34.8594C29.3641 35.7656 29.145 36.3594 28.7073 36.6406C28.2696 36.9219 27.6445 37.0625 26.832 37.0625C24.4259 36.9062 22.0668 36.4062 19.7549 35.5625C17.443 34.6875 15.0999 33.6406 12.7257 32.4219C12.6316 33.0156 12.6624 33.7031 12.8181 34.4844C13.0051 35.2656 13.2233 36.0469 13.4728 36.8281C13.7223 37.6094 13.9562 38.375 14.1744 39.125C14.4239 39.875 14.5641 40.5469 14.595 41.1406C14.6571 41.7344 14.5943 42.2031 14.4065 42.5469C14.2188 42.8906 13.7968 43.0625 13.1406 43.0625ZM96.0264 26.7031C96.0283 23.6719 96.733 21.4219 98.1402 19.9531C99.5474 18.4844 101.704 17.75 104.61 17.75C105.798 17.75 107.017 17.8594 108.266 18.0781C109.548 18.2969 110.719 18.6875 111.781 19.25C112.843 19.7812 113.702 20.5312 114.358 21.5C115.045 22.4687 115.388 23.7187 115.387 25.25C115.386 26.9375 115.01 28.5312 114.259 30.0312C113.539 31.5 112.616 32.8906 111.49 34.2031C110.396 35.4844 109.176 36.6875 107.832 37.8125C106.518 38.9062 105.283 39.9531 104.126 40.9531C104.064 41.0781 104.001 41.3437 103.938 41.75C103.907 42.125 103.891 42.375 103.891 42.5C103.89 43.5312 104.186 44.5625 104.78 45.5937C105.404 46.6562 106.075 47.7187 106.793 48.7812C107.511 49.875 108.167 51 108.76 52.1562C109.353 53.3125 109.649 54.5156 109.648 55.7656C109.647 56.5156 109.491 56.9531 109.178 57.0781C108.866 57.2344 108.209 57.3125 107.209 57.3125C106.584 57.0625 105.96 56.4687 105.335 55.5312C104.742 54.625 104.134 53.5 103.51 52.1562C102.917 50.8125 102.324 49.2969 101.731 47.6094C101.17 45.9531 100.624 44.2656 100.094 42.5469C99.5952 40.7969 99.1119 39.0781 98.6443 37.3906C98.2079 35.6719 97.8184 34.0937 97.4756 32.6562C97.1328 31.2187 96.8211 29.9844 96.5405 28.9531C96.2912 27.8906 96.1198 27.1406 96.0264 26.7031ZM100.01 27.125C100.01 27.5937 100.041 28.2812 100.103 29.1875C100.165 30.0625 100.289 30.9375 100.476 31.8125C100.694 32.6875 101.006 33.4531 101.412 34.1094C101.818 34.7344 102.38 35.0469 103.099 35.0469C104.068 35.0469 105.037 34.7187 106.006 34.0625C107.006 33.4062 107.882 32.5781 108.633 31.5781C109.414 30.5781 110.04 29.5156 110.51 28.3906C111.01 27.2344 111.261 26.1875 111.262 25.25C111.262 24.4687 111.075 23.8594 110.7 23.4219C110.326 22.9531 109.842 22.5937 109.248 22.3437C108.686 22.0625 108.076 21.8906 107.42 21.8281C106.764 21.7344 106.139 21.6875 105.545 21.6875C103.764 21.6875 102.389 22.1719 101.419 23.1406C100.481 24.0781 100.012 25.4062 100.01 27.125ZM160.341 23.9375C160.341 23.4062 160.451 22.9219 160.67 22.4844C160.92 22.0469 161.342 21.8281 161.936 21.8281C161.967 21.8281 162.014 21.8437 162.076 21.875C162.139 21.875 162.201 21.875 162.264 21.875C162.326 21.875 162.389 21.875 162.451 21.875C162.545 21.9375 162.717 22.0937 162.967 22.3437C163.248 22.5937 163.42 22.7812 163.482 22.9062C163.576 23.0937 163.763 23.5 164.044 24.125C164.356 24.75 164.715 25.4844 165.12 26.3281C165.557 27.1406 165.994 28.0156 166.431 28.9531C166.899 29.8594 167.336 30.7344 167.742 31.5781C168.179 32.4219 168.538 33.1562 168.819 33.7812C169.131 34.375 169.349 34.7656 169.474 34.9531C169.505 35.0469 169.646 35.2344 169.896 35.5156C170.177 35.7656 170.38 35.9219 170.505 35.9844C170.755 35.5469 171.005 34.8906 171.256 34.0156C171.506 33.1406 171.757 32.1875 172.008 31.1562C172.29 30.0937 172.572 29.0156 172.854 27.9219C173.136 26.7969 173.449 25.7969 173.793 24.9219C174.169 24.0156 174.575 23.2812 175.013 22.7187C175.451 22.125 175.951 21.8281 176.514 21.8281C177.326 21.8281 178.092 22.1406 178.81 22.7656C179.56 23.3906 180.262 24.2031 180.918 25.2031C181.605 26.2031 182.245 27.3281 182.838 28.5781C183.462 29.7969 184.039 31.0156 184.57 32.2344C185.131 33.4219 185.646 34.5312 186.114 35.5625C186.614 36.5625 187.097 37.3594 187.566 37.9531C187.941 37.8281 188.254 37.5156 188.504 37.0156C188.754 36.5156 188.942 36 189.067 35.4687C189.224 34.9062 189.334 34.3906 189.397 33.9219C189.459 33.4219 189.507 33.0937 189.538 32.9375C189.569 32.5937 189.617 32.0625 189.68 31.3437C189.743 30.5937 189.806 29.75 189.869 28.8125C189.963 27.875 190.042 26.9062 190.105 25.9062C190.168 24.9062 190.231 23.9375 190.294 23C190.389 22.0625 190.452 21.2344 190.484 20.5156C190.547 19.7656 190.578 19.2344 190.578 18.9219C190.641 18.9219 190.797 18.9062 191.047 18.875C191.297 18.8125 191.469 18.7812 191.563 18.7812C192 18.7812 192.391 18.8281 192.735 18.9219C193.078 19.0156 193.344 19.3437 193.531 19.9062C193.531 20.125 193.53 20.5156 193.53 21.0781C193.561 21.6406 193.576 22.25 193.576 22.9062C193.607 23.5312 193.622 24.1406 193.621 24.7344C193.652 25.2969 193.668 25.6875 193.668 25.9062C193.667 26.4062 193.667 27.1875 193.666 28.25C193.697 29.2812 193.68 30.4375 193.617 31.7187C193.585 33 193.49 34.3125 193.333 35.6562C193.176 36.9687 192.925 38.1875 192.581 39.3125C192.267 40.4062 191.829 41.3125 191.266 42.0312C190.703 42.7187 190 43.0625 189.156 43.0625C188.187 43.0625 187.281 42.8281 186.438 42.3594C185.594 41.8906 184.798 41.2656 184.049 40.4844C183.33 39.7031 182.643 38.8437 181.988 37.9062C181.332 36.9375 180.723 35.9687 180.162 35C179.631 34 179.132 33.0625 178.663 32.1875C178.226 31.2812 177.836 30.5156 177.493 29.8906C177.243 30.4531 177.008 31.1562 176.788 32C176.6 32.8437 176.381 33.7656 176.13 34.7656C175.88 35.7344 175.598 36.7187 175.285 37.7187C174.972 38.6875 174.612 39.5781 174.205 40.3906C173.829 41.1719 173.376 41.8125 172.844 42.3125C172.344 42.8125 171.766 43.0625 171.109 43.0625C170.797 43.0625 170.516 43.0781 170.266 43.1094C170.016 43.1094 169.781 43.0937 169.562 43.0625C169.344 43 169.141 42.8906 168.953 42.7344C168.766 42.5781 168.594 42.3281 168.438 41.9844L160.434 24.875C160.434 24.8437 160.418 24.7187 160.387 24.5C160.356 24.25 160.341 24.0625 160.341 23.9375Z" fill="black"/>
<path d="M125 27.3496H152.111" stroke="black" stroke-width="5" stroke-linecap="round"/>
<line x1="2.5" y1="-2.5" x2="14.1723" y2="-2.5" transform="matrix(0.717247 0.696819 -0.717247 0.696819 140 19)" stroke="black" stroke-width="5" stroke-linecap="round"/>
<line x1="2.5" y1="-2.5" x2="14.1723" y2="-2.5" transform="matrix(0.717247 -0.696819 0.717247 0.696819 143 39.6172)" stroke="black" stroke-width="5" stroke-linecap="round"/>
<path d="M52 37.5L52 13" stroke="black" stroke-width="5" stroke-linecap="round"/>
<path d="M53.7505 20.5H75.0005" stroke="black" stroke-width="5" stroke-linecap="round"/>
<path d="M53.7505 30.501H75.0005" stroke="black" stroke-width="5" stroke-linecap="round"/>
<path d="M5.25195 83.3545C5.25195 83.2223 5.25195 82.9863 5.25195 82.6465C5.27083 82.2878 5.28027 81.9196 5.28027 81.542C5.28027 81.1455 5.28027 80.7773 5.28027 80.4375C5.29915 80.0977 5.30859 79.8522 5.30859 79.7012C5.32747 79.6634 5.41243 79.569 5.56348 79.418C5.7334 79.248 5.83724 79.1442 5.875 79.1064C5.91276 79.1064 5.95996 79.097 6.0166 79.0781C6.05436 79.0781 6.08268 79.0781 6.10156 79.0781C6.13932 79.0592 6.16764 79.0498 6.18652 79.0498C6.2054 79.0498 6.23372 79.0592 6.27148 79.0781C6.30924 79.0781 6.33757 79.0781 6.35645 79.0781C6.41309 79.097 6.46973 79.1064 6.52637 79.1064C6.54525 79.1253 6.58301 79.1631 6.63965 79.2197C6.69629 79.2575 6.75293 79.3141 6.80957 79.3896C6.88509 79.4463 6.95117 79.5124 7.00781 79.5879C7.06445 79.6445 7.09277 79.6823 7.09277 79.7012C7.01725 80.6263 7.07389 81.4948 7.2627 82.3066C7.47038 83.1185 7.70638 83.8926 7.9707 84.6289C8.23503 85.3464 8.48047 86.026 8.70703 86.668C8.93359 87.3099 9.04688 87.9329 9.04688 88.5371C9.04688 88.7448 9.01855 88.9808 8.96191 89.2451C8.90527 89.4906 8.80143 89.7266 8.65039 89.9531C8.51823 90.1608 8.34831 90.3402 8.14062 90.4912C7.95182 90.6234 7.69694 90.6895 7.37598 90.6895C6.94173 90.6895 6.57357 90.5384 6.27148 90.2363C5.98828 89.9342 5.77116 89.5472 5.62012 89.0752C5.46908 88.5843 5.36523 88.0462 5.30859 87.4609C5.25195 86.8757 5.21419 86.3187 5.19531 85.79C5.19531 85.2425 5.20475 84.7516 5.22363 84.3174C5.24251 83.8643 5.25195 83.5433 5.25195 83.3545ZM10.1514 81.457C10.1514 81.2493 10.1891 81.0417 10.2646 80.834C10.3402 80.6074 10.4346 80.4092 10.5479 80.2393C10.68 80.0693 10.8405 79.9372 11.0293 79.8428C11.2181 79.7295 11.4258 79.6729 11.6523 79.6729C11.8978 79.6729 12.1243 79.8805 12.332 80.2959C12.5397 80.7113 12.7285 81.2399 12.8984 81.8818C13.0684 82.5049 13.2005 83.1846 13.2949 83.9209C13.4082 84.6572 13.5026 85.3464 13.5781 85.9883C13.6725 86.6302 13.7386 87.1683 13.7764 87.6025C13.8141 88.0368 13.833 88.2633 13.833 88.2822C13.833 89.0941 13.3893 89.5 12.502 89.5C12.181 89.5 11.8978 89.3301 11.6523 88.9902C11.4069 88.6315 11.1898 88.1878 11.001 87.6592C10.8311 87.1117 10.6895 86.5169 10.5762 85.875C10.4629 85.2142 10.3685 84.5911 10.293 84.0059C10.2363 83.4017 10.1986 82.873 10.1797 82.4199C10.1608 81.9479 10.1514 81.627 10.1514 81.457ZM15.5605 93.5498C15.5605 91.7184 15.9854 90.359 16.835 89.4717C17.6846 88.5843 18.9873 88.1406 20.7432 88.1406C21.4606 88.1406 22.1969 88.2067 22.9521 88.3389C23.7262 88.471 24.4342 88.707 25.0762 89.0469C25.7181 89.3678 26.2373 89.821 26.6338 90.4062C27.0492 90.9915 27.2568 91.7467 27.2568 92.6719C27.2568 93.6914 27.0303 94.6543 26.5771 95.5605C26.1429 96.4479 25.5859 97.2881 24.9062 98.0811C24.2454 98.8551 23.5091 99.582 22.6973 100.262C21.9043 100.923 21.1585 101.555 20.46 102.159C20.4222 102.235 20.3844 102.395 20.3467 102.641C20.3278 102.867 20.3184 103.018 20.3184 103.094C20.3184 103.717 20.4977 104.34 20.8564 104.963C21.234 105.605 21.64 106.247 22.0742 106.889C22.5085 107.549 22.9049 108.229 23.2637 108.928C23.6224 109.626 23.8018 110.353 23.8018 111.108C23.8018 111.562 23.7074 111.826 23.5186 111.901C23.3298 111.996 22.9333 112.043 22.3291 112.043C21.9515 111.892 21.5739 111.533 21.1963 110.967C20.8376 110.419 20.4694 109.74 20.0918 108.928C19.7331 108.116 19.3743 107.2 19.0156 106.181C18.6758 105.18 18.3454 104.16 18.0244 103.122C17.7223 102.065 17.4297 101.026 17.1465 100.007C16.8822 98.9684 16.6462 98.015 16.4385 97.1465C16.2308 96.278 16.042 95.5322 15.8721 94.9092C15.721 94.2673 15.6172 93.8141 15.5605 93.5498ZM17.9678 93.8047C17.9678 94.0879 17.9867 94.5033 18.0244 95.0508C18.0622 95.5794 18.1377 96.1081 18.251 96.6367C18.3831 97.1654 18.5719 97.6279 18.8174 98.0244C19.0628 98.402 19.4027 98.5908 19.8369 98.5908C20.4222 98.5908 21.0075 98.3926 21.5928 97.9961C22.1969 97.5996 22.7256 97.0993 23.1787 96.4951C23.6507 95.891 24.0283 95.249 24.3115 94.5693C24.6136 93.8708 24.7646 93.2383 24.7646 92.6719C24.7646 92.1999 24.6514 91.8317 24.4248 91.5674C24.1982 91.2842 23.9056 91.0671 23.5469 90.916C23.207 90.7461 22.8389 90.6423 22.4424 90.6045C22.0459 90.5479 21.6683 90.5195 21.3096 90.5195C20.2334 90.5195 19.4027 90.8122 18.8174 91.3975C18.251 91.9639 17.9678 92.7663 17.9678 93.8047ZM29.6074 87.9707C29.6074 87.4232 29.5697 86.8945 29.4941 86.3848C29.4186 85.8561 29.3997 85.3936 29.4375 84.9971C29.4753 84.5817 29.6169 84.2513 29.8623 84.0059C30.1266 83.7604 30.5986 83.6377 31.2783 83.6377C31.486 84.0719 31.6842 84.7327 31.873 85.6201C32.0807 86.5075 32.279 87.527 32.4678 88.6787C32.6566 89.8304 32.8359 91.0859 33.0059 92.4453C33.1758 93.7858 33.3268 95.1357 33.459 96.4951C33.61 97.8545 33.7327 99.195 33.8271 100.517C33.9404 101.819 34.0254 103.009 34.082 104.085C33.459 104.5 32.9587 104.529 32.5811 104.17C32.2035 103.811 31.8919 103.207 31.6465 102.357C31.401 101.489 31.2122 100.441 31.0801 99.2139C30.9479 97.9678 30.8158 96.6839 30.6836 95.3623C30.5703 94.0218 30.4287 92.7096 30.2588 91.4258C30.0889 90.123 29.8717 88.9714 29.6074 87.9707ZM47.7324 100.347C47.015 100.838 46.3919 101.281 45.8633 101.678C45.3535 102.055 44.8532 102.376 44.3623 102.641C43.8714 102.905 43.3428 103.103 42.7764 103.235C42.2288 103.368 41.5492 103.434 40.7373 103.434C38.9814 103.434 37.6787 102.971 36.8291 102.046C35.9795 101.102 35.5547 99.7048 35.5547 97.8545C35.5547 97.137 35.6491 96.3913 35.8379 95.6172C36.0267 94.8431 36.3005 94.0785 36.6592 93.3232C37.0368 92.5492 37.4805 91.8223 37.9902 91.1426C38.5 90.444 39.0758 89.8304 39.7178 89.3018C40.3597 88.7731 41.0394 88.3577 41.7568 88.0557C42.4932 87.7347 43.2673 87.5742 44.0791 87.5742C45.4385 87.7064 46.5052 88.0462 47.2793 88.5938C48.0534 89.1224 48.6387 89.8115 49.0352 90.6611C49.4316 91.4919 49.7054 92.4264 49.8564 93.4648C50.0075 94.4844 50.1208 95.5417 50.1963 96.6367C50.2907 97.7318 50.404 98.8268 50.5361 99.9219C50.6683 101.017 50.9421 102.027 51.3574 102.952C51.112 103.575 50.876 104.009 50.6494 104.255C50.4417 104.519 50.2057 104.566 49.9414 104.396C49.6771 104.227 49.3656 103.811 49.0068 103.15C48.667 102.49 48.2422 101.555 47.7324 100.347ZM37.9619 97.9111C37.9619 98.9873 38.1602 99.7803 38.5566 100.29C38.972 100.781 39.6989 101.026 40.7373 101.026C41.5114 101.026 42.2477 100.894 42.9463 100.63C43.6637 100.347 44.2868 99.9691 44.8154 99.4971C45.3441 99.0062 45.7689 98.4209 46.0898 97.7412C46.4108 97.0615 46.5713 96.3063 46.5713 95.4756C46.5713 95.1357 46.5807 94.6637 46.5996 94.0596C46.6185 93.4365 46.5807 92.8229 46.4863 92.2188C46.3919 91.6146 46.2126 91.0954 45.9482 90.6611C45.6839 90.208 45.2874 89.9814 44.7588 89.9814C43.777 89.9814 42.8708 90.2363 42.04 90.7461C41.2093 91.237 40.4919 91.8695 39.8877 92.6436C39.2835 93.4176 38.8115 94.2767 38.4717 95.2207C38.1318 96.1458 37.9619 97.0426 37.9619 97.9111ZM52.5186 89.7266C52.5186 89.6699 52.528 89.6227 52.5469 89.585C52.5469 89.5472 52.5563 89.5 52.5752 89.4434C52.6507 89.349 52.764 89.2262 52.915 89.0752C53.0661 88.9242 53.1605 88.8486 53.1982 88.8486H58.8906C58.8906 88.641 58.8623 88.3105 58.8057 87.8574C58.749 87.4043 58.6924 86.904 58.6357 86.3564C58.598 85.8089 58.5885 85.2425 58.6074 84.6572C58.6263 84.0531 58.7018 83.515 58.834 83.043C58.985 82.5521 59.2116 82.1556 59.5137 81.8535C59.8346 81.5326 60.2783 81.3721 60.8447 81.3721C60.8447 83.279 60.9769 84.8083 61.2412 85.96C61.5055 87.1117 61.8548 87.999 62.2891 88.6221C62.7422 89.2451 63.252 89.651 63.8184 89.8398C64.3848 90.0286 64.9606 90.1136 65.5459 90.0947C66.1501 90.057 66.7354 89.9626 67.3018 89.8115C67.8682 89.6605 68.3685 89.5566 68.8027 89.5C69.2559 89.4434 69.6146 89.4906 69.8789 89.6416C70.1432 89.7738 70.2754 90.1042 70.2754 90.6328C70.2754 91.0293 70.181 91.3125 69.9922 91.4824C69.8223 91.6523 69.4824 91.7845 68.9727 91.8789C68.8216 91.8978 68.5667 91.9355 68.208 91.9922C67.8682 92.0299 67.4811 92.0677 67.0469 92.1055C66.6126 92.1432 66.1501 92.1904 65.6592 92.2471C65.1683 92.2848 64.7057 92.3226 64.2715 92.3604C63.8372 92.3981 63.4408 92.4264 63.082 92.4453C62.7233 92.4453 62.459 92.4453 62.2891 92.4453C62.2891 92.5397 62.2796 92.7002 62.2607 92.9268C62.2419 93.1533 62.2324 93.3044 62.2324 93.3799C62.2324 94.2106 62.3646 95.0225 62.6289 95.8154C62.8932 96.5895 63.1764 97.3636 63.4785 98.1377C63.7995 98.9118 64.0921 99.6859 64.3564 100.46C64.6208 101.234 64.7529 102.036 64.7529 102.867C64.7529 103.018 64.734 103.179 64.6963 103.349C64.6774 103.5 64.6208 103.641 64.5264 103.773C64.4508 103.887 64.3281 103.972 64.1582 104.028C64.0072 104.104 63.79 104.094 63.5068 104C62.7894 103.811 62.2513 103.405 61.8926 102.782C61.5527 102.159 61.2979 101.423 61.1279 100.573C60.958 99.7048 60.8447 98.7891 60.7881 97.8262C60.7314 96.8633 60.637 95.9665 60.5049 95.1357C60.3916 94.2861 60.2028 93.5687 59.9385 92.9834C59.6742 92.3792 59.2493 92.0111 58.6641 91.8789L53.1982 90.6328C53.1227 90.6328 53.0094 90.5573 52.8584 90.4062C52.7074 90.2363 52.613 90.1136 52.5752 90.0381C52.5563 90.0003 52.5469 89.9531 52.5469 89.8965C52.528 89.8587 52.5186 89.8021 52.5186 89.7266ZM70.8701 89.3584C70.8701 89.1885 70.8701 89.0186 70.8701 88.8486C70.889 88.6598 70.9268 88.4899 70.9834 88.3389C71.0589 88.1689 71.1533 88.0462 71.2666 87.9707C71.3988 87.8763 71.5876 87.8291 71.833 87.8291C71.8519 87.8291 71.8708 87.8291 71.8896 87.8291C71.9274 87.8291 71.9652 87.8291 72.0029 87.8291C72.0596 87.848 72.1068 87.8574 72.1445 87.8574C72.5033 88.3483 72.8148 88.9808 73.0791 89.7549C73.3434 90.5101 73.5983 91.3219 73.8438 92.1904C74.0892 93.04 74.3535 93.9085 74.6367 94.7959C74.9199 95.6644 75.2881 96.4479 75.7412 97.1465C76.1943 97.8451 76.7513 98.402 77.4121 98.8174C78.0729 99.2327 78.8942 99.4121 79.876 99.3555C80.3102 99.3555 80.5934 99.1195 80.7256 98.6475C80.8577 98.1755 80.9238 97.5713 80.9238 96.835C80.9427 96.0986 80.9238 95.2868 80.8672 94.3994C80.8294 93.512 80.8294 92.6719 80.8672 91.8789C80.9238 91.0671 81.0654 90.359 81.292 89.7549C81.5374 89.1507 81.9528 88.7448 82.5381 88.5371C82.7835 89.028 82.9818 89.8021 83.1328 90.8594C83.3027 91.8978 83.4255 93.1061 83.501 94.4844C83.5765 95.8438 83.6143 97.3258 83.6143 98.9307C83.6143 100.517 83.5765 102.103 83.501 103.688C83.4255 105.256 83.3122 106.766 83.1611 108.22C83.0101 109.674 82.8402 110.948 82.6514 112.043C82.4626 113.138 82.236 113.997 81.9717 114.62C81.7262 115.262 81.4619 115.536 81.1787 115.441C80.7822 115.064 80.4707 114.573 80.2441 113.969C80.0365 113.365 79.8854 112.694 79.791 111.958C79.7155 111.222 79.6872 110.438 79.7061 109.607C79.7249 108.796 79.7533 107.974 79.791 107.144C79.8477 106.313 79.9043 105.501 79.9609 104.708C80.0365 103.915 80.0742 103.188 80.0742 102.527C79.3945 102.584 78.696 102.48 77.9785 102.216C77.2799 101.951 76.5908 101.546 75.9111 100.998C75.2314 100.432 74.5801 99.752 73.957 98.959C73.3529 98.166 72.8148 97.2692 72.3428 96.2686C71.8896 95.2679 71.5309 94.1917 71.2666 93.04C71.0023 91.8695 70.8701 90.6423 70.8701 89.3584ZM85.3135 93.5498C85.3135 91.7184 85.7383 90.359 86.5879 89.4717C87.4375 88.5843 88.7402 88.1406 90.4961 88.1406C91.2135 88.1406 91.9499 88.2067 92.7051 88.3389C93.4792 88.471 94.1872 88.707 94.8291 89.0469C95.471 89.3678 95.9902 89.821 96.3867 90.4062C96.8021 90.9915 97.0098 91.7467 97.0098 92.6719C97.0098 93.6914 96.7832 94.6543 96.3301 95.5605C95.8958 96.4479 95.3389 97.2881 94.6592 98.0811C93.9984 98.8551 93.262 99.582 92.4502 100.262C91.6572 100.923 90.9115 101.555 90.2129 102.159C90.1751 102.235 90.1374 102.395 90.0996 102.641C90.0807 102.867 90.0713 103.018 90.0713 103.094C90.0713 103.717 90.2507 104.34 90.6094 104.963C90.987 105.605 91.3929 106.247 91.8271 106.889C92.2614 107.549 92.6579 108.229 93.0166 108.928C93.3753 109.626 93.5547 110.353 93.5547 111.108C93.5547 111.562 93.4603 111.826 93.2715 111.901C93.0827 111.996 92.6862 112.043 92.082 112.043C91.7044 111.892 91.3268 111.533 90.9492 110.967C90.5905 110.419 90.2223 109.74 89.8447 108.928C89.486 108.116 89.1273 107.2 88.7686 106.181C88.4287 105.18 88.0983 104.16 87.7773 103.122C87.4753 102.065 87.1826 101.026 86.8994 100.007C86.6351 98.9684 86.3991 98.015 86.1914 97.1465C85.9837 96.278 85.7949 95.5322 85.625 94.9092C85.474 94.2673 85.3701 93.8141 85.3135 93.5498ZM87.7207 93.8047C87.7207 94.0879 87.7396 94.5033 87.7773 95.0508C87.8151 95.5794 87.8906 96.1081 88.0039 96.6367C88.1361 97.1654 88.3249 97.6279 88.5703 98.0244C88.8158 98.402 89.1556 98.5908 89.5898 98.5908C90.1751 98.5908 90.7604 98.3926 91.3457 97.9961C91.9499 97.5996 92.4785 97.0993 92.9316 96.4951C93.4036 95.891 93.7812 95.249 94.0645 94.5693C94.3665 93.8708 94.5176 93.2383 94.5176 92.6719C94.5176 92.1999 94.4043 91.8317 94.1777 91.5674C93.9512 91.2842 93.6585 91.0671 93.2998 90.916C92.96 90.7461 92.5918 90.6423 92.1953 90.6045C91.7988 90.5479 91.4212 90.5195 91.0625 90.5195C89.9863 90.5195 89.1556 90.8122 88.5703 91.3975C88.0039 91.9639 87.7207 92.7663 87.7207 93.8047ZM98.6807 92.4453C98.6807 92.332 98.6807 92.1338 98.6807 91.8506C98.6995 91.5485 98.709 91.237 98.709 90.916C98.709 90.5951 98.709 90.3024 98.709 90.0381C98.7279 89.7549 98.7373 89.5566 98.7373 89.4434C98.8695 89.2168 99.0205 88.9997 99.1904 88.792C99.3792 88.5654 99.568 88.4144 99.7568 88.3389C99.9645 88.2445 100.182 88.2256 100.408 88.2822C100.654 88.3389 100.899 88.5277 101.145 88.8486V89.0752V89.4434C101.126 89.5378 101.088 89.7643 101.031 90.123C100.975 90.4629 100.909 90.8405 100.833 91.2559C100.757 91.6712 100.682 92.0583 100.606 92.417C100.55 92.7568 100.521 92.974 100.521 93.0684C100.521 93.4271 100.559 93.8802 100.635 94.4277C100.71 94.9564 100.814 95.5133 100.946 96.0986C101.097 96.6839 101.277 97.2692 101.484 97.8545C101.711 98.4398 101.975 98.9684 102.277 99.4404C102.579 99.8936 102.91 100.271 103.269 100.573C103.646 100.875 104.08 101.026 104.571 101.026C105.175 101.026 105.704 100.866 106.157 100.545C106.629 100.224 107.035 99.8086 107.375 99.2988C107.715 98.7891 107.989 98.2132 108.196 97.5713C108.423 96.9294 108.602 96.2874 108.734 95.6455C108.867 94.9847 108.961 94.3522 109.018 93.748C109.074 93.1439 109.103 92.6152 109.103 92.1621C109.103 91.709 109.065 91.2842 108.989 90.8877C108.933 90.4723 108.857 90.0664 108.763 89.6699C108.668 89.2734 108.583 88.8864 108.508 88.5088C108.451 88.1123 108.423 87.7158 108.423 87.3193C108.423 86.9606 108.546 86.7057 108.791 86.5547C109.055 86.4036 109.348 86.3281 109.669 86.3281C110.065 86.3281 110.386 86.4508 110.632 86.6963C110.877 86.9229 111.066 87.2155 111.198 87.5742C111.349 87.9329 111.444 88.3483 111.481 88.8203C111.538 89.2734 111.566 89.7266 111.566 90.1797C111.566 90.6328 111.557 91.0671 111.538 91.4824C111.519 91.8789 111.51 92.1999 111.51 92.4453C111.51 93.0872 111.463 93.8141 111.368 94.626C111.274 95.4378 111.104 96.278 110.858 97.1465C110.632 97.9961 110.339 98.8363 109.98 99.667C109.641 100.498 109.216 101.243 108.706 101.904C108.215 102.546 107.639 103.065 106.979 103.462C106.337 103.858 105.61 104.057 104.798 104.057C103.948 104.057 103.202 103.858 102.561 103.462C101.919 103.047 101.371 102.508 100.918 101.848C100.484 101.168 100.116 100.403 99.8135 99.5537C99.5114 98.7041 99.2754 97.8545 99.1055 97.0049C98.9544 96.1553 98.8411 95.334 98.7656 94.541C98.709 93.7292 98.6807 93.0306 98.6807 92.4453ZM118.675 102.726C118.977 102.518 119.336 102.254 119.751 101.933C120.185 101.593 120.619 101.234 121.054 100.856C121.488 100.479 121.894 100.082 122.271 99.667C122.649 99.2516 122.942 98.8551 123.149 98.4775C123.376 98.0811 123.489 97.7129 123.489 97.373C123.489 97.0332 123.319 96.75 122.979 96.5234C122.375 96.5234 121.715 96.5518 120.997 96.6084C120.28 96.6462 119.562 96.665 118.845 96.665C118.127 96.6462 117.429 96.5801 116.749 96.4668C116.088 96.3535 115.493 96.1458 114.965 95.8438C114.436 95.5417 114.011 95.1169 113.69 94.5693C113.388 94.0029 113.237 93.2855 113.237 92.417C113.237 91.3975 113.426 90.4818 113.804 89.6699C114.2 88.8392 114.719 88.1123 115.361 87.4893C116.003 86.8473 116.721 86.2904 117.514 85.8184C118.326 85.3275 119.137 84.9121 119.949 84.5723C120.44 84.7044 120.893 84.9404 121.309 85.2803C121.724 85.6201 122.083 85.9977 122.385 86.4131C122.253 86.8285 121.988 87.1494 121.592 87.376C121.214 87.6025 120.771 87.8008 120.261 87.9707C119.77 88.1406 119.251 88.32 118.703 88.5088C118.156 88.6976 117.655 88.9525 117.202 89.2734C116.768 89.5755 116.4 89.9814 116.098 90.4912C115.796 90.9821 115.645 91.6335 115.645 92.4453C115.645 93.0495 115.796 93.4932 116.098 93.7764C116.4 94.0596 116.796 94.2578 117.287 94.3711C117.778 94.4655 118.335 94.5033 118.958 94.4844C119.581 94.4466 120.214 94.3994 120.855 94.3428C121.516 94.2861 122.158 94.2578 122.781 94.2578C123.404 94.2389 123.961 94.3145 124.452 94.4844C124.943 94.6354 125.33 94.8903 125.613 95.249C125.915 95.6077 126.066 96.1364 126.066 96.835C126.066 97.137 125.963 97.5241 125.755 97.9961C125.566 98.4681 125.302 98.9779 124.962 99.5254C124.641 100.054 124.254 100.583 123.801 101.111C123.367 101.64 122.904 102.121 122.413 102.556C121.941 102.971 121.46 103.32 120.969 103.604C120.497 103.868 120.053 104 119.638 104C119.241 104 118.977 103.858 118.845 103.575C118.731 103.292 118.675 103.009 118.675 102.726ZM127.199 96.127C127.199 95.1074 127.322 94.0879 127.567 93.0684C127.813 92.0488 128.2 91.1331 128.729 90.3213C129.276 89.5094 129.975 88.8486 130.824 88.3389C131.693 87.8291 132.741 87.5742 133.968 87.5742C134.666 87.5742 135.28 87.7064 135.809 87.9707C136.337 88.2161 136.781 88.5465 137.14 88.9619C137.498 89.3773 137.763 89.8682 137.933 90.4346C138.121 90.9821 138.216 91.5579 138.216 92.1621C138.216 93.125 137.989 94.0596 137.536 94.9658C137.102 95.8721 136.507 96.6745 135.752 97.373C135.016 98.0527 134.166 98.5719 133.203 98.9307C132.24 99.2705 131.258 99.346 130.258 99.1572C130.277 99.7048 130.456 100.148 130.796 100.488C131.155 100.809 131.579 101.055 132.07 101.225C132.561 101.395 133.071 101.508 133.6 101.564C134.128 101.602 134.6 101.621 135.016 101.621C135.45 101.621 135.856 101.583 136.233 101.508C136.611 101.432 136.989 101.347 137.366 101.253C137.744 101.159 138.121 101.074 138.499 100.998C138.896 100.923 139.311 100.885 139.745 100.885C139.915 100.885 140.085 100.894 140.255 100.913C140.425 100.932 140.585 100.979 140.736 101.055C140.887 101.111 141.01 101.215 141.104 101.366C141.199 101.498 141.246 101.668 141.246 101.876C141.246 102.235 141.114 102.537 140.85 102.782C140.585 103.009 140.245 103.207 139.83 103.377C139.434 103.547 138.99 103.679 138.499 103.773C138.008 103.849 137.527 103.915 137.055 103.972C136.602 104.009 136.177 104.028 135.78 104.028C135.403 104.047 135.119 104.057 134.931 104.057C133.722 104.057 132.637 103.868 131.674 103.49C130.711 103.094 129.899 102.556 129.238 101.876C128.577 101.177 128.068 100.347 127.709 99.3838C127.369 98.402 127.199 97.3164 127.199 96.127ZM130.201 94.2861C130.201 94.9469 130.286 95.4284 130.456 95.7305C130.645 96.0326 131.089 96.1836 131.787 96.1836C132.278 96.1836 132.759 96.0986 133.231 95.9287C133.703 95.7399 134.128 95.485 134.506 95.1641C134.902 94.8431 135.214 94.4655 135.44 94.0312C135.667 93.597 135.78 93.125 135.78 92.6152C135.78 92.332 135.752 92.0394 135.695 91.7373C135.658 91.4352 135.563 91.1615 135.412 90.916C135.261 90.6517 135.063 90.444 134.817 90.293C134.591 90.123 134.289 90.0381 133.911 90.0381C133.345 90.0381 132.826 90.1702 132.354 90.4346C131.9 90.68 131.513 91.0104 131.192 91.4258C130.871 91.8223 130.626 92.2754 130.456 92.7852C130.286 93.276 130.201 93.7764 130.201 94.2861ZM148.439 102.726C148.742 102.518 149.1 102.254 149.516 101.933C149.95 101.593 150.384 101.234 150.818 100.856C151.253 100.479 151.659 100.082 152.036 99.667C152.414 99.2516 152.706 98.8551 152.914 98.4775C153.141 98.0811 153.254 97.7129 153.254 97.373C153.254 97.0332 153.084 96.75 152.744 96.5234C152.14 96.5234 151.479 96.5518 150.762 96.6084C150.044 96.6462 149.327 96.665 148.609 96.665C147.892 96.6462 147.193 96.5801 146.514 96.4668C145.853 96.3535 145.258 96.1458 144.729 95.8438C144.201 95.5417 143.776 95.1169 143.455 94.5693C143.153 94.0029 143.002 93.2855 143.002 92.417C143.002 91.3975 143.191 90.4818 143.568 89.6699C143.965 88.8392 144.484 88.1123 145.126 87.4893C145.768 86.8473 146.485 86.2904 147.278 85.8184C148.09 85.3275 148.902 84.9121 149.714 84.5723C150.205 84.7044 150.658 84.9404 151.073 85.2803C151.489 85.6201 151.847 85.9977 152.149 86.4131C152.017 86.8285 151.753 87.1494 151.356 87.376C150.979 87.6025 150.535 87.8008 150.025 87.9707C149.535 88.1406 149.015 88.32 148.468 88.5088C147.92 88.6976 147.42 88.9525 146.967 89.2734C146.533 89.5755 146.164 89.9814 145.862 90.4912C145.56 90.9821 145.409 91.6335 145.409 92.4453C145.409 93.0495 145.56 93.4932 145.862 93.7764C146.164 94.0596 146.561 94.2578 147.052 94.3711C147.543 94.4655 148.1 94.5033 148.723 94.4844C149.346 94.4466 149.978 94.3994 150.62 94.3428C151.281 94.2861 151.923 94.2578 152.546 94.2578C153.169 94.2389 153.726 94.3145 154.217 94.4844C154.708 94.6354 155.095 94.8903 155.378 95.249C155.68 95.6077 155.831 96.1364 155.831 96.835C155.831 97.137 155.727 97.5241 155.52 97.9961C155.331 98.4681 155.066 98.9779 154.727 99.5254C154.406 100.054 154.019 100.583 153.565 101.111C153.131 101.64 152.669 102.121 152.178 102.556C151.706 102.971 151.224 103.32 150.733 103.604C150.261 103.868 149.818 104 149.402 104C149.006 104 148.742 103.858 148.609 103.575C148.496 103.292 148.439 103.009 148.439 102.726ZM182.197 100.347C181.48 100.838 180.857 101.281 180.328 101.678C179.818 102.055 179.318 102.376 178.827 102.641C178.336 102.905 177.808 103.103 177.241 103.235C176.694 103.368 176.014 103.434 175.202 103.434C173.446 103.434 172.144 102.971 171.294 102.046C170.444 101.102 170.02 99.7048 170.02 97.8545C170.02 97.137 170.114 96.3913 170.303 95.6172C170.492 94.8431 170.765 94.0785 171.124 93.3232C171.502 92.5492 171.945 91.8223 172.455 91.1426C172.965 90.444 173.541 89.8304 174.183 89.3018C174.825 88.7731 175.504 88.3577 176.222 88.0557C176.958 87.7347 177.732 87.5742 178.544 87.5742C179.903 87.7064 180.97 88.0462 181.744 88.5938C182.518 89.1224 183.104 89.8115 183.5 90.6611C183.896 91.4919 184.17 92.4264 184.321 93.4648C184.472 94.4844 184.586 95.5417 184.661 96.6367C184.756 97.7318 184.869 98.8268 185.001 99.9219C185.133 101.017 185.407 102.027 185.822 102.952C185.577 103.575 185.341 104.009 185.114 104.255C184.907 104.519 184.671 104.566 184.406 104.396C184.142 104.227 183.83 103.811 183.472 103.15C183.132 102.49 182.707 101.555 182.197 100.347ZM172.427 97.9111C172.427 98.9873 172.625 99.7803 173.021 100.29C173.437 100.781 174.164 101.026 175.202 101.026C175.976 101.026 176.713 100.894 177.411 100.63C178.129 100.347 178.752 99.9691 179.28 99.4971C179.809 99.0062 180.234 98.4209 180.555 97.7412C180.876 97.0615 181.036 96.3063 181.036 95.4756C181.036 95.1357 181.046 94.6637 181.064 94.0596C181.083 93.4365 181.046 92.8229 180.951 92.2188C180.857 91.6146 180.677 91.0954 180.413 90.6611C180.149 90.208 179.752 89.9814 179.224 89.9814C178.242 89.9814 177.336 90.2363 176.505 90.7461C175.674 91.237 174.957 91.8695 174.353 92.6436C173.748 93.4176 173.276 94.2767 172.937 95.2207C172.597 96.1458 172.427 97.0426 172.427 97.9111ZM187.606 92.1055C187.606 91.9355 187.616 91.7656 187.635 91.5957C187.654 91.4069 187.691 91.2464 187.748 91.1143C187.805 90.9632 187.89 90.8405 188.003 90.7461C188.135 90.6517 188.314 90.6045 188.541 90.6045C188.73 90.6045 188.938 90.7555 189.164 91.0576C189.41 91.3408 189.655 91.709 189.9 92.1621C190.146 92.5964 190.382 93.0778 190.608 93.6064C190.854 94.1351 191.062 94.626 191.231 95.0791C191.42 95.5133 191.571 95.891 191.685 96.2119C191.798 96.5329 191.864 96.7028 191.883 96.7217C192.128 96.0609 192.402 95.3434 192.704 94.5693C193.006 93.7952 193.374 93.0778 193.809 92.417C194.262 91.7373 194.79 91.1709 195.395 90.7178C196.018 90.2646 196.773 90.0381 197.66 90.0381C198.113 90.0381 198.538 90.1136 198.935 90.2646C199.35 90.3968 199.709 90.6045 200.011 90.8877C200.332 91.152 200.587 91.473 200.775 91.8506C200.964 92.2282 201.059 92.6624 201.059 93.1533C201.059 93.5687 200.889 93.8613 200.549 94.0312C200.228 94.2012 199.86 94.2861 199.444 94.2861H199.161L197.943 93.0684C197.906 93.0684 197.877 93.0589 197.858 93.04C197.821 93.04 197.783 93.04 197.745 93.04C197.726 93.0212 197.698 93.0117 197.66 93.0117C196.999 93.0117 196.48 93.2005 196.103 93.5781C195.744 93.9368 195.47 94.39 195.281 94.9375C195.092 95.4661 194.97 96.0326 194.913 96.6367C194.875 97.222 194.856 97.7601 194.856 98.251C194.856 98.6286 194.894 99.0156 194.97 99.4121C195.045 99.7897 195.13 100.167 195.225 100.545C195.319 100.904 195.404 101.281 195.479 101.678C195.555 102.055 195.593 102.452 195.593 102.867C195.593 103.66 195.168 104.057 194.318 104.057C193.846 104.057 193.355 103.811 192.846 103.32C192.336 102.811 191.826 102.169 191.316 101.395C190.826 100.62 190.354 99.7708 189.9 98.8457C189.447 97.9017 189.051 96.986 188.711 96.0986C188.371 95.2113 188.097 94.4089 187.89 93.6914C187.701 92.974 187.606 92.4453 187.606 92.1055ZM202.078 96.127C202.078 95.1074 202.201 94.0879 202.446 93.0684C202.692 92.0488 203.079 91.1331 203.607 90.3213C204.155 89.5094 204.854 88.8486 205.703 88.3389C206.572 87.8291 207.619 87.5742 208.847 87.5742C209.545 87.5742 210.159 87.7064 210.688 87.9707C211.216 88.2161 211.66 88.5465 212.019 88.9619C212.377 89.3773 212.642 89.8682 212.812 90.4346C213 90.9821 213.095 91.5579 213.095 92.1621C213.095 93.125 212.868 94.0596 212.415 94.9658C211.981 95.8721 211.386 96.6745 210.631 97.373C209.895 98.0527 209.045 98.5719 208.082 98.9307C207.119 99.2705 206.137 99.346 205.137 99.1572C205.156 99.7048 205.335 100.148 205.675 100.488C206.034 100.809 206.458 101.055 206.949 101.225C207.44 101.395 207.95 101.508 208.479 101.564C209.007 101.602 209.479 101.621 209.895 101.621C210.329 101.621 210.735 101.583 211.112 101.508C211.49 101.432 211.868 101.347 212.245 101.253C212.623 101.159 213 101.074 213.378 100.998C213.774 100.923 214.19 100.885 214.624 100.885C214.794 100.885 214.964 100.894 215.134 100.913C215.304 100.932 215.464 100.979 215.615 101.055C215.766 101.111 215.889 101.215 215.983 101.366C216.078 101.498 216.125 101.668 216.125 101.876C216.125 102.235 215.993 102.537 215.729 102.782C215.464 103.009 215.124 103.207 214.709 103.377C214.312 103.547 213.869 103.679 213.378 103.773C212.887 103.849 212.406 103.915 211.934 103.972C211.48 104.009 211.056 104.028 210.659 104.028C210.282 104.047 209.998 104.057 209.81 104.057C208.601 104.057 207.516 103.868 206.553 103.49C205.59 103.094 204.778 102.556 204.117 101.876C203.456 101.177 202.947 100.347 202.588 99.3838C202.248 98.402 202.078 97.3164 202.078 96.127ZM205.08 94.2861C205.08 94.9469 205.165 95.4284 205.335 95.7305C205.524 96.0326 205.967 96.1836 206.666 96.1836C207.157 96.1836 207.638 96.0986 208.11 95.9287C208.582 95.7399 209.007 95.485 209.385 95.1641C209.781 94.8431 210.093 94.4655 210.319 94.0312C210.546 93.597 210.659 93.125 210.659 92.6152C210.659 92.332 210.631 92.0394 210.574 91.7373C210.536 91.4352 210.442 91.1615 210.291 90.916C210.14 90.6517 209.942 90.444 209.696 90.293C209.47 90.123 209.168 90.0381 208.79 90.0381C208.224 90.0381 207.704 90.1702 207.232 90.4346C206.779 90.68 206.392 91.0104 206.071 91.4258C205.75 91.8223 205.505 92.2754 205.335 92.7852C205.165 93.276 205.08 93.7764 205.08 94.2861ZM8.73535 120.879C8.73535 120.558 8.80143 120.265 8.93359 120.001C9.08464 119.737 9.33952 119.604 9.69824 119.604C9.71712 119.604 9.74544 119.614 9.7832 119.633C9.82096 119.633 9.85872 119.633 9.89648 119.633C9.93424 119.633 9.97201 119.633 10.0098 119.633C10.0664 119.671 10.1702 119.765 10.3213 119.916C10.4912 120.067 10.5951 120.18 10.6328 120.256C10.6895 120.369 10.8027 120.615 10.9727 120.992C11.1615 121.37 11.3786 121.813 11.624 122.323C11.8883 122.814 12.1527 123.343 12.417 123.909C12.7002 124.457 12.9645 124.985 13.21 125.495C13.4743 126.005 13.6914 126.449 13.8613 126.826C14.0501 127.185 14.1823 127.421 14.2578 127.534C14.2767 127.591 14.3617 127.704 14.5127 127.874C14.6826 128.025 14.8053 128.119 14.8809 128.157C15.0319 127.893 15.1829 127.496 15.334 126.968C15.485 126.439 15.6361 125.863 15.7871 125.24C15.957 124.598 16.127 123.947 16.2969 123.286C16.4668 122.606 16.6556 122.002 16.8633 121.474C17.0898 120.926 17.3353 120.482 17.5996 120.143C17.8639 119.784 18.166 119.604 18.5059 119.604C18.9967 119.604 19.4593 119.793 19.8936 120.171C20.3467 120.549 20.7715 121.039 21.168 121.644C21.5833 122.248 21.9704 122.927 22.3291 123.683C22.7067 124.419 23.056 125.155 23.377 125.892C23.7168 126.609 24.0283 127.279 24.3115 127.902C24.6136 128.507 24.9062 128.988 25.1895 129.347C25.416 129.271 25.6048 129.082 25.7559 128.78C25.9069 128.478 26.0202 128.167 26.0957 127.846C26.1901 127.506 26.2562 127.194 26.2939 126.911C26.3317 126.609 26.36 126.411 26.3789 126.316C26.3978 126.109 26.4261 125.788 26.4639 125.354C26.5016 124.9 26.5394 124.391 26.5771 123.824C26.6338 123.258 26.681 122.673 26.7188 122.068C26.7565 121.464 26.7943 120.879 26.832 120.312C26.8887 119.746 26.9264 119.246 26.9453 118.812C26.9831 118.358 27.002 118.037 27.002 117.849C27.0397 117.849 27.1341 117.839 27.2852 117.82C27.4362 117.783 27.54 117.764 27.5967 117.764C27.861 117.764 28.097 117.792 28.3047 117.849C28.5124 117.905 28.6729 118.104 28.7861 118.443C28.7861 118.576 28.7861 118.812 28.7861 119.151C28.805 119.491 28.8145 119.859 28.8145 120.256C28.8333 120.633 28.8428 121.002 28.8428 121.36C28.8617 121.7 28.8711 121.936 28.8711 122.068C28.8711 122.37 28.8711 122.842 28.8711 123.484C28.89 124.107 28.8805 124.806 28.8428 125.58C28.8239 126.354 28.7673 127.147 28.6729 127.959C28.5785 128.752 28.4274 129.488 28.2197 130.168C28.0309 130.829 27.7666 131.376 27.4268 131.811C27.0869 132.226 26.6621 132.434 26.1523 132.434C25.5671 132.434 25.0195 132.292 24.5098 132.009C24 131.726 23.5186 131.348 23.0654 130.876C22.6312 130.404 22.2158 129.885 21.8193 129.318C21.4229 128.733 21.0547 128.148 20.7148 127.562C20.3939 126.958 20.0918 126.392 19.8086 125.863C19.5443 125.316 19.3083 124.853 19.1006 124.476C18.9495 124.815 18.8079 125.24 18.6758 125.75C18.5625 126.26 18.4303 126.817 18.2793 127.421C18.1283 128.006 17.9583 128.601 17.7695 129.205C17.5807 129.79 17.3636 130.328 17.1182 130.819C16.8916 131.291 16.6178 131.678 16.2969 131.98C15.9948 132.283 15.6455 132.434 15.249 132.434C15.0602 132.434 14.8903 132.443 14.7393 132.462C14.5882 132.462 14.4466 132.452 14.3145 132.434C14.1823 132.396 14.0596 132.33 13.9463 132.235C13.833 132.141 13.7292 131.99 13.6348 131.782L8.79199 121.445C8.79199 121.426 8.78255 121.351 8.76367 121.219C8.74479 121.068 8.73535 120.954 8.73535 120.879ZM42.8047 129.347C42.0872 129.838 41.4642 130.281 40.9355 130.678C40.4258 131.055 39.9255 131.376 39.4346 131.641C38.9437 131.905 38.415 132.103 37.8486 132.235C37.3011 132.368 36.6214 132.434 35.8096 132.434C34.0537 132.434 32.751 131.971 31.9014 131.046C31.0518 130.102 30.627 128.705 30.627 126.854C30.627 126.137 30.7214 125.391 30.9102 124.617C31.099 123.843 31.3727 123.078 31.7314 122.323C32.109 121.549 32.5527 120.822 33.0625 120.143C33.5723 119.444 34.1481 118.83 34.79 118.302C35.432 117.773 36.1117 117.358 36.8291 117.056C37.5654 116.735 38.3395 116.574 39.1514 116.574C40.5107 116.706 41.5775 117.046 42.3516 117.594C43.1257 118.122 43.7109 118.812 44.1074 119.661C44.5039 120.492 44.7777 121.426 44.9287 122.465C45.0798 123.484 45.193 124.542 45.2686 125.637C45.363 126.732 45.4762 127.827 45.6084 128.922C45.7406 130.017 46.0143 131.027 46.4297 131.952C46.1842 132.575 45.9482 133.009 45.7217 133.255C45.514 133.519 45.278 133.566 45.0137 133.396C44.7493 133.227 44.4378 132.811 44.0791 132.15C43.7393 131.49 43.3145 130.555 42.8047 129.347ZM33.0342 126.911C33.0342 127.987 33.2324 128.78 33.6289 129.29C34.0443 129.781 34.7712 130.026 35.8096 130.026C36.5837 130.026 37.32 129.894 38.0186 129.63C38.736 129.347 39.359 128.969 39.8877 128.497C40.4163 128.006 40.8411 127.421 41.1621 126.741C41.4831 126.062 41.6436 125.306 41.6436 124.476C41.6436 124.136 41.653 123.664 41.6719 123.06C41.6908 122.437 41.653 121.823 41.5586 121.219C41.4642 120.615 41.2848 120.095 41.0205 119.661C40.7562 119.208 40.3597 118.981 39.8311 118.981C38.8493 118.981 37.943 119.236 37.1123 119.746C36.2816 120.237 35.5641 120.869 34.96 121.644C34.3558 122.418 33.8838 123.277 33.5439 124.221C33.2041 125.146 33.0342 126.043 33.0342 126.911ZM48.2139 121.105C48.2139 120.936 48.2233 120.766 48.2422 120.596C48.2611 120.407 48.2988 120.246 48.3555 120.114C48.4121 119.963 48.4971 119.84 48.6104 119.746C48.7425 119.652 48.9219 119.604 49.1484 119.604C49.3372 119.604 49.5449 119.756 49.7715 120.058C50.0169 120.341 50.2624 120.709 50.5078 121.162C50.7533 121.596 50.9893 122.078 51.2158 122.606C51.4613 123.135 51.6689 123.626 51.8389 124.079C52.0277 124.513 52.1787 124.891 52.292 125.212C52.4053 125.533 52.4714 125.703 52.4902 125.722C52.7357 125.061 53.0094 124.343 53.3115 123.569C53.6136 122.795 53.9818 122.078 54.416 121.417C54.8691 120.737 55.3978 120.171 56.002 119.718C56.625 119.265 57.3802 119.038 58.2676 119.038C58.7207 119.038 59.1455 119.114 59.542 119.265C59.9574 119.397 60.3161 119.604 60.6182 119.888C60.9391 120.152 61.194 120.473 61.3828 120.851C61.5716 121.228 61.666 121.662 61.666 122.153C61.666 122.569 61.4961 122.861 61.1562 123.031C60.8353 123.201 60.4671 123.286 60.0518 123.286H59.7686L58.5508 122.068C58.513 122.068 58.4847 122.059 58.4658 122.04C58.4281 122.04 58.3903 122.04 58.3525 122.04C58.3337 122.021 58.3053 122.012 58.2676 122.012C57.6068 122.012 57.0876 122.201 56.71 122.578C56.3512 122.937 56.0775 123.39 55.8887 123.938C55.6999 124.466 55.5771 125.033 55.5205 125.637C55.4827 126.222 55.4639 126.76 55.4639 127.251C55.4639 127.629 55.5016 128.016 55.5771 128.412C55.6527 128.79 55.7376 129.167 55.832 129.545C55.9264 129.904 56.0114 130.281 56.0869 130.678C56.1624 131.055 56.2002 131.452 56.2002 131.867C56.2002 132.66 55.7754 133.057 54.9258 133.057C54.4538 133.057 53.9629 132.811 53.4531 132.32C52.9434 131.811 52.4336 131.169 51.9238 130.395C51.4329 129.62 50.9609 128.771 50.5078 127.846C50.0547 126.902 49.6582 125.986 49.3184 125.099C48.9785 124.211 48.7048 123.409 48.4971 122.691C48.3083 121.974 48.2139 121.445 48.2139 121.105ZM62.0625 121.105C62.0625 120.633 62.138 120.265 62.2891 120.001C62.459 119.737 62.8083 119.604 63.3369 119.604C63.3936 119.604 63.4974 119.614 63.6484 119.633C63.8184 119.633 63.9222 119.633 63.96 119.633C64.0921 120.218 64.2243 120.86 64.3564 121.559C64.5075 122.238 64.6774 122.927 64.8662 123.626C65.055 124.325 65.2627 125.014 65.4893 125.693C65.7347 126.373 66.0273 126.987 66.3672 127.534C66.707 127.175 66.9525 126.751 67.1035 126.26C67.2546 125.769 67.3678 125.278 67.4434 124.787C67.5189 124.277 67.585 123.796 67.6416 123.343C67.7171 122.871 67.8587 122.474 68.0664 122.153C68.2741 121.813 68.5762 121.568 68.9727 121.417C69.388 121.266 69.9544 121.266 70.6719 121.417C71.4648 121.417 72.0973 121.568 72.5693 121.87C73.0413 122.153 73.4473 122.521 73.7871 122.975C74.1458 123.409 74.4857 123.881 74.8066 124.391C75.1465 124.882 75.5713 125.325 76.0811 125.722C76.1943 125.476 76.3359 125.174 76.5059 124.815C76.6758 124.438 76.8835 124.051 77.1289 123.654C77.3932 123.239 77.667 122.833 77.9502 122.437C78.2523 122.021 78.5638 121.653 78.8848 121.332C79.2057 120.992 79.5361 120.718 79.876 120.511C80.2158 120.284 80.5462 120.171 80.8672 120.171C81.6413 120.171 82.3115 120.416 82.8779 120.907C83.4443 121.379 83.9258 121.983 84.3223 122.72C84.7376 123.437 85.0775 124.249 85.3418 125.155C85.6061 126.043 85.8138 126.902 85.9648 127.732C86.1159 128.563 86.2197 129.328 86.2764 130.026C86.3519 130.706 86.3896 131.197 86.3896 131.499C86.3896 131.744 86.333 131.933 86.2197 132.065C86.1064 132.198 85.9648 132.301 85.7949 132.377C85.625 132.434 85.4362 132.471 85.2285 132.49C85.0397 132.509 84.8604 132.519 84.6904 132.519C84.6527 132.519 84.596 132.519 84.5205 132.519C84.445 132.5 84.36 132.481 84.2656 132.462C84.1901 132.443 84.0863 132.415 83.9541 132.377L82.1133 123.909C82.1133 123.853 82.0378 123.749 81.8867 123.598C81.7357 123.428 81.6224 123.324 81.5469 123.286C81.4902 123.286 81.443 123.277 81.4053 123.258C81.3675 123.258 81.3392 123.258 81.3203 123.258C81.3014 123.239 81.2826 123.229 81.2637 123.229C80.8672 123.229 80.4896 123.39 80.1309 123.711C79.791 124.032 79.4701 124.438 79.168 124.929C78.8659 125.42 78.5827 125.967 78.3184 126.571C78.054 127.175 77.818 127.78 77.6104 128.384C77.4027 128.969 77.2139 129.517 77.0439 130.026C76.8929 130.517 76.7702 130.895 76.6758 131.159C76.6003 131.197 76.4492 131.235 76.2227 131.272C75.9961 131.291 75.8451 131.301 75.7695 131.301C75.2409 131.301 74.835 131.121 74.5518 130.763C74.2686 130.385 74.0326 129.923 73.8438 129.375C73.6738 128.827 73.5228 128.233 73.3906 127.591C73.2773 126.93 73.1263 126.326 72.9375 125.778C72.7676 125.231 72.5221 124.778 72.2012 124.419C71.8991 124.041 71.4648 123.853 70.8984 123.853C70.6908 123.853 70.4925 124.06 70.3037 124.476C70.1149 124.891 69.945 125.42 69.7939 126.062C69.6429 126.685 69.5013 127.364 69.3691 128.101C69.237 128.818 69.1237 129.498 69.0293 130.14C68.9538 130.763 68.8971 131.291 68.8594 131.726C68.8216 132.16 68.8027 132.377 68.8027 132.377C68.765 132.434 68.6895 132.5 68.5762 132.575C68.4629 132.632 68.3402 132.698 68.208 132.773C68.0947 132.849 67.972 132.906 67.8398 132.943C67.7266 132.981 67.6416 133 67.585 133C67.0563 133 66.5465 132.764 66.0557 132.292C65.5648 131.801 65.1117 131.178 64.6963 130.423C64.2998 129.649 63.9316 128.799 63.5918 127.874C63.2708 126.949 62.9971 126.043 62.7705 125.155C62.5439 124.268 62.3646 123.465 62.2324 122.748C62.1191 122.031 62.0625 121.483 62.0625 121.105ZM89.1367 123.796C89.1367 123.739 89.1462 123.635 89.165 123.484C89.1839 123.314 89.1934 123.22 89.1934 123.201C89.4954 123.201 89.9014 123.182 90.4111 123.145C90.9398 123.088 91.5156 123.041 92.1387 123.003C92.7617 122.946 93.4036 122.89 94.0645 122.833C94.7441 122.776 95.3861 122.739 95.9902 122.72C96.5944 122.701 97.1514 122.691 97.6611 122.691C98.1709 122.691 98.5674 122.72 98.8506 122.776C99.1904 122.776 99.4264 122.814 99.5586 122.89C99.7096 122.965 99.7852 123.22 99.7852 123.654C99.2188 124.032 98.5107 124.315 97.6611 124.504C96.8115 124.674 95.943 124.797 95.0557 124.872C94.1683 124.948 93.2998 124.985 92.4502 124.985C91.6195 124.985 90.9398 124.995 90.4111 125.014C89.9014 125.051 89.5615 124.948 89.3916 124.702C89.2217 124.457 89.1367 124.155 89.1367 123.796ZM106.384 131.782C105.799 130.083 105.242 128.497 104.713 127.024C104.203 125.533 103.75 124.079 103.354 122.663C102.976 121.228 102.674 119.774 102.447 118.302C102.221 116.829 102.107 115.253 102.107 113.572C102.107 113.44 102.107 113.204 102.107 112.864C102.126 112.506 102.136 112.137 102.136 111.76C102.136 111.382 102.136 111.023 102.136 110.684C102.155 110.325 102.164 110.079 102.164 109.947C102.334 109.57 102.627 109.22 103.042 108.899C103.476 108.578 103.91 108.418 104.345 108.418C104.345 109.815 104.364 111.307 104.401 112.893C104.439 114.46 104.552 116.027 104.741 117.594C104.949 119.161 105.27 120.7 105.704 122.21C106.157 123.701 106.79 125.07 107.602 126.316C107.62 125.863 107.639 125.363 107.658 124.815C107.677 124.268 107.724 123.72 107.8 123.173C107.894 122.625 108.036 122.097 108.225 121.587C108.413 121.077 108.687 120.624 109.046 120.228C109.424 119.831 109.905 119.52 110.49 119.293C111.094 119.066 111.85 118.963 112.756 118.981C113.568 118.981 114.295 119.132 114.937 119.435C115.597 119.737 116.145 120.152 116.579 120.681C117.032 121.19 117.372 121.795 117.599 122.493C117.844 123.173 117.967 123.9 117.967 124.674C117.967 125.712 117.712 126.732 117.202 127.732C116.692 128.733 116.013 129.63 115.163 130.423C114.332 131.216 113.398 131.858 112.359 132.349C111.321 132.821 110.264 133.057 109.188 133.057C108.64 133.057 108.111 132.962 107.602 132.773C107.092 132.566 106.686 132.235 106.384 131.782ZM113.096 121.445C112.718 121.653 112.322 121.898 111.906 122.182C111.491 122.465 111.104 122.909 110.745 123.513C110.405 124.098 110.113 124.9 109.867 125.92C109.622 126.939 109.471 128.289 109.414 129.97C109.452 129.97 109.546 129.979 109.697 129.998C109.867 130.017 109.98 130.026 110.037 130.026C110.547 130.026 111.123 129.866 111.765 129.545C112.425 129.224 113.058 128.827 113.662 128.355C114.285 127.883 114.823 127.364 115.276 126.798C115.729 126.213 116.003 125.656 116.098 125.127C116.154 124.806 116.088 124.438 115.899 124.022C115.711 123.607 115.456 123.211 115.135 122.833C114.833 122.437 114.493 122.106 114.115 121.842C113.757 121.577 113.417 121.445 113.096 121.445ZM120.374 116.971C120.374 116.423 120.336 115.895 120.261 115.385C120.185 114.856 120.166 114.394 120.204 113.997C120.242 113.582 120.383 113.251 120.629 113.006C120.893 112.76 121.365 112.638 122.045 112.638C122.253 113.072 122.451 113.733 122.64 114.62C122.847 115.507 123.046 116.527 123.234 117.679C123.423 118.83 123.603 120.086 123.772 121.445C123.942 122.786 124.093 124.136 124.226 125.495C124.377 126.854 124.499 128.195 124.594 129.517C124.707 130.819 124.792 132.009 124.849 133.085C124.226 133.5 123.725 133.529 123.348 133.17C122.97 132.811 122.659 132.207 122.413 131.357C122.168 130.489 121.979 129.441 121.847 128.214C121.715 126.968 121.582 125.684 121.45 124.362C121.337 123.022 121.195 121.71 121.025 120.426C120.855 119.123 120.638 117.971 120.374 116.971ZM126.321 127.251C126.321 126.08 126.595 124.995 127.143 123.994C127.69 122.975 128.408 122.106 129.295 121.389C130.201 120.652 131.211 120.076 132.325 119.661C133.458 119.246 134.6 119.038 135.752 119.038C136.394 119.038 136.96 119.246 137.451 119.661C137.961 120.076 138.386 120.586 138.726 121.19C139.065 121.776 139.32 122.399 139.49 123.06C139.679 123.72 139.773 124.296 139.773 124.787C139.773 125.844 139.519 126.873 139.009 127.874C138.499 128.856 137.838 129.734 137.026 130.508C136.215 131.263 135.299 131.877 134.279 132.349C133.26 132.821 132.24 133.057 131.221 133.057C130.314 133.057 129.55 132.906 128.927 132.604C128.304 132.283 127.803 131.867 127.426 131.357C127.048 130.829 126.765 130.215 126.576 129.517C126.406 128.799 126.321 128.044 126.321 127.251ZM128.729 127.534C128.729 128.025 128.766 128.459 128.842 128.837C128.936 129.196 129.087 129.507 129.295 129.771C129.521 130.036 129.814 130.243 130.173 130.395C130.532 130.527 130.975 130.593 131.504 130.593C132.202 130.593 132.901 130.404 133.6 130.026C134.298 129.63 134.921 129.139 135.469 128.554C136.035 127.95 136.488 127.289 136.828 126.571C137.168 125.854 137.338 125.155 137.338 124.476C137.338 124.174 137.31 123.843 137.253 123.484C137.196 123.126 137.102 122.795 136.97 122.493C136.838 122.191 136.649 121.936 136.403 121.729C136.158 121.521 135.846 121.417 135.469 121.417C135.129 121.417 134.723 121.53 134.251 121.757C133.798 121.983 133.316 122.276 132.807 122.635C132.316 122.993 131.825 123.399 131.334 123.853C130.862 124.306 130.428 124.759 130.031 125.212C129.635 125.665 129.314 126.099 129.068 126.515C128.842 126.93 128.729 127.27 128.729 127.534ZM140.878 127.251C140.878 126.08 141.152 124.995 141.699 123.994C142.247 122.975 142.964 122.106 143.852 121.389C144.758 120.652 145.768 120.076 146.882 119.661C148.015 119.246 149.157 119.038 150.309 119.038C150.951 119.038 151.517 119.246 152.008 119.661C152.518 120.076 152.942 120.586 153.282 121.19C153.622 121.776 153.877 122.399 154.047 123.06C154.236 123.72 154.33 124.296 154.33 124.787C154.33 125.844 154.075 126.873 153.565 127.874C153.056 128.856 152.395 129.734 151.583 130.508C150.771 131.263 149.855 131.877 148.836 132.349C147.816 132.821 146.797 133.057 145.777 133.057C144.871 133.057 144.106 132.906 143.483 132.604C142.86 132.283 142.36 131.867 141.982 131.357C141.605 130.829 141.322 130.215 141.133 129.517C140.963 128.799 140.878 128.044 140.878 127.251ZM143.285 127.534C143.285 128.025 143.323 128.459 143.398 128.837C143.493 129.196 143.644 129.507 143.852 129.771C144.078 130.036 144.371 130.243 144.729 130.395C145.088 130.527 145.532 130.593 146.061 130.593C146.759 130.593 147.458 130.404 148.156 130.026C148.855 129.63 149.478 129.139 150.025 128.554C150.592 127.95 151.045 127.289 151.385 126.571C151.725 125.854 151.895 125.155 151.895 124.476C151.895 124.174 151.866 123.843 151.81 123.484C151.753 123.126 151.659 122.795 151.526 122.493C151.394 122.191 151.205 121.936 150.96 121.729C150.715 121.521 150.403 121.417 150.025 121.417C149.686 121.417 149.28 121.53 148.808 121.757C148.354 121.983 147.873 122.276 147.363 122.635C146.872 122.993 146.382 123.399 145.891 123.853C145.419 124.306 144.984 124.759 144.588 125.212C144.191 125.665 143.87 126.099 143.625 126.515C143.398 126.93 143.285 127.27 143.285 127.534ZM154.812 129.658C154.812 128.563 155.085 127.591 155.633 126.741C156.18 125.892 156.86 125.155 157.672 124.532C158.484 123.89 159.362 123.352 160.306 122.918C161.25 122.465 162.128 122.097 162.939 121.813C163.751 121.511 164.431 121.275 164.979 121.105C165.526 120.917 165.8 120.766 165.8 120.652C165.8 119.992 165.762 119.35 165.687 118.727C165.63 118.085 165.564 117.443 165.488 116.801C165.413 116.159 165.337 115.526 165.262 114.903C165.205 114.261 165.177 113.629 165.177 113.006V111.165C165.951 110.882 166.498 110.91 166.819 111.25C167.159 111.59 167.216 112.175 166.989 113.006C167.065 113.421 167.169 114.073 167.301 114.96C167.433 115.847 167.575 116.848 167.726 117.962C167.896 119.076 168.065 120.246 168.235 121.474C168.424 122.701 168.594 123.881 168.745 125.014C168.915 126.128 169.057 127.128 169.17 128.016C169.283 128.884 169.368 129.535 169.425 129.97C169.444 130.064 169.463 130.253 169.481 130.536C169.5 130.8 169.51 131.093 169.51 131.414C169.529 131.716 169.538 131.999 169.538 132.264C169.557 132.528 169.566 132.717 169.566 132.83C168.849 132.83 168.358 132.802 168.094 132.745C167.848 132.688 167.688 132.575 167.612 132.405C167.556 132.235 167.527 131.99 167.527 131.669C167.527 131.348 167.433 130.904 167.244 130.338C166.546 130.885 165.885 131.339 165.262 131.697C164.639 132.056 164.016 132.349 163.393 132.575C162.77 132.783 162.137 132.924 161.495 133C160.872 133.094 160.202 133.142 159.484 133.142C158.88 133.142 158.295 133.094 157.729 133C157.181 132.887 156.69 132.698 156.256 132.434C155.822 132.169 155.472 131.811 155.208 131.357C154.944 130.904 154.812 130.338 154.812 129.658ZM157.275 129.063C157.275 129.366 157.341 129.611 157.474 129.8C157.606 129.989 157.776 130.149 157.983 130.281C158.191 130.413 158.408 130.508 158.635 130.564C158.88 130.602 159.116 130.621 159.343 130.621C160.004 130.621 160.712 130.498 161.467 130.253C162.241 129.989 162.949 129.63 163.591 129.177C164.252 128.705 164.79 128.148 165.205 127.506C165.639 126.864 165.856 126.165 165.856 125.41C165.856 124.825 165.753 124.419 165.545 124.192C165.337 123.966 164.941 123.853 164.355 123.853C163.751 123.853 163.043 123.994 162.231 124.277C161.438 124.561 160.664 124.938 159.909 125.41C159.173 125.882 158.55 126.439 158.04 127.081C157.53 127.704 157.275 128.365 157.275 129.063ZM171.237 125.127C171.237 124.107 171.36 123.088 171.605 122.068C171.851 121.049 172.238 120.133 172.767 119.321C173.314 118.509 174.013 117.849 174.862 117.339C175.731 116.829 176.779 116.574 178.006 116.574C178.704 116.574 179.318 116.706 179.847 116.971C180.375 117.216 180.819 117.547 181.178 117.962C181.536 118.377 181.801 118.868 181.971 119.435C182.16 119.982 182.254 120.558 182.254 121.162C182.254 122.125 182.027 123.06 181.574 123.966C181.14 124.872 180.545 125.674 179.79 126.373C179.054 127.053 178.204 127.572 177.241 127.931C176.278 128.271 175.297 128.346 174.296 128.157C174.315 128.705 174.494 129.148 174.834 129.488C175.193 129.809 175.618 130.055 176.108 130.225C176.599 130.395 177.109 130.508 177.638 130.564C178.166 130.602 178.638 130.621 179.054 130.621C179.488 130.621 179.894 130.583 180.271 130.508C180.649 130.432 181.027 130.347 181.404 130.253C181.782 130.159 182.16 130.074 182.537 129.998C182.934 129.923 183.349 129.885 183.783 129.885C183.953 129.885 184.123 129.894 184.293 129.913C184.463 129.932 184.623 129.979 184.774 130.055C184.925 130.111 185.048 130.215 185.143 130.366C185.237 130.498 185.284 130.668 185.284 130.876C185.284 131.235 185.152 131.537 184.888 131.782C184.623 132.009 184.284 132.207 183.868 132.377C183.472 132.547 183.028 132.679 182.537 132.773C182.046 132.849 181.565 132.915 181.093 132.972C180.64 133.009 180.215 133.028 179.818 133.028C179.441 133.047 179.158 133.057 178.969 133.057C177.76 133.057 176.675 132.868 175.712 132.49C174.749 132.094 173.937 131.556 173.276 130.876C172.616 130.177 172.106 129.347 171.747 128.384C171.407 127.402 171.237 126.316 171.237 125.127ZM174.239 123.286C174.239 123.947 174.324 124.428 174.494 124.73C174.683 125.033 175.127 125.184 175.825 125.184C176.316 125.184 176.798 125.099 177.27 124.929C177.742 124.74 178.166 124.485 178.544 124.164C178.94 123.843 179.252 123.465 179.479 123.031C179.705 122.597 179.818 122.125 179.818 121.615C179.818 121.332 179.79 121.039 179.733 120.737C179.696 120.435 179.601 120.161 179.45 119.916C179.299 119.652 179.101 119.444 178.855 119.293C178.629 119.123 178.327 119.038 177.949 119.038C177.383 119.038 176.864 119.17 176.392 119.435C175.938 119.68 175.551 120.01 175.23 120.426C174.91 120.822 174.664 121.275 174.494 121.785C174.324 122.276 174.239 122.776 174.239 123.286ZM186.417 129.658C186.417 128.563 186.691 127.591 187.238 126.741C187.786 125.892 188.465 125.155 189.277 124.532C190.089 123.89 190.967 123.352 191.911 122.918C192.855 122.465 193.733 122.097 194.545 121.813C195.357 121.511 196.036 121.275 196.584 121.105C197.132 120.917 197.405 120.766 197.405 120.652C197.405 119.992 197.368 119.35 197.292 118.727C197.235 118.085 197.169 117.443 197.094 116.801C197.018 116.159 196.943 115.526 196.867 114.903C196.811 114.261 196.782 113.629 196.782 113.006V111.165C197.556 110.882 198.104 110.91 198.425 111.25C198.765 111.59 198.821 112.175 198.595 113.006C198.67 113.421 198.774 114.073 198.906 114.96C199.038 115.847 199.18 116.848 199.331 117.962C199.501 119.076 199.671 120.246 199.841 121.474C200.03 122.701 200.2 123.881 200.351 125.014C200.521 126.128 200.662 127.128 200.775 128.016C200.889 128.884 200.974 129.535 201.03 129.97C201.049 130.064 201.068 130.253 201.087 130.536C201.106 130.8 201.115 131.093 201.115 131.414C201.134 131.716 201.144 131.999 201.144 132.264C201.162 132.528 201.172 132.717 201.172 132.83C200.454 132.83 199.964 132.802 199.699 132.745C199.454 132.688 199.293 132.575 199.218 132.405C199.161 132.235 199.133 131.99 199.133 131.669C199.133 131.348 199.038 130.904 198.85 130.338C198.151 130.885 197.49 131.339 196.867 131.697C196.244 132.056 195.621 132.349 194.998 132.575C194.375 132.783 193.743 132.924 193.101 133C192.478 133.094 191.807 133.142 191.09 133.142C190.486 133.142 189.9 133.094 189.334 133C188.786 132.887 188.296 132.698 187.861 132.434C187.427 132.169 187.078 131.811 186.813 131.357C186.549 130.904 186.417 130.338 186.417 129.658ZM188.881 129.063C188.881 129.366 188.947 129.611 189.079 129.8C189.211 129.989 189.381 130.149 189.589 130.281C189.797 130.413 190.014 130.508 190.24 130.564C190.486 130.602 190.722 130.621 190.948 130.621C191.609 130.621 192.317 130.498 193.072 130.253C193.846 129.989 194.554 129.63 195.196 129.177C195.857 128.705 196.395 128.148 196.811 127.506C197.245 126.864 197.462 126.165 197.462 125.41C197.462 124.825 197.358 124.419 197.15 124.192C196.943 123.966 196.546 123.853 195.961 123.853C195.357 123.853 194.649 123.994 193.837 124.277C193.044 124.561 192.27 124.938 191.515 125.41C190.778 125.882 190.155 126.439 189.646 127.081C189.136 127.704 188.881 128.365 188.881 129.063ZM202.22 117.82C202.22 117.348 202.324 116.933 202.531 116.574C202.739 116.197 202.956 115.819 203.183 115.441C203.428 115.045 203.655 114.639 203.862 114.224C204.07 113.808 204.174 113.346 204.174 112.836C204.174 112.402 204.146 112.024 204.089 111.703C204.051 111.382 203.966 111.071 203.834 110.769C203.721 110.466 203.532 110.164 203.268 109.862C203.022 109.541 202.692 109.164 202.276 108.729C202.39 108.39 202.56 108.191 202.786 108.135C203.032 108.078 203.268 108.05 203.494 108.05C203.928 108.05 204.325 108.22 204.684 108.56C205.061 108.899 205.392 109.315 205.675 109.806C205.958 110.278 206.175 110.778 206.326 111.307C206.496 111.835 206.581 112.288 206.581 112.666C206.581 113.1 206.496 113.676 206.326 114.394C206.175 115.111 205.949 115.819 205.646 116.518C205.344 117.197 204.957 117.792 204.485 118.302C204.032 118.793 203.504 119.038 202.899 119.038C202.729 119.038 202.597 118.991 202.503 118.896C202.427 118.802 202.361 118.689 202.305 118.557C202.267 118.424 202.248 118.292 202.248 118.16C202.229 118.009 202.22 117.896 202.22 117.82ZM208.28 117.311C208.28 116.857 208.346 116.433 208.479 116.036C208.63 115.621 208.781 115.224 208.932 114.847C209.083 114.45 209.224 114.044 209.356 113.629C209.489 113.214 209.555 112.789 209.555 112.354C209.555 111.845 209.451 111.392 209.243 110.995C209.035 110.58 208.799 110.174 208.535 109.777C208.271 109.381 208.025 108.975 207.799 108.56C207.591 108.144 207.487 107.672 207.487 107.144C208.243 107.144 208.894 107.295 209.441 107.597C210.008 107.899 210.48 108.305 210.857 108.814C211.254 109.305 211.547 109.881 211.735 110.542C211.943 111.184 212.047 111.864 212.047 112.581C212.047 113.034 212.009 113.591 211.934 114.252C211.858 114.913 211.716 115.555 211.509 116.178C211.32 116.782 211.037 117.311 210.659 117.764C210.3 118.217 209.828 118.443 209.243 118.443C208.903 118.443 208.658 118.321 208.507 118.075C208.356 117.811 208.28 117.556 208.28 117.311Z" fill="black"/>
</svg>
