<svg width="329" height="162" viewBox="0 0 329 162" fill="none" xmlns="http://www.w3.org/2000/svg">
<path d="M148.974 24.3125C148.975 23.5312 149.1 22.9219 149.35 22.4844C149.632 22.0469 150.21 21.8281 151.085 21.8281C151.179 21.8281 151.351 21.8437 151.601 21.875C151.882 21.875 152.054 21.875 152.116 21.875C152.335 22.8437 152.553 23.9062 152.771 25.0625C153.02 26.1875 153.3 27.3281 153.612 28.4844C153.924 29.6406 154.267 30.7812 154.641 31.9062C155.047 33.0312 155.53 34.0469 156.092 34.9531C156.655 34.3594 157.062 33.6562 157.312 32.8437C157.563 32.0312 157.751 31.2187 157.876 30.4062C158.002 29.5625 158.112 28.7656 158.206 28.0156C158.332 27.2344 158.566 26.5781 158.911 26.0469C159.255 25.4844 159.755 25.0781 160.411 24.8281C161.099 24.5781 162.037 24.5781 163.224 24.8281C164.536 24.8281 165.583 25.0781 166.364 25.5781C167.145 26.0469 167.816 26.6562 168.378 27.4062C168.972 28.125 169.534 28.9062 170.064 29.75C170.626 30.5625 171.329 31.2969 172.172 31.9531C172.36 31.5469 172.595 31.0469 172.876 30.4531C173.158 29.8281 173.502 29.1875 173.909 28.5312C174.347 27.8437 174.8 27.1719 175.27 26.5156C175.77 25.8281 176.286 25.2187 176.818 24.6875C177.349 24.125 177.897 23.6719 178.459 23.3281C179.022 22.9531 179.569 22.7656 180.1 22.7656C181.381 22.7656 182.491 23.1719 183.428 23.9844C184.365 24.7656 185.161 25.7656 185.816 26.9844C186.503 28.1719 187.065 29.5156 187.501 31.0156C187.938 32.4844 188.28 33.9062 188.529 35.2812C188.779 36.6562 188.95 37.9219 189.043 39.0781C189.167 40.2031 189.229 41.0156 189.229 41.5156C189.228 41.9219 189.134 42.2344 188.947 42.4531C188.759 42.6719 188.525 42.8437 188.243 42.9687C187.962 43.0625 187.649 43.125 187.306 43.1562C186.993 43.1875 186.696 43.2031 186.415 43.2031C186.352 43.2031 186.259 43.2031 186.134 43.2031C186.009 43.1719 185.868 43.1406 185.712 43.1094C185.587 43.0781 185.415 43.0312 185.196 42.9687L182.159 28.9531C182.159 28.8594 182.034 28.6875 181.784 28.4375C181.534 28.1562 181.347 27.9844 181.222 27.9219C181.128 27.9219 181.05 27.9062 180.987 27.875C180.925 27.875 180.878 27.875 180.847 27.875C180.816 27.8437 180.784 27.8281 180.753 27.8281C180.097 27.8281 179.472 28.0937 178.878 28.625C178.315 29.1562 177.783 29.8281 177.283 30.6406C176.782 31.4531 176.313 32.3594 175.875 33.3594C175.436 34.3594 175.045 35.3594 174.701 36.3594C174.356 37.3281 174.043 38.2344 173.761 39.0781C173.511 39.8906 173.307 40.5156 173.151 40.9531C173.026 41.0156 172.776 41.0781 172.401 41.1406C172.026 41.1719 171.776 41.1875 171.651 41.1875C170.776 41.1875 170.104 40.8906 169.636 40.2969C169.167 39.6719 168.777 38.9062 168.465 38C168.185 37.0937 167.935 36.1094 167.717 35.0469C167.53 33.9531 167.281 32.9531 166.969 32.0469C166.688 31.1406 166.283 30.3906 165.752 29.7969C165.252 29.1719 164.534 28.8594 163.596 28.8594C163.252 28.8594 162.924 29.2031 162.611 29.8906C162.298 30.5781 162.016 31.4531 161.766 32.5156C161.515 33.5469 161.28 34.6719 161.06 35.8906C160.841 37.0781 160.653 38.2031 160.496 39.2656C160.37 40.2969 160.276 41.1719 160.213 41.8906C160.15 42.6094 160.118 42.9687 160.118 42.9687C160.056 43.0625 159.931 43.1719 159.743 43.2969C159.555 43.3906 159.352 43.5 159.133 43.625C158.946 43.75 158.743 43.8437 158.524 43.9062C158.336 43.9687 158.196 44 158.102 44C157.227 44 156.383 43.6094 155.571 42.8281C154.759 42.0156 154.01 40.9844 153.323 39.7344C152.668 38.4531 152.06 37.0469 151.498 35.5156C150.968 33.9844 150.516 32.4844 150.142 31.0156C149.768 29.5469 149.472 28.2187 149.254 27.0312C149.067 25.8437 148.974 24.9375 148.974 24.3125ZM233.349 23.9375C233.35 23.4062 233.46 22.9219 233.679 22.4844C233.929 22.0469 234.351 21.8281 234.945 21.8281C234.976 21.8281 235.023 21.8437 235.085 21.875C235.148 21.875 235.21 21.875 235.273 21.875C235.335 21.875 235.398 21.875 235.46 21.875C235.554 21.9375 235.726 22.0937 235.976 22.3437C236.257 22.5937 236.428 22.7812 236.491 22.9062C236.584 23.0937 236.772 23.5 237.052 24.125C237.365 24.75 237.723 25.4844 238.129 26.3281C238.566 27.1406 239.003 28.0156 239.44 28.9531C239.908 29.8594 240.345 30.7344 240.751 31.5781C241.188 32.4219 241.547 33.1562 241.827 33.7812C242.139 34.375 242.358 34.7656 242.483 34.9531C242.514 35.0469 242.655 35.2344 242.904 35.5156C243.185 35.7656 243.388 35.9219 243.513 35.9844C243.764 35.5469 244.014 34.8906 244.265 34.0156C244.515 33.1406 244.766 32.1875 245.017 31.1562C245.299 30.0937 245.58 29.0156 245.862 27.9219C246.144 26.7969 246.458 25.7969 246.802 24.9219C247.178 24.0156 247.584 23.2812 248.022 22.7187C248.46 22.125 248.96 21.8281 249.523 21.8281C250.335 21.8281 251.101 22.1406 251.819 22.7656C252.569 23.3906 253.271 24.2031 253.927 25.2031C254.614 26.2031 255.253 27.3281 255.846 28.5781C256.471 29.7969 257.048 31.0156 257.578 32.2344C258.14 33.4219 258.655 34.5312 259.123 35.5625C259.622 36.5625 260.106 37.3594 260.575 37.9531C260.95 37.8281 261.262 37.5156 261.513 37.0156C261.763 36.5156 261.951 36 262.076 35.4687C262.233 34.9062 262.343 34.3906 262.405 33.9219C262.468 33.4219 262.515 33.0937 262.547 32.9375C262.578 32.5937 262.625 32.0625 262.688 31.3437C262.751 30.5937 262.814 29.75 262.877 28.8125C262.972 27.875 263.051 26.9062 263.114 25.9062C263.177 24.9062 263.24 23.9375 263.303 23C263.398 22.0625 263.461 21.2344 263.492 20.5156C263.555 19.7656 263.587 19.2344 263.587 18.9219C263.65 18.9219 263.806 18.9062 264.056 18.875C264.306 18.8125 264.478 18.7812 264.572 18.7812C265.009 18.7812 265.4 18.8281 265.743 18.9219C266.087 19.0156 266.352 19.3437 266.54 19.9062C266.539 20.125 266.539 20.5156 266.539 21.0781C266.57 21.6406 266.585 22.25 266.585 22.9062C266.615 23.5312 266.631 24.1406 266.63 24.7344C266.661 25.2969 266.676 25.6875 266.676 25.9062C266.676 26.4062 266.675 27.1875 266.675 28.25C266.705 29.2812 266.689 30.4375 266.626 31.7187C266.593 33 266.499 34.3125 266.342 35.6562C266.185 36.9687 265.934 38.1875 265.589 39.3125C265.276 40.4062 264.838 41.3125 264.275 42.0312C263.712 42.7187 263.009 43.0625 262.165 43.0625C261.196 43.0625 260.29 42.8281 259.447 42.3594C258.603 41.8906 257.807 41.2656 257.057 40.4844C256.339 39.7031 255.652 38.8437 254.997 37.9062C254.341 36.9375 253.732 35.9687 253.17 35C252.64 34 252.14 33.0625 251.672 32.1875C251.235 31.2812 250.845 30.5156 250.502 29.8906C250.251 30.4531 250.017 31.1562 249.797 32C249.609 32.8437 249.39 33.7656 249.139 34.7656C248.889 35.7344 248.607 36.7187 248.294 37.7187C247.98 38.6875 247.62 39.5781 247.214 40.3906C246.838 41.1719 246.385 41.8125 245.853 42.3125C245.353 42.8125 244.774 43.0625 244.118 43.0625C243.806 43.0625 243.524 43.0781 243.274 43.1094C243.024 43.1094 242.79 43.0937 242.571 43.0625C242.353 43 242.149 42.8906 241.962 42.7344C241.775 42.5781 241.603 42.3281 241.447 41.9844L233.443 24.875C233.443 24.8437 233.427 24.7187 233.396 24.5C233.365 24.25 233.349 24.0625 233.349 23.9375Z" fill="#FF7A00"/>
<path d="M275.997 36.875C276.341 36.875 276.622 36.9531 276.841 37.1094C277.091 37.2656 277.262 37.4687 277.356 37.7187C277.45 37.9375 277.512 38.2031 277.543 38.5156C277.574 38.7969 277.589 39.0781 277.589 39.3594C277.589 40.0156 277.51 40.7969 277.353 41.7031C277.228 42.5781 277.024 43.5 276.742 44.4687C276.46 45.4375 276.1 46.3906 275.662 47.3281C275.255 48.2969 274.77 49.1406 274.207 49.8594C273.644 50.6094 273.003 51.2031 272.284 51.6406C271.597 52.1094 270.831 52.3437 269.987 52.3437C269.987 51.6875 270.05 50.8437 270.176 49.8125C270.333 48.7812 270.537 47.6875 270.788 46.5312C271.07 45.375 271.399 44.2344 271.774 43.1094C272.15 41.9531 272.557 40.9219 272.995 40.0156C273.433 39.0781 273.902 38.3281 274.403 37.7656C274.903 37.1719 275.435 36.875 275.997 36.875ZM251.729 87.875C252.073 87.875 252.354 87.9531 252.573 88.1094C252.823 88.2656 252.994 88.4687 253.088 88.7187C253.182 88.9375 253.244 89.2031 253.275 89.5156C253.306 89.7969 253.322 90.0781 253.321 90.3594C253.321 91.0156 253.242 91.7969 253.085 92.7031C252.96 93.5781 252.756 94.5 252.474 95.4687C252.192 96.4375 251.832 97.3906 251.394 98.3281C250.987 99.2969 250.502 100.141 249.939 100.859C249.376 101.609 248.735 102.203 248.016 102.641C247.329 103.109 246.563 103.344 245.719 103.344C245.719 102.687 245.783 101.844 245.908 100.812C246.065 99.7812 246.269 98.6875 246.52 97.5312C246.802 96.375 247.131 95.2344 247.506 94.1094C247.882 92.9531 248.289 91.9219 248.727 91.0156C249.165 90.0781 249.635 89.3281 250.135 88.7656C250.635 88.1719 251.167 87.875 251.729 87.875Z" fill="black"/>
<path d="M148.941 75.3125C148.941 74.5312 149.067 73.9219 149.317 73.4844C149.598 73.0469 150.177 72.8281 151.052 72.8281C151.145 72.8281 151.317 72.8437 151.567 72.875C151.848 72.875 152.02 72.875 152.083 72.875C152.301 73.8437 152.519 74.9062 152.737 76.0625C152.986 77.1875 153.267 78.3281 153.578 79.4844C153.89 80.6406 154.233 81.7812 154.607 82.9062C155.013 84.0312 155.497 85.0469 156.059 85.9531C156.621 85.3594 157.028 84.6562 157.279 83.8437C157.529 83.0312 157.717 82.2187 157.843 81.4062C157.968 80.5625 158.078 79.7656 158.173 79.0156C158.298 78.2344 158.533 77.5781 158.877 77.0469C159.221 76.4844 159.721 76.0781 160.378 75.8281C161.065 75.5781 162.003 75.5781 163.19 75.8281C164.503 75.8281 165.549 76.0781 166.33 76.5781C167.111 77.0469 167.783 77.6562 168.345 78.4062C168.938 79.125 169.5 79.9062 170.031 80.75C170.593 81.5625 171.295 82.2969 172.139 82.9531C172.326 82.5469 172.561 82.0469 172.843 81.4531C173.124 80.8281 173.469 80.1875 173.875 79.5312C174.313 78.8437 174.767 78.1719 175.236 77.5156C175.736 76.8281 176.253 76.2187 176.784 75.6875C177.316 75.125 177.863 74.6719 178.426 74.3281C178.988 73.9531 179.535 73.7656 180.067 73.7656C181.348 73.7656 182.457 74.1719 183.394 74.9844C184.331 75.7656 185.127 76.7656 185.783 77.9844C186.469 79.1719 187.031 80.5156 187.467 82.0156C187.904 83.4844 188.247 84.9062 188.496 86.2812C188.745 87.6562 188.916 88.9219 189.009 90.0781C189.133 91.2031 189.195 92.0156 189.195 92.5156C189.195 92.9219 189.101 93.2344 188.913 93.4531C188.725 93.6719 188.491 93.8437 188.21 93.9687C187.928 94.0625 187.616 94.125 187.272 94.1562C186.959 94.1875 186.663 94.2031 186.381 94.2031C186.319 94.2031 186.225 94.2031 186.1 94.2031C185.975 94.1719 185.834 94.1406 185.678 94.1094C185.553 94.0781 185.381 94.0312 185.163 93.9687L182.125 79.9531C182.125 79.8594 182 79.6875 181.75 79.4375C181.501 79.1562 181.313 78.9844 181.188 78.9219C181.094 78.9219 181.016 78.9062 180.954 78.875C180.891 78.875 180.845 78.875 180.813 78.875C180.782 78.8437 180.751 78.8281 180.72 78.8281C180.063 78.8281 179.438 79.0937 178.844 79.625C178.281 80.1562 177.749 80.8281 177.249 81.6406C176.748 82.4531 176.279 83.3594 175.841 84.3594C175.403 85.3594 175.011 86.3594 174.667 87.3594C174.323 88.3281 174.01 89.2344 173.728 90.0781C173.477 90.8906 173.274 91.5156 173.117 91.9531C172.992 92.0156 172.742 92.0781 172.367 92.1406C171.992 92.1719 171.742 92.1875 171.617 92.1875C170.742 92.1875 170.07 91.8906 169.602 91.2969C169.134 90.6719 168.743 89.9062 168.432 89C168.151 88.0937 167.902 87.1094 167.684 86.0469C167.497 84.9531 167.247 83.9531 166.936 83.0469C166.655 82.1406 166.249 81.3906 165.718 80.7969C165.219 80.1719 164.5 79.8594 163.563 79.8594C163.219 79.8594 162.891 80.2031 162.578 80.8906C162.265 81.5781 161.983 82.4531 161.732 83.5156C161.481 84.5469 161.246 85.6719 161.027 86.8906C160.807 88.0781 160.619 89.2031 160.462 90.2656C160.336 91.2969 160.242 92.1719 160.179 92.8906C160.116 93.6094 160.085 93.9687 160.085 93.9687C160.022 94.0625 159.897 94.1719 159.709 94.2969C159.522 94.3906 159.319 94.5 159.1 94.625C158.912 94.75 158.709 94.8437 158.49 94.9062C158.303 94.9687 158.162 95 158.068 95C157.193 95 156.35 94.6094 155.538 93.8281C154.726 93.0156 153.977 91.9844 153.29 90.7344C152.634 89.4531 152.026 88.0469 151.464 86.5156C150.934 84.9844 150.482 83.4844 150.108 82.0156C149.734 80.5469 149.438 79.2187 149.22 78.0312C149.033 76.8437 148.94 75.9375 148.941 75.3125ZM235.476 68.4687C235.477 67.5625 235.415 66.6875 235.291 65.8437C235.166 64.9687 235.135 64.2031 235.198 63.5469C235.261 62.8594 235.496 62.3125 235.903 61.9062C236.34 61.5 237.122 61.2969 238.247 61.2969C238.59 62.0156 238.917 63.1094 239.229 64.5781C239.572 66.0469 239.899 67.7344 240.21 69.6406C240.521 71.5469 240.817 73.625 241.096 75.875C241.376 78.0937 241.625 80.3281 241.842 82.5781C242.091 84.8281 242.292 87.0469 242.447 89.2344C242.633 91.3906 242.772 93.3594 242.865 95.1406C241.833 95.8281 241.005 95.875 240.381 95.2812C239.756 94.6875 239.241 93.6875 238.836 92.2812C238.43 90.8437 238.119 89.1094 237.902 87.0781C237.684 85.0156 237.467 82.8906 237.25 80.7031C237.064 78.4844 236.831 76.3125 236.551 74.1875C236.271 72.0312 235.913 70.125 235.476 68.4687Z" fill="#0BAFF9"/>
<path d="M149.937 128.703C149.939 125.672 150.643 123.422 152.051 121.953C153.458 120.484 155.614 119.75 158.521 119.75C159.708 119.75 160.927 119.859 162.177 120.078C163.458 120.297 164.629 120.687 165.692 121.25C166.754 121.781 167.613 122.531 168.268 123.5C168.955 124.469 169.298 125.719 169.297 127.25C169.296 128.937 168.92 130.531 168.169 132.031C167.449 133.5 166.526 134.891 165.4 136.203C164.306 137.484 163.086 138.687 161.742 139.812C160.429 140.906 159.194 141.953 158.037 142.953C157.974 143.078 157.911 143.344 157.849 143.75C157.817 144.125 157.801 144.375 157.801 144.5C157.801 145.531 158.097 146.562 158.69 147.594C159.314 148.656 159.985 149.719 160.703 150.781C161.421 151.875 162.077 153 162.67 154.156C163.263 155.312 163.559 156.516 163.558 157.766C163.558 158.516 163.401 158.953 163.089 159.078C162.776 159.234 162.12 159.312 161.12 159.312C160.495 159.062 159.87 158.469 159.246 157.531C158.653 156.625 158.044 155.5 157.42 154.156C156.827 152.812 156.234 151.297 155.642 149.609C155.08 147.953 154.534 146.266 154.004 144.547C153.506 142.797 153.022 141.078 152.555 139.391C152.118 137.672 151.729 136.094 151.386 134.656C151.043 133.219 150.731 131.984 150.451 130.953C150.202 129.891 150.03 129.141 149.937 128.703ZM153.921 129.125C153.92 129.594 153.951 130.281 154.013 131.187C154.075 132.062 154.2 132.937 154.386 133.812C154.605 134.687 154.917 135.453 155.322 136.109C155.728 136.734 156.291 137.047 157.009 137.047C157.978 137.047 158.947 136.719 159.916 136.062C160.917 135.406 161.792 134.578 162.543 133.578C163.325 132.578 163.95 131.516 164.42 130.391C164.921 129.234 165.171 128.187 165.172 127.25C165.173 126.469 164.985 125.859 164.611 125.422C164.236 124.953 163.752 124.594 163.158 124.344C162.596 124.062 161.987 123.891 161.331 123.828C160.674 123.734 160.049 123.687 159.456 123.687C157.674 123.687 156.299 124.172 155.33 125.141C154.392 126.078 153.922 127.406 153.921 129.125ZM214.251 126.312C214.251 125.531 214.377 124.922 214.627 124.484C214.908 124.047 215.487 123.828 216.362 123.828C216.456 123.828 216.627 123.844 216.877 123.875C217.159 123.875 217.33 123.875 217.393 123.875C217.611 124.844 217.829 125.906 218.047 127.062C218.296 128.187 218.577 129.328 218.889 130.484C219.2 131.641 219.543 132.781 219.918 133.906C220.323 135.031 220.807 136.047 221.369 136.953C221.932 136.359 222.338 135.656 222.589 134.844C222.839 134.031 223.027 133.219 223.153 132.406C223.279 131.562 223.388 130.766 223.483 130.016C223.608 129.234 223.843 128.578 224.187 128.047C224.531 127.484 225.032 127.078 225.688 126.828C226.376 126.578 227.313 126.578 228.5 126.828C229.813 126.828 230.86 127.078 231.641 127.578C232.421 128.047 233.093 128.656 233.655 129.406C234.248 130.125 234.81 130.906 235.341 131.75C235.903 132.562 236.606 133.297 237.449 133.953C237.637 133.547 237.871 133.047 238.153 132.453C238.435 131.828 238.779 131.187 239.185 130.531C239.623 129.844 240.077 129.172 240.546 128.516C241.047 127.828 241.563 127.219 242.094 126.687C242.626 126.125 243.173 125.672 243.736 125.328C244.299 124.953 244.846 124.766 245.377 124.766C246.658 124.766 247.767 125.172 248.704 125.984C249.641 126.766 250.437 127.766 251.093 128.984C251.779 130.172 252.341 131.516 252.778 133.016C253.214 134.484 253.557 135.906 253.806 137.281C254.055 138.656 254.226 139.922 254.319 141.078C254.443 142.203 254.505 143.016 254.505 143.516C254.505 143.922 254.411 144.234 254.223 144.453C254.036 144.672 253.801 144.844 253.52 144.969C253.238 145.062 252.926 145.125 252.582 145.156C252.27 145.187 251.973 145.203 251.691 145.203C251.629 145.203 251.535 145.203 251.41 145.203C251.285 145.172 251.145 145.141 250.988 145.109C250.863 145.078 250.692 145.031 250.473 144.969L247.435 130.953C247.435 130.859 247.31 130.687 247.061 130.437C246.811 130.156 246.623 129.984 246.498 129.922C246.405 129.922 246.327 129.906 246.264 129.875C246.202 129.875 246.155 129.875 246.123 129.875C246.092 129.844 246.061 129.828 246.03 129.828C245.373 129.828 244.748 130.094 244.154 130.625C243.591 131.156 243.06 131.828 242.559 132.641C242.059 133.453 241.589 134.359 241.151 135.359C240.713 136.359 240.322 137.359 239.977 138.359C239.633 139.328 239.32 140.234 239.038 141.078C238.787 141.891 238.584 142.516 238.427 142.953C238.302 143.016 238.052 143.078 237.677 143.141C237.302 143.172 237.052 143.187 236.927 143.187C236.052 143.187 235.38 142.891 234.912 142.297C234.444 141.672 234.054 140.906 233.742 140C233.461 139.094 233.212 138.109 232.994 137.047C232.807 135.953 232.558 134.953 232.246 134.047C231.965 133.141 231.559 132.391 231.028 131.797C230.529 131.172 229.81 130.859 228.873 130.859C228.529 130.859 228.201 131.203 227.888 131.891C227.575 132.578 227.293 133.453 227.042 134.516C226.792 135.547 226.556 136.672 226.337 137.891C226.117 139.078 225.929 140.203 225.772 141.266C225.646 142.297 225.552 143.172 225.489 143.891C225.426 144.609 225.395 144.969 225.395 144.969C225.332 145.062 225.207 145.172 225.019 145.297C224.832 145.391 224.629 145.5 224.41 145.625C224.222 145.75 224.019 145.844 223.8 145.906C223.613 145.969 223.472 146 223.378 146C222.503 146 221.66 145.609 220.848 144.828C220.036 144.016 219.287 142.984 218.6 141.734C217.945 140.453 217.336 139.047 216.775 137.516C216.244 135.984 215.792 134.484 215.418 133.016C215.044 131.547 214.748 130.219 214.53 129.031C214.343 127.844 214.25 126.937 214.251 126.312Z" fill="#EB5E2E"/>
<path d="M196.977 30.3496L199.486 30.7993C205.773 31.9259 212.2 32.0414 218.523 31.1416L224.088 30.3496" stroke="#FF7A00" stroke-width="5" stroke-linecap="round"/>
<path d="M215.563 22.0003L216.759 22.852C219.223 24.6066 221.39 26.7233 223.183 29.126L223.935 30.1338" stroke="#FF7A00" stroke-width="5" stroke-linecap="round"/>
<path d="M215.977 39.1338L216.821 38.6049C219.561 36.8874 221.9 34.6308 223.688 31.9808L224.349 31.0003" stroke="#FF7A00" stroke-width="5" stroke-linecap="round"/>
<path d="M177.977 130.986L180.486 131.436C186.773 132.563 193.2 132.678 199.523 131.778L205.088 130.986" stroke="#EB5E2E" stroke-width="5" stroke-linecap="round"/>
<path d="M196.563 122.637L197.759 123.489C200.223 125.243 202.39 127.36 204.183 129.763L204.935 130.77" stroke="#EB5E2E" stroke-width="5" stroke-linecap="round"/>
<path d="M196.977 139.771L197.821 139.242C200.561 137.524 202.9 135.268 204.688 132.618L205.349 131.637" stroke="#EB5E2E" stroke-width="5" stroke-linecap="round"/>
<path d="M196.977 80.9863L199.486 81.436C205.773 82.5626 212.2 82.6782 218.523 81.7783L224.088 80.9863" stroke="#0BAFF9" stroke-width="5" stroke-linecap="round"/>
<path d="M215.563 72.637L216.759 73.4888C219.223 75.2434 221.39 77.3601 223.183 79.7627L223.935 80.7705" stroke="#0BAFF9" stroke-width="5" stroke-linecap="round"/>
<path d="M215.977 89.7705L216.821 89.2416C219.561 87.5241 221.9 85.2675 223.688 82.6175L224.349 81.637" stroke="#0BAFF9" stroke-width="5" stroke-linecap="round"/>
<path d="M16.3112 107.477C15.4982 108.187 14.6351 107.857 13.722 106.486C12.8596 105.115 11.9723 103.059 11.06 100.316C10.1478 97.5234 9.23592 94.1973 8.3244 90.3379C7.46366 86.4785 6.62847 82.3906 5.81881 78.0742C5.00915 73.7578 4.22492 69.3906 3.46611 64.9727C2.75812 60.5039 2.12612 56.3144 1.5701 52.4043C1.57057 51.6934 1.54565 50.9824 1.49533 50.2715C1.49583 49.5098 1.57246 48.8242 1.7252 48.2148C1.92876 47.5547 2.25923 46.9707 2.71659 46.4629C3.22474 45.9551 3.98671 45.5742 5.0025 45.3203C5.1041 45.2695 5.30719 45.3203 5.61178 45.4727C5.96718 45.5742 6.32255 45.7266 6.67788 45.9297C7.03325 46.082 7.33782 46.2598 7.59159 46.4629C7.89615 46.666 8.09915 46.8437 8.20062 46.9961C7.5342 56.4922 8.61991 65.7344 11.4577 74.7226C11.6102 74.5703 12.0168 74.0625 12.6775 73.1992C13.3382 72.2852 14.1768 71.2441 15.1932 70.0762C16.2096 68.8574 17.3531 67.5625 18.6235 66.1914C19.9447 64.8203 21.3167 63.5508 22.7393 62.3828C24.1619 61.2148 25.5845 60.25 27.0068 59.4883C28.4292 58.6758 29.8006 58.2695 31.1209 58.2695C31.8826 58.2695 32.6189 58.4473 33.3296 58.8027C34.091 59.1582 34.4714 59.8437 34.4708 60.8594C34.4707 60.9609 34.4452 61.1133 34.3943 61.3164C34.3434 61.4687 34.3179 61.5957 34.3179 61.6973C33.5049 62.4082 32.2601 63.5 30.5833 64.9727C28.9573 66.4453 27.2297 68.0957 25.4004 69.9238C23.571 71.7519 21.8178 73.6562 20.1407 75.6367C18.4636 77.6172 17.1929 79.4961 16.3284 81.2734C16.1759 81.5781 16.1249 81.8574 16.1755 82.1113C16.2262 82.3144 16.2768 82.5684 16.3274 82.873C16.8858 83.0762 17.7743 83.3809 18.9928 83.7871C20.2113 84.1934 21.5566 84.6758 23.0289 85.2344C24.5013 85.7422 26.0751 86.3008 27.7505 86.9101C29.4259 87.4687 30.9998 88.0273 32.472 88.5859C33.9443 89.1445 35.2643 89.6523 36.432 90.1094C37.6505 90.5156 38.5643 90.8203 39.1736 91.0234C39.8843 91.3281 40.4681 91.5312 40.9251 91.6328C41.3821 91.7344 41.7374 91.8867 41.9912 92.0898C42.245 92.2422 42.4226 92.4707 42.524 92.7754C42.6253 93.0801 42.6758 93.5371 42.6754 94.1465C42.6744 95.6191 42.3183 96.584 41.6071 97.041C40.8959 97.498 39.8801 97.7266 38.5598 97.7266C34.6498 97.4726 30.8163 96.6601 27.0594 95.2891C23.3025 93.8672 19.4951 92.166 15.637 90.1855C15.484 91.1504 15.5341 92.2676 15.7871 93.5371C16.091 94.8066 16.4456 96.0762 16.851 97.3457C17.2564 98.6152 17.6365 99.8594 17.9912 101.078C18.3966 102.297 18.6244 103.389 18.6745 104.354C18.7755 105.318 18.6734 106.08 18.3683 106.639C18.0633 107.197 17.3776 107.477 16.3112 107.477ZM78.4085 81.1973C79.8813 81.0957 80.8205 81.375 81.2264 82.0351C81.6322 82.6953 81.8348 83.4824 81.8342 84.3965C81.8334 85.5644 81.4773 86.4785 80.766 87.1387C80.1054 87.7988 79.2418 88.2812 78.1752 88.5859C77.1593 88.8906 76.0674 89.0937 74.8994 89.1953C73.7821 89.2969 72.7664 89.373 71.8523 89.4238C71.2429 89.4746 70.2781 89.5 68.9578 89.5C67.6882 89.5 66.2155 89.5508 64.5397 89.6523C62.9147 89.7031 61.1881 89.7539 59.3599 89.8047C57.5825 89.8555 55.8559 89.9062 54.1801 89.957C52.5551 90.0078 51.0824 90.0586 49.7621 90.1094C48.4925 90.1094 47.5531 90.1094 46.9437 90.1094C46.9451 87.9766 47.6571 86.3008 49.0798 85.082C50.5025 83.8633 52.2805 82.9238 54.4137 82.2637C56.5977 81.6035 58.9847 81.1973 61.5747 81.0449C64.1646 80.8926 66.6275 80.8418 68.9634 80.8926C71.2994 80.8926 73.3306 80.9687 75.057 81.1211C76.7835 81.2226 77.9007 81.248 78.4085 81.1973ZM47.7203 67.5625C51.9352 67.3594 55.9471 67.1562 59.7558 66.9531C61.4316 66.9023 63.1329 66.8262 64.8595 66.7246C66.5861 66.623 68.2874 66.5215 69.9632 66.4199C71.6898 66.3184 73.2895 66.2422 74.7622 66.1914C76.2349 66.1406 77.5552 66.0644 78.7233 65.9629H79.7135C80.7291 65.9629 81.3891 66.3184 81.6933 67.0293C81.9975 67.7402 82.1494 68.4512 82.1489 69.1621C82.1481 70.3809 81.9189 71.3457 81.4614 72.0566C81.0547 72.7676 80.1402 73.4531 78.7179 74.1133C78.3117 74.1133 77.6007 74.1387 76.585 74.1894C75.6202 74.1894 74.5792 74.1894 73.462 74.1894C72.3448 74.1894 71.2784 74.2148 70.2627 74.2656C69.2471 74.2656 68.5362 74.2656 68.1299 74.2656C66.8096 74.2656 65.0576 74.3164 62.874 74.418C60.6903 74.5195 58.4813 74.4687 56.2471 74.2656C54.0129 74.0625 51.9311 73.6055 50.0019 72.8945C48.1235 72.1328 46.8294 70.8887 46.1196 69.1621L47.7203 67.5625ZM95.9992 88.8144C95.9998 87.9004 96.2543 86.9863 96.7628 86.0723C97.2712 85.1582 97.8811 84.2949 98.5926 83.4824C99.3041 82.6191 100.041 81.7812 100.803 80.9687C101.565 80.1562 102.201 79.3184 102.709 78.4551C101.339 76.6777 99.9439 74.9004 98.5232 73.123C97.1026 71.2949 95.8343 69.4414 94.7183 67.5625C93.6024 65.6836 92.6896 63.7285 91.98 61.6973C91.2704 59.6152 90.9164 57.4062 90.918 55.0703C90.9191 53.293 91.3011 51.541 92.064 49.8145C92.8776 48.0879 93.9196 46.5645 95.1901 45.2441C96.5112 43.9238 98.0354 42.8574 99.7625 42.0449C101.49 41.2324 103.293 40.8262 105.171 40.8262C105.781 40.8262 106.441 40.9023 107.152 41.0547C107.913 41.1562 108.624 41.334 109.284 41.5879C109.995 41.8418 110.63 42.1719 111.188 42.5781C111.746 42.9844 112.178 43.4922 112.482 44.1016C111.263 44.8125 109.815 45.4473 108.139 46.0059C106.513 46.5645 104.913 47.2246 103.339 47.9863C101.764 48.6973 100.418 49.6367 99.2997 50.8047C98.1817 51.9219 97.6221 53.4453 97.6209 55.375C97.6198 56.9492 97.8982 58.3965 98.4559 59.7168C99.0644 61.0371 99.7999 62.3066 100.662 63.5254C101.525 64.6934 102.464 65.8359 103.478 66.9531C104.544 68.0703 105.508 69.2383 106.371 70.457C107.233 71.625 107.943 72.8691 108.501 74.1894C109.059 75.5098 109.337 76.957 109.336 78.5312C109.335 79.5469 109.157 80.4863 108.801 81.3496C108.445 82.2129 108.064 83.0508 107.657 83.8633C107.25 84.625 106.843 85.4121 106.436 86.2246C106.08 87.0371 105.902 87.9004 105.902 88.8144C105.901 89.0176 105.85 89.8301 105.748 91.2519C105.645 92.6738 105.568 94.4004 105.516 96.4316C105.514 98.4629 105.564 100.646 105.664 102.982C105.764 105.268 106.042 107.375 106.497 109.305C106.953 111.285 107.612 112.936 108.475 114.256C109.388 115.576 110.606 116.236 112.13 116.236C113.145 116.236 114.034 116.033 114.796 115.627C115.609 115.221 116.345 114.789 117.006 114.332C117.717 113.875 118.403 113.443 119.063 113.037C119.775 112.682 120.587 112.504 121.501 112.504C122.415 112.504 123.05 112.859 123.405 113.57C123.811 114.332 124.013 115.17 124.013 116.084C124.012 117.557 123.554 118.801 122.639 119.816C121.775 120.883 120.683 121.746 119.362 122.406C118.041 123.066 116.644 123.523 115.172 123.777C113.699 124.082 112.378 124.234 111.21 124.234C108.925 124.234 106.97 123.574 105.346 122.254C103.773 120.934 102.403 119.207 101.236 117.074C100.121 114.941 99.2082 112.555 98.499 109.914C97.8406 107.273 97.3091 104.658 96.9046 102.068C96.5508 99.4277 96.2986 96.9394 96.1478 94.6035C96.0477 92.2676 95.9982 90.3379 95.9992 88.8144ZM299.434 119.055C299.435 117.734 299.664 116.77 300.122 116.16C300.579 115.602 301.189 115.195 301.951 114.941C302.713 114.687 303.5 114.51 304.312 114.408C305.176 114.307 305.988 114.104 306.75 113.799C307.512 113.494 308.122 112.986 308.579 112.275C309.088 111.564 309.342 110.447 309.343 108.924C309.344 107.857 309.066 106.791 308.508 105.725C308.001 104.607 307.443 103.465 306.834 102.297C306.225 101.129 305.642 99.9355 305.085 98.7168C304.577 97.498 304.324 96.2285 304.325 94.9082C304.325 94.8066 304.325 94.6797 304.326 94.5273C304.326 94.375 304.351 94.2226 304.402 94.0703C304.402 93.8672 304.428 93.6641 304.479 93.4609C304.58 93.2578 304.885 92.7754 305.394 92.0137C305.953 91.2012 306.512 90.3379 307.071 89.4238C307.63 88.5098 308.139 87.6465 308.596 86.834C309.105 86.0215 309.359 85.5137 309.359 85.3105C309.36 84.2441 309.005 83.1523 308.295 82.0351C307.635 80.8672 306.874 79.6738 306.012 78.4551C305.2 77.1855 304.439 75.8906 303.729 74.5703C303.07 73.1992 302.741 71.7773 302.742 70.3047C302.743 68.7812 302.998 67.3848 303.506 66.1152C304.066 64.8457 304.676 63.6269 305.337 62.459C305.998 61.291 306.583 60.123 307.091 58.9551C307.651 57.7363 307.931 56.4668 307.932 55.1465C307.932 53.8262 307.451 52.8359 306.486 52.1758C305.573 51.4648 304.507 50.957 303.288 50.6523C302.07 50.3477 300.825 50.1699 299.556 50.1191C298.337 50.0684 297.423 50.043 296.814 50.043C296.815 48.9258 296.993 47.9863 297.349 47.2246C297.756 46.4629 298.289 45.8789 298.95 45.4727C299.61 45.0156 300.347 44.7109 301.159 44.5586C302.023 44.3555 302.937 44.2539 303.902 44.2539C305.07 44.2539 306.339 44.4824 307.71 44.9395C309.131 45.3965 310.451 46.0312 311.669 46.8437C312.938 47.6055 313.979 48.5703 314.791 49.7383C315.653 50.8555 316.084 52.0996 316.083 53.4707C316.083 53.5215 316.058 53.5977 316.007 53.6992C316.007 53.75 316.007 53.8008 316.007 53.8516C315.956 54.0039 315.93 54.1309 315.93 54.2324C315.879 54.4863 315.676 54.9941 315.32 55.7559C314.964 56.5176 314.557 57.4062 314.099 58.4219C313.642 59.4375 313.158 60.5293 312.65 61.6973C312.141 62.8144 311.658 63.8809 311.201 64.8965C310.743 65.8613 310.336 66.7246 309.98 67.4863C309.675 68.248 309.471 68.7305 309.37 68.9336L309.369 69.7715C309.368 71.2949 309.647 72.5644 310.205 73.5801C310.813 74.5957 311.549 75.459 312.412 76.1699C313.275 76.8809 314.188 77.5156 315.153 78.0742C316.117 78.6328 317.031 79.1914 317.894 79.75C318.808 80.3086 319.543 80.9434 320.102 81.6543C320.66 82.3144 320.939 83.1523 320.938 84.168C320.937 85.2344 320.733 86.1484 320.327 86.9101C319.92 87.6211 319.386 88.2559 318.726 88.8144C318.116 89.3223 317.43 89.8301 316.668 90.3379C315.957 90.8457 315.271 91.4043 314.61 92.0137C314.001 92.5723 313.492 93.2324 313.086 93.9941C312.679 94.7051 312.475 95.6191 312.474 96.7363C312.474 97.9043 312.651 98.9961 313.006 100.012C313.411 100.977 313.817 101.967 314.222 102.982C314.679 103.947 315.084 104.937 315.439 105.953C315.845 106.969 316.047 108.111 316.046 109.381C316.045 110.904 315.866 112.453 315.51 114.027C315.204 115.652 314.645 117.1 313.831 118.369C313.018 119.689 311.976 120.756 310.706 121.568C309.487 122.432 307.963 122.863 306.135 122.863C305.323 122.863 304.51 122.838 303.698 122.787C302.936 122.736 302.225 122.584 301.565 122.33C300.956 122.127 300.448 121.771 300.042 121.264C299.636 120.756 299.434 120.02 299.434 119.055Z" fill="black"/>
</svg>
