<svg width="356" height="208" viewBox="0 0 356 208" fill="none" xmlns="http://www.w3.org/2000/svg">
<path d="M10.1398 43.0625C9.63955 43.5 9.10843 43.2969 8.54649 42.4531C8.0158 41.6094 7.46976 40.3437 6.90837 38.6562C6.347 36.9375 5.78585 34.8906 5.22491 32.5156C4.69523 30.1406 4.18126 27.625 3.68301 24.9687C3.18476 22.3125 2.70216 19.625 2.2352 16.9062C1.79951 14.1562 1.41058 11.5781 1.06842 9.17187C1.06871 8.73437 1.05337 8.29687 1.02241 7.85937C1.02272 7.39062 1.06987 6.96875 1.16387 6.59375C1.28914 6.1875 1.4925 5.82812 1.77395 5.51562C2.08666 5.20312 2.55556 4.96875 3.18067 4.8125C3.24319 4.78125 3.36817 4.8125 3.55561 4.90625C3.77431 4.96875 3.993 5.0625 4.21167 5.1875C4.43036 5.28125 4.61779 5.39062 4.77395 5.51562C4.96137 5.64062 5.0863 5.75 5.14874 5.84375C4.73864 11.6875 5.40676 17.375 7.15312 22.9062C7.24693 22.8125 7.49714 22.5 7.90374 21.9687C8.31036 21.4062 8.82641 20.7656 9.45188 20.0469C10.0774 19.2969 10.781 18.5 11.5628 17.6562C12.3759 16.8125 13.2201 16.0312 14.0956 15.3125C14.9711 14.5937 15.8465 14 16.7218 13.5312C17.5971 13.0312 18.441 12.7812 19.2535 12.7812C19.7223 12.7812 20.1753 12.8906 20.6127 13.1094C21.0813 13.3281 21.3154 13.75 21.315 14.375C21.315 14.4375 21.2993 14.5312 21.2679 14.6562C21.2366 14.75 21.2209 14.8281 21.2209 14.8906C20.7206 15.3281 19.9545 16 18.9227 16.9062C17.9221 17.8125 16.8589 18.8281 15.7332 19.9531C14.6074 21.0781 13.5286 22.25 12.4965 23.4687C11.4644 24.6875 10.6824 25.8437 10.1505 26.9375C10.0566 27.125 10.0252 27.2969 10.0564 27.4531C10.0875 27.5781 10.1187 27.7344 10.1498 27.9219C10.4935 28.0469 11.0402 28.2344 11.7901 28.4844C12.5399 28.7344 13.3678 29.0312 14.2739 29.375C15.1799 29.6875 16.1484 30.0312 17.1794 30.4062C18.2105 30.75 19.179 31.0937 20.085 31.4375C20.991 31.7812 21.8033 32.0937 22.5219 32.375C23.2717 32.625 23.8341 32.8125 24.209 32.9375C24.6464 33.125 25.0057 33.25 25.2869 33.3125C25.5681 33.375 25.7868 33.4687 25.943 33.5937C26.0991 33.6875 26.2084 33.8281 26.2708 34.0156C26.3332 34.2031 26.3642 34.4844 26.364 34.8594C26.3634 35.7656 26.1443 36.3594 25.7066 36.6406C25.2689 36.9219 24.6438 37.0625 23.8313 37.0625C21.4251 36.9062 19.0661 36.4062 16.7542 35.5625C14.4422 34.6875 12.0992 33.6406 9.72498 32.4219C9.63083 33.0156 9.66163 33.7031 9.81737 34.4844C10.0044 35.2656 10.2226 36.0469 10.4721 36.8281C10.7216 37.6094 10.9554 38.375 11.1737 39.125C11.4232 39.875 11.5634 40.5469 11.5942 41.1406C11.6563 41.7344 11.5935 42.2031 11.4058 42.5469C11.2181 42.8906 10.7961 43.0625 10.1398 43.0625ZM48.3536 26.8906C49.2599 26.8281 49.8379 27 50.0877 27.4062C50.3374 27.8125 50.4621 28.2969 50.4617 28.8594C50.4612 29.5781 50.2421 30.1406 49.8043 30.5469C49.3978 30.9531 48.8664 31.25 48.21 31.4375C47.5849 31.625 46.9129 31.75 46.1941 31.8125C45.5066 31.875 44.8816 31.9219 44.319 31.9531C43.944 31.9844 43.3503 32 42.5378 32C41.7565 32 40.8502 32.0312 39.8189 32.0937C38.8189 32.125 37.7564 32.1562 36.6314 32.1875C35.5376 32.2187 34.4751 32.25 33.4438 32.2812C32.4438 32.3125 31.5375 32.3437 30.725 32.375C29.9438 32.375 29.3656 32.375 28.9906 32.375C28.9915 31.0625 29.4297 30.0312 30.3052 29.2812C31.1807 28.5312 32.2748 27.9531 33.5876 27.5469C34.9316 27.1406 36.4005 26.8906 37.9943 26.7969C39.5881 26.7031 41.1038 26.6719 42.5412 26.7031C43.9787 26.7031 45.2287 26.75 46.2912 26.8437C47.3536 26.9062 48.0411 26.9219 48.3536 26.8906ZM29.4685 18.5C32.0624 18.375 34.5312 18.25 36.875 18.125C37.9063 18.0937 38.9532 18.0469 40.0157 17.9844C41.0783 17.9219 42.1252 17.8594 43.1565 17.7969C44.219 17.7344 45.2034 17.6875 46.1097 17.6562C47.016 17.625 47.8285 17.5781 48.5473 17.5156H49.1567C49.7817 17.5156 50.1878 17.7344 50.375 18.1719C50.5622 18.6094 50.6557 19.0469 50.6554 19.4844C50.6549 20.2344 50.5139 20.8281 50.2323 21.2656C49.982 21.7031 49.4193 22.125 48.544 22.5312C48.294 22.5312 47.8565 22.5469 47.2315 22.5781C46.6377 22.5781 45.9971 22.5781 45.3096 22.5781C44.6221 22.5781 43.9658 22.5937 43.3408 22.625C42.7158 22.625 42.2783 22.625 42.0283 22.625C41.2158 22.625 40.1377 22.6562 38.7939 22.7187C37.4501 22.7812 36.0907 22.75 34.7158 22.625C33.3409 22.5 32.0598 22.2187 30.8726 21.7812C29.7167 21.3125 28.9203 20.5469 28.4835 19.4844L29.4685 18.5ZM59.1787 31.5781C59.179 31.0156 59.3356 30.4531 59.6485 29.8906C59.9614 29.3281 60.3367 28.7969 60.7746 28.2969C61.2124 27.7656 61.6659 27.25 62.135 26.75C62.604 26.25 62.995 25.7344 63.3079 25.2031C62.4648 24.1094 61.6062 23.0156 60.7319 21.9219C59.8576 20.7969 59.0771 19.6562 58.3904 18.5C57.7037 17.3437 57.142 16.1406 56.7053 14.8906C56.2686 13.6094 56.0508 12.25 56.0517 10.8125C56.0524 9.71875 56.2875 8.64062 56.757 7.57812C57.2577 6.51562 57.8989 5.57812 58.6807 4.76562C59.4937 3.95312 60.4317 3.29687 61.4945 2.79687C62.5573 2.29687 63.6669 2.04687 64.8231 2.04687C65.1981 2.04687 65.6043 2.09375 66.0418 2.1875C66.5105 2.25 66.9479 2.35937 67.3541 2.51562C67.7915 2.67187 68.1819 2.875 68.5255 3.125C68.8691 3.375 69.1345 3.6875 69.3218 4.0625C68.5715 4.5 67.6806 4.89062 66.6491 5.23437C65.6489 5.57812 64.6643 5.98437 63.6952 6.45312C62.7262 6.89062 61.8977 7.46875 61.2097 8.1875C60.5217 8.875 60.1774 9.8125 60.1766 11C60.176 11.9687 60.3472 12.8594 60.6905 13.6719C61.0649 14.4844 61.5175 15.2656 62.0483 16.0156C62.5791 16.7344 63.1567 17.4375 63.7813 18.125C64.4371 18.8125 65.0303 19.5312 65.5611 20.2812C66.0919 21 66.5289 21.7656 66.8721 22.5781C67.2153 23.3906 67.3866 24.2812 67.386 25.25C67.3855 25.875 67.2758 26.4531 67.0567 26.9844C66.8376 27.5156 66.6029 28.0312 66.3525 28.5312C66.1022 29 65.8519 29.4844 65.6016 29.9844C65.3825 30.4844 65.2728 31.0156 65.2724 31.5781C65.2723 31.7031 65.2407 32.2031 65.1777 33.0781C65.1146 33.9531 65.067 35.0156 65.0349 36.2656C65.0341 37.5156 65.0645 38.8594 65.126 40.2969C65.1876 41.7031 65.3586 43 65.6391 44.1875C65.9195 45.4062 66.3251 46.4219 66.8558 47.2344C67.4178 48.0469 68.1675 48.4531 69.105 48.4531C69.73 48.4531 70.277 48.3281 70.7459 48.0781C71.2461 47.8281 71.6994 47.5625 72.1058 47.2812C72.5435 47 72.9655 46.7344 73.372 46.4844C73.8096 46.2656 74.3097 46.1562 74.8722 46.1562C75.4347 46.1562 75.8252 46.375 76.0436 46.8125C76.2933 47.2812 76.418 47.7969 76.4176 48.3594C76.417 49.2656 76.1352 50.0312 75.5723 50.6562C75.0407 51.3125 74.3684 51.8437 73.5557 52.25C72.7429 52.6562 71.8833 52.9375 70.977 53.0937C70.0706 53.2812 69.258 53.375 68.5393 53.375C67.133 53.375 65.9302 52.9687 64.9307 52.1562C63.9625 51.3437 63.1195 50.2812 62.4016 48.9687C61.7149 47.6562 61.1534 46.1875 60.717 44.5625C60.3118 42.9375 59.9847 41.3281 59.7358 39.7344C59.5181 38.1094 59.3629 36.5781 59.2701 35.1406C59.2085 33.7031 59.178 32.5156 59.1787 31.5781ZM95.9803 24.3125C95.9808 23.5312 96.1062 22.9219 96.3565 22.4844C96.6381 22.0469 97.2163 21.8281 98.0913 21.8281C98.1851 21.8281 98.3569 21.8437 98.6069 21.875C98.8882 21.875 99.06 21.875 99.1225 21.875C99.3407 22.8437 99.5587 23.9062 99.7767 25.0625C100.026 26.1875 100.306 27.3281 100.618 28.4844C100.93 29.6406 101.273 30.7812 101.647 31.9062C102.053 33.0312 102.536 34.0469 103.098 34.9531C103.661 34.3594 104.068 33.6562 104.318 32.8437C104.569 32.0312 104.757 31.2187 104.883 30.4062C105.008 29.5625 105.118 28.7656 105.212 28.0156C105.338 27.2344 105.573 26.5781 105.917 26.0469C106.261 25.4844 106.761 25.0781 107.417 24.8281C108.105 24.5781 109.043 24.5781 110.23 24.8281C111.542 24.8281 112.589 25.0781 113.37 25.5781C114.151 26.0469 114.823 26.6562 115.385 27.4062C115.978 28.125 116.54 28.9062 117.07 29.75C117.632 30.5625 118.335 31.2969 119.178 31.9531C119.366 31.5469 119.601 31.0469 119.883 30.4531C120.164 29.8281 120.508 29.1875 120.915 28.5312C121.353 27.8437 121.807 27.1719 122.276 26.5156C122.776 25.8281 123.292 25.2187 123.824 24.6875C124.355 24.125 124.903 23.6719 125.465 23.3281C126.028 22.9531 126.575 22.7656 127.106 22.7656C128.388 22.7656 129.497 23.1719 130.434 23.9844C131.371 24.7656 132.167 25.7656 132.822 26.9844C133.509 28.1719 134.071 29.5156 134.507 31.0156C134.944 32.4844 135.286 33.9062 135.536 35.2812C135.785 36.6562 135.956 37.9219 136.049 39.0781C136.173 40.2031 136.235 41.0156 136.235 41.5156C136.234 41.9219 136.14 42.2344 135.953 42.4531C135.765 42.6719 135.531 42.8437 135.249 42.9687C134.968 43.0625 134.655 43.125 134.312 43.1562C133.999 43.1875 133.702 43.2031 133.421 43.2031C133.358 43.2031 133.265 43.2031 133.14 43.2031C133.015 43.1719 132.874 43.1406 132.718 43.1094C132.593 43.0781 132.421 43.0312 132.202 42.9687L129.165 28.9531C129.165 28.8594 129.04 28.6875 128.79 28.4375C128.54 28.1562 128.353 27.9844 128.228 27.9219C128.134 27.9219 128.056 27.9062 127.994 27.875C127.931 27.875 127.884 27.875 127.853 27.875C127.822 27.8437 127.791 27.8281 127.759 27.8281C127.103 27.8281 126.478 28.0937 125.884 28.625C125.321 29.1562 124.789 29.8281 124.289 30.6406C123.788 31.4531 123.319 32.3594 122.881 33.3594C122.442 34.3594 122.051 35.3594 121.707 36.3594C121.362 37.3281 121.049 38.2344 120.767 39.0781C120.517 39.8906 120.313 40.5156 120.157 40.9531C120.032 41.0156 119.782 41.0781 119.407 41.1406C119.032 41.1719 118.782 41.1875 118.657 41.1875C117.782 41.1875 117.11 40.8906 116.642 40.2969C116.173 39.6719 115.783 38.9062 115.471 38C115.191 37.0937 114.941 36.1094 114.723 35.0469C114.536 33.9531 114.287 32.9531 113.975 32.0469C113.695 31.1406 113.289 30.3906 112.758 29.7969C112.258 29.1719 111.54 28.8594 110.602 28.8594C110.259 28.8594 109.93 29.2031 109.617 29.8906C109.304 30.5781 109.022 31.4531 108.772 32.5156C108.521 33.5469 108.286 34.6719 108.066 35.8906C107.847 37.0781 107.659 38.2031 107.502 39.2656C107.376 40.2969 107.282 41.1719 107.219 41.8906C107.156 42.6094 107.124 42.9687 107.124 42.9687C107.062 43.0625 106.937 43.1719 106.749 43.2969C106.561 43.3906 106.358 43.5 106.139 43.625C105.952 43.75 105.749 43.8437 105.53 43.9062C105.342 43.9687 105.202 44 105.108 44C104.233 44 103.389 43.6094 102.577 42.8281C101.766 42.0156 101.016 40.9844 100.33 39.7344C99.6741 38.4531 99.0657 37.0469 98.5042 35.5156C97.9739 33.9844 97.5218 32.4844 97.1478 31.0156C96.7737 29.5469 96.4777 28.2187 96.2598 27.0312C96.0731 25.8437 95.9799 24.9375 95.9803 24.3125ZM180.356 23.9375C180.356 23.4062 180.466 22.9219 180.685 22.4844C180.935 22.0469 181.357 21.8281 181.951 21.8281C181.982 21.8281 182.029 21.8437 182.091 21.875C182.154 21.875 182.216 21.875 182.279 21.875C182.341 21.875 182.404 21.875 182.466 21.875C182.56 21.9375 182.732 22.0937 182.982 22.3437C183.263 22.5937 183.434 22.7812 183.497 22.9062C183.59 23.0937 183.778 23.5 184.059 24.125C184.371 24.75 184.73 25.4844 185.135 26.3281C185.572 27.1406 186.009 28.0156 186.446 28.9531C186.914 29.8594 187.351 30.7344 187.757 31.5781C188.194 32.4219 188.553 33.1562 188.833 33.7812C189.146 34.375 189.364 34.7656 189.489 34.9531C189.52 35.0469 189.661 35.2344 189.91 35.5156C190.192 35.7656 190.395 35.9219 190.52 35.9844C190.77 35.5469 191.02 34.8906 191.271 34.0156C191.521 33.1406 191.772 32.1875 192.023 31.1562C192.305 30.0937 192.587 29.0156 192.869 27.9219C193.151 26.7969 193.464 25.7969 193.808 24.9219C194.184 24.0156 194.59 23.2812 195.028 22.7187C195.466 22.125 195.966 21.8281 196.529 21.8281C197.341 21.8281 198.107 22.1406 198.825 22.7656C199.575 23.3906 200.277 24.2031 200.933 25.2031C201.62 26.2031 202.26 27.3281 202.853 28.5781C203.477 29.7969 204.054 31.0156 204.584 32.2344C205.146 33.4219 205.661 34.5312 206.129 35.5625C206.628 36.5625 207.112 37.3594 207.581 37.9531C207.956 37.8281 208.268 37.5156 208.519 37.0156C208.769 36.5156 208.957 36 209.082 35.4687C209.239 34.9062 209.349 34.3906 209.411 33.9219C209.474 33.4219 209.521 33.0937 209.553 32.9375C209.584 32.5937 209.631 32.0625 209.694 31.3437C209.757 30.5937 209.82 29.75 209.884 28.8125C209.978 27.875 210.057 26.9062 210.12 25.9062C210.183 24.9062 210.246 23.9375 210.309 23C210.404 22.0625 210.467 21.2344 210.498 20.5156C210.561 19.7656 210.593 19.2344 210.593 18.9219C210.656 18.9219 210.812 18.9062 211.062 18.875C211.312 18.8125 211.484 18.7812 211.578 18.7812C212.015 18.7812 212.406 18.8281 212.749 18.9219C213.093 19.0156 213.359 19.3437 213.546 19.9062C213.546 20.125 213.545 20.5156 213.545 21.0781C213.576 21.6406 213.591 22.25 213.591 22.9062C213.621 23.5312 213.637 24.1406 213.636 24.7344C213.667 25.2969 213.683 25.6875 213.682 25.9062C213.682 26.4062 213.682 27.1875 213.681 28.25C213.711 29.2812 213.695 30.4375 213.632 31.7187C213.6 33 213.505 34.3125 213.348 35.6562C213.191 36.9687 212.94 38.1875 212.595 39.3125C212.282 40.4062 211.844 41.3125 211.281 42.0312C210.718 42.7187 210.015 43.0625 209.171 43.0625C208.202 43.0625 207.296 42.8281 206.453 42.3594C205.609 41.8906 204.813 41.2656 204.063 40.4844C203.345 39.7031 202.658 38.8437 202.003 37.9062C201.347 36.9375 200.738 35.9687 200.176 35C199.646 34 199.146 33.0625 198.678 32.1875C198.241 31.2812 197.851 30.5156 197.508 29.8906C197.258 30.4531 197.023 31.1562 196.803 32C196.615 32.8437 196.396 33.7656 196.145 34.7656C195.895 35.7344 195.613 36.7187 195.3 37.7187C194.986 38.6875 194.627 39.5781 194.22 40.3906C193.844 41.1719 193.391 41.8125 192.859 42.3125C192.359 42.8125 191.78 43.0625 191.124 43.0625C190.812 43.0625 190.53 43.0781 190.28 43.1094C190.03 43.1094 189.796 43.0937 189.577 43.0625C189.359 43 189.156 42.8906 188.968 42.7344C188.781 42.5781 188.609 42.3281 188.453 41.9844L180.449 24.875C180.449 24.8437 180.433 24.7187 180.402 24.5C180.371 24.25 180.355 24.0625 180.356 23.9375ZM223.003 36.875C223.347 36.875 223.628 36.9531 223.847 37.1094C224.097 37.2656 224.269 37.4687 224.362 37.7187C224.456 37.9375 224.518 38.2031 224.549 38.5156C224.58 38.7969 224.596 39.0781 224.595 39.3594C224.595 40.0156 224.516 40.7969 224.359 41.7031C224.234 42.5781 224.03 43.5 223.748 44.4687C223.466 45.4375 223.106 46.3906 222.668 47.3281C222.261 48.2969 221.776 49.1406 221.213 49.8594C220.65 50.6094 220.009 51.2031 219.29 51.6406C218.603 52.1094 217.837 52.3437 216.993 52.3437C216.994 51.6875 217.057 50.8437 217.182 49.8125C217.339 48.7812 217.543 47.6875 217.794 46.5312C218.076 45.375 218.405 44.2344 218.78 43.1094C219.156 41.9531 219.563 40.9219 220.001 40.0156C220.439 39.0781 220.909 38.3281 221.409 37.7656C221.909 37.1719 222.441 36.875 223.003 36.875ZM108.04 75.3125C108.041 74.5312 108.166 73.9219 108.417 73.4844C108.698 73.0469 109.276 72.8281 110.151 72.8281C110.245 72.8281 110.417 72.8437 110.667 72.875C110.948 72.875 111.12 72.875 111.183 72.875C111.401 73.8437 111.619 74.9062 111.837 76.0625C112.086 77.1875 112.367 78.3281 112.678 79.4844C112.99 80.6406 113.333 81.7812 113.707 82.9062C114.113 84.0312 114.597 85.0469 115.158 85.9531C115.721 85.3594 116.128 84.6562 116.379 83.8437C116.629 83.0312 116.817 82.2187 116.943 81.4062C117.068 80.5625 117.178 79.7656 117.272 79.0156C117.398 78.2344 117.633 77.5781 117.977 77.0469C118.321 76.4844 118.821 76.0781 119.478 75.8281C120.165 75.5781 121.103 75.5781 122.29 75.8281C123.603 75.8281 124.649 76.0781 125.43 76.5781C126.211 77.0469 126.883 77.6562 127.445 78.4062C128.038 79.125 128.6 79.9062 129.131 80.75C129.693 81.5625 130.395 82.2969 131.239 82.9531C131.426 82.5469 131.661 82.0469 131.943 81.4531C132.224 80.8281 132.569 80.1875 132.975 79.5312C133.413 78.8437 133.867 78.1719 134.336 77.5156C134.836 76.8281 135.352 76.2187 135.884 75.6875C136.416 75.125 136.963 74.6719 137.525 74.3281C138.088 73.9531 138.635 73.7656 139.166 73.7656C140.448 73.7656 141.557 74.1719 142.494 74.9844C143.431 75.7656 144.227 76.7656 144.882 77.9844C145.569 79.1719 146.131 80.5156 146.567 82.0156C147.004 83.4844 147.347 84.9062 147.596 86.2812C147.845 87.6562 148.016 88.9219 148.109 90.0781C148.233 91.2031 148.295 92.0156 148.295 92.5156C148.294 92.9219 148.201 93.2344 148.013 93.4531C147.825 93.6719 147.591 93.8437 147.309 93.9687C147.028 94.0625 146.716 94.125 146.372 94.1562C146.059 94.1875 145.762 94.2031 145.481 94.2031C145.419 94.2031 145.325 94.2031 145.2 94.2031C145.075 94.1719 144.934 94.1406 144.778 94.1094C144.653 94.0781 144.481 94.0312 144.263 93.9687L141.225 79.9531C141.225 79.8594 141.1 79.6875 140.85 79.4375C140.6 79.1562 140.413 78.9844 140.288 78.9219C140.194 78.9219 140.116 78.9062 140.054 78.875C139.991 78.875 139.944 78.875 139.913 78.875C139.882 78.8437 139.851 78.8281 139.819 78.8281C139.163 78.8281 138.538 79.0937 137.944 79.625C137.381 80.1562 136.849 80.8281 136.349 81.6406C135.848 82.4531 135.379 83.3594 134.941 84.3594C134.503 85.3594 134.111 86.3594 133.767 87.3594C133.423 88.3281 133.109 89.2344 132.828 90.0781C132.577 90.8906 132.374 91.5156 132.217 91.9531C132.092 92.0156 131.842 92.0781 131.467 92.1406C131.092 92.1719 130.842 92.1875 130.717 92.1875C129.842 92.1875 129.17 91.8906 128.702 91.2969C128.233 90.6719 127.843 89.9062 127.531 89C127.251 88.0937 127.001 87.1094 126.783 86.0469C126.597 84.9531 126.347 83.9531 126.035 83.0469C125.755 82.1406 125.349 81.3906 124.818 80.7969C124.319 80.1719 123.6 79.8594 122.662 79.8594C122.319 79.8594 121.99 80.2031 121.677 80.8906C121.364 81.5781 121.083 82.4531 120.832 83.5156C120.581 84.5469 120.346 85.6719 120.127 86.8906C119.907 88.0781 119.719 89.2031 119.562 90.2656C119.436 91.2969 119.342 92.1719 119.279 92.8906C119.216 93.6094 119.184 93.9687 119.184 93.9687C119.122 94.0625 118.997 94.1719 118.809 94.2969C118.622 94.3906 118.418 94.5 118.2 94.625C118.012 94.75 117.809 94.8437 117.59 94.9062C117.403 94.9687 117.262 95 117.168 95C116.293 95 115.45 94.6094 114.638 93.8281C113.826 93.0156 113.076 91.9844 112.39 90.7344C111.734 89.4531 111.126 88.0469 110.564 86.5156C110.034 84.9844 109.582 83.4844 109.208 82.0156C108.834 80.5469 108.538 79.2187 108.32 78.0312C108.133 76.8437 108.04 75.9375 108.04 75.3125ZM194.576 68.4687C194.577 67.5625 194.515 66.6875 194.39 65.8437C194.266 64.9687 194.235 64.2031 194.298 63.5469C194.361 62.8594 194.596 62.3125 195.002 61.9062C195.44 61.5 196.222 61.2969 197.347 61.2969C197.69 62.0156 198.017 63.1094 198.329 64.5781C198.672 66.0469 198.999 67.7344 199.31 69.6406C199.621 71.5469 199.917 73.625 200.196 75.875C200.476 78.0937 200.725 80.3281 200.942 82.5781C201.19 84.8281 201.392 87.0469 201.547 89.2344C201.733 91.3906 201.872 93.3594 201.965 95.1406C200.933 95.8281 200.105 95.875 199.48 95.2812C198.856 94.6875 198.341 93.6875 197.936 92.2812C197.53 90.8437 197.219 89.1094 197.001 87.0781C196.784 85.0156 196.567 82.8906 196.349 80.7031C196.163 78.4844 195.93 76.3125 195.651 74.1875C195.371 72.0312 195.013 70.125 194.576 68.4687ZM210.829 87.875C211.173 87.875 211.454 87.9531 211.673 88.1094C211.923 88.2656 212.094 88.4687 212.188 88.7187C212.281 88.9375 212.344 89.2031 212.375 89.5156C212.406 89.7969 212.421 90.0781 212.421 90.3594C212.421 91.0156 212.342 91.7969 212.185 92.7031C212.06 93.5781 211.856 94.5 211.574 95.4687C211.292 96.4375 210.932 97.3906 210.494 98.3281C210.087 99.2969 209.602 100.141 209.039 100.859C208.476 101.609 207.835 102.203 207.116 102.641C206.428 103.109 205.663 103.344 204.819 103.344C204.819 102.687 204.882 101.844 205.008 100.812C205.165 99.7812 205.369 98.6875 205.62 97.5312C205.902 96.375 206.23 95.2344 206.606 94.1094C206.982 92.9531 207.389 91.9219 207.827 91.0156C208.265 90.0781 208.734 89.3281 209.235 88.7656C209.735 88.1719 210.267 87.875 210.829 87.875ZM109.037 128.703C109.039 125.672 109.743 123.422 111.15 121.953C112.558 120.484 114.714 119.75 117.621 119.75C118.808 119.75 120.027 119.859 121.277 120.078C122.558 120.297 123.729 120.687 124.791 121.25C125.854 121.781 126.712 122.531 127.368 123.5C128.055 124.469 128.398 125.719 128.397 127.25C128.396 128.937 128.02 130.531 127.269 132.031C126.549 133.5 125.626 134.891 124.5 136.203C123.406 137.484 122.186 138.687 120.842 139.812C119.528 140.906 118.293 141.953 117.137 142.953C117.074 143.078 117.011 143.344 116.948 143.75C116.917 144.125 116.901 144.375 116.901 144.5C116.9 145.531 117.197 146.562 117.79 147.594C118.414 148.656 119.085 149.719 119.803 150.781C120.521 151.875 121.177 153 121.77 154.156C122.363 155.312 122.659 156.516 122.658 157.766C122.658 158.516 122.501 158.953 122.188 159.078C121.876 159.234 121.219 159.312 120.219 159.312C119.595 159.062 118.97 158.469 118.346 157.531C117.753 156.625 117.144 155.5 116.52 154.156C115.927 152.812 115.334 151.297 114.742 149.609C114.18 147.953 113.634 146.266 113.104 144.547C112.605 142.797 112.122 141.078 111.654 139.391C111.218 137.672 110.829 136.094 110.486 134.656C110.143 133.219 109.831 131.984 109.551 130.953C109.301 129.891 109.13 129.141 109.037 128.703ZM113.021 129.125C113.02 129.594 113.051 130.281 113.113 131.187C113.175 132.062 113.299 132.937 113.486 133.812C113.704 134.687 114.016 135.453 114.422 136.109C114.828 136.734 115.39 137.047 116.109 137.047C117.078 137.047 118.047 136.719 119.016 136.062C120.016 135.406 120.892 134.578 121.643 133.578C122.425 132.578 123.05 131.516 123.52 130.391C124.021 129.234 124.271 128.187 124.272 127.25C124.272 126.469 124.085 125.859 123.711 125.422C123.336 124.953 122.852 124.594 122.258 124.344C121.696 124.062 121.087 123.891 120.43 123.828C119.774 123.734 119.149 123.687 118.555 123.687C116.774 123.687 115.399 124.172 114.43 125.141C113.491 126.078 113.022 127.406 113.021 129.125ZM173.351 126.312C173.351 125.531 173.477 124.922 173.727 124.484C174.008 124.047 174.587 123.828 175.462 123.828C175.555 123.828 175.727 123.844 175.977 123.875C176.258 123.875 176.43 123.875 176.493 123.875C176.711 124.844 176.929 125.906 177.147 127.062C177.396 128.187 177.677 129.328 177.988 130.484C178.3 131.641 178.643 132.781 179.017 133.906C179.423 135.031 179.907 136.047 180.469 136.953C181.031 136.359 181.438 135.656 181.689 134.844C181.939 134.031 182.127 133.219 182.253 132.406C182.378 131.562 182.488 130.766 182.583 130.016C182.708 129.234 182.943 128.578 183.287 128.047C183.631 127.484 184.131 127.078 184.788 126.828C185.475 126.578 186.413 126.578 187.6 126.828C188.913 126.828 189.959 127.078 190.74 127.578C191.521 128.047 192.193 128.656 192.755 129.406C193.348 130.125 193.91 130.906 194.441 131.75C195.003 132.562 195.705 133.297 196.549 133.953C196.736 133.547 196.971 133.047 197.253 132.453C197.534 131.828 197.879 131.187 198.285 130.531C198.723 129.844 199.177 129.172 199.646 128.516C200.146 127.828 200.663 127.219 201.194 126.687C201.726 126.125 202.273 125.672 202.836 125.328C203.398 124.953 203.945 124.766 204.477 124.766C205.758 124.766 206.867 125.172 207.804 125.984C208.741 126.766 209.537 127.766 210.193 128.984C210.879 130.172 211.441 131.516 211.877 133.016C212.314 134.484 212.657 135.906 212.906 137.281C213.155 138.656 213.326 139.922 213.419 141.078C213.543 142.203 213.605 143.016 213.605 143.516C213.605 143.922 213.511 144.234 213.323 144.453C213.135 144.672 212.901 144.844 212.62 144.969C212.338 145.062 212.026 145.125 211.682 145.156C211.369 145.187 211.073 145.203 210.791 145.203C210.729 145.203 210.635 145.203 210.51 145.203C210.385 145.172 210.244 145.141 210.088 145.109C209.963 145.078 209.791 145.031 209.573 144.969L206.535 130.953C206.535 130.859 206.41 130.687 206.16 130.437C205.911 130.156 205.723 129.984 205.598 129.922C205.504 129.922 205.426 129.906 205.364 129.875C205.301 129.875 205.255 129.875 205.223 129.875C205.192 129.844 205.161 129.828 205.13 129.828C204.473 129.828 203.848 130.094 203.254 130.625C202.691 131.156 202.159 131.828 201.659 132.641C201.158 133.453 200.689 134.359 200.251 135.359C199.813 136.359 199.421 137.359 199.077 138.359C198.733 139.328 198.42 140.234 198.138 141.078C197.887 141.891 197.684 142.516 197.527 142.953C197.402 143.016 197.152 143.078 196.777 143.141C196.402 143.172 196.152 143.187 196.027 143.187C195.152 143.187 194.48 142.891 194.012 142.297C193.544 141.672 193.153 140.906 192.842 140C192.561 139.094 192.312 138.109 192.094 137.047C191.907 135.953 191.657 134.953 191.346 134.047C191.065 133.141 190.659 132.391 190.128 131.797C189.629 131.172 188.91 130.859 187.973 130.859C187.629 130.859 187.301 131.203 186.988 131.891C186.675 132.578 186.393 133.453 186.142 134.516C185.891 135.547 185.656 136.672 185.437 137.891C185.217 139.078 185.029 140.203 184.872 141.266C184.746 142.297 184.652 143.172 184.589 143.891C184.526 144.609 184.495 144.969 184.495 144.969C184.432 145.062 184.307 145.172 184.119 145.297C183.932 145.391 183.729 145.5 183.51 145.625C183.322 145.75 183.119 145.844 182.9 145.906C182.713 145.969 182.572 146 182.478 146C181.603 146 180.76 145.609 179.948 144.828C179.136 144.016 178.387 142.984 177.7 141.734C177.044 140.453 176.436 139.047 175.874 137.516C175.344 135.984 174.892 134.484 174.518 133.016C174.144 131.547 173.848 130.219 173.63 129.031C173.443 127.844 173.35 126.937 173.351 126.312ZM238.068 152.187C238.068 151.375 238.209 150.781 238.491 150.406C238.772 150.062 239.148 149.812 239.616 149.656C240.085 149.5 240.57 149.391 241.07 149.328C241.601 149.266 242.101 149.141 242.57 148.953C243.039 148.766 243.414 148.453 243.696 148.016C244.008 147.578 244.165 146.891 244.166 145.953C244.166 145.297 243.995 144.641 243.651 143.984C243.339 143.297 242.996 142.594 242.622 141.875C242.247 141.156 241.888 140.422 241.545 139.672C241.233 138.922 241.077 138.141 241.078 137.328C241.078 137.266 241.078 137.187 241.078 137.094C241.078 137 241.094 136.906 241.125 136.812C241.125 136.687 241.141 136.562 241.172 136.437C241.235 136.312 241.422 136.016 241.735 135.547C242.079 135.047 242.423 134.516 242.767 133.953C243.112 133.391 243.424 132.859 243.706 132.359C244.019 131.859 244.175 131.547 244.175 131.422C244.176 130.766 243.957 130.094 243.52 129.406C243.115 128.687 242.646 127.953 242.116 127.203C241.616 126.422 241.148 125.625 240.711 124.812C240.305 123.969 240.103 123.094 240.103 122.187C240.104 121.25 240.261 120.391 240.574 119.609C240.918 118.828 241.294 118.078 241.7 117.359C242.107 116.641 242.467 115.922 242.78 115.203C243.124 114.453 243.296 113.672 243.297 112.859C243.298 112.047 243.001 111.437 242.408 111.031C241.845 110.594 241.189 110.281 240.439 110.094C239.69 109.906 238.924 109.797 238.143 109.766C237.393 109.734 236.83 109.719 236.455 109.719C236.456 109.031 236.566 108.453 236.785 107.984C237.035 107.516 237.363 107.156 237.77 106.906C238.176 106.625 238.629 106.437 239.129 106.344C239.661 106.219 240.223 106.156 240.817 106.156C241.536 106.156 242.317 106.297 243.16 106.578C244.035 106.859 244.848 107.25 245.597 107.75C246.378 108.219 247.018 108.812 247.518 109.531C248.049 110.219 248.314 110.984 248.313 111.828C248.313 111.859 248.298 111.906 248.266 111.969C248.266 112 248.266 112.031 248.266 112.062C248.235 112.156 248.219 112.234 248.219 112.297C248.188 112.453 248.063 112.766 247.844 113.234C247.625 113.703 247.374 114.25 247.093 114.875C246.811 115.5 246.514 116.172 246.201 116.891C245.888 117.578 245.59 118.234 245.309 118.859C245.027 119.453 244.777 119.984 244.558 120.453C244.37 120.922 244.245 121.219 244.182 121.344L244.182 121.859C244.181 122.797 244.352 123.578 244.696 124.203C245.07 124.828 245.523 125.359 246.054 125.797C246.585 126.234 247.147 126.625 247.741 126.969C248.334 127.312 248.897 127.656 249.428 128C249.99 128.344 250.443 128.734 250.786 129.172C251.13 129.578 251.301 130.094 251.301 130.719C251.3 131.375 251.175 131.937 250.925 132.406C250.674 132.844 250.346 133.234 249.94 133.578C249.564 133.891 249.142 134.203 248.673 134.516C248.236 134.828 247.814 135.172 247.407 135.547C247.032 135.891 246.719 136.297 246.469 136.766C246.218 137.203 246.093 137.766 246.093 138.453C246.092 139.172 246.201 139.844 246.419 140.469C246.669 141.062 246.919 141.672 247.168 142.297C247.449 142.891 247.699 143.5 247.917 144.125C248.167 144.75 248.291 145.453 248.291 146.234C248.29 147.172 248.18 148.125 247.961 149.094C247.772 150.094 247.428 150.984 246.928 151.766C246.427 152.578 245.786 153.234 245.004 153.734C244.254 154.266 243.316 154.531 242.191 154.531C241.691 154.531 241.191 154.516 240.691 154.484C240.223 154.453 239.785 154.359 239.379 154.203C239.004 154.078 238.692 153.859 238.442 153.547C238.192 153.234 238.068 152.781 238.068 152.187Z" fill="black"/>
<path d="M146 33.3496H173.111" stroke="black" stroke-width="5" stroke-linecap="round"/>
<line x1="2.5" y1="-2.5" x2="14.1723" y2="-2.5" transform="matrix(0.717247 0.696819 -0.717247 0.696819 161 25)" stroke="black" stroke-width="5" stroke-linecap="round"/>
<line x1="2.5" y1="-2.5" x2="14.1723" y2="-2.5" transform="matrix(0.717247 -0.696819 0.717247 0.696819 164 45.6172)" stroke="black" stroke-width="5" stroke-linecap="round"/>
<path d="M157 81.3496H184.111" stroke="black" stroke-width="5" stroke-linecap="round"/>
<line x1="2.5" y1="-2.5" x2="14.1723" y2="-2.5" transform="matrix(0.717247 0.696819 -0.717247 0.696819 172 73)" stroke="black" stroke-width="5" stroke-linecap="round"/>
<line x1="2.5" y1="-2.5" x2="14.1723" y2="-2.5" transform="matrix(0.717247 -0.696819 0.717247 0.696819 175 93.6172)" stroke="black" stroke-width="5" stroke-linecap="round"/>
<path d="M138 133.35H165.111" stroke="black" stroke-width="5" stroke-linecap="round"/>
<line x1="2.5" y1="-2.5" x2="14.1723" y2="-2.5" transform="matrix(0.717247 0.696819 -0.717247 0.696819 153 125)" stroke="black" stroke-width="5" stroke-linecap="round"/>
<line x1="2.5" y1="-2.5" x2="14.1723" y2="-2.5" transform="matrix(0.717247 -0.696819 0.717247 0.696819 156 145.617)" stroke="black" stroke-width="5" stroke-linecap="round"/>
</svg>
