<svg width="471" height="276" viewBox="0 0 471 276" fill="none" xmlns="http://www.w3.org/2000/svg">
<rect x="2.5" y="2.5" width="465.136" height="271" fill="white" stroke="black" stroke-width="5"/>
<path d="M83.75 208.57C83.75 213.897 83.1692 218.515 82.0075 222.425C80.8742 226.307 79.3158 229.522 77.3325 232.072C75.3492 234.622 72.9975 236.521 70.2775 237.767C67.5858 239.014 64.6958 239.638 61.6075 239.638C58.4908 239.638 55.5867 239.014 52.895 237.767C50.2317 236.521 47.9083 234.622 45.925 232.072C43.9417 229.522 42.3833 226.307 41.25 222.425C40.1167 218.515 39.55 213.897 39.55 208.57C39.55 203.243 40.1167 198.625 41.25 194.715C42.3833 190.805 43.9417 187.575 45.925 185.025C47.9083 182.447 50.2317 180.534 52.895 179.287C55.5867 178.041 58.4908 177.417 61.6075 177.417C64.6958 177.417 67.5858 178.041 70.2775 179.287C72.9975 180.534 75.3492 182.447 77.3325 185.025C79.3158 187.575 80.8742 190.805 82.0075 194.715C83.1692 198.625 83.75 203.243 83.75 208.57ZM75.8875 208.57C75.8875 203.923 75.4908 200.027 74.6975 196.882C73.9325 193.709 72.8842 191.159 71.5525 189.232C70.2492 187.306 68.7333 185.932 67.005 185.11C65.2767 184.26 63.4775 183.835 61.6075 183.835C59.7375 183.835 57.9383 184.26 56.21 185.11C54.4817 185.932 52.9658 187.306 51.6625 189.232C50.3592 191.159 49.3108 193.709 48.5175 196.882C47.7525 200.027 47.37 203.923 47.37 208.57C47.37 213.217 47.7525 217.112 48.5175 220.257C49.3108 223.402 50.3592 225.938 51.6625 227.865C52.9658 229.792 54.4817 231.18 56.21 232.03C57.9383 232.852 59.7375 233.262 61.6075 233.262C63.4775 233.262 65.2767 232.852 67.005 232.03C68.7333 231.18 70.2492 229.792 71.5525 227.865C72.8842 225.938 73.9325 223.402 74.6975 220.257C75.4908 217.112 75.8875 213.217 75.8875 208.57Z" fill="black"/>
<path d="M80.265 93.22V99H47.625V93.22H60.6725V51.6975C60.6725 50.4508 60.715 49.19 60.8 47.915L49.9625 57.2225C49.5942 57.5342 49.2258 57.7325 48.8575 57.8175C48.4892 57.8742 48.1492 57.8742 47.8375 57.8175C47.5258 57.7608 47.2283 57.6475 46.945 57.4775C46.69 57.3075 46.4917 57.1233 46.35 56.925L43.97 53.6525L62.1175 37.97H68.28V93.22H80.265Z" fill="black"/>
<rect x="2.5" y="139.331" width="465.136" height="134.169" stroke="black" stroke-width="5"/>
<rect x="2.5" y="2.5" width="120.136" height="271" stroke="black" stroke-width="5"/>
<circle cx="354.941" cy="69.5847" r="35.178" stroke="black" stroke-width="8"/>
<path d="M187.922 242.203L229.534 170.01L271.145 242.203H187.922Z" stroke="black" stroke-width="8"/>
<rect x="195" y="35" width="70.3559" height="70.3559" stroke="black" stroke-width="8"/>
<rect x="322.102" y="173.576" width="70.3559" height="70.3559" stroke="black" stroke-width="8"/>
</svg>
