<svg width="306" height="41" viewBox="0 0 306 41" fill="none" xmlns="http://www.w3.org/2000/svg">
<path d="M7.00537 5V32.4803" stroke="#0BAFF9" stroke-width="7" stroke-linecap="round"/>
<path d="M7.41478 21.5411C7.46524 21.5291 7.59388 21.3842 7.64639 21.3373C7.78179 21.2162 8.2693 20.6356 8.3503 20.4604C8.68277 20.0342 8.63238 20.0479 8.92538 19.6333C9.15674 19.3059 9.5473 18.8992 9.75025 18.5552C9.9289 18.2525 10.1009 18.1319 10.3046 17.8542C10.744 17.3984 11.0645 17.0239 11.836 16.5476C12.1152 16.3752 12.7283 16.1877 13.0212 16.0617C13.8572 15.8881 14.1663 15.836 14.6251 15.8245C15.2528 15.8087 15.5727 15.9174 16.2123 16.0964C16.7655 16.2512 17.5666 16.7251 18.0337 17.1166C18.6039 17.5945 18.8861 17.689 19.4282 18.2092C19.9978 18.7558 20.7078 19.1489 21.2584 19.7178C21.8339 20.3123 22.5659 20.751 23.2675 21.1086C24.056 21.5105 24.8019 22.0816 25.6457 22.3235C26.4581 22.5563 27.3072 22.8784 28.1534 22.822C28.5323 22.7968 28.8869 22.6901 29.2624 22.6555C29.7581 22.6098 30.3358 22.3042 30.8017 22.1396C31.3517 21.9452 31.8047 21.5477 32.216 21.0902C32.4205 20.8626 32.6012 20.6484 32.7845 20.3986C32.9716 20.1437 32.951 20.0736 33.0864 19.7888C33.1493 19.6566 33.2503 19.2929 33.2801 19.1469C33.3091 19.0046 33.3858 18.8872 33.4163 18.7543C33.4711 18.5153 33.5572 18.3954 33.584 18.1524C33.6028 17.9813 33.7728 17.6831 33.8238 17.5107C33.8653 17.3707 34.016 17.1068 34.0039 16.9608" stroke="#0BAFF9" stroke-width="7" stroke-linecap="round"/>
<path d="M82.8571 9.14H74.5051V32H71.0311V9.14H62.6611V6.206H82.8571V9.14ZM107.911 13.766L102.007 32H99.4686C99.1566 32 98.9406 31.796 98.8206 31.388L94.7886 19.022C94.6926 18.746 94.6146 18.47 94.5546 18.194C94.4946 17.906 94.4346 17.624 94.3746 17.348C94.3146 17.624 94.2546 17.906 94.1946 18.194C94.1346 18.47 94.0566 18.752 93.9606 19.04L89.8566 31.388C89.7486 31.796 89.5086 32 89.1366 32H86.7246L80.8206 13.766H83.3406C83.5926 13.766 83.8026 13.832 83.9706 13.964C84.1506 14.096 84.2706 14.252 84.3306 14.432L87.8226 26.168C88.0266 27.032 88.1886 27.848 88.3086 28.616C88.4166 28.22 88.5246 27.818 88.6326 27.41C88.7526 27.002 88.8786 26.588 89.0106 26.168L92.8626 14.36C92.9226 14.18 93.0246 14.03 93.1686 13.91C93.3246 13.79 93.5106 13.73 93.7266 13.73H95.1306C95.3706 13.73 95.5686 13.79 95.7246 13.91C95.8806 14.03 95.9886 14.18 96.0486 14.36L99.8106 26.168C99.9426 26.588 100.063 27.002 100.171 27.41C100.279 27.818 100.381 28.22 100.477 28.616C100.537 28.22 100.609 27.824 100.693 27.428C100.789 27.02 100.891 26.6 100.999 26.168L104.563 14.432C104.623 14.24 104.737 14.084 104.905 13.964C105.073 13.832 105.271 13.766 105.499 13.766H107.911ZM114.414 13.766V32H111.21V13.766H114.414ZM115.098 8.042C115.098 8.354 115.032 8.648 114.9 8.924C114.78 9.188 114.612 9.428 114.396 9.644C114.192 9.848 113.946 10.01 113.658 10.13C113.382 10.25 113.088 10.31 112.776 10.31C112.464 10.31 112.17 10.25 111.894 10.13C111.63 10.01 111.396 9.848 111.192 9.644C110.988 9.428 110.826 9.188 110.706 8.924C110.586 8.648 110.526 8.354 110.526 8.042C110.526 7.73 110.586 7.436 110.706 7.16C110.826 6.872 110.988 6.626 111.192 6.422C111.396 6.206 111.63 6.038 111.894 5.918C112.17 5.798 112.464 5.738 112.776 5.738C113.088 5.738 113.382 5.798 113.658 5.918C113.946 6.038 114.192 6.206 114.396 6.422C114.612 6.626 114.78 6.872 114.9 7.16C115.032 7.436 115.098 7.73 115.098 8.042ZM131.559 18.104C130.959 17.3 130.311 16.742 129.615 16.43C128.919 16.106 128.139 15.944 127.275 15.944C125.583 15.944 124.281 16.55 123.369 17.762C122.457 18.974 122.001 20.702 122.001 22.946C122.001 24.134 122.103 25.154 122.307 26.006C122.511 26.846 122.811 27.542 123.207 28.094C123.603 28.634 124.089 29.03 124.665 29.282C125.241 29.534 125.895 29.66 126.627 29.66C127.683 29.66 128.601 29.42 129.381 28.94C130.173 28.46 130.899 27.782 131.559 26.906V18.104ZM134.763 5.486V32H132.855C132.399 32 132.111 31.778 131.991 31.334L131.703 29.12C130.923 30.056 130.035 30.812 129.039 31.388C128.043 31.964 126.891 32.252 125.583 32.252C124.539 32.252 123.591 32.054 122.739 31.658C121.887 31.25 121.161 30.656 120.561 29.876C119.961 29.096 119.499 28.124 119.175 26.96C118.851 25.796 118.689 24.458 118.689 22.946C118.689 21.602 118.869 20.354 119.229 19.202C119.589 18.038 120.105 17.03 120.777 16.178C121.449 15.326 122.271 14.66 123.243 14.18C124.227 13.688 125.331 13.442 126.555 13.442C127.671 13.442 128.625 13.634 129.417 14.018C130.221 14.39 130.935 14.912 131.559 15.584V5.486H134.763ZM151.703 18.104C151.103 17.3 150.455 16.742 149.759 16.43C149.063 16.106 148.283 15.944 147.419 15.944C145.727 15.944 144.425 16.55 143.513 17.762C142.601 18.974 142.145 20.702 142.145 22.946C142.145 24.134 142.247 25.154 142.451 26.006C142.655 26.846 142.955 27.542 143.351 28.094C143.747 28.634 144.233 29.03 144.809 29.282C145.385 29.534 146.039 29.66 146.771 29.66C147.827 29.66 148.745 29.42 149.525 28.94C150.317 28.46 151.043 27.782 151.703 26.906V18.104ZM154.907 5.486V32H152.999C152.543 32 152.255 31.778 152.135 31.334L151.847 29.12C151.067 30.056 150.179 30.812 149.183 31.388C148.187 31.964 147.035 32.252 145.727 32.252C144.683 32.252 143.735 32.054 142.883 31.658C142.031 31.25 141.305 30.656 140.705 29.876C140.105 29.096 139.643 28.124 139.319 26.96C138.995 25.796 138.833 24.458 138.833 22.946C138.833 21.602 139.013 20.354 139.373 19.202C139.733 18.038 140.249 17.03 140.921 16.178C141.593 15.326 142.415 14.66 143.387 14.18C144.371 13.688 145.475 13.442 146.699 13.442C147.815 13.442 148.769 13.634 149.561 14.018C150.365 14.39 151.079 14.912 151.703 15.584V5.486H154.907ZM163.28 5.486V32H160.076V5.486H163.28ZM180.68 20.894C180.68 20.15 180.572 19.472 180.356 18.86C180.152 18.236 179.846 17.702 179.438 17.258C179.042 16.802 178.556 16.454 177.98 16.214C177.404 15.962 176.75 15.836 176.018 15.836C174.482 15.836 173.264 16.286 172.364 17.186C171.476 18.074 170.924 19.31 170.708 20.894H180.68ZM183.272 29.444C182.876 29.924 182.402 30.344 181.85 30.704C181.298 31.052 180.704 31.34 180.068 31.568C179.444 31.796 178.796 31.964 178.124 32.072C177.452 32.192 176.786 32.252 176.126 32.252C174.866 32.252 173.702 32.042 172.634 31.622C171.578 31.19 170.66 30.566 169.88 29.75C169.112 28.922 168.512 27.902 168.08 26.69C167.648 25.478 167.432 24.086 167.432 22.514C167.432 21.242 167.624 20.054 168.008 18.95C168.404 17.846 168.968 16.892 169.7 16.088C170.432 15.272 171.326 14.636 172.382 14.18C173.438 13.712 174.626 13.478 175.946 13.478C177.038 13.478 178.046 13.664 178.97 14.036C179.906 14.396 180.71 14.924 181.382 15.62C182.066 16.304 182.6 17.156 182.984 18.176C183.368 19.184 183.56 20.336 183.56 21.632C183.56 22.136 183.506 22.472 183.398 22.64C183.29 22.808 183.086 22.892 182.786 22.892H170.6C170.636 24.044 170.792 25.046 171.068 25.898C171.356 26.75 171.752 27.464 172.256 28.04C172.76 28.604 173.36 29.03 174.056 29.318C174.752 29.594 175.532 29.732 176.396 29.732C177.2 29.732 177.89 29.642 178.466 29.462C179.054 29.27 179.558 29.066 179.978 28.85C180.398 28.634 180.746 28.436 181.022 28.256C181.31 28.064 181.556 27.968 181.76 27.968C182.024 27.968 182.228 28.07 182.372 28.274L183.272 29.444Z" fill="#061A37"/>
<path d="M205.076 19.58C206.072 19.58 206.948 19.448 207.704 19.184C208.472 18.92 209.114 18.554 209.63 18.086C210.158 17.606 210.554 17.036 210.818 16.376C211.082 15.716 211.214 14.99 211.214 14.198C211.214 12.554 210.704 11.27 209.684 10.346C208.676 9.422 207.14 8.96 205.076 8.96H200.936V19.58H205.076ZM205.076 6.206C206.708 6.206 208.124 6.398 209.324 6.782C210.536 7.154 211.538 7.688 212.33 8.384C213.122 9.08 213.71 9.92 214.094 10.904C214.49 11.888 214.688 12.986 214.688 14.198C214.688 15.398 214.478 16.496 214.058 17.492C213.638 18.488 213.02 19.346 212.204 20.066C211.4 20.786 210.398 21.35 209.198 21.758C208.01 22.154 206.636 22.352 205.076 22.352H200.936V32H197.462V6.206H205.076ZM221.018 17.42C221.594 16.172 222.302 15.2 223.142 14.504C223.982 13.796 225.008 13.442 226.22 13.442C226.604 13.442 226.97 13.484 227.318 13.568C227.678 13.652 227.996 13.784 228.272 13.964L228.038 16.358C227.966 16.658 227.786 16.808 227.498 16.808C227.33 16.808 227.084 16.772 226.76 16.7C226.436 16.628 226.07 16.592 225.662 16.592C225.086 16.592 224.57 16.676 224.114 16.844C223.67 17.012 223.268 17.264 222.908 17.6C222.56 17.924 222.242 18.332 221.954 18.824C221.678 19.304 221.426 19.856 221.198 20.48V32H217.976V13.766H219.812C220.16 13.766 220.4 13.832 220.532 13.964C220.664 14.096 220.754 14.324 220.802 14.648L221.018 17.42ZM238.037 13.478C239.369 13.478 240.569 13.7 241.637 14.144C242.705 14.588 243.617 15.218 244.373 16.034C245.129 16.85 245.705 17.84 246.101 19.004C246.509 20.156 246.713 21.446 246.713 22.874C246.713 24.314 246.509 25.61 246.101 26.762C245.705 27.914 245.129 28.898 244.373 29.714C243.617 30.53 242.705 31.16 241.637 31.604C240.569 32.036 239.369 32.252 238.037 32.252C236.693 32.252 235.481 32.036 234.401 31.604C233.333 31.16 232.421 30.53 231.665 29.714C230.909 28.898 230.327 27.914 229.919 26.762C229.523 25.61 229.325 24.314 229.325 22.874C229.325 21.446 229.523 20.156 229.919 19.004C230.327 17.84 230.909 16.85 231.665 16.034C232.421 15.218 233.333 14.588 234.401 14.144C235.481 13.7 236.693 13.478 238.037 13.478ZM238.037 29.75C239.837 29.75 241.181 29.15 242.069 27.95C242.957 26.738 243.401 25.052 243.401 22.892C243.401 20.72 242.957 19.028 242.069 17.816C241.181 16.604 239.837 15.998 238.037 15.998C237.125 15.998 236.327 16.154 235.643 16.466C234.971 16.778 234.407 17.228 233.951 17.816C233.507 18.404 233.171 19.13 232.943 19.994C232.727 20.846 232.619 21.812 232.619 22.892C232.619 25.052 233.063 26.738 233.951 27.95C234.851 29.15 236.213 29.75 238.037 29.75ZM254.16 13.766V33.35C254.16 34.082 254.064 34.76 253.872 35.384C253.68 36.02 253.374 36.572 252.954 37.04C252.534 37.508 251.994 37.874 251.334 38.138C250.686 38.414 249.906 38.552 248.994 38.552C248.61 38.552 248.256 38.522 247.932 38.462C247.608 38.402 247.284 38.312 246.96 38.192L247.086 36.464C247.11 36.356 247.152 36.272 247.212 36.212C247.26 36.164 247.332 36.134 247.428 36.122C247.524 36.11 247.65 36.104 247.806 36.104C247.95 36.116 248.136 36.122 248.364 36.122C249.3 36.122 249.966 35.9 250.362 35.456C250.758 35.024 250.956 34.322 250.956 33.35V13.766H254.16ZM254.826 8.042C254.826 8.354 254.76 8.648 254.628 8.924C254.508 9.188 254.34 9.428 254.124 9.644C253.92 9.848 253.68 10.01 253.404 10.13C253.128 10.25 252.834 10.31 252.522 10.31C252.21 10.31 251.916 10.25 251.64 10.13C251.376 10.01 251.142 9.848 250.938 9.644C250.734 9.428 250.572 9.188 250.452 8.924C250.332 8.648 250.272 8.354 250.272 8.042C250.272 7.73 250.332 7.436 250.452 7.16C250.572 6.872 250.734 6.626 250.938 6.422C251.142 6.206 251.376 6.038 251.64 5.918C251.916 5.798 252.21 5.738 252.522 5.738C252.834 5.738 253.128 5.798 253.404 5.918C253.68 6.038 253.92 6.206 254.124 6.422C254.34 6.626 254.508 6.872 254.628 7.16C254.76 7.436 254.826 7.73 254.826 8.042ZM271.629 20.894C271.629 20.15 271.521 19.472 271.305 18.86C271.101 18.236 270.795 17.702 270.387 17.258C269.991 16.802 269.505 16.454 268.929 16.214C268.353 15.962 267.699 15.836 266.967 15.836C265.431 15.836 264.213 16.286 263.313 17.186C262.425 18.074 261.873 19.31 261.657 20.894H271.629ZM274.221 29.444C273.825 29.924 273.351 30.344 272.799 30.704C272.247 31.052 271.653 31.34 271.017 31.568C270.393 31.796 269.745 31.964 269.073 32.072C268.401 32.192 267.735 32.252 267.075 32.252C265.815 32.252 264.651 32.042 263.583 31.622C262.527 31.19 261.609 30.566 260.829 29.75C260.061 28.922 259.461 27.902 259.029 26.69C258.597 25.478 258.381 24.086 258.381 22.514C258.381 21.242 258.573 20.054 258.957 18.95C259.353 17.846 259.917 16.892 260.649 16.088C261.381 15.272 262.275 14.636 263.331 14.18C264.387 13.712 265.575 13.478 266.895 13.478C267.987 13.478 268.995 13.664 269.919 14.036C270.855 14.396 271.659 14.924 272.331 15.62C273.015 16.304 273.549 17.156 273.933 18.176C274.317 19.184 274.509 20.336 274.509 21.632C274.509 22.136 274.455 22.472 274.347 22.64C274.239 22.808 274.035 22.892 273.735 22.892H261.549C261.585 24.044 261.741 25.046 262.017 25.898C262.305 26.75 262.701 27.464 263.205 28.04C263.709 28.604 264.309 29.03 265.005 29.318C265.701 29.594 266.481 29.732 267.345 29.732C268.149 29.732 268.839 29.642 269.415 29.462C270.003 29.27 270.507 29.066 270.927 28.85C271.347 28.634 271.695 28.436 271.971 28.256C272.259 28.064 272.505 27.968 272.709 27.968C272.973 27.968 273.177 28.07 273.321 28.274L274.221 29.444ZM291.134 17.006C291.038 17.138 290.942 17.24 290.846 17.312C290.75 17.384 290.618 17.42 290.45 17.42C290.27 17.42 290.072 17.348 289.856 17.204C289.64 17.048 289.37 16.88 289.046 16.7C288.734 16.52 288.344 16.358 287.876 16.214C287.42 16.058 286.856 15.98 286.184 15.98C285.284 15.98 284.492 16.142 283.808 16.466C283.124 16.778 282.548 17.234 282.08 17.834C281.624 18.434 281.276 19.16 281.036 20.012C280.808 20.864 280.694 21.818 280.694 22.874C280.694 23.978 280.82 24.962 281.072 25.826C281.324 26.678 281.678 27.398 282.134 27.986C282.602 28.562 283.16 29.006 283.808 29.318C284.468 29.618 285.206 29.768 286.022 29.768C286.802 29.768 287.444 29.678 287.948 29.498C288.452 29.306 288.866 29.096 289.19 28.868C289.526 28.64 289.802 28.436 290.018 28.256C290.246 28.064 290.468 27.968 290.684 27.968C290.948 27.968 291.152 28.07 291.296 28.274L292.196 29.444C291.8 29.936 291.35 30.356 290.846 30.704C290.342 31.052 289.796 31.346 289.208 31.586C288.632 31.814 288.026 31.982 287.39 32.09C286.754 32.198 286.106 32.252 285.446 32.252C284.306 32.252 283.244 32.042 282.26 31.622C281.288 31.202 280.442 30.596 279.722 29.804C279.002 29 278.438 28.016 278.03 26.852C277.622 25.688 277.418 24.362 277.418 22.874C277.418 21.518 277.604 20.264 277.976 19.112C278.36 17.96 278.912 16.97 279.632 16.142C280.364 15.302 281.258 14.648 282.314 14.18C283.382 13.712 284.606 13.478 285.986 13.478C287.27 13.478 288.398 13.688 289.37 14.108C290.354 14.516 291.224 15.098 291.98 15.854L291.134 17.006ZM301.234 32.288C299.794 32.288 298.684 31.886 297.904 31.082C297.136 30.278 296.752 29.12 296.752 27.608V16.448H294.556C294.364 16.448 294.202 16.394 294.07 16.286C293.938 16.166 293.872 15.986 293.872 15.746V14.468L296.86 14.09L297.598 8.456C297.634 8.276 297.712 8.132 297.832 8.024C297.964 7.904 298.132 7.844 298.336 7.844H299.956V14.126H305.23V16.448H299.956V27.392C299.956 28.16 300.142 28.73 300.514 29.102C300.886 29.474 301.366 29.66 301.954 29.66C302.29 29.66 302.578 29.618 302.818 29.534C303.07 29.438 303.286 29.336 303.466 29.228C303.646 29.12 303.796 29.024 303.916 28.94C304.048 28.844 304.162 28.796 304.258 28.796C304.426 28.796 304.576 28.898 304.708 29.102L305.644 30.632C305.092 31.148 304.426 31.556 303.646 31.856C302.866 32.144 302.062 32.288 301.234 32.288Z" fill="#0BAFF9"/>
</svg>
