<svg width="37" height="35" viewBox="0 0 37 35" fill="none" xmlns="http://www.w3.org/2000/svg">
<path d="M4.00586 4V31.4803" stroke="#0BAFF9" stroke-width="7" stroke-linecap="round"/>
<path d="M4.43836 20.5411C4.4917 20.5291 4.62765 20.3842 4.68314 20.3373C4.82624 20.2162 5.34147 19.6356 5.42707 19.4604C5.77845 19.0342 5.72519 19.0479 6.03485 18.6333C6.27937 18.3059 6.69213 17.8992 6.90662 17.5552C7.09543 17.2525 7.27719 17.1319 7.49252 16.8542C7.95688 16.3984 8.29559 16.0239 9.11096 15.5476C9.40599 15.3752 10.054 15.1877 10.3635 15.0617C11.2471 14.8881 11.5738 14.836 12.0586 14.8245C12.722 14.8087 13.0601 14.9174 13.7361 15.0964C14.3208 15.2512 15.1674 15.7251 15.6611 16.1166C16.2636 16.5945 16.5619 16.689 17.1348 17.2092C17.7368 17.7558 18.4871 18.1489 19.0691 18.7178C19.6773 19.3123 20.4509 19.751 21.1924 20.1086C22.0257 20.5105 22.814 21.0816 23.7059 21.3235C24.5644 21.5563 25.4618 21.8784 26.3561 21.822C26.7565 21.7968 27.1313 21.6901 27.5281 21.6555C28.0521 21.6098 28.6625 21.3042 29.1549 21.1396C29.7363 20.9452 30.215 20.5477 30.6496 20.0902C30.8658 19.8626 31.0568 19.6484 31.2505 19.3986C31.4482 19.1437 31.4264 19.0736 31.5695 18.7888C31.636 18.6566 31.7428 18.2929 31.7743 18.1469C31.805 18.0046 31.886 17.8872 31.9182 17.7543C31.9761 17.5153 32.0672 17.3954 32.0954 17.1524C32.1153 16.9813 32.295 16.6831 32.3489 16.5107C32.3927 16.3707 32.552 16.1068 32.5393 15.9608" stroke="#0BAFF9" stroke-width="7" stroke-linecap="round"/>
</svg>
