<svg width="41" height="42" viewBox="0 0 41 42" fill="none" xmlns="http://www.w3.org/2000/svg">
<path d="M4.00671 4V38.0501" stroke="#0BAFF9" stroke-width="7" stroke-linecap="round"/>
<path d="M4.51394 24.4957C4.57647 24.4808 4.73586 24.3014 4.80093 24.2432C4.96869 24.0932 5.57276 23.3737 5.67311 23.1567C6.08508 22.6286 6.02264 22.6456 6.38568 22.1318C6.67236 21.7262 7.1563 21.2222 7.40777 20.796C7.62913 20.4209 7.84223 20.2715 8.09468 19.9274C8.6391 19.3626 9.03621 18.8986 9.99215 18.3084C10.3381 18.0948 11.0978 17.8624 11.4607 17.7063C12.4966 17.4912 12.8796 17.4267 13.4481 17.4124C14.2258 17.3929 14.6222 17.5276 15.4147 17.7494C16.1002 17.9412 17.0928 18.5283 17.6716 19.0134C18.3781 19.6056 18.7278 19.7227 19.3995 20.3673C20.1053 21.0446 20.9849 21.5317 21.6672 22.2365C22.3803 22.9732 23.2873 23.5168 24.1566 23.9598C25.1336 24.4578 26.0578 25.1655 27.1034 25.4651C28.11 25.7536 29.1621 26.1528 30.2106 26.0829C30.68 26.0516 31.1194 25.9194 31.5847 25.8765C32.199 25.8199 32.9147 25.4413 33.492 25.2373C34.1735 24.9964 34.7349 24.5039 35.2444 23.937C35.4979 23.655 35.7218 23.3897 35.9489 23.0801C36.1807 22.7642 36.1551 22.6774 36.3229 22.3245C36.4008 22.1607 36.5261 21.7101 36.563 21.5292C36.5989 21.3528 36.694 21.2074 36.7317 21.0427C36.7996 20.7465 36.9063 20.598 36.9395 20.2969C36.9628 20.0848 37.1735 19.7154 37.2367 19.5018C37.288 19.3283 37.4748 19.0013 37.4599 18.8204" stroke="#0BAFF9" stroke-width="7" stroke-linecap="round"/>
</svg>
