<svg width="397" height="149" viewBox="0 0 397 149" fill="none" xmlns="http://www.w3.org/2000/svg">
<path d="M25.9393 110.578C24.6469 111.708 23.2749 111.184 21.8232 109.004C20.4522 106.824 19.0416 103.555 17.5914 99.1953C16.1412 94.7552 14.6915 89.4674 13.2425 83.332C11.8741 77.1966 10.5464 70.6979 9.25921 63.8359C7.97206 56.9739 6.72534 50.0312 5.51903 43.0078C4.3935 35.9036 3.38877 29.2435 2.50485 23.0273C2.50559 21.8971 2.46597 20.7669 2.38599 19.6367C2.38679 18.4258 2.5086 17.3359 2.75142 16.3672C3.07503 15.3177 3.60038 14.3893 4.32748 13.582C5.1353 12.7747 6.34664 12.1693 7.96149 11.7656C8.123 11.6849 8.44586 11.7656 8.93008 12.0078C9.49507 12.1693 10.06 12.4115 10.6249 12.7344C11.1899 12.9766 11.674 13.2591 12.0775 13.582C12.5616 13.9049 12.8844 14.1875 13.0457 14.4297C11.9862 29.526 13.7122 44.2187 18.2237 58.5078C18.466 58.2656 19.1124 57.4583 20.1628 56.0859C21.2132 54.6328 22.5463 52.9779 24.1621 51.1211C25.778 49.1836 27.5957 47.125 29.6154 44.9453C31.7158 42.7656 33.8968 40.7474 36.1585 38.8906C38.4201 37.0338 40.6815 35.5 42.9427 34.2891C45.204 32.9974 47.3841 32.3516 49.4831 32.3516C50.694 32.3516 51.8644 32.6341 52.9942 33.1992C54.2048 33.7643 54.8096 34.8542 54.8085 36.4687C54.8084 36.6302 54.7679 36.8724 54.6869 37.1953C54.606 37.4375 54.5655 37.6393 54.5654 37.8008C53.273 38.931 51.294 40.6667 48.6284 43.0078C46.0435 45.349 43.297 47.9726 40.3888 50.8789C37.4807 53.7851 34.6935 56.8125 32.0274 59.9609C29.3612 63.1094 27.3411 66.0963 25.9668 68.9219C25.7243 69.4062 25.6433 69.8502 25.7237 70.2539C25.8042 70.5768 25.8847 70.9805 25.9651 71.4648C26.8529 71.7877 28.2654 72.2721 30.2024 72.918C32.1395 73.5638 34.2783 74.3307 36.6189 75.2187C38.9595 76.026 41.4615 76.914 44.125 77.8828C46.7884 78.7708 49.2904 79.6588 51.631 80.5469C53.9716 81.4349 56.07 82.2422 57.9263 82.9687C59.8634 83.6146 61.3162 84.0989 62.2847 84.4219C63.4146 84.9062 64.3428 85.2292 65.0692 85.3906C65.7957 85.5521 66.3606 85.7943 66.7641 86.1172C67.1675 86.3594 67.4499 86.7226 67.611 87.207C67.7721 87.6914 67.8524 88.418 67.8517 89.3867C67.8502 91.7278 67.2841 93.2617 66.1534 93.9883C65.0227 94.7148 63.4079 95.0781 61.3089 95.0781C55.0931 94.6745 48.9989 93.3828 43.0263 91.2031C37.0539 88.9427 31.001 86.2383 24.8676 83.0898C24.6244 84.6237 24.704 86.3997 25.1063 88.418C25.5893 90.4362 26.1531 92.4544 26.7976 94.4726C27.4421 96.4909 28.0463 98.4687 28.6101 100.406C29.2547 102.344 29.6168 104.079 29.6965 105.613C29.857 107.147 29.6947 108.358 29.2098 109.246C28.7248 110.134 27.6347 110.578 25.9393 110.578Z" fill="black"/>
<path d="M184.237 68.3164C184.242 60.4857 186.062 54.6732 189.697 50.8789C193.333 47.0846 198.904 45.1875 206.412 45.1875C209.48 45.1875 212.628 45.47 215.857 46.0351C219.166 46.6003 222.193 47.6094 224.937 49.0625C227.681 50.4349 229.9 52.3724 231.593 54.875C233.368 57.3776 234.254 60.6068 234.251 64.5625C234.248 68.9219 233.277 73.039 231.337 76.914C229.477 80.7083 227.093 84.3008 224.185 87.6914C221.357 91.0013 218.207 94.1094 214.733 97.0156C211.341 99.8411 208.15 102.546 205.162 105.129C205 105.452 204.838 106.138 204.676 107.187C204.595 108.156 204.554 108.802 204.554 109.125C204.552 111.789 205.317 114.453 206.849 117.117C208.462 119.862 210.196 122.607 212.051 125.352C213.906 128.177 215.599 131.083 217.131 134.07C218.663 137.057 219.428 140.165 219.426 143.395C219.424 145.332 219.02 146.462 218.212 146.785C217.405 147.189 215.709 147.391 213.126 147.391C211.512 146.745 209.898 145.211 208.285 142.789C206.753 140.448 205.181 137.542 203.568 134.07C202.037 130.599 200.506 126.684 198.975 122.324C197.524 118.046 196.114 113.686 194.745 109.246C193.456 104.725 192.208 100.285 191 95.9258C189.873 91.4857 188.866 87.4088 187.98 83.6953C187.095 79.9818 186.29 76.793 185.565 74.1289C184.921 71.3841 184.478 69.4466 184.237 68.3164ZM194.529 69.4062C194.528 70.6172 194.608 72.3932 194.768 74.7344C194.928 76.9948 195.249 79.2552 195.732 81.5156C196.296 83.776 197.102 85.7539 198.15 87.4492C199.198 89.0638 200.651 89.8711 202.508 89.8711C205.01 89.8711 207.513 89.0234 210.017 87.3281C212.602 85.6328 214.863 83.4935 216.803 80.9101C218.823 78.3268 220.439 75.582 221.652 72.6758C222.945 69.6888 223.593 66.9844 223.595 64.5625C223.596 62.5443 223.113 60.97 222.145 59.8398C221.177 58.6289 219.926 57.7005 218.393 57.0547C216.94 56.3281 215.366 55.8841 213.671 55.7226C211.976 55.4805 210.361 55.3594 208.827 55.3594C204.226 55.3594 200.673 56.6107 198.169 59.1133C195.745 61.5351 194.532 64.9661 194.529 69.4062ZM355.963 44.4609C355.965 42.1198 355.805 39.8594 355.483 37.6797C355.162 35.4193 355.083 33.4414 355.245 31.7461C355.408 29.97 356.014 28.5573 357.064 27.5078C358.195 26.4583 360.214 25.9336 363.12 25.9336C364.007 27.7904 364.853 30.6159 365.658 34.4102C366.543 38.2044 367.388 42.5638 368.192 47.4883C368.996 52.4128 369.759 57.7812 370.482 63.5937C371.205 69.3255 371.847 75.0976 372.408 80.9101C373.05 86.7226 373.571 92.4544 373.971 98.1055C374.452 103.676 374.812 108.762 375.051 113.363C372.386 115.139 370.246 115.26 368.633 113.727C367.019 112.193 365.689 109.609 364.642 105.977C363.595 102.263 362.79 97.7825 362.229 92.5351C361.667 87.207 361.105 81.7174 360.544 76.0664C360.064 70.3346 359.462 64.7239 358.739 59.2344C358.016 53.6641 357.091 48.7396 355.963 44.4609Z" fill="#7B61FF"/>
<path d="M93.0103 97.6514L93.0103 37.9999" stroke="black" stroke-width="11" stroke-linecap="round"/>
<path d="M97.2725 56.2607H149.011" stroke="black" stroke-width="11" stroke-linecap="round"/>
<path d="M97.2725 80.6104H149.011" stroke="black" stroke-width="11" stroke-linecap="round"/>
<path d="M259 67.2568L276.401 70.375C282.792 71.5204 289.326 71.6379 295.754 70.7231L320.113 67.2568" stroke="#7B61FF" stroke-width="11" stroke-linecap="round"/>
<path d="M300.896 48.4359L304.152 50.7549C309.334 54.4456 313.893 58.898 317.664 63.9519L319.767 66.7699" stroke="#7B61FF" stroke-width="11" stroke-linecap="round"/>
<path d="M301.829 87.0576L302.077 86.9022C309.344 82.3471 315.548 76.3623 320.288 69.334L320.7 68.7236" stroke="#7B61FF" stroke-width="11" stroke-linecap="round"/>
</svg>
