<svg width="397" height="149" viewBox="0 0 397 149" fill="none" xmlns="http://www.w3.org/2000/svg">
<path d="M99.0117 44V100" stroke="#0BAFF9" stroke-width="10" stroke-linecap="round"/>
<path d="M100.99 65.5554C101.093 65.531 101.355 65.2359 101.462 65.1402C101.739 64.8935 102.733 63.7103 102.899 63.3532C103.577 62.4848 103.474 62.5127 104.072 61.6678C104.545 61.0006 105.342 60.1717 105.756 59.4708C106.12 58.8539 106.471 58.6082 106.887 58.0423C107.784 57.1135 108.438 56.3502 110.012 55.3796C110.582 55.0284 111.834 54.6462 112.431 54.3895C114.137 54.0357 114.768 53.9296 115.705 53.9061C116.986 53.8739 117.638 54.0955 118.944 54.4602C120.073 54.7756 121.708 55.7414 122.661 56.5392C123.825 57.513 124.401 57.7056 125.507 58.7657C126.669 59.8797 128.118 60.6807 129.242 61.84C130.416 63.0515 131.91 63.9455 133.342 64.6742C134.951 65.4931 136.474 66.657 138.196 67.1498C139.854 67.6243 141.587 68.2808 143.314 68.1658C144.087 68.1144 144.81 67.897 145.577 67.8265C146.588 67.7334 147.767 67.1106 148.718 66.7751C149.841 66.3789 150.765 65.569 151.604 64.6366C152.022 64.1728 152.391 63.7364 152.765 63.2274C153.147 62.7078 153.104 62.565 153.381 61.9847C153.509 61.7152 153.715 60.9742 153.776 60.6766C153.835 60.3865 153.992 60.1474 154.054 59.8766C154.166 59.3894 154.342 59.1452 154.396 58.65C154.435 58.3012 154.782 57.6937 154.886 57.3423C154.97 57.057 155.278 56.5193 155.253 56.2217" stroke="#0BAFF9" stroke-width="10" stroke-linecap="round"/>
<path d="M102.132 87.2703C102.235 87.2458 102.498 86.9507 102.605 86.855C102.881 86.6083 103.876 85.4251 104.041 85.0681C104.72 84.1996 104.617 84.2275 105.215 83.3826C105.687 82.7154 106.484 81.8866 106.898 81.1857C107.263 80.5687 107.614 80.323 108.03 79.7572C108.927 78.8283 109.581 78.0651 111.155 77.0945C111.725 76.7432 112.976 76.361 113.574 76.1043C115.28 75.7506 115.911 75.6445 116.847 75.6209C118.128 75.5888 118.781 75.8104 120.086 76.1751C121.215 76.4905 122.85 77.4562 123.804 78.254C124.967 79.2279 125.543 79.4204 126.649 80.4806C127.812 81.5945 129.261 82.3956 130.385 83.5548C131.559 84.7663 133.053 85.6604 134.485 86.389C136.094 87.2079 137.616 88.3719 139.338 88.8647C140.996 89.3391 142.729 89.9956 144.456 89.8807C145.229 89.8292 145.953 89.6118 146.719 89.5413C147.731 89.4482 148.91 88.8255 149.861 88.4899C150.983 88.0938 151.908 87.2838 152.747 86.3514C153.165 85.8877 153.533 85.4513 153.907 84.9422C154.289 84.4226 154.247 84.2799 154.523 83.6995C154.652 83.4301 154.858 82.689 154.919 82.3915C154.978 82.1013 155.135 81.8622 155.197 81.5914C155.308 81.1042 155.484 80.8601 155.539 80.3648C155.577 80.0161 155.924 79.4085 156.028 79.0572C156.113 78.7718 156.421 78.2341 156.396 77.9366" stroke="#0BAFF9" stroke-width="10" stroke-linecap="round"/>
<path d="M104 115L151 36" stroke="black" stroke-width="9" stroke-linecap="round"/>
<path d="M25.9393 110.578C24.6469 111.708 23.2749 111.184 21.8232 109.004C20.4522 106.824 19.0416 103.555 17.5914 99.1953C16.1412 94.7552 14.6915 89.4674 13.2425 83.332C11.8741 77.1966 10.5464 70.6979 9.25921 63.8359C7.97206 56.9739 6.72534 50.0312 5.51903 43.0078C4.3935 35.9036 3.38877 29.2435 2.50485 23.0273C2.50559 21.8971 2.46597 20.7669 2.38599 19.6367C2.38679 18.4258 2.5086 17.3359 2.75142 16.3672C3.07503 15.3177 3.60038 14.3893 4.32748 13.582C5.1353 12.7747 6.34664 12.1693 7.96149 11.7656C8.123 11.6849 8.44586 11.7656 8.93008 12.0078C9.49507 12.1693 10.06 12.4115 10.6249 12.7344C11.1899 12.9766 11.674 13.2591 12.0775 13.582C12.5616 13.9049 12.8844 14.1875 13.0457 14.4297C11.9862 29.526 13.7122 44.2187 18.2237 58.5078C18.466 58.2656 19.1124 57.4583 20.1628 56.0859C21.2132 54.6328 22.5463 52.9779 24.1621 51.1211C25.778 49.1836 27.5957 47.125 29.6154 44.9453C31.7158 42.7656 33.8968 40.7474 36.1585 38.8906C38.4201 37.0338 40.6815 35.5 42.9427 34.2891C45.204 32.9974 47.3841 32.3516 49.4831 32.3516C50.694 32.3516 51.8644 32.6341 52.9942 33.1992C54.2048 33.7643 54.8096 34.8542 54.8085 36.4687C54.8084 36.6302 54.7679 36.8724 54.6869 37.1953C54.606 37.4375 54.5655 37.6393 54.5654 37.8008C53.273 38.931 51.294 40.6667 48.6284 43.0078C46.0435 45.349 43.297 47.9726 40.3888 50.8789C37.4807 53.7851 34.6935 56.8125 32.0274 59.9609C29.3612 63.1094 27.3411 66.0963 25.9668 68.9219C25.7243 69.4062 25.6433 69.8502 25.7237 70.2539C25.8042 70.5768 25.8847 70.9805 25.9651 71.4648C26.8529 71.7877 28.2654 72.2721 30.2024 72.918C32.1395 73.5638 34.2783 74.3307 36.6189 75.2187C38.9595 76.026 41.4615 76.914 44.125 77.8828C46.7884 78.7708 49.2904 79.6588 51.631 80.5469C53.9716 81.4349 56.07 82.2422 57.9263 82.9687C59.8634 83.6146 61.3162 84.0989 62.2847 84.4219C63.4146 84.9062 64.3428 85.2292 65.0692 85.3906C65.7957 85.5521 66.3606 85.7943 66.7641 86.1172C67.1675 86.3594 67.4499 86.7226 67.611 87.207C67.7721 87.6914 67.8524 88.418 67.8517 89.3867C67.8502 91.7278 67.2841 93.2617 66.1534 93.9883C65.0227 94.7148 63.4079 95.0781 61.3089 95.0781C55.0931 94.6745 48.9989 93.3828 43.0263 91.2031C37.0539 88.9427 31.001 86.2383 24.8676 83.0898C24.6244 84.6237 24.704 86.3997 25.1063 88.418C25.5893 90.4362 26.1531 92.4544 26.7976 94.4726C27.4421 96.4909 28.0463 98.4687 28.6101 100.406C29.2547 102.344 29.6168 104.079 29.6965 105.613C29.857 107.147 29.6947 108.358 29.2098 109.246C28.7248 110.134 27.6347 110.578 25.9393 110.578ZM184.237 68.3164C184.242 60.4857 186.062 54.6732 189.697 50.8789C193.333 47.0846 198.904 45.1875 206.412 45.1875C209.48 45.1875 212.628 45.47 215.857 46.0351C219.166 46.6003 222.193 47.6094 224.937 49.0625C227.681 50.4349 229.9 52.3724 231.593 54.875C233.368 57.3776 234.254 60.6068 234.251 64.5625C234.248 68.9219 233.277 73.039 231.337 76.914C229.477 80.7083 227.093 84.3008 224.185 87.6914C221.357 91.0013 218.207 94.1094 214.733 97.0156C211.341 99.8411 208.15 102.546 205.162 105.129C205 105.452 204.838 106.138 204.676 107.187C204.595 108.156 204.554 108.802 204.554 109.125C204.552 111.789 205.317 114.453 206.849 117.117C208.462 119.862 210.196 122.607 212.051 125.352C213.906 128.177 215.599 131.083 217.131 134.07C218.663 137.057 219.428 140.165 219.426 143.395C219.424 145.332 219.02 146.462 218.212 146.785C217.405 147.189 215.709 147.391 213.126 147.391C211.512 146.745 209.898 145.211 208.285 142.789C206.753 140.448 205.181 137.542 203.568 134.07C202.037 130.599 200.506 126.684 198.975 122.324C197.524 118.046 196.114 113.686 194.745 109.246C193.456 104.725 192.208 100.285 191 95.9258C189.873 91.4857 188.866 87.4088 187.98 83.6953C187.095 79.9818 186.29 76.793 185.565 74.1289C184.921 71.3841 184.478 69.4466 184.237 68.3164ZM194.529 69.4062C194.528 70.6172 194.608 72.3932 194.768 74.7344C194.928 76.9948 195.249 79.2552 195.732 81.5156C196.296 83.776 197.102 85.7539 198.15 87.4492C199.198 89.0638 200.651 89.8711 202.508 89.8711C205.01 89.8711 207.513 89.0234 210.017 87.3281C212.602 85.6328 214.863 83.4935 216.803 80.9101C218.823 78.3268 220.439 75.582 221.652 72.6758C222.945 69.6888 223.593 66.9844 223.595 64.5625C223.596 62.5443 223.113 60.97 222.145 59.8398C221.177 58.6289 219.926 57.7005 218.393 57.0547C216.94 56.3281 215.366 55.8841 213.671 55.7226C211.976 55.4805 210.361 55.3594 208.827 55.3594C204.226 55.3594 200.673 56.6107 198.169 59.1133C195.745 61.5351 194.532 64.9661 194.529 69.4062ZM355.963 44.4609C355.965 42.1198 355.805 39.8594 355.483 37.6797C355.162 35.4193 355.083 33.4414 355.245 31.7461C355.408 29.97 356.014 28.5573 357.064 27.5078C358.195 26.4583 360.214 25.9336 363.12 25.9336C364.007 27.7904 364.853 30.6159 365.658 34.4102C366.543 38.2044 367.388 42.5638 368.192 47.4883C368.996 52.4128 369.759 57.7812 370.482 63.5937C371.205 69.3255 371.847 75.0976 372.408 80.9101C373.05 86.7226 373.571 92.4544 373.971 98.1055C374.452 103.676 374.812 108.762 375.051 113.363C372.386 115.139 370.246 115.26 368.633 113.727C367.019 112.193 365.689 109.609 364.642 105.977C363.595 102.263 362.79 97.7825 362.229 92.5351C361.667 87.207 361.105 81.7174 360.544 76.0664C360.064 70.3346 359.462 64.7239 358.739 59.2344C358.016 53.6641 357.091 48.7396 355.963 44.4609Z" fill="black"/>
<path d="M261.001 74.2568L278.402 77.375C284.793 78.5204 291.327 78.6379 297.755 77.7231L322.114 74.2568" stroke="black" stroke-width="11" stroke-linecap="round"/>
<path d="M302.897 55.4359L306.153 57.7549C311.335 61.4456 315.894 65.898 319.665 70.9519L321.768 73.7699" stroke="black" stroke-width="11" stroke-linecap="round"/>
<path d="M303.83 94.0576L304.078 93.9022C311.345 89.3471 317.549 83.3623 322.289 76.334L322.701 75.7236" stroke="black" stroke-width="11" stroke-linecap="round"/>
</svg>
