<svg width="471" height="276" viewBox="0 0 471 276" fill="none" xmlns="http://www.w3.org/2000/svg">
<rect x="2.5" y="2.5" width="465.136" height="271" fill="white" stroke="black" stroke-width="5"/>
<path d="M81.4961 208.57C81.4961 213.897 80.9153 218.515 79.7536 222.425C78.6203 226.307 77.0619 229.522 75.0786 232.072C73.0953 234.622 70.7436 236.521 68.0236 237.767C65.3319 239.014 62.4419 239.638 59.3536 239.638C56.2369 239.638 53.3328 239.014 50.6411 237.767C47.9778 236.521 45.6544 234.622 43.6711 232.072C41.6878 229.522 40.1294 226.307 38.9961 222.425C37.8628 218.515 37.2961 213.897 37.2961 208.57C37.2961 203.243 37.8628 198.625 38.9961 194.715C40.1294 190.805 41.6878 187.575 43.6711 185.025C45.6544 182.447 47.9778 180.534 50.6411 179.287C53.3328 178.041 56.2369 177.417 59.3536 177.417C62.4419 177.417 65.3319 178.041 68.0236 179.287C70.7436 180.534 73.0953 182.447 75.0786 185.025C77.0619 187.575 78.6203 190.805 79.7536 194.715C80.9153 198.625 81.4961 203.243 81.4961 208.57ZM73.6336 208.57C73.6336 203.923 73.2369 200.027 72.4436 196.882C71.6786 193.709 70.6303 191.159 69.2986 189.232C67.9953 187.306 66.4794 185.932 64.7511 185.11C63.0228 184.26 61.2236 183.835 59.3536 183.835C57.4836 183.835 55.6844 184.26 53.9561 185.11C52.2278 185.932 50.7119 187.306 49.4086 189.232C48.1053 191.159 47.0569 193.709 46.2636 196.882C45.4986 200.027 45.1161 203.923 45.1161 208.57C45.1161 213.217 45.4986 217.112 46.2636 220.257C47.0569 223.402 48.1053 225.938 49.4086 227.865C50.7119 229.792 52.2278 231.18 53.9561 232.03C55.6844 232.852 57.4836 233.262 59.3536 233.262C61.2236 233.262 63.0228 232.852 64.7511 232.03C66.4794 231.18 67.9953 229.792 69.2986 227.865C70.6303 225.938 71.6786 223.402 72.4436 220.257C73.2369 217.112 73.6336 213.217 73.6336 208.57Z" fill="black"/>
<path d="M78.0111 93.22V99H45.3711V93.22H58.4186V51.6975C58.4186 50.4508 58.4611 49.19 58.5461 47.915L47.7086 57.2225C47.3403 57.5342 46.9719 57.7325 46.6036 57.8175C46.2353 57.8742 45.8953 57.8742 45.5836 57.8175C45.2719 57.7608 44.9744 57.6475 44.6911 57.4775C44.4361 57.3075 44.2378 57.1233 44.0961 56.925L41.7161 53.6525L59.8636 37.97H66.0261V93.22H78.0111Z" fill="black"/>
<rect x="2.5" y="139.331" width="465.136" height="134.169" stroke="black" stroke-width="5"/>
<rect x="2.5" y="2.5" width="120.136" height="271" stroke="black" stroke-width="5"/>
<circle cx="191.212" cy="209.924" r="35.178" stroke="black" stroke-width="8"/>
<circle cx="397.042" cy="209.924" r="35.178" stroke="black" stroke-width="8"/>
<path d="M293.539 148.525L293.539 62.4947" stroke="#0BAFF9" stroke-width="8" stroke-linecap="round"/>
<path d="M272.492 79.7373L293.502 60.4184" stroke="#0BAFF9" stroke-width="8" stroke-linecap="round"/>
<line x1="4" y1="-4" x2="32.2304" y2="-4" transform="matrix(-0.736103 -0.676869 0.736103 -0.676869 320.213 79.4893)" stroke="#0BAFF9" stroke-width="8" stroke-linecap="round"/>
<circle cx="294.127" cy="184.195" r="35.178" stroke="black" stroke-width="8"/>
</svg>
