<svg width="2525" height="503" viewBox="0 0 2525 503" fill="none" xmlns="http://www.w3.org/2000/svg">
<path d="M2037.75 416.57C2037.75 421.897 2037.17 426.515 2036.01 430.425C2034.87 434.307 2033.32 437.522 2031.33 440.072C2029.35 442.622 2027 444.521 2024.28 445.767C2021.59 447.014 2018.7 447.638 2015.61 447.638C2012.49 447.638 2009.59 447.014 2006.9 445.767C2004.23 444.521 2001.91 442.622 1999.93 440.072C1997.94 437.522 1996.38 434.307 1995.25 430.425C1994.12 426.515 1993.55 421.897 1993.55 416.57C1993.55 411.243 1994.12 406.625 1995.25 402.715C1996.38 398.805 1997.94 395.575 1999.93 393.025C2001.91 390.447 2004.23 388.534 2006.9 387.287C2009.59 386.041 2012.49 385.417 2015.61 385.417C2018.7 385.417 2021.59 386.041 2024.28 387.287C2027 388.534 2029.35 390.447 2031.33 393.025C2033.32 395.575 2034.87 398.805 2036.01 402.715C2037.17 406.625 2037.75 411.243 2037.75 416.57ZM2029.89 416.57C2029.89 411.923 2029.49 408.027 2028.7 404.882C2027.93 401.709 2026.88 399.159 2025.55 397.232C2024.25 395.306 2022.73 393.932 2021.01 393.11C2019.28 392.26 2017.48 391.835 2015.61 391.835C2013.74 391.835 2011.94 392.26 2010.21 393.11C2008.48 393.932 2006.97 395.306 2005.66 397.232C2004.36 399.159 2003.31 401.709 2002.52 404.882C2001.75 408.027 2001.37 411.923 2001.37 416.57C2001.37 421.217 2001.75 425.112 2002.52 428.257C2003.31 431.402 2004.36 433.938 2005.66 435.865C2006.97 437.792 2008.48 439.18 2010.21 440.03C2011.94 440.852 2013.74 441.262 2015.61 441.262C2017.48 441.262 2019.28 440.852 2021.01 440.03C2022.73 439.18 2024.25 437.792 2025.55 435.865C2026.88 433.938 2027.93 431.402 2028.7 428.257C2029.49 425.112 2029.89 421.217 2029.89 416.57Z" fill="black"/>
<path d="M2034.27 271.22V277H2001.62V271.22H2014.67V229.697C2014.67 228.451 2014.72 227.19 2014.8 225.915L2003.96 235.222C2003.59 235.534 2003.23 235.732 2002.86 235.817C2002.49 235.874 2002.15 235.874 2001.84 235.817C2001.53 235.761 2001.23 235.647 2000.95 235.477C2000.69 235.307 2000.49 235.123 2000.35 234.925L1997.97 231.652L2016.12 215.97H2022.28V271.22H2034.27Z" fill="black"/>
<rect x="1943.8" y="2.5" width="578.698" height="497.386" stroke="black" stroke-width="5"/>
<rect x="1943.8" y="332.1" width="578.698" height="167.786" stroke="black" stroke-width="5"/>
<rect x="1943.8" y="332.1" width="578.698" height="167.786" stroke="black" stroke-width="5"/>
<rect x="1943.8" y="162.218" width="578.698" height="337.668" stroke="black" stroke-width="5"/>
<rect x="1943.8" y="2.5" width="150.362" height="497.386" stroke="black" stroke-width="5"/>
<circle cx="2178.7" cy="420.349" r="43.6415" stroke="black" stroke-width="10"/>
<circle cx="2306.48" cy="420.349" r="43.6415" stroke="black" stroke-width="10"/>
<circle cx="2434.25" cy="420.349" r="43.6415" stroke="black" stroke-width="10"/>
<circle cx="2306.64" cy="250.641" r="43.6415" stroke="#0BAFF9" stroke-width="10"/>
<path d="M2032.95 101.817C2033.77 101.817 2034.42 102.058 2034.9 102.54C2035.38 103.022 2035.63 103.645 2035.63 104.41V109H1995V106.407C1995 105.869 1995.11 105.317 1995.34 104.75C1995.56 104.183 1995.92 103.659 1996.4 103.177L2015.91 83.585C2017.52 81.9417 2018.99 80.3692 2020.33 78.8675C2021.66 77.3375 2022.79 75.8075 2023.73 74.2775C2024.66 72.7475 2025.38 71.2033 2025.89 69.645C2026.4 68.0583 2026.66 66.3725 2026.66 64.5875C2026.66 62.8025 2026.37 61.2442 2025.81 59.9125C2025.24 58.5525 2024.46 57.4333 2023.47 56.555C2022.51 55.6767 2021.36 55.025 2020.03 54.6C2018.7 54.1467 2017.27 53.92 2015.74 53.92C2014.18 53.92 2012.75 54.1467 2011.44 54.6C2010.14 55.0533 2008.98 55.6908 2007.96 56.5125C2006.97 57.3058 2006.13 58.255 2005.45 59.36C2004.77 60.465 2004.29 61.6833 2004.01 63.015C2003.67 64.0067 2003.2 64.6725 2002.6 65.0125C2002.04 65.3242 2001.23 65.4092 2000.18 65.2675L1996.23 64.5875C1996.62 61.8108 1997.39 59.36 1998.52 57.235C1999.68 55.0817 2001.13 53.2825 2002.86 51.8375C2004.61 50.3925 2006.61 49.3017 2008.85 48.565C2011.09 47.8 2013.51 47.4175 2016.12 47.4175C2018.7 47.4175 2021.1 47.8 2023.34 48.565C2025.58 49.33 2027.52 50.4492 2029.17 51.9225C2030.81 53.3675 2032.1 55.1383 2033.03 57.235C2033.97 59.3317 2034.44 61.7117 2034.44 64.375C2034.44 66.6417 2034.1 68.7525 2033.42 70.7075C2032.74 72.6342 2031.81 74.4758 2030.65 76.2325C2029.49 77.9892 2028.15 79.7033 2026.62 81.375C2025.11 83.0467 2023.51 84.7325 2021.81 86.4325L2005.75 102.837C2006.88 102.526 2008.03 102.285 2009.19 102.115C2010.35 101.917 2011.47 101.817 2012.55 101.817H2032.95Z" fill="black"/>
<circle cx="2175.8" cy="250.467" r="43.6415" stroke="#EB5E2E" stroke-width="10"/>
<circle cx="2433.64" cy="85.6415" r="43.6415" stroke="#FF8D23" stroke-width="10"/>
<path d="M1073.75 336.57C1073.75 341.897 1073.17 346.515 1072.01 350.425C1070.87 354.307 1069.32 357.522 1067.33 360.072C1065.35 362.622 1063 364.521 1060.28 365.767C1057.59 367.014 1054.7 367.638 1051.61 367.638C1048.49 367.638 1045.59 367.014 1042.9 365.767C1040.23 364.521 1037.91 362.622 1035.93 360.072C1033.94 357.522 1032.38 354.307 1031.25 350.425C1030.12 346.515 1029.55 341.897 1029.55 336.57C1029.55 331.243 1030.12 326.625 1031.25 322.715C1032.38 318.805 1033.94 315.575 1035.93 313.025C1037.91 310.447 1040.23 308.534 1042.9 307.287C1045.59 306.041 1048.49 305.417 1051.61 305.417C1054.7 305.417 1057.59 306.041 1060.28 307.287C1063 308.534 1065.35 310.447 1067.33 313.025C1069.32 315.575 1070.87 318.805 1072.01 322.715C1073.17 326.625 1073.75 331.243 1073.75 336.57ZM1065.89 336.57C1065.89 331.923 1065.49 328.027 1064.7 324.882C1063.93 321.709 1062.88 319.159 1061.55 317.232C1060.25 315.306 1058.73 313.932 1057.01 313.11C1055.28 312.26 1053.48 311.835 1051.61 311.835C1049.74 311.835 1047.94 312.26 1046.21 313.11C1044.48 313.932 1042.97 315.306 1041.66 317.232C1040.36 319.159 1039.31 321.709 1038.52 324.882C1037.75 328.027 1037.37 331.923 1037.37 336.57C1037.37 341.217 1037.75 345.112 1038.52 348.257C1039.31 351.402 1040.36 353.938 1041.66 355.865C1042.97 357.792 1044.48 359.18 1046.21 360.03C1047.94 360.852 1049.74 361.262 1051.61 361.262C1053.48 361.262 1055.28 360.852 1057.01 360.03C1058.73 359.18 1060.25 357.792 1061.55 355.865C1062.88 353.938 1063.93 351.402 1064.7 348.257C1065.49 345.112 1065.89 341.217 1065.89 336.57Z" fill="black"/>
<path d="M1070.27 190.22V196H1037.62V190.22H1050.67V148.697C1050.67 147.451 1050.72 146.19 1050.8 144.915L1039.96 154.222C1039.59 154.534 1039.23 154.732 1038.86 154.817C1038.49 154.874 1038.15 154.874 1037.84 154.817C1037.53 154.761 1037.23 154.647 1036.95 154.477C1036.69 154.307 1036.49 154.123 1036.35 153.925L1033.97 150.652L1052.12 134.97H1058.28V190.22H1070.27Z" fill="black"/>
<rect x="979.685" y="82.3591" width="578.698" height="337.668" stroke="black" stroke-width="5"/>
<rect x="979.685" y="252.241" width="578.698" height="167.786" stroke="black" stroke-width="5"/>
<rect x="979.685" y="82.3591" width="150.362" height="337.668" stroke="black" stroke-width="5"/>
<circle cx="1343.81" cy="164.8" r="43.6415" stroke="#0BAFF9" stroke-width="10"/>
<circle cx="1217.49" cy="164.8" r="43.6415" stroke="#EB5E2E" stroke-width="10"/>
<circle cx="1473.04" cy="164.8" r="43.6415" stroke="#FF8D23" stroke-width="10"/>
<circle cx="1217.49" cy="340.49" r="43.6415" stroke="black" stroke-width="10"/>
<circle cx="1342.36" cy="340.49" r="43.6415" stroke="black" stroke-width="10"/>
<circle cx="1473.04" cy="340.49" r="43.6415" stroke="black" stroke-width="10"/>
<path d="M1581.21 103.566C1582.63 103.499 1583.9 103.091 1585.4 103.091C1588.59 103.091 1591.21 104.039 1594.1 104.991C1596.48 105.773 1598.11 106.468 1600.02 107.84C1602.83 109.85 1604.94 112.23 1607 114.727C1610.49 118.966 1611.65 125.004 1608.06 129.451C1605.9 132.129 1604.27 135.178 1601.5 137.512C1598.48 140.044 1594.95 142.532 1592.56 145.48C1588.72 150.226 1585.09 155.379 1585.09 161.141C1585.09 166.879 1594.99 168.995 1600 171.365C1601.8 172.215 1604.87 173.134 1606.14 174.519C1607.26 175.74 1605.66 175.7 1604.41 176.286C1601.05 177.87 1597.13 178.483 1593.89 179.915" stroke="black" stroke-width="8" stroke-linecap="round"/>
<path d="M1581.21 236.26C1582.63 236.318 1583.89 236.673 1585.38 236.673C1588.55 236.673 1591.16 235.849 1594.04 235.022C1596.41 234.342 1598.03 233.737 1599.93 232.544C1602.73 230.797 1604.83 228.728 1606.88 226.557C1610.36 222.872 1611.51 217.622 1607.93 213.756C1605.78 211.427 1604.17 208.777 1601.4 206.747C1598.4 204.546 1594.89 202.383 1592.51 199.819C1588.68 195.694 1585.07 191.214 1585.07 186.204C1585.07 181.215 1594.93 179.376 1599.92 177.315C1601.71 176.576 1604.76 175.777 1606.02 174.573C1607.14 173.512 1605.55 173.547 1604.31 173.036C1600.96 171.66 1597.05 171.127 1593.83 169.882" stroke="black" stroke-width="8" stroke-linecap="round"/>
<path d="M1920.97 15.6195C1919.2 15.4651 1917.61 14.5198 1915.73 14.5198C1911.76 14.5198 1908.47 16.7157 1904.86 18.9183C1901.88 20.7292 1899.86 22.3391 1897.46 25.516C1893.95 30.1697 1891.31 35.6793 1888.74 41.4605C1884.37 51.2737 1882.92 65.2536 1887.41 75.5487C1890.12 81.7504 1892.15 88.8079 1895.62 94.2117C1899.38 100.074 1903.8 105.834 1906.78 112.661C1911.59 123.647 1916.13 135.578 1916.13 148.918C1916.13 162.204 1903.75 167.102 1897.48 172.59C1895.23 174.557 1891.41 176.684 1889.82 179.89C1888.42 182.717 1890.41 182.625 1891.97 183.983C1896.18 187.649 1901.08 189.069 1905.13 192.383" stroke="black" stroke-width="8" stroke-linecap="round"/>
<path d="M1920.97 322.836C1919.2 322.971 1917.63 323.792 1915.76 323.792C1911.8 323.792 1908.53 321.883 1904.93 319.968C1901.97 318.394 1899.95 316.994 1897.57 314.232C1894.08 310.186 1891.45 305.396 1888.89 300.37C1884.54 291.838 1883.1 279.684 1887.57 270.733C1890.26 265.341 1892.28 259.206 1895.74 254.508C1899.48 249.41 1903.88 244.403 1906.85 238.468C1911.63 228.916 1916.15 218.543 1916.15 206.945C1916.15 195.394 1903.83 191.136 1897.59 186.365C1895.35 184.654 1891.54 182.805 1889.96 180.018C1888.57 177.56 1890.55 177.64 1892.11 176.459C1896.29 173.272 1901.17 172.038 1905.2 169.156" stroke="black" stroke-width="8" stroke-linecap="round"/>
<path d="M1609.02 88.1815C1607.94 88.4184 1607.26 89.485 1607.5 90.5639C1607.74 91.6428 1608.8 92.3253 1609.88 92.0885L1609.02 88.1815ZM1876.2 33.0217C1876.79 32.0913 1876.52 30.8545 1875.59 30.2591L1860.43 20.5565C1859.5 19.9611 1858.26 20.2327 1857.67 21.163C1857.07 22.0934 1857.34 23.3303 1858.27 23.9257L1871.75 32.5501L1863.12 46.0267C1862.53 46.9571 1862.8 48.194 1863.73 48.7894C1864.66 49.3848 1865.9 49.1132 1866.49 48.1829L1876.2 33.0217ZM1609.88 92.0885L1874.94 33.8971L1874.08 29.9902L1609.02 88.1815L1609.88 92.0885Z" fill="black"/>
<path d="M1609.22 244.883C1608.15 244.648 1607.08 245.331 1606.84 246.41C1606.61 247.489 1607.29 248.555 1608.37 248.791L1609.22 244.883ZM1875.59 306.6C1876.52 306.004 1876.79 304.767 1876.19 303.837L1866.48 288.685C1865.88 287.755 1864.64 287.485 1863.71 288.081C1862.79 288.677 1862.51 289.914 1863.11 290.844L1871.75 304.313L1858.28 312.95C1857.35 313.546 1857.08 314.783 1857.68 315.713C1858.27 316.643 1859.51 316.913 1860.44 316.317L1875.59 306.6ZM1608.37 248.791L1874.08 306.871L1874.94 302.963L1609.22 244.883L1608.37 248.791Z" fill="black"/>
<path d="M95.75 416.57C95.75 421.897 95.1692 426.515 94.0075 430.425C92.8742 434.307 91.3158 437.522 89.3325 440.072C87.3492 442.622 84.9975 444.521 82.2775 445.767C79.5858 447.014 76.6958 447.638 73.6075 447.638C70.4908 447.638 67.5867 447.014 64.895 445.767C62.2317 444.521 59.9083 442.622 57.925 440.072C55.9417 437.522 54.3833 434.307 53.25 430.425C52.1167 426.515 51.55 421.897 51.55 416.57C51.55 411.243 52.1167 406.625 53.25 402.715C54.3833 398.805 55.9417 395.575 57.925 393.025C59.9083 390.447 62.2317 388.534 64.895 387.287C67.5867 386.041 70.4908 385.417 73.6075 385.417C76.6958 385.417 79.5858 386.041 82.2775 387.287C84.9975 388.534 87.3492 390.447 89.3325 393.025C91.3158 395.575 92.8742 398.805 94.0075 402.715C95.1692 406.625 95.75 411.243 95.75 416.57ZM87.8875 416.57C87.8875 411.923 87.4908 408.027 86.6975 404.882C85.9325 401.709 84.8842 399.159 83.5525 397.232C82.2492 395.306 80.7333 393.932 79.005 393.11C77.2767 392.26 75.4775 391.835 73.6075 391.835C71.7375 391.835 69.9383 392.26 68.21 393.11C66.4817 393.932 64.9658 395.306 63.6625 397.232C62.3592 399.159 61.3108 401.709 60.5175 404.882C59.7525 408.027 59.37 411.923 59.37 416.57C59.37 421.217 59.7525 425.112 60.5175 428.257C61.3108 431.402 62.3592 433.938 63.6625 435.865C64.9658 437.792 66.4817 439.18 68.21 440.03C69.9383 440.852 71.7375 441.262 73.6075 441.262C75.4775 441.262 77.2767 440.852 79.005 440.03C80.7333 439.18 82.2492 437.792 83.5525 435.865C84.8842 433.938 85.9325 431.402 86.6975 428.257C87.4908 425.112 87.8875 421.217 87.8875 416.57Z" fill="black"/>
<path d="M92.265 269.22V275H59.625V269.22H72.6725V227.697C72.6725 226.451 72.715 225.19 72.8 223.915L61.9625 233.222C61.5942 233.534 61.2258 233.732 60.8575 233.817C60.4892 233.874 60.1492 233.874 59.8375 233.817C59.5258 233.761 59.2283 233.647 58.945 233.477C58.69 233.307 58.4917 233.123 58.35 232.925L55.97 229.652L74.1175 213.97H80.28V269.22H92.265Z" fill="black"/>
<rect x="2.5" y="2.5" width="578.698" height="497.386" stroke="black" stroke-width="5"/>
<rect x="2.5" y="332.1" width="578.698" height="167.786" stroke="black" stroke-width="5"/>
<rect x="2.5" y="332.1" width="578.698" height="167.786" stroke="black" stroke-width="5"/>
<rect x="2.5" y="162.218" width="578.698" height="337.668" stroke="black" stroke-width="5"/>
<rect x="2.5" y="2.5" width="150.362" height="497.386" stroke="black" stroke-width="5"/>
<circle cx="237.399" cy="420.349" r="43.6415" stroke="black" stroke-width="10"/>
<circle cx="365.174" cy="415.993" r="43.6415" stroke="black" stroke-width="10"/>
<circle cx="492.949" cy="420.349" r="43.6415" stroke="black" stroke-width="10"/>
<circle cx="365.174" cy="249.015" r="43.6415" stroke="#0BAFF9" stroke-width="10"/>
<path d="M90.9475 104.817C91.7692 104.817 92.4208 105.058 92.9025 105.54C93.3842 106.022 93.625 106.645 93.625 107.41V112H52.995V109.407C52.995 108.869 53.1083 108.317 53.335 107.75C53.5617 107.183 53.9158 106.659 54.3975 106.177L73.905 86.585C75.52 84.9417 76.9933 83.3692 78.325 81.8675C79.6567 80.3375 80.79 78.8075 81.725 77.2775C82.66 75.7475 83.3825 74.2033 83.8925 72.645C84.4025 71.0583 84.6575 69.3725 84.6575 67.5875C84.6575 65.8025 84.3742 64.2442 83.8075 62.9125C83.2408 61.5525 82.4617 60.4333 81.47 59.555C80.5067 58.6767 79.3592 58.025 78.0275 57.6C76.6958 57.1467 75.265 56.92 73.735 56.92C72.1767 56.92 70.7458 57.1467 69.4425 57.6C68.1392 58.0533 66.9775 58.6908 65.9575 59.5125C64.9658 60.3058 64.13 61.255 63.45 62.36C62.77 63.465 62.2883 64.6833 62.005 66.015C61.665 67.0067 61.1975 67.6725 60.6025 68.0125C60.0358 68.3242 59.2283 68.4092 58.18 68.2675L54.2275 67.5875C54.6242 64.8108 55.3892 62.36 56.5225 60.235C57.6842 58.0817 59.1292 56.2825 60.8575 54.8375C62.6142 53.3925 64.6117 52.3017 66.85 51.565C69.0883 50.8 71.5108 50.4175 74.1175 50.4175C76.6958 50.4175 79.1042 50.8 81.3425 51.565C83.5808 52.33 85.5217 53.4492 87.165 54.9225C88.8083 56.3675 90.0975 58.1383 91.0325 60.235C91.9675 62.3317 92.435 64.7117 92.435 67.375C92.435 69.6417 92.095 71.7525 91.415 73.7075C90.735 75.6342 89.8142 77.4758 88.6525 79.2325C87.4908 80.9892 86.145 82.7033 84.615 84.375C83.1133 86.0467 81.5125 87.7325 79.8125 89.4325L63.7475 105.837C64.8808 105.526 66.0283 105.285 67.19 105.115C68.3517 104.917 69.4708 104.817 70.5475 104.817H90.9475Z" fill="black"/>
<circle cx="237.399" cy="86.393" r="43.6415" stroke="#EB5E2E" stroke-width="10"/>
<circle cx="490.045" cy="86.393" r="43.6415" stroke="#FF8D23" stroke-width="10"/>
<path d="M943.789 103.566C942.366 103.499 941.099 103.091 939.596 103.091C936.414 103.091 933.789 104.039 930.895 104.991C928.516 105.773 926.894 106.468 924.978 107.84C922.173 109.85 920.06 112.23 918.001 114.727C914.507 118.966 913.349 125.004 916.94 129.451C919.104 132.129 920.726 135.178 923.503 137.512C926.517 140.044 930.047 142.532 932.437 145.48C936.283 150.226 939.911 155.379 939.911 161.141C939.911 166.879 930.01 168.995 924.995 171.365C923.198 172.215 920.134 173.134 918.863 174.519C917.742 175.74 919.339 175.7 920.587 176.286C923.952 177.87 927.874 178.483 931.111 179.915" stroke="black" stroke-width="8" stroke-linecap="round"/>
<path d="M943.789 236.26C942.372 236.318 941.112 236.673 939.616 236.673C936.448 236.673 933.835 235.849 930.955 235.022C928.588 234.342 926.973 233.737 925.066 232.544C922.274 230.797 920.17 228.728 918.121 226.557C914.643 222.872 913.491 217.622 917.066 213.756C919.219 211.427 920.833 208.777 923.598 206.747C926.598 204.546 930.111 202.383 932.49 199.819C936.318 195.694 939.929 191.214 939.929 186.204C939.929 181.215 930.075 179.376 925.083 177.315C923.294 176.576 920.244 175.777 918.979 174.573C917.864 173.512 919.453 173.547 920.695 173.036C924.045 171.66 927.948 171.127 931.17 169.882" stroke="black" stroke-width="8" stroke-linecap="round"/>
<path d="M604.025 15.6195C605.805 15.4651 607.388 14.5198 609.267 14.5198C613.245 14.5198 616.526 16.7157 620.143 18.9183C623.117 20.7292 625.145 22.3391 627.539 25.516C631.046 30.1697 633.687 35.6793 636.261 41.4605C640.628 51.2737 642.075 65.2536 637.587 75.5487C634.883 81.7504 632.855 88.8079 629.383 94.2117C625.616 100.074 621.204 105.834 618.216 112.661C613.409 123.647 608.873 135.578 608.873 148.918C608.873 162.204 621.249 167.102 627.518 172.59C629.765 174.557 633.594 176.684 635.183 179.89C636.585 182.717 634.588 182.625 633.029 183.983C628.822 187.649 623.92 189.069 619.874 192.383" stroke="black" stroke-width="8" stroke-linecap="round"/>
<path d="M604.026 322.836C605.797 322.971 607.373 323.792 609.242 323.792C613.202 323.792 616.468 321.883 620.068 319.968C623.028 318.394 625.046 316.994 627.429 314.232C630.92 310.186 633.549 305.396 636.111 300.37C640.458 291.838 641.898 279.684 637.43 270.733C634.739 265.341 632.721 259.206 629.265 254.508C625.515 249.41 621.124 244.403 618.15 238.468C613.365 228.916 608.851 218.543 608.851 206.945C608.851 195.394 621.169 191.136 627.409 186.365C629.645 184.654 633.457 182.805 635.038 180.018C636.433 177.56 634.446 177.64 632.894 176.459C628.706 173.272 623.828 172.038 619.8 169.156" stroke="black" stroke-width="8" stroke-linecap="round"/>
<path d="M915.976 88.1815C917.055 88.4184 917.738 89.485 917.501 90.5639C917.264 91.6428 916.197 92.3253 915.118 92.0885L915.976 88.1815ZM648.804 33.0217C648.209 32.0913 648.48 30.8545 649.41 30.2591L664.572 20.5565C665.502 19.9611 666.739 20.2327 667.334 21.163C667.93 22.0934 667.658 23.3303 666.728 23.9257L653.251 32.5501L661.876 46.0267C662.471 46.9571 662.2 48.194 661.269 48.7894C660.339 49.3848 659.102 49.1132 658.507 48.1829L648.804 33.0217ZM915.118 92.0885L650.06 33.8971L650.917 29.9902L915.976 88.1815L915.118 92.0885Z" fill="black"/>
<path d="M915.775 244.883C916.854 244.648 917.92 245.331 918.156 246.41C918.391 247.489 917.708 248.555 916.629 248.791L915.775 244.883ZM649.409 306.6C648.479 306.004 648.209 304.767 648.805 303.837L658.521 288.685C659.118 287.755 660.355 287.485 661.285 288.081C662.214 288.677 662.485 289.914 661.889 290.844L653.252 304.313L666.72 312.95C667.65 313.546 667.921 314.783 667.324 315.713C666.728 316.643 665.491 316.913 664.561 316.317L649.409 306.6ZM916.629 248.791L650.916 306.871L650.062 302.963L915.775 244.883L916.629 248.791Z" fill="black"/>
</svg>
