<svg width="222" height="136" viewBox="0 0 222 136" fill="none" xmlns="http://www.w3.org/2000/svg">
<path d="M17.1406 43.0625C16.6403 43.5 16.1092 43.2969 15.5472 42.4531C15.0165 41.6094 14.4705 40.3437 13.9091 38.6562C13.3477 36.9375 12.7866 34.8906 12.2256 32.5156C11.696 30.1406 11.182 27.625 10.6837 24.9687C10.1855 22.3125 9.70289 19.625 9.23593 16.9062C8.80024 14.1562 8.41132 11.5781 8.06915 9.17187C8.06944 8.73437 8.0541 8.29687 8.02314 7.85937C8.02345 7.39062 8.0706 6.96875 8.1646 6.59375C8.28987 6.1875 8.49323 5.82812 8.77469 5.51562C9.08739 5.20312 9.5563 4.96875 10.1814 4.8125C10.2439 4.78125 10.3689 4.8125 10.5563 4.90625C10.775 4.96875 10.9937 5.0625 11.2124 5.1875C11.4311 5.28125 11.6185 5.39062 11.7747 5.51562C11.9621 5.64062 12.087 5.75 12.1495 5.84375C11.7394 11.6875 12.4075 17.375 14.1539 22.9062C14.2477 22.8125 14.4979 22.5 14.9045 21.9687C15.3111 21.4062 15.8271 20.7656 16.4526 20.0469C17.0781 19.2969 17.7818 18.5 18.5636 17.6562C19.3766 16.8125 20.2209 16.0312 21.0964 15.3125C21.9718 14.5937 22.8472 14 23.7225 13.5312C24.5979 13.0312 25.4418 12.7812 26.2543 12.7812C26.723 12.7812 27.1761 12.8906 27.6134 13.1094C28.082 13.3281 28.3161 13.75 28.3157 14.375C28.3157 14.4375 28.3 14.5312 28.2687 14.6562C28.2374 14.75 28.2217 14.8281 28.2216 14.8906C27.7213 15.3281 26.9553 16 25.9234 16.9062C24.9228 17.8125 23.8597 18.8281 22.7339 19.9531C21.6082 21.0781 20.5293 22.25 19.4972 23.4687C18.4652 24.6875 17.6832 25.8437 17.1512 26.9375C17.0573 27.125 17.026 27.2969 17.0571 27.4531C17.0883 27.5781 17.1194 27.7344 17.1505 27.9219C17.4942 28.0469 18.041 28.2344 18.7908 28.4844C19.5406 28.7344 20.3686 29.0312 21.2746 29.375C22.1806 29.6875 23.1492 30.0312 24.1802 30.4062C25.2112 30.75 26.1797 31.0937 27.0857 31.4375C27.9918 31.7812 28.804 32.0937 29.5226 32.375C30.2724 32.625 30.8348 32.8125 31.2097 32.9375C31.6471 33.125 32.0064 33.25 32.2876 33.3125C32.5688 33.375 32.7875 33.4687 32.9437 33.5937C33.0999 33.6875 33.2092 33.8281 33.2715 34.0156C33.3339 34.2031 33.365 34.4844 33.3647 34.8594C33.3641 35.7656 33.145 36.3594 32.7073 36.6406C32.2696 36.9219 31.6445 37.0625 30.832 37.0625C28.4259 36.9062 26.0668 36.4062 23.7549 35.5625C21.443 34.6875 19.0999 33.6406 16.7257 32.4219C16.6316 33.0156 16.6624 33.7031 16.8181 34.4844C17.0051 35.2656 17.2233 36.0469 17.4728 36.8281C17.7223 37.6094 17.9562 38.375 18.1744 39.125C18.4239 39.875 18.5641 40.5469 18.595 41.1406C18.6571 41.7344 18.5943 42.2031 18.4065 42.5469C18.2188 42.8906 17.7968 43.0625 17.1406 43.0625Z" fill="black"/>
<path d="M100.026 26.7031C100.028 23.6719 100.733 21.4219 102.14 19.9531C103.547 18.4844 105.704 17.75 108.61 17.75C109.798 17.75 111.017 17.8594 112.266 18.0781C113.548 18.2969 114.719 18.6875 115.781 19.25C116.843 19.7812 117.702 20.5312 118.358 21.5C119.045 22.4687 119.388 23.7187 119.387 25.25C119.386 26.9375 119.01 28.5312 118.259 30.0312C117.539 31.5 116.616 32.8906 115.49 34.2031C114.396 35.4844 113.176 36.6875 111.832 37.8125C110.518 38.9062 109.283 39.9531 108.126 40.9531C108.064 41.0781 108.001 41.3437 107.938 41.75C107.907 42.125 107.891 42.375 107.891 42.5C107.89 43.5312 108.186 44.5625 108.78 45.5937C109.404 46.6562 110.075 47.7187 110.793 48.7812C111.511 49.875 112.167 51 112.76 52.1562C113.353 53.3125 113.649 54.5156 113.648 55.7656C113.647 56.5156 113.491 56.9531 113.178 57.0781C112.866 57.2344 112.209 57.3125 111.209 57.3125C110.584 57.0625 109.96 56.4687 109.335 55.5312C108.742 54.625 108.134 53.5 107.51 52.1562C106.917 50.8125 106.324 49.2969 105.731 47.6094C105.17 45.9531 104.624 44.2656 104.094 42.5469C103.595 40.7969 103.112 39.0781 102.644 37.3906C102.208 35.6719 101.818 34.0937 101.476 32.6562C101.133 31.2187 100.821 29.9844 100.54 28.9531C100.291 27.8906 100.12 27.1406 100.026 26.7031ZM104.01 27.125C104.01 27.5937 104.041 28.2812 104.103 29.1875C104.165 30.0625 104.289 30.9375 104.476 31.8125C104.694 32.6875 105.006 33.4531 105.412 34.1094C105.818 34.7344 106.38 35.0469 107.099 35.0469C108.068 35.0469 109.037 34.7187 110.006 34.0625C111.006 33.4062 111.882 32.5781 112.633 31.5781C113.414 30.5781 114.04 29.5156 114.51 28.3906C115.01 27.2344 115.261 26.1875 115.262 25.25C115.262 24.4687 115.075 23.8594 114.7 23.4219C114.326 22.9531 113.842 22.5937 113.248 22.3437C112.686 22.0625 112.076 21.8906 111.42 21.8281C110.764 21.7344 110.139 21.6875 109.545 21.6875C107.764 21.6875 106.389 22.1719 105.419 23.1406C104.481 24.0781 104.012 25.4062 104.01 27.125ZM164.341 23.9375C164.341 23.4062 164.451 22.9219 164.67 22.4844C164.92 22.0469 165.342 21.8281 165.936 21.8281C165.967 21.8281 166.014 21.8437 166.076 21.875C166.139 21.875 166.201 21.875 166.264 21.875C166.326 21.875 166.389 21.875 166.451 21.875C166.545 21.9375 166.717 22.0937 166.967 22.3437C167.248 22.5937 167.42 22.7812 167.482 22.9062C167.576 23.0937 167.763 23.5 168.044 24.125C168.356 24.75 168.715 25.4844 169.12 26.3281C169.557 27.1406 169.994 28.0156 170.431 28.9531C170.899 29.8594 171.336 30.7344 171.742 31.5781C172.179 32.4219 172.538 33.1562 172.819 33.7812C173.131 34.375 173.349 34.7656 173.474 34.9531C173.505 35.0469 173.646 35.2344 173.896 35.5156C174.177 35.7656 174.38 35.9219 174.505 35.9844C174.755 35.5469 175.005 34.8906 175.256 34.0156C175.506 33.1406 175.757 32.1875 176.008 31.1562C176.29 30.0937 176.572 29.0156 176.854 27.9219C177.136 26.7969 177.449 25.7969 177.793 24.9219C178.169 24.0156 178.575 23.2812 179.013 22.7187C179.451 22.125 179.951 21.8281 180.514 21.8281C181.326 21.8281 182.092 22.1406 182.81 22.7656C183.56 23.3906 184.262 24.2031 184.918 25.2031C185.605 26.2031 186.245 27.3281 186.838 28.5781C187.462 29.7969 188.039 31.0156 188.57 32.2344C189.131 33.4219 189.646 34.5312 190.114 35.5625C190.614 36.5625 191.097 37.3594 191.566 37.9531C191.941 37.8281 192.254 37.5156 192.504 37.0156C192.754 36.5156 192.942 36 193.067 35.4687C193.224 34.9062 193.334 34.3906 193.397 33.9219C193.459 33.4219 193.507 33.0937 193.538 32.9375C193.569 32.5937 193.617 32.0625 193.68 31.3437C193.743 30.5937 193.806 29.75 193.869 28.8125C193.963 27.875 194.042 26.9062 194.105 25.9062C194.168 24.9062 194.231 23.9375 194.294 23C194.389 22.0625 194.452 21.2344 194.484 20.5156C194.547 19.7656 194.578 19.2344 194.578 18.9219C194.641 18.9219 194.797 18.9062 195.047 18.875C195.297 18.8125 195.469 18.7812 195.563 18.7812C196 18.7812 196.391 18.8281 196.735 18.9219C197.078 19.0156 197.344 19.3437 197.531 19.9062C197.531 20.125 197.53 20.5156 197.53 21.0781C197.561 21.6406 197.576 22.25 197.576 22.9062C197.607 23.5312 197.622 24.1406 197.621 24.7344C197.652 25.2969 197.668 25.6875 197.668 25.9062C197.667 26.4062 197.667 27.1875 197.666 28.25C197.697 29.2812 197.68 30.4375 197.617 31.7187C197.585 33 197.49 34.3125 197.333 35.6562C197.176 36.9687 196.925 38.1875 196.581 39.3125C196.267 40.4062 195.829 41.3125 195.266 42.0312C194.703 42.7187 194 43.0625 193.156 43.0625C192.187 43.0625 191.281 42.8281 190.438 42.3594C189.594 41.8906 188.798 41.2656 188.049 40.4844C187.33 39.7031 186.643 38.8437 185.988 37.9062C185.332 36.9375 184.723 35.9687 184.162 35C183.631 34 183.132 33.0625 182.663 32.1875C182.226 31.2812 181.836 30.5156 181.493 29.8906C181.243 30.4531 181.008 31.1562 180.788 32C180.6 32.8437 180.381 33.7656 180.13 34.7656C179.88 35.7344 179.598 36.7187 179.285 37.7187C178.972 38.6875 178.612 39.5781 178.205 40.3906C177.829 41.1719 177.376 41.8125 176.844 42.3125C176.344 42.8125 175.766 43.0625 175.109 43.0625C174.797 43.0625 174.516 43.0781 174.266 43.1094C174.016 43.1094 173.781 43.0937 173.562 43.0625C173.344 43 173.141 42.8906 172.953 42.7344C172.766 42.5781 172.594 42.3281 172.438 41.9844L164.434 24.875C164.434 24.8437 164.418 24.7187 164.387 24.5C164.356 24.25 164.341 24.0625 164.341 23.9375Z" fill="#7B61FF"/>
<path d="M56 37.5L56 13" stroke="black" stroke-width="5" stroke-linecap="round"/>
<path d="M57.7505 20.5H79.0005" stroke="black" stroke-width="5" stroke-linecap="round"/>
<path d="M57.7505 30.501H79.0005" stroke="black" stroke-width="5" stroke-linecap="round"/>
<path d="M128 28.9863L130.509 29.436C136.796 30.5626 143.222 30.6782 149.546 29.7783L155.111 28.9863" stroke="#7B61FF" stroke-width="5" stroke-linecap="round"/>
<path d="M146.586 20.637L147.782 21.4888C150.246 23.2434 152.413 25.3601 154.206 27.7627L154.958 28.7705" stroke="#7B61FF" stroke-width="5" stroke-linecap="round"/>
<path d="M147 37.7705L147.844 37.2416C150.584 35.5241 152.923 33.2675 154.711 30.6175L155.372 29.637" stroke="#7B61FF" stroke-width="5" stroke-linecap="round"/>
<path d="M5.25195 82.3545C5.25195 82.2223 5.25195 81.9863 5.25195 81.6465C5.27083 81.2878 5.28027 80.9196 5.28027 80.542C5.28027 80.1455 5.28027 79.7773 5.28027 79.4375C5.29915 79.0977 5.30859 78.8522 5.30859 78.7012C5.32747 78.6634 5.41243 78.569 5.56348 78.418C5.7334 78.248 5.83724 78.1442 5.875 78.1064C5.91276 78.1064 5.95996 78.097 6.0166 78.0781C6.05436 78.0781 6.08268 78.0781 6.10156 78.0781C6.13932 78.0592 6.16764 78.0498 6.18652 78.0498C6.2054 78.0498 6.23372 78.0592 6.27148 78.0781C6.30924 78.0781 6.33757 78.0781 6.35645 78.0781C6.41309 78.097 6.46973 78.1064 6.52637 78.1064C6.54525 78.1253 6.58301 78.1631 6.63965 78.2197C6.69629 78.2575 6.75293 78.3141 6.80957 78.3896C6.88509 78.4463 6.95117 78.5124 7.00781 78.5879C7.06445 78.6445 7.09277 78.6823 7.09277 78.7012C7.01725 79.6263 7.07389 80.4948 7.2627 81.3066C7.47038 82.1185 7.70638 82.8926 7.9707 83.6289C8.23503 84.3464 8.48047 85.026 8.70703 85.668C8.93359 86.3099 9.04688 86.9329 9.04688 87.5371C9.04688 87.7448 9.01855 87.9808 8.96191 88.2451C8.90527 88.4906 8.80143 88.7266 8.65039 88.9531C8.51823 89.1608 8.34831 89.3402 8.14062 89.4912C7.95182 89.6234 7.69694 89.6895 7.37598 89.6895C6.94173 89.6895 6.57357 89.5384 6.27148 89.2363C5.98828 88.9342 5.77116 88.5472 5.62012 88.0752C5.46908 87.5843 5.36523 87.0462 5.30859 86.4609C5.25195 85.8757 5.21419 85.3187 5.19531 84.79C5.19531 84.2425 5.20475 83.7516 5.22363 83.3174C5.24251 82.8643 5.25195 82.5433 5.25195 82.3545ZM10.1514 80.457C10.1514 80.2493 10.1891 80.0417 10.2646 79.834C10.3402 79.6074 10.4346 79.4092 10.5479 79.2393C10.68 79.0693 10.8405 78.9372 11.0293 78.8428C11.2181 78.7295 11.4258 78.6729 11.6523 78.6729C11.8978 78.6729 12.1243 78.8805 12.332 79.2959C12.5397 79.7113 12.7285 80.2399 12.8984 80.8818C13.0684 81.5049 13.2005 82.1846 13.2949 82.9209C13.4082 83.6572 13.5026 84.3464 13.5781 84.9883C13.6725 85.6302 13.7386 86.1683 13.7764 86.6025C13.8141 87.0368 13.833 87.2633 13.833 87.2822C13.833 88.0941 13.3893 88.5 12.502 88.5C12.181 88.5 11.8978 88.3301 11.6523 87.9902C11.4069 87.6315 11.1898 87.1878 11.001 86.6592C10.8311 86.1117 10.6895 85.5169 10.5762 84.875C10.4629 84.2142 10.3685 83.5911 10.293 83.0059C10.2363 82.4017 10.1986 81.873 10.1797 81.4199C10.1608 80.9479 10.1514 80.627 10.1514 80.457ZM182.197 99.3467C181.48 99.8376 180.857 100.281 180.328 100.678C179.818 101.055 179.318 101.376 178.827 101.641C178.336 101.905 177.808 102.103 177.241 102.235C176.694 102.368 176.014 102.434 175.202 102.434C173.446 102.434 172.144 101.971 171.294 101.046C170.444 100.102 170.02 98.7048 170.02 96.8545C170.02 96.137 170.114 95.3913 170.303 94.6172C170.492 93.8431 170.765 93.0785 171.124 92.3232C171.502 91.5492 171.945 90.8223 172.455 90.1426C172.965 89.444 173.541 88.8304 174.183 88.3018C174.825 87.7731 175.504 87.3577 176.222 87.0557C176.958 86.7347 177.732 86.5742 178.544 86.5742C179.903 86.7064 180.97 87.0462 181.744 87.5938C182.518 88.1224 183.104 88.8115 183.5 89.6611C183.896 90.4919 184.17 91.4264 184.321 92.4648C184.472 93.4844 184.586 94.5417 184.661 95.6367C184.756 96.7318 184.869 97.8268 185.001 98.9219C185.133 100.017 185.407 101.027 185.822 101.952C185.577 102.575 185.341 103.009 185.114 103.255C184.907 103.519 184.671 103.566 184.406 103.396C184.142 103.227 183.83 102.811 183.472 102.15C183.132 101.49 182.707 100.555 182.197 99.3467ZM172.427 96.9111C172.427 97.9873 172.625 98.7803 173.021 99.29C173.437 99.7809 174.164 100.026 175.202 100.026C175.976 100.026 176.713 99.8942 177.411 99.6299C178.129 99.3467 178.752 98.9691 179.28 98.4971C179.809 98.0062 180.234 97.4209 180.555 96.7412C180.876 96.0615 181.036 95.3063 181.036 94.4756C181.036 94.1357 181.046 93.6637 181.064 93.0596C181.083 92.4365 181.046 91.8229 180.951 91.2188C180.857 90.6146 180.677 90.0954 180.413 89.6611C180.149 89.208 179.752 88.9814 179.224 88.9814C178.242 88.9814 177.336 89.2363 176.505 89.7461C175.674 90.237 174.957 90.8695 174.353 91.6436C173.748 92.4176 173.276 93.2767 172.937 94.2207C172.597 95.1458 172.427 96.0426 172.427 96.9111ZM187.606 91.1055C187.606 90.9355 187.616 90.7656 187.635 90.5957C187.654 90.4069 187.691 90.2464 187.748 90.1143C187.805 89.9632 187.89 89.8405 188.003 89.7461C188.135 89.6517 188.314 89.6045 188.541 89.6045C188.73 89.6045 188.938 89.7555 189.164 90.0576C189.41 90.3408 189.655 90.709 189.9 91.1621C190.146 91.5964 190.382 92.0778 190.608 92.6064C190.854 93.1351 191.062 93.626 191.231 94.0791C191.42 94.5133 191.571 94.891 191.685 95.2119C191.798 95.5329 191.864 95.7028 191.883 95.7217C192.128 95.0609 192.402 94.3434 192.704 93.5693C193.006 92.7952 193.374 92.0778 193.809 91.417C194.262 90.7373 194.79 90.1709 195.395 89.7178C196.018 89.2646 196.773 89.0381 197.66 89.0381C198.113 89.0381 198.538 89.1136 198.935 89.2646C199.35 89.3968 199.709 89.6045 200.011 89.8877C200.332 90.152 200.587 90.473 200.775 90.8506C200.964 91.2282 201.059 91.6624 201.059 92.1533C201.059 92.5687 200.889 92.8613 200.549 93.0312C200.228 93.2012 199.86 93.2861 199.444 93.2861H199.161L197.943 92.0684C197.906 92.0684 197.877 92.0589 197.858 92.04C197.821 92.04 197.783 92.04 197.745 92.04C197.726 92.0212 197.698 92.0117 197.66 92.0117C196.999 92.0117 196.48 92.2005 196.103 92.5781C195.744 92.9368 195.47 93.39 195.281 93.9375C195.092 94.4661 194.97 95.0326 194.913 95.6367C194.875 96.222 194.856 96.7601 194.856 97.251C194.856 97.6286 194.894 98.0156 194.97 98.4121C195.045 98.7897 195.13 99.1673 195.225 99.5449C195.319 99.9036 195.404 100.281 195.479 100.678C195.555 101.055 195.593 101.452 195.593 101.867C195.593 102.66 195.168 103.057 194.318 103.057C193.846 103.057 193.355 102.811 192.846 102.32C192.336 101.811 191.826 101.169 191.316 100.395C190.826 99.6204 190.354 98.7708 189.9 97.8457C189.447 96.9017 189.051 95.986 188.711 95.0986C188.371 94.2113 188.097 93.4089 187.89 92.6914C187.701 91.974 187.606 91.4453 187.606 91.1055ZM202.078 95.127C202.078 94.1074 202.201 93.0879 202.446 92.0684C202.692 91.0488 203.079 90.1331 203.607 89.3213C204.155 88.5094 204.854 87.8486 205.703 87.3389C206.572 86.8291 207.619 86.5742 208.847 86.5742C209.545 86.5742 210.159 86.7064 210.688 86.9707C211.216 87.2161 211.66 87.5465 212.019 87.9619C212.377 88.3773 212.642 88.8682 212.812 89.4346C213 89.9821 213.095 90.5579 213.095 91.1621C213.095 92.125 212.868 93.0596 212.415 93.9658C211.981 94.8721 211.386 95.6745 210.631 96.373C209.895 97.0527 209.045 97.5719 208.082 97.9307C207.119 98.2705 206.137 98.346 205.137 98.1572C205.156 98.7048 205.335 99.1484 205.675 99.4883C206.034 99.8092 206.458 100.055 206.949 100.225C207.44 100.395 207.95 100.508 208.479 100.564C209.007 100.602 209.479 100.621 209.895 100.621C210.329 100.621 210.735 100.583 211.112 100.508C211.49 100.432 211.868 100.347 212.245 100.253C212.623 100.159 213 100.074 213.378 99.998C213.774 99.9225 214.19 99.8848 214.624 99.8848C214.794 99.8848 214.964 99.8942 215.134 99.9131C215.304 99.932 215.464 99.9792 215.615 100.055C215.766 100.111 215.889 100.215 215.983 100.366C216.078 100.498 216.125 100.668 216.125 100.876C216.125 101.235 215.993 101.537 215.729 101.782C215.464 102.009 215.124 102.207 214.709 102.377C214.312 102.547 213.869 102.679 213.378 102.773C212.887 102.849 212.406 102.915 211.934 102.972C211.48 103.009 211.056 103.028 210.659 103.028C210.282 103.047 209.998 103.057 209.81 103.057C208.601 103.057 207.516 102.868 206.553 102.49C205.59 102.094 204.778 101.556 204.117 100.876C203.456 100.177 202.947 99.3467 202.588 98.3838C202.248 97.402 202.078 96.3164 202.078 95.127ZM205.08 93.2861C205.08 93.9469 205.165 94.4284 205.335 94.7305C205.524 95.0326 205.967 95.1836 206.666 95.1836C207.157 95.1836 207.638 95.0986 208.11 94.9287C208.582 94.7399 209.007 94.485 209.385 94.1641C209.781 93.8431 210.093 93.4655 210.319 93.0312C210.546 92.597 210.659 92.125 210.659 91.6152C210.659 91.332 210.631 91.0394 210.574 90.7373C210.536 90.4352 210.442 90.1615 210.291 89.916C210.14 89.6517 209.942 89.444 209.696 89.293C209.47 89.123 209.168 89.0381 208.79 89.0381C208.224 89.0381 207.704 89.1702 207.232 89.4346C206.779 89.68 206.392 90.0104 206.071 90.4258C205.75 90.8223 205.505 91.2754 205.335 91.7852C205.165 92.276 205.08 92.7764 205.08 93.2861ZM202.22 116.82C202.22 116.348 202.324 115.933 202.531 115.574C202.739 115.197 202.956 114.819 203.183 114.441C203.428 114.045 203.655 113.639 203.862 113.224C204.07 112.808 204.174 112.346 204.174 111.836C204.174 111.402 204.146 111.024 204.089 110.703C204.051 110.382 203.966 110.071 203.834 109.769C203.721 109.466 203.532 109.164 203.268 108.862C203.022 108.541 202.692 108.164 202.276 107.729C202.39 107.39 202.56 107.191 202.786 107.135C203.032 107.078 203.268 107.05 203.494 107.05C203.928 107.05 204.325 107.22 204.684 107.56C205.061 107.899 205.392 108.315 205.675 108.806C205.958 109.278 206.175 109.778 206.326 110.307C206.496 110.835 206.581 111.288 206.581 111.666C206.581 112.1 206.496 112.676 206.326 113.394C206.175 114.111 205.949 114.819 205.646 115.518C205.344 116.197 204.957 116.792 204.485 117.302C204.032 117.793 203.504 118.038 202.899 118.038C202.729 118.038 202.597 117.991 202.503 117.896C202.427 117.802 202.361 117.689 202.305 117.557C202.267 117.424 202.248 117.292 202.248 117.16C202.229 117.009 202.22 116.896 202.22 116.82ZM208.28 116.311C208.28 115.857 208.346 115.433 208.479 115.036C208.63 114.621 208.781 114.224 208.932 113.847C209.083 113.45 209.224 113.044 209.356 112.629C209.489 112.214 209.555 111.789 209.555 111.354C209.555 110.845 209.451 110.392 209.243 109.995C209.035 109.58 208.799 109.174 208.535 108.777C208.271 108.381 208.025 107.975 207.799 107.56C207.591 107.144 207.487 106.672 207.487 106.144C208.243 106.144 208.894 106.295 209.441 106.597C210.008 106.899 210.48 107.305 210.857 107.814C211.254 108.305 211.547 108.881 211.735 109.542C211.943 110.184 212.047 110.864 212.047 111.581C212.047 112.034 212.009 112.591 211.934 113.252C211.858 113.913 211.716 114.555 211.509 115.178C211.32 115.782 211.037 116.311 210.659 116.764C210.3 117.217 209.828 117.443 209.243 117.443C208.903 117.443 208.658 117.321 208.507 117.075C208.356 116.811 208.28 116.556 208.28 116.311Z" fill="black"/>
<path d="M15.5605 92.5498C15.5605 90.7184 15.9854 89.359 16.835 88.4717C17.6846 87.5843 18.9873 87.1406 20.7432 87.1406C21.4606 87.1406 22.1969 87.2067 22.9521 87.3389C23.7262 87.471 24.4342 87.707 25.0762 88.0469C25.7181 88.3678 26.2373 88.821 26.6338 89.4062C27.0492 89.9915 27.2568 90.7467 27.2568 91.6719C27.2568 92.6914 27.0303 93.6543 26.5771 94.5605C26.1429 95.4479 25.5859 96.2881 24.9062 97.0811C24.2454 97.8551 23.5091 98.582 22.6973 99.2617C21.9043 99.9225 21.1585 100.555 20.46 101.159C20.4222 101.235 20.3844 101.395 20.3467 101.641C20.3278 101.867 20.3184 102.018 20.3184 102.094C20.3184 102.717 20.4977 103.34 20.8564 103.963C21.234 104.605 21.64 105.247 22.0742 105.889C22.5085 106.549 22.9049 107.229 23.2637 107.928C23.6224 108.626 23.8018 109.353 23.8018 110.108C23.8018 110.562 23.7074 110.826 23.5186 110.901C23.3298 110.996 22.9333 111.043 22.3291 111.043C21.9515 110.892 21.5739 110.533 21.1963 109.967C20.8376 109.419 20.4694 108.74 20.0918 107.928C19.7331 107.116 19.3743 106.2 19.0156 105.181C18.6758 104.18 18.3454 103.16 18.0244 102.122C17.7223 101.065 17.4297 100.026 17.1465 99.0068C16.8822 97.9684 16.6462 97.015 16.4385 96.1465C16.2308 95.278 16.042 94.5322 15.8721 93.9092C15.721 93.2673 15.6172 92.8141 15.5605 92.5498ZM17.9678 92.8047C17.9678 93.0879 17.9867 93.5033 18.0244 94.0508C18.0622 94.5794 18.1377 95.1081 18.251 95.6367C18.3831 96.1654 18.5719 96.6279 18.8174 97.0244C19.0628 97.402 19.4027 97.5908 19.8369 97.5908C20.4222 97.5908 21.0075 97.3926 21.5928 96.9961C22.1969 96.5996 22.7256 96.0993 23.1787 95.4951C23.6507 94.891 24.0283 94.249 24.3115 93.5693C24.6136 92.8708 24.7646 92.2383 24.7646 91.6719C24.7646 91.1999 24.6514 90.8317 24.4248 90.5674C24.1982 90.2842 23.9056 90.0671 23.5469 89.916C23.207 89.7461 22.8389 89.6423 22.4424 89.6045C22.0459 89.5479 21.6683 89.5195 21.3096 89.5195C20.2334 89.5195 19.4027 89.8122 18.8174 90.3975C18.251 90.9639 17.9678 91.7663 17.9678 92.8047ZM29.6074 86.9707C29.6074 86.4232 29.5697 85.8945 29.4941 85.3848C29.4186 84.8561 29.3997 84.3936 29.4375 83.9971C29.4753 83.5817 29.6169 83.2513 29.8623 83.0059C30.1266 82.7604 30.5986 82.6377 31.2783 82.6377C31.486 83.0719 31.6842 83.7327 31.873 84.6201C32.0807 85.5075 32.279 86.527 32.4678 87.6787C32.6566 88.8304 32.8359 90.0859 33.0059 91.4453C33.1758 92.7858 33.3268 94.1357 33.459 95.4951C33.61 96.8545 33.7327 98.195 33.8271 99.5166C33.9404 100.819 34.0254 102.009 34.082 103.085C33.459 103.5 32.9587 103.529 32.5811 103.17C32.2035 102.811 31.8919 102.207 31.6465 101.357C31.401 100.489 31.2122 99.4411 31.0801 98.2139C30.9479 96.9678 30.8158 95.6839 30.6836 94.3623C30.5703 93.0218 30.4287 91.7096 30.2588 90.4258C30.0889 89.123 29.8717 87.9714 29.6074 86.9707ZM47.7324 99.3467C47.015 99.8376 46.3919 100.281 45.8633 100.678C45.3535 101.055 44.8532 101.376 44.3623 101.641C43.8714 101.905 43.3428 102.103 42.7764 102.235C42.2288 102.368 41.5492 102.434 40.7373 102.434C38.9814 102.434 37.6787 101.971 36.8291 101.046C35.9795 100.102 35.5547 98.7048 35.5547 96.8545C35.5547 96.137 35.6491 95.3913 35.8379 94.6172C36.0267 93.8431 36.3005 93.0785 36.6592 92.3232C37.0368 91.5492 37.4805 90.8223 37.9902 90.1426C38.5 89.444 39.0758 88.8304 39.7178 88.3018C40.3597 87.7731 41.0394 87.3577 41.7568 87.0557C42.4932 86.7347 43.2673 86.5742 44.0791 86.5742C45.4385 86.7064 46.5052 87.0462 47.2793 87.5938C48.0534 88.1224 48.6387 88.8115 49.0352 89.6611C49.4316 90.4919 49.7054 91.4264 49.8564 92.4648C50.0075 93.4844 50.1208 94.5417 50.1963 95.6367C50.2907 96.7318 50.404 97.8268 50.5361 98.9219C50.6683 100.017 50.9421 101.027 51.3574 101.952C51.112 102.575 50.876 103.009 50.6494 103.255C50.4417 103.519 50.2057 103.566 49.9414 103.396C49.6771 103.227 49.3656 102.811 49.0068 102.15C48.667 101.49 48.2422 100.555 47.7324 99.3467ZM37.9619 96.9111C37.9619 97.9873 38.1602 98.7803 38.5566 99.29C38.972 99.7809 39.6989 100.026 40.7373 100.026C41.5114 100.026 42.2477 99.8942 42.9463 99.6299C43.6637 99.3467 44.2868 98.9691 44.8154 98.4971C45.3441 98.0062 45.7689 97.4209 46.0898 96.7412C46.4108 96.0615 46.5713 95.3063 46.5713 94.4756C46.5713 94.1357 46.5807 93.6637 46.5996 93.0596C46.6185 92.4365 46.5807 91.8229 46.4863 91.2188C46.3919 90.6146 46.2126 90.0954 45.9482 89.6611C45.6839 89.208 45.2874 88.9814 44.7588 88.9814C43.777 88.9814 42.8708 89.2363 42.04 89.7461C41.2093 90.237 40.4919 90.8695 39.8877 91.6436C39.2835 92.4176 38.8115 93.2767 38.4717 94.2207C38.1318 95.1458 37.9619 96.0426 37.9619 96.9111ZM52.5186 88.7266C52.5186 88.6699 52.528 88.6227 52.5469 88.585C52.5469 88.5472 52.5563 88.5 52.5752 88.4434C52.6507 88.349 52.764 88.2262 52.915 88.0752C53.0661 87.9242 53.1605 87.8486 53.1982 87.8486H58.8906C58.8906 87.641 58.8623 87.3105 58.8057 86.8574C58.749 86.4043 58.6924 85.904 58.6357 85.3564C58.598 84.8089 58.5885 84.2425 58.6074 83.6572C58.6263 83.0531 58.7018 82.515 58.834 82.043C58.985 81.5521 59.2116 81.1556 59.5137 80.8535C59.8346 80.5326 60.2783 80.3721 60.8447 80.3721C60.8447 82.279 60.9769 83.8083 61.2412 84.96C61.5055 86.1117 61.8548 86.999 62.2891 87.6221C62.7422 88.2451 63.252 88.651 63.8184 88.8398C64.3848 89.0286 64.9606 89.1136 65.5459 89.0947C66.1501 89.057 66.7354 88.9626 67.3018 88.8115C67.8682 88.6605 68.3685 88.5566 68.8027 88.5C69.2559 88.4434 69.6146 88.4906 69.8789 88.6416C70.1432 88.7738 70.2754 89.1042 70.2754 89.6328C70.2754 90.0293 70.181 90.3125 69.9922 90.4824C69.8223 90.6523 69.4824 90.7845 68.9727 90.8789C68.8216 90.8978 68.5667 90.9355 68.208 90.9922C67.8682 91.0299 67.4811 91.0677 67.0469 91.1055C66.6126 91.1432 66.1501 91.1904 65.6592 91.2471C65.1683 91.2848 64.7057 91.3226 64.2715 91.3604C63.8372 91.3981 63.4408 91.4264 63.082 91.4453C62.7233 91.4453 62.459 91.4453 62.2891 91.4453C62.2891 91.5397 62.2796 91.7002 62.2607 91.9268C62.2419 92.1533 62.2324 92.3044 62.2324 92.3799C62.2324 93.2106 62.3646 94.0225 62.6289 94.8154C62.8932 95.5895 63.1764 96.3636 63.4785 97.1377C63.7995 97.9118 64.0921 98.6859 64.3564 99.46C64.6208 100.234 64.7529 101.036 64.7529 101.867C64.7529 102.018 64.734 102.179 64.6963 102.349C64.6774 102.5 64.6208 102.641 64.5264 102.773C64.4508 102.887 64.3281 102.972 64.1582 103.028C64.0072 103.104 63.79 103.094 63.5068 103C62.7894 102.811 62.2513 102.405 61.8926 101.782C61.5527 101.159 61.2979 100.423 61.1279 99.5732C60.958 98.7048 60.8447 97.7891 60.7881 96.8262C60.7314 95.8633 60.637 94.9665 60.5049 94.1357C60.3916 93.2861 60.2028 92.5687 59.9385 91.9834C59.6742 91.3792 59.2493 91.0111 58.6641 90.8789L53.1982 89.6328C53.1227 89.6328 53.0094 89.5573 52.8584 89.4062C52.7074 89.2363 52.613 89.1136 52.5752 89.0381C52.5563 89.0003 52.5469 88.9531 52.5469 88.8965C52.528 88.8587 52.5186 88.8021 52.5186 88.7266ZM70.8701 88.3584C70.8701 88.1885 70.8701 88.0186 70.8701 87.8486C70.889 87.6598 70.9268 87.4899 70.9834 87.3389C71.0589 87.1689 71.1533 87.0462 71.2666 86.9707C71.3988 86.8763 71.5876 86.8291 71.833 86.8291C71.8519 86.8291 71.8708 86.8291 71.8896 86.8291C71.9274 86.8291 71.9652 86.8291 72.0029 86.8291C72.0596 86.848 72.1068 86.8574 72.1445 86.8574C72.5033 87.3483 72.8148 87.9808 73.0791 88.7549C73.3434 89.5101 73.5983 90.3219 73.8438 91.1904C74.0892 92.04 74.3535 92.9085 74.6367 93.7959C74.9199 94.6644 75.2881 95.4479 75.7412 96.1465C76.1943 96.8451 76.7513 97.402 77.4121 97.8174C78.0729 98.2327 78.8942 98.4121 79.876 98.3555C80.3102 98.3555 80.5934 98.1195 80.7256 97.6475C80.8577 97.1755 80.9238 96.5713 80.9238 95.835C80.9427 95.0986 80.9238 94.2868 80.8672 93.3994C80.8294 92.512 80.8294 91.6719 80.8672 90.8789C80.9238 90.0671 81.0654 89.359 81.292 88.7549C81.5374 88.1507 81.9528 87.7448 82.5381 87.5371C82.7835 88.028 82.9818 88.8021 83.1328 89.8594C83.3027 90.8978 83.4255 92.1061 83.501 93.4844C83.5765 94.8438 83.6143 96.3258 83.6143 97.9307C83.6143 99.5166 83.5765 101.103 83.501 102.688C83.4255 104.256 83.3122 105.766 83.1611 107.22C83.0101 108.674 82.8402 109.948 82.6514 111.043C82.4626 112.138 82.236 112.997 81.9717 113.62C81.7262 114.262 81.4619 114.536 81.1787 114.441C80.7822 114.064 80.4707 113.573 80.2441 112.969C80.0365 112.365 79.8854 111.694 79.791 110.958C79.7155 110.222 79.6872 109.438 79.7061 108.607C79.7249 107.796 79.7533 106.974 79.791 106.144C79.8477 105.313 79.9043 104.501 79.9609 103.708C80.0365 102.915 80.0742 102.188 80.0742 101.527C79.3945 101.584 78.696 101.48 77.9785 101.216C77.2799 100.951 76.5908 100.546 75.9111 99.998C75.2314 99.4316 74.5801 98.752 73.957 97.959C73.3529 97.166 72.8148 96.2692 72.3428 95.2686C71.8896 94.2679 71.5309 93.1917 71.2666 92.04C71.0023 90.8695 70.8701 89.6423 70.8701 88.3584ZM85.3135 92.5498C85.3135 90.7184 85.7383 89.359 86.5879 88.4717C87.4375 87.5843 88.7402 87.1406 90.4961 87.1406C91.2135 87.1406 91.9499 87.2067 92.7051 87.3389C93.4792 87.471 94.1872 87.707 94.8291 88.0469C95.471 88.3678 95.9902 88.821 96.3867 89.4062C96.8021 89.9915 97.0098 90.7467 97.0098 91.6719C97.0098 92.6914 96.7832 93.6543 96.3301 94.5605C95.8958 95.4479 95.3389 96.2881 94.6592 97.0811C93.9984 97.8551 93.262 98.582 92.4502 99.2617C91.6572 99.9225 90.9115 100.555 90.2129 101.159C90.1751 101.235 90.1374 101.395 90.0996 101.641C90.0807 101.867 90.0713 102.018 90.0713 102.094C90.0713 102.717 90.2507 103.34 90.6094 103.963C90.987 104.605 91.3929 105.247 91.8271 105.889C92.2614 106.549 92.6579 107.229 93.0166 107.928C93.3753 108.626 93.5547 109.353 93.5547 110.108C93.5547 110.562 93.4603 110.826 93.2715 110.901C93.0827 110.996 92.6862 111.043 92.082 111.043C91.7044 110.892 91.3268 110.533 90.9492 109.967C90.5905 109.419 90.2223 108.74 89.8447 107.928C89.486 107.116 89.1273 106.2 88.7686 105.181C88.4287 104.18 88.0983 103.16 87.7773 102.122C87.4753 101.065 87.1826 100.026 86.8994 99.0068C86.6351 97.9684 86.3991 97.015 86.1914 96.1465C85.9837 95.278 85.7949 94.5322 85.625 93.9092C85.474 93.2673 85.3701 92.8141 85.3135 92.5498ZM87.7207 92.8047C87.7207 93.0879 87.7396 93.5033 87.7773 94.0508C87.8151 94.5794 87.8906 95.1081 88.0039 95.6367C88.1361 96.1654 88.3249 96.6279 88.5703 97.0244C88.8158 97.402 89.1556 97.5908 89.5898 97.5908C90.1751 97.5908 90.7604 97.3926 91.3457 96.9961C91.9499 96.5996 92.4785 96.0993 92.9316 95.4951C93.4036 94.891 93.7812 94.249 94.0645 93.5693C94.3665 92.8708 94.5176 92.2383 94.5176 91.6719C94.5176 91.1999 94.4043 90.8317 94.1777 90.5674C93.9512 90.2842 93.6585 90.0671 93.2998 89.916C92.96 89.7461 92.5918 89.6423 92.1953 89.6045C91.7988 89.5479 91.4212 89.5195 91.0625 89.5195C89.9863 89.5195 89.1556 89.8122 88.5703 90.3975C88.0039 90.9639 87.7207 91.7663 87.7207 92.8047ZM98.6807 91.4453C98.6807 91.332 98.6807 91.1338 98.6807 90.8506C98.6995 90.5485 98.709 90.237 98.709 89.916C98.709 89.5951 98.709 89.3024 98.709 89.0381C98.7279 88.7549 98.7373 88.5566 98.7373 88.4434C98.8695 88.2168 99.0205 87.9997 99.1904 87.792C99.3792 87.5654 99.568 87.4144 99.7568 87.3389C99.9645 87.2445 100.182 87.2256 100.408 87.2822C100.654 87.3389 100.899 87.5277 101.145 87.8486V88.0752V88.4434C101.126 88.5378 101.088 88.7643 101.031 89.123C100.975 89.4629 100.909 89.8405 100.833 90.2559C100.757 90.6712 100.682 91.0583 100.606 91.417C100.55 91.7568 100.521 91.974 100.521 92.0684C100.521 92.4271 100.559 92.8802 100.635 93.4277C100.71 93.9564 100.814 94.5133 100.946 95.0986C101.097 95.6839 101.277 96.2692 101.484 96.8545C101.711 97.4398 101.975 97.9684 102.277 98.4404C102.579 98.8936 102.91 99.2712 103.269 99.5732C103.646 99.8753 104.08 100.026 104.571 100.026C105.175 100.026 105.704 99.8659 106.157 99.5449C106.629 99.224 107.035 98.8086 107.375 98.2988C107.715 97.7891 107.989 97.2132 108.196 96.5713C108.423 95.9294 108.602 95.2874 108.734 94.6455C108.867 93.9847 108.961 93.3522 109.018 92.748C109.074 92.1439 109.103 91.6152 109.103 91.1621C109.103 90.709 109.065 90.2842 108.989 89.8877C108.933 89.4723 108.857 89.0664 108.763 88.6699C108.668 88.2734 108.583 87.8864 108.508 87.5088C108.451 87.1123 108.423 86.7158 108.423 86.3193C108.423 85.9606 108.546 85.7057 108.791 85.5547C109.055 85.4036 109.348 85.3281 109.669 85.3281C110.065 85.3281 110.386 85.4508 110.632 85.6963C110.877 85.9229 111.066 86.2155 111.198 86.5742C111.349 86.9329 111.444 87.3483 111.481 87.8203C111.538 88.2734 111.566 88.7266 111.566 89.1797C111.566 89.6328 111.557 90.0671 111.538 90.4824C111.519 90.8789 111.51 91.1999 111.51 91.4453C111.51 92.0872 111.463 92.8141 111.368 93.626C111.274 94.4378 111.104 95.278 110.858 96.1465C110.632 96.9961 110.339 97.8363 109.98 98.667C109.641 99.4977 109.216 100.243 108.706 100.904C108.215 101.546 107.639 102.065 106.979 102.462C106.337 102.858 105.61 103.057 104.798 103.057C103.948 103.057 103.202 102.858 102.561 102.462C101.919 102.047 101.371 101.508 100.918 100.848C100.484 100.168 100.116 99.4033 99.8135 98.5537C99.5114 97.7041 99.2754 96.8545 99.1055 96.0049C98.9544 95.1553 98.8411 94.334 98.7656 93.541C98.709 92.7292 98.6807 92.0306 98.6807 91.4453ZM118.675 101.726C118.977 101.518 119.336 101.254 119.751 100.933C120.185 100.593 120.619 100.234 121.054 99.8564C121.488 99.4788 121.894 99.0824 122.271 98.667C122.649 98.2516 122.942 97.8551 123.149 97.4775C123.376 97.0811 123.489 96.7129 123.489 96.373C123.489 96.0332 123.319 95.75 122.979 95.5234C122.375 95.5234 121.715 95.5518 120.997 95.6084C120.28 95.6462 119.562 95.665 118.845 95.665C118.127 95.6462 117.429 95.5801 116.749 95.4668C116.088 95.3535 115.493 95.1458 114.965 94.8438C114.436 94.5417 114.011 94.1169 113.69 93.5693C113.388 93.0029 113.237 92.2855 113.237 91.417C113.237 90.3975 113.426 89.4818 113.804 88.6699C114.2 87.8392 114.719 87.1123 115.361 86.4893C116.003 85.8473 116.721 85.2904 117.514 84.8184C118.326 84.3275 119.137 83.9121 119.949 83.5723C120.44 83.7044 120.893 83.9404 121.309 84.2803C121.724 84.6201 122.083 84.9977 122.385 85.4131C122.253 85.8285 121.988 86.1494 121.592 86.376C121.214 86.6025 120.771 86.8008 120.261 86.9707C119.77 87.1406 119.251 87.32 118.703 87.5088C118.156 87.6976 117.655 87.9525 117.202 88.2734C116.768 88.5755 116.4 88.9814 116.098 89.4912C115.796 89.9821 115.645 90.6335 115.645 91.4453C115.645 92.0495 115.796 92.4932 116.098 92.7764C116.4 93.0596 116.796 93.2578 117.287 93.3711C117.778 93.4655 118.335 93.5033 118.958 93.4844C119.581 93.4466 120.214 93.3994 120.855 93.3428C121.516 93.2861 122.158 93.2578 122.781 93.2578C123.404 93.2389 123.961 93.3145 124.452 93.4844C124.943 93.6354 125.33 93.8903 125.613 94.249C125.915 94.6077 126.066 95.1364 126.066 95.835C126.066 96.137 125.963 96.5241 125.755 96.9961C125.566 97.4681 125.302 97.9779 124.962 98.5254C124.641 99.054 124.254 99.5827 123.801 100.111C123.367 100.64 122.904 101.121 122.413 101.556C121.941 101.971 121.46 102.32 120.969 102.604C120.497 102.868 120.053 103 119.638 103C119.241 103 118.977 102.858 118.845 102.575C118.731 102.292 118.675 102.009 118.675 101.726ZM127.199 95.127C127.199 94.1074 127.322 93.0879 127.567 92.0684C127.813 91.0488 128.2 90.1331 128.729 89.3213C129.276 88.5094 129.975 87.8486 130.824 87.3389C131.693 86.8291 132.741 86.5742 133.968 86.5742C134.666 86.5742 135.28 86.7064 135.809 86.9707C136.337 87.2161 136.781 87.5465 137.14 87.9619C137.498 88.3773 137.763 88.8682 137.933 89.4346C138.121 89.9821 138.216 90.5579 138.216 91.1621C138.216 92.125 137.989 93.0596 137.536 93.9658C137.102 94.8721 136.507 95.6745 135.752 96.373C135.016 97.0527 134.166 97.5719 133.203 97.9307C132.24 98.2705 131.258 98.346 130.258 98.1572C130.277 98.7048 130.456 99.1484 130.796 99.4883C131.155 99.8092 131.579 100.055 132.07 100.225C132.561 100.395 133.071 100.508 133.6 100.564C134.128 100.602 134.6 100.621 135.016 100.621C135.45 100.621 135.856 100.583 136.233 100.508C136.611 100.432 136.989 100.347 137.366 100.253C137.744 100.159 138.121 100.074 138.499 99.998C138.896 99.9225 139.311 99.8848 139.745 99.8848C139.915 99.8848 140.085 99.8942 140.255 99.9131C140.425 99.932 140.585 99.9792 140.736 100.055C140.887 100.111 141.01 100.215 141.104 100.366C141.199 100.498 141.246 100.668 141.246 100.876C141.246 101.235 141.114 101.537 140.85 101.782C140.585 102.009 140.245 102.207 139.83 102.377C139.434 102.547 138.99 102.679 138.499 102.773C138.008 102.849 137.527 102.915 137.055 102.972C136.602 103.009 136.177 103.028 135.78 103.028C135.403 103.047 135.119 103.057 134.931 103.057C133.722 103.057 132.637 102.868 131.674 102.49C130.711 102.094 129.899 101.556 129.238 100.876C128.577 100.177 128.068 99.3467 127.709 98.3838C127.369 97.402 127.199 96.3164 127.199 95.127ZM130.201 93.2861C130.201 93.9469 130.286 94.4284 130.456 94.7305C130.645 95.0326 131.089 95.1836 131.787 95.1836C132.278 95.1836 132.759 95.0986 133.231 94.9287C133.703 94.7399 134.128 94.485 134.506 94.1641C134.902 93.8431 135.214 93.4655 135.44 93.0312C135.667 92.597 135.78 92.125 135.78 91.6152C135.78 91.332 135.752 91.0394 135.695 90.7373C135.658 90.4352 135.563 90.1615 135.412 89.916C135.261 89.6517 135.063 89.444 134.817 89.293C134.591 89.123 134.289 89.0381 133.911 89.0381C133.345 89.0381 132.826 89.1702 132.354 89.4346C131.9 89.68 131.513 90.0104 131.192 90.4258C130.871 90.8223 130.626 91.2754 130.456 91.7852C130.286 92.276 130.201 92.7764 130.201 93.2861ZM148.439 101.726C148.742 101.518 149.1 101.254 149.516 100.933C149.95 100.593 150.384 100.234 150.818 99.8564C151.253 99.4788 151.659 99.0824 152.036 98.667C152.414 98.2516 152.706 97.8551 152.914 97.4775C153.141 97.0811 153.254 96.7129 153.254 96.373C153.254 96.0332 153.084 95.75 152.744 95.5234C152.14 95.5234 151.479 95.5518 150.762 95.6084C150.044 95.6462 149.327 95.665 148.609 95.665C147.892 95.6462 147.193 95.5801 146.514 95.4668C145.853 95.3535 145.258 95.1458 144.729 94.8438C144.201 94.5417 143.776 94.1169 143.455 93.5693C143.153 93.0029 143.002 92.2855 143.002 91.417C143.002 90.3975 143.191 89.4818 143.568 88.6699C143.965 87.8392 144.484 87.1123 145.126 86.4893C145.768 85.8473 146.485 85.2904 147.278 84.8184C148.09 84.3275 148.902 83.9121 149.714 83.5723C150.205 83.7044 150.658 83.9404 151.073 84.2803C151.489 84.6201 151.847 84.9977 152.149 85.4131C152.017 85.8285 151.753 86.1494 151.356 86.376C150.979 86.6025 150.535 86.8008 150.025 86.9707C149.535 87.1406 149.015 87.32 148.468 87.5088C147.92 87.6976 147.42 87.9525 146.967 88.2734C146.533 88.5755 146.164 88.9814 145.862 89.4912C145.56 89.9821 145.409 90.6335 145.409 91.4453C145.409 92.0495 145.56 92.4932 145.862 92.7764C146.164 93.0596 146.561 93.2578 147.052 93.3711C147.543 93.4655 148.1 93.5033 148.723 93.4844C149.346 93.4466 149.978 93.3994 150.62 93.3428C151.281 93.2861 151.923 93.2578 152.546 93.2578C153.169 93.2389 153.726 93.3145 154.217 93.4844C154.708 93.6354 155.095 93.8903 155.378 94.249C155.68 94.6077 155.831 95.1364 155.831 95.835C155.831 96.137 155.727 96.5241 155.52 96.9961C155.331 97.4681 155.066 97.9779 154.727 98.5254C154.406 99.054 154.019 99.5827 153.565 100.111C153.131 100.64 152.669 101.121 152.178 101.556C151.706 101.971 151.224 102.32 150.733 102.604C150.261 102.868 149.818 103 149.402 103C149.006 103 148.742 102.858 148.609 102.575C148.496 102.292 148.439 102.009 148.439 101.726ZM8.73535 119.879C8.73535 119.558 8.80143 119.265 8.93359 119.001C9.08464 118.737 9.33952 118.604 9.69824 118.604C9.71712 118.604 9.74544 118.614 9.7832 118.633C9.82096 118.633 9.85872 118.633 9.89648 118.633C9.93424 118.633 9.97201 118.633 10.0098 118.633C10.0664 118.671 10.1702 118.765 10.3213 118.916C10.4912 119.067 10.5951 119.18 10.6328 119.256C10.6895 119.369 10.8027 119.615 10.9727 119.992C11.1615 120.37 11.3786 120.813 11.624 121.323C11.8883 121.814 12.1527 122.343 12.417 122.909C12.7002 123.457 12.9645 123.985 13.21 124.495C13.4743 125.005 13.6914 125.449 13.8613 125.826C14.0501 126.185 14.1823 126.421 14.2578 126.534C14.2767 126.591 14.3617 126.704 14.5127 126.874C14.6826 127.025 14.8053 127.119 14.8809 127.157C15.0319 126.893 15.1829 126.496 15.334 125.968C15.485 125.439 15.6361 124.863 15.7871 124.24C15.957 123.598 16.127 122.947 16.2969 122.286C16.4668 121.606 16.6556 121.002 16.8633 120.474C17.0898 119.926 17.3353 119.482 17.5996 119.143C17.8639 118.784 18.166 118.604 18.5059 118.604C18.9967 118.604 19.4593 118.793 19.8936 119.171C20.3467 119.549 20.7715 120.039 21.168 120.644C21.5833 121.248 21.9704 121.927 22.3291 122.683C22.7067 123.419 23.056 124.155 23.377 124.892C23.7168 125.609 24.0283 126.279 24.3115 126.902C24.6136 127.507 24.9062 127.988 25.1895 128.347C25.416 128.271 25.6048 128.082 25.7559 127.78C25.9069 127.478 26.0202 127.167 26.0957 126.846C26.1901 126.506 26.2562 126.194 26.2939 125.911C26.3317 125.609 26.36 125.411 26.3789 125.316C26.3978 125.109 26.4261 124.788 26.4639 124.354C26.5016 123.9 26.5394 123.391 26.5771 122.824C26.6338 122.258 26.681 121.673 26.7188 121.068C26.7565 120.464 26.7943 119.879 26.832 119.312C26.8887 118.746 26.9264 118.246 26.9453 117.812C26.9831 117.358 27.002 117.037 27.002 116.849C27.0397 116.849 27.1341 116.839 27.2852 116.82C27.4362 116.783 27.54 116.764 27.5967 116.764C27.861 116.764 28.097 116.792 28.3047 116.849C28.5124 116.905 28.6729 117.104 28.7861 117.443C28.7861 117.576 28.7861 117.812 28.7861 118.151C28.805 118.491 28.8145 118.859 28.8145 119.256C28.8333 119.633 28.8428 120.002 28.8428 120.36C28.8617 120.7 28.8711 120.936 28.8711 121.068C28.8711 121.37 28.8711 121.842 28.8711 122.484C28.89 123.107 28.8805 123.806 28.8428 124.58C28.8239 125.354 28.7673 126.147 28.6729 126.959C28.5785 127.752 28.4274 128.488 28.2197 129.168C28.0309 129.829 27.7666 130.376 27.4268 130.811C27.0869 131.226 26.6621 131.434 26.1523 131.434C25.5671 131.434 25.0195 131.292 24.5098 131.009C24 130.726 23.5186 130.348 23.0654 129.876C22.6312 129.404 22.2158 128.885 21.8193 128.318C21.4229 127.733 21.0547 127.148 20.7148 126.562C20.3939 125.958 20.0918 125.392 19.8086 124.863C19.5443 124.316 19.3083 123.853 19.1006 123.476C18.9495 123.815 18.8079 124.24 18.6758 124.75C18.5625 125.26 18.4303 125.817 18.2793 126.421C18.1283 127.006 17.9583 127.601 17.7695 128.205C17.5807 128.79 17.3636 129.328 17.1182 129.819C16.8916 130.291 16.6178 130.678 16.2969 130.98C15.9948 131.283 15.6455 131.434 15.249 131.434C15.0602 131.434 14.8903 131.443 14.7393 131.462C14.5882 131.462 14.4466 131.452 14.3145 131.434C14.1823 131.396 14.0596 131.33 13.9463 131.235C13.833 131.141 13.7292 130.99 13.6348 130.782L8.79199 120.445C8.79199 120.426 8.78255 120.351 8.76367 120.219C8.74479 120.068 8.73535 119.954 8.73535 119.879ZM42.8047 128.347C42.0872 128.838 41.4642 129.281 40.9355 129.678C40.4258 130.055 39.9255 130.376 39.4346 130.641C38.9437 130.905 38.415 131.103 37.8486 131.235C37.3011 131.368 36.6214 131.434 35.8096 131.434C34.0537 131.434 32.751 130.971 31.9014 130.046C31.0518 129.102 30.627 127.705 30.627 125.854C30.627 125.137 30.7214 124.391 30.9102 123.617C31.099 122.843 31.3727 122.078 31.7314 121.323C32.109 120.549 32.5527 119.822 33.0625 119.143C33.5723 118.444 34.1481 117.83 34.79 117.302C35.432 116.773 36.1117 116.358 36.8291 116.056C37.5654 115.735 38.3395 115.574 39.1514 115.574C40.5107 115.706 41.5775 116.046 42.3516 116.594C43.1257 117.122 43.7109 117.812 44.1074 118.661C44.5039 119.492 44.7777 120.426 44.9287 121.465C45.0798 122.484 45.193 123.542 45.2686 124.637C45.363 125.732 45.4762 126.827 45.6084 127.922C45.7406 129.017 46.0143 130.027 46.4297 130.952C46.1842 131.575 45.9482 132.009 45.7217 132.255C45.514 132.519 45.278 132.566 45.0137 132.396C44.7493 132.227 44.4378 131.811 44.0791 131.15C43.7393 130.49 43.3145 129.555 42.8047 128.347ZM33.0342 125.911C33.0342 126.987 33.2324 127.78 33.6289 128.29C34.0443 128.781 34.7712 129.026 35.8096 129.026C36.5837 129.026 37.32 128.894 38.0186 128.63C38.736 128.347 39.359 127.969 39.8877 127.497C40.4163 127.006 40.8411 126.421 41.1621 125.741C41.4831 125.062 41.6436 124.306 41.6436 123.476C41.6436 123.136 41.653 122.664 41.6719 122.06C41.6908 121.437 41.653 120.823 41.5586 120.219C41.4642 119.615 41.2848 119.095 41.0205 118.661C40.7562 118.208 40.3597 117.981 39.8311 117.981C38.8493 117.981 37.943 118.236 37.1123 118.746C36.2816 119.237 35.5641 119.869 34.96 120.644C34.3558 121.418 33.8838 122.277 33.5439 123.221C33.2041 124.146 33.0342 125.043 33.0342 125.911ZM48.2139 120.105C48.2139 119.936 48.2233 119.766 48.2422 119.596C48.2611 119.407 48.2988 119.246 48.3555 119.114C48.4121 118.963 48.4971 118.84 48.6104 118.746C48.7425 118.652 48.9219 118.604 49.1484 118.604C49.3372 118.604 49.5449 118.756 49.7715 119.058C50.0169 119.341 50.2624 119.709 50.5078 120.162C50.7533 120.596 50.9893 121.078 51.2158 121.606C51.4613 122.135 51.6689 122.626 51.8389 123.079C52.0277 123.513 52.1787 123.891 52.292 124.212C52.4053 124.533 52.4714 124.703 52.4902 124.722C52.7357 124.061 53.0094 123.343 53.3115 122.569C53.6136 121.795 53.9818 121.078 54.416 120.417C54.8691 119.737 55.3978 119.171 56.002 118.718C56.625 118.265 57.3802 118.038 58.2676 118.038C58.7207 118.038 59.1455 118.114 59.542 118.265C59.9574 118.397 60.3161 118.604 60.6182 118.888C60.9391 119.152 61.194 119.473 61.3828 119.851C61.5716 120.228 61.666 120.662 61.666 121.153C61.666 121.569 61.4961 121.861 61.1562 122.031C60.8353 122.201 60.4671 122.286 60.0518 122.286H59.7686L58.5508 121.068C58.513 121.068 58.4847 121.059 58.4658 121.04C58.4281 121.04 58.3903 121.04 58.3525 121.04C58.3337 121.021 58.3053 121.012 58.2676 121.012C57.6068 121.012 57.0876 121.201 56.71 121.578C56.3512 121.937 56.0775 122.39 55.8887 122.938C55.6999 123.466 55.5771 124.033 55.5205 124.637C55.4827 125.222 55.4639 125.76 55.4639 126.251C55.4639 126.629 55.5016 127.016 55.5771 127.412C55.6527 127.79 55.7376 128.167 55.832 128.545C55.9264 128.904 56.0114 129.281 56.0869 129.678C56.1624 130.055 56.2002 130.452 56.2002 130.867C56.2002 131.66 55.7754 132.057 54.9258 132.057C54.4538 132.057 53.9629 131.811 53.4531 131.32C52.9434 130.811 52.4336 130.169 51.9238 129.395C51.4329 128.62 50.9609 127.771 50.5078 126.846C50.0547 125.902 49.6582 124.986 49.3184 124.099C48.9785 123.211 48.7048 122.409 48.4971 121.691C48.3083 120.974 48.2139 120.445 48.2139 120.105ZM62.0625 120.105C62.0625 119.633 62.138 119.265 62.2891 119.001C62.459 118.737 62.8083 118.604 63.3369 118.604C63.3936 118.604 63.4974 118.614 63.6484 118.633C63.8184 118.633 63.9222 118.633 63.96 118.633C64.0921 119.218 64.2243 119.86 64.3564 120.559C64.5075 121.238 64.6774 121.927 64.8662 122.626C65.055 123.325 65.2627 124.014 65.4893 124.693C65.7347 125.373 66.0273 125.987 66.3672 126.534C66.707 126.175 66.9525 125.751 67.1035 125.26C67.2546 124.769 67.3678 124.278 67.4434 123.787C67.5189 123.277 67.585 122.796 67.6416 122.343C67.7171 121.871 67.8587 121.474 68.0664 121.153C68.2741 120.813 68.5762 120.568 68.9727 120.417C69.388 120.266 69.9544 120.266 70.6719 120.417C71.4648 120.417 72.0973 120.568 72.5693 120.87C73.0413 121.153 73.4473 121.521 73.7871 121.975C74.1458 122.409 74.4857 122.881 74.8066 123.391C75.1465 123.882 75.5713 124.325 76.0811 124.722C76.1943 124.476 76.3359 124.174 76.5059 123.815C76.6758 123.438 76.8835 123.051 77.1289 122.654C77.3932 122.239 77.667 121.833 77.9502 121.437C78.2523 121.021 78.5638 120.653 78.8848 120.332C79.2057 119.992 79.5361 119.718 79.876 119.511C80.2158 119.284 80.5462 119.171 80.8672 119.171C81.6413 119.171 82.3115 119.416 82.8779 119.907C83.4443 120.379 83.9258 120.983 84.3223 121.72C84.7376 122.437 85.0775 123.249 85.3418 124.155C85.6061 125.043 85.8138 125.902 85.9648 126.732C86.1159 127.563 86.2197 128.328 86.2764 129.026C86.3519 129.706 86.3896 130.197 86.3896 130.499C86.3896 130.744 86.333 130.933 86.2197 131.065C86.1064 131.198 85.9648 131.301 85.7949 131.377C85.625 131.434 85.4362 131.471 85.2285 131.49C85.0397 131.509 84.8604 131.519 84.6904 131.519C84.6527 131.519 84.596 131.519 84.5205 131.519C84.445 131.5 84.36 131.481 84.2656 131.462C84.1901 131.443 84.0863 131.415 83.9541 131.377L82.1133 122.909C82.1133 122.853 82.0378 122.749 81.8867 122.598C81.7357 122.428 81.6224 122.324 81.5469 122.286C81.4902 122.286 81.443 122.277 81.4053 122.258C81.3675 122.258 81.3392 122.258 81.3203 122.258C81.3014 122.239 81.2826 122.229 81.2637 122.229C80.8672 122.229 80.4896 122.39 80.1309 122.711C79.791 123.032 79.4701 123.438 79.168 123.929C78.8659 124.42 78.5827 124.967 78.3184 125.571C78.054 126.175 77.818 126.78 77.6104 127.384C77.4027 127.969 77.2139 128.517 77.0439 129.026C76.8929 129.517 76.7702 129.895 76.6758 130.159C76.6003 130.197 76.4492 130.235 76.2227 130.272C75.9961 130.291 75.8451 130.301 75.7695 130.301C75.2409 130.301 74.835 130.121 74.5518 129.763C74.2686 129.385 74.0326 128.923 73.8438 128.375C73.6738 127.827 73.5228 127.233 73.3906 126.591C73.2773 125.93 73.1263 125.326 72.9375 124.778C72.7676 124.231 72.5221 123.778 72.2012 123.419C71.8991 123.041 71.4648 122.853 70.8984 122.853C70.6908 122.853 70.4925 123.06 70.3037 123.476C70.1149 123.891 69.945 124.42 69.7939 125.062C69.6429 125.685 69.5013 126.364 69.3691 127.101C69.237 127.818 69.1237 128.498 69.0293 129.14C68.9538 129.763 68.8971 130.291 68.8594 130.726C68.8216 131.16 68.8027 131.377 68.8027 131.377C68.765 131.434 68.6895 131.5 68.5762 131.575C68.4629 131.632 68.3402 131.698 68.208 131.773C68.0947 131.849 67.972 131.906 67.8398 131.943C67.7266 131.981 67.6416 132 67.585 132C67.0563 132 66.5465 131.764 66.0557 131.292C65.5648 130.801 65.1117 130.178 64.6963 129.423C64.2998 128.649 63.9316 127.799 63.5918 126.874C63.2708 125.949 62.9971 125.043 62.7705 124.155C62.5439 123.268 62.3646 122.465 62.2324 121.748C62.1191 121.031 62.0625 120.483 62.0625 120.105ZM89.1367 122.796C89.1367 122.739 89.1462 122.635 89.165 122.484C89.1839 122.314 89.1934 122.22 89.1934 122.201C89.4954 122.201 89.9014 122.182 90.4111 122.145C90.9398 122.088 91.5156 122.041 92.1387 122.003C92.7617 121.946 93.4036 121.89 94.0645 121.833C94.7441 121.776 95.3861 121.739 95.9902 121.72C96.5944 121.701 97.1514 121.691 97.6611 121.691C98.1709 121.691 98.5674 121.72 98.8506 121.776C99.1904 121.776 99.4264 121.814 99.5586 121.89C99.7096 121.965 99.7852 122.22 99.7852 122.654C99.2188 123.032 98.5107 123.315 97.6611 123.504C96.8115 123.674 95.943 123.797 95.0557 123.872C94.1683 123.948 93.2998 123.985 92.4502 123.985C91.6195 123.985 90.9398 123.995 90.4111 124.014C89.9014 124.051 89.5615 123.948 89.3916 123.702C89.2217 123.457 89.1367 123.155 89.1367 122.796ZM106.384 130.782C105.799 129.083 105.242 127.497 104.713 126.024C104.203 124.533 103.75 123.079 103.354 121.663C102.976 120.228 102.674 118.774 102.447 117.302C102.221 115.829 102.107 114.253 102.107 112.572C102.107 112.44 102.107 112.204 102.107 111.864C102.126 111.506 102.136 111.137 102.136 110.76C102.136 110.382 102.136 110.023 102.136 109.684C102.155 109.325 102.164 109.079 102.164 108.947C102.334 108.57 102.627 108.22 103.042 107.899C103.476 107.578 103.91 107.418 104.345 107.418C104.345 108.815 104.364 110.307 104.401 111.893C104.439 113.46 104.552 115.027 104.741 116.594C104.949 118.161 105.27 119.7 105.704 121.21C106.157 122.701 106.79 124.07 107.602 125.316C107.62 124.863 107.639 124.363 107.658 123.815C107.677 123.268 107.724 122.72 107.8 122.173C107.894 121.625 108.036 121.097 108.225 120.587C108.413 120.077 108.687 119.624 109.046 119.228C109.424 118.831 109.905 118.52 110.49 118.293C111.094 118.066 111.85 117.963 112.756 117.981C113.568 117.981 114.295 118.132 114.937 118.435C115.597 118.737 116.145 119.152 116.579 119.681C117.032 120.19 117.372 120.795 117.599 121.493C117.844 122.173 117.967 122.9 117.967 123.674C117.967 124.712 117.712 125.732 117.202 126.732C116.692 127.733 116.013 128.63 115.163 129.423C114.332 130.216 113.398 130.858 112.359 131.349C111.321 131.821 110.264 132.057 109.188 132.057C108.64 132.057 108.111 131.962 107.602 131.773C107.092 131.566 106.686 131.235 106.384 130.782ZM113.096 120.445C112.718 120.653 112.322 120.898 111.906 121.182C111.491 121.465 111.104 121.909 110.745 122.513C110.405 123.098 110.113 123.9 109.867 124.92C109.622 125.939 109.471 127.289 109.414 128.97C109.452 128.97 109.546 128.979 109.697 128.998C109.867 129.017 109.98 129.026 110.037 129.026C110.547 129.026 111.123 128.866 111.765 128.545C112.425 128.224 113.058 127.827 113.662 127.355C114.285 126.883 114.823 126.364 115.276 125.798C115.729 125.213 116.003 124.656 116.098 124.127C116.154 123.806 116.088 123.438 115.899 123.022C115.711 122.607 115.456 122.211 115.135 121.833C114.833 121.437 114.493 121.106 114.115 120.842C113.757 120.577 113.417 120.445 113.096 120.445ZM120.374 115.971C120.374 115.423 120.336 114.895 120.261 114.385C120.185 113.856 120.166 113.394 120.204 112.997C120.242 112.582 120.383 112.251 120.629 112.006C120.893 111.76 121.365 111.638 122.045 111.638C122.253 112.072 122.451 112.733 122.64 113.62C122.847 114.507 123.046 115.527 123.234 116.679C123.423 117.83 123.603 119.086 123.772 120.445C123.942 121.786 124.093 123.136 124.226 124.495C124.377 125.854 124.499 127.195 124.594 128.517C124.707 129.819 124.792 131.009 124.849 132.085C124.226 132.5 123.725 132.529 123.348 132.17C122.97 131.811 122.659 131.207 122.413 130.357C122.168 129.489 121.979 128.441 121.847 127.214C121.715 125.968 121.582 124.684 121.45 123.362C121.337 122.022 121.195 120.71 121.025 119.426C120.855 118.123 120.638 116.971 120.374 115.971ZM126.321 126.251C126.321 125.08 126.595 123.995 127.143 122.994C127.69 121.975 128.408 121.106 129.295 120.389C130.201 119.652 131.211 119.076 132.325 118.661C133.458 118.246 134.6 118.038 135.752 118.038C136.394 118.038 136.96 118.246 137.451 118.661C137.961 119.076 138.386 119.586 138.726 120.19C139.065 120.776 139.32 121.399 139.49 122.06C139.679 122.72 139.773 123.296 139.773 123.787C139.773 124.844 139.519 125.873 139.009 126.874C138.499 127.856 137.838 128.734 137.026 129.508C136.215 130.263 135.299 130.877 134.279 131.349C133.26 131.821 132.24 132.057 131.221 132.057C130.314 132.057 129.55 131.906 128.927 131.604C128.304 131.283 127.803 130.867 127.426 130.357C127.048 129.829 126.765 129.215 126.576 128.517C126.406 127.799 126.321 127.044 126.321 126.251ZM128.729 126.534C128.729 127.025 128.766 127.459 128.842 127.837C128.936 128.196 129.087 128.507 129.295 128.771C129.521 129.036 129.814 129.243 130.173 129.395C130.532 129.527 130.975 129.593 131.504 129.593C132.202 129.593 132.901 129.404 133.6 129.026C134.298 128.63 134.921 128.139 135.469 127.554C136.035 126.95 136.488 126.289 136.828 125.571C137.168 124.854 137.338 124.155 137.338 123.476C137.338 123.174 137.31 122.843 137.253 122.484C137.196 122.126 137.102 121.795 136.97 121.493C136.838 121.191 136.649 120.936 136.403 120.729C136.158 120.521 135.846 120.417 135.469 120.417C135.129 120.417 134.723 120.53 134.251 120.757C133.798 120.983 133.316 121.276 132.807 121.635C132.316 121.993 131.825 122.399 131.334 122.853C130.862 123.306 130.428 123.759 130.031 124.212C129.635 124.665 129.314 125.099 129.068 125.515C128.842 125.93 128.729 126.27 128.729 126.534ZM140.878 126.251C140.878 125.08 141.152 123.995 141.699 122.994C142.247 121.975 142.964 121.106 143.852 120.389C144.758 119.652 145.768 119.076 146.882 118.661C148.015 118.246 149.157 118.038 150.309 118.038C150.951 118.038 151.517 118.246 152.008 118.661C152.518 119.076 152.942 119.586 153.282 120.19C153.622 120.776 153.877 121.399 154.047 122.06C154.236 122.72 154.33 123.296 154.33 123.787C154.33 124.844 154.075 125.873 153.565 126.874C153.056 127.856 152.395 128.734 151.583 129.508C150.771 130.263 149.855 130.877 148.836 131.349C147.816 131.821 146.797 132.057 145.777 132.057C144.871 132.057 144.106 131.906 143.483 131.604C142.86 131.283 142.36 130.867 141.982 130.357C141.605 129.829 141.322 129.215 141.133 128.517C140.963 127.799 140.878 127.044 140.878 126.251ZM143.285 126.534C143.285 127.025 143.323 127.459 143.398 127.837C143.493 128.196 143.644 128.507 143.852 128.771C144.078 129.036 144.371 129.243 144.729 129.395C145.088 129.527 145.532 129.593 146.061 129.593C146.759 129.593 147.458 129.404 148.156 129.026C148.855 128.63 149.478 128.139 150.025 127.554C150.592 126.95 151.045 126.289 151.385 125.571C151.725 124.854 151.895 124.155 151.895 123.476C151.895 123.174 151.866 122.843 151.81 122.484C151.753 122.126 151.659 121.795 151.526 121.493C151.394 121.191 151.205 120.936 150.96 120.729C150.715 120.521 150.403 120.417 150.025 120.417C149.686 120.417 149.28 120.53 148.808 120.757C148.354 120.983 147.873 121.276 147.363 121.635C146.872 121.993 146.382 122.399 145.891 122.853C145.419 123.306 144.984 123.759 144.588 124.212C144.191 124.665 143.87 125.099 143.625 125.515C143.398 125.93 143.285 126.27 143.285 126.534ZM154.812 128.658C154.812 127.563 155.085 126.591 155.633 125.741C156.18 124.892 156.86 124.155 157.672 123.532C158.484 122.89 159.362 122.352 160.306 121.918C161.25 121.465 162.128 121.097 162.939 120.813C163.751 120.511 164.431 120.275 164.979 120.105C165.526 119.917 165.8 119.766 165.8 119.652C165.8 118.992 165.762 118.35 165.687 117.727C165.63 117.085 165.564 116.443 165.488 115.801C165.413 115.159 165.337 114.526 165.262 113.903C165.205 113.261 165.177 112.629 165.177 112.006V110.165C165.951 109.882 166.498 109.91 166.819 110.25C167.159 110.59 167.216 111.175 166.989 112.006C167.065 112.421 167.169 113.073 167.301 113.96C167.433 114.847 167.575 115.848 167.726 116.962C167.896 118.076 168.065 119.246 168.235 120.474C168.424 121.701 168.594 122.881 168.745 124.014C168.915 125.128 169.057 126.128 169.17 127.016C169.283 127.884 169.368 128.535 169.425 128.97C169.444 129.064 169.463 129.253 169.481 129.536C169.5 129.8 169.51 130.093 169.51 130.414C169.529 130.716 169.538 130.999 169.538 131.264C169.557 131.528 169.566 131.717 169.566 131.83C168.849 131.83 168.358 131.802 168.094 131.745C167.848 131.688 167.688 131.575 167.612 131.405C167.556 131.235 167.527 130.99 167.527 130.669C167.527 130.348 167.433 129.904 167.244 129.338C166.546 129.885 165.885 130.339 165.262 130.697C164.639 131.056 164.016 131.349 163.393 131.575C162.77 131.783 162.137 131.924 161.495 132C160.872 132.094 160.202 132.142 159.484 132.142C158.88 132.142 158.295 132.094 157.729 132C157.181 131.887 156.69 131.698 156.256 131.434C155.822 131.169 155.472 130.811 155.208 130.357C154.944 129.904 154.812 129.338 154.812 128.658ZM157.275 128.063C157.275 128.366 157.341 128.611 157.474 128.8C157.606 128.989 157.776 129.149 157.983 129.281C158.191 129.413 158.408 129.508 158.635 129.564C158.88 129.602 159.116 129.621 159.343 129.621C160.004 129.621 160.712 129.498 161.467 129.253C162.241 128.989 162.949 128.63 163.591 128.177C164.252 127.705 164.79 127.148 165.205 126.506C165.639 125.864 165.856 125.165 165.856 124.41C165.856 123.825 165.753 123.419 165.545 123.192C165.337 122.966 164.941 122.853 164.355 122.853C163.751 122.853 163.043 122.994 162.231 123.277C161.438 123.561 160.664 123.938 159.909 124.41C159.173 124.882 158.55 125.439 158.04 126.081C157.53 126.704 157.275 127.365 157.275 128.063ZM171.237 124.127C171.237 123.107 171.36 122.088 171.605 121.068C171.851 120.049 172.238 119.133 172.767 118.321C173.314 117.509 174.013 116.849 174.862 116.339C175.731 115.829 176.779 115.574 178.006 115.574C178.704 115.574 179.318 115.706 179.847 115.971C180.375 116.216 180.819 116.547 181.178 116.962C181.536 117.377 181.801 117.868 181.971 118.435C182.16 118.982 182.254 119.558 182.254 120.162C182.254 121.125 182.027 122.06 181.574 122.966C181.14 123.872 180.545 124.674 179.79 125.373C179.054 126.053 178.204 126.572 177.241 126.931C176.278 127.271 175.297 127.346 174.296 127.157C174.315 127.705 174.494 128.148 174.834 128.488C175.193 128.809 175.618 129.055 176.108 129.225C176.599 129.395 177.109 129.508 177.638 129.564C178.166 129.602 178.638 129.621 179.054 129.621C179.488 129.621 179.894 129.583 180.271 129.508C180.649 129.432 181.027 129.347 181.404 129.253C181.782 129.159 182.16 129.074 182.537 128.998C182.934 128.923 183.349 128.885 183.783 128.885C183.953 128.885 184.123 128.894 184.293 128.913C184.463 128.932 184.623 128.979 184.774 129.055C184.925 129.111 185.048 129.215 185.143 129.366C185.237 129.498 185.284 129.668 185.284 129.876C185.284 130.235 185.152 130.537 184.888 130.782C184.623 131.009 184.284 131.207 183.868 131.377C183.472 131.547 183.028 131.679 182.537 131.773C182.046 131.849 181.565 131.915 181.093 131.972C180.64 132.009 180.215 132.028 179.818 132.028C179.441 132.047 179.158 132.057 178.969 132.057C177.76 132.057 176.675 131.868 175.712 131.49C174.749 131.094 173.937 130.556 173.276 129.876C172.616 129.177 172.106 128.347 171.747 127.384C171.407 126.402 171.237 125.316 171.237 124.127ZM174.239 122.286C174.239 122.947 174.324 123.428 174.494 123.73C174.683 124.033 175.127 124.184 175.825 124.184C176.316 124.184 176.798 124.099 177.27 123.929C177.742 123.74 178.166 123.485 178.544 123.164C178.94 122.843 179.252 122.465 179.479 122.031C179.705 121.597 179.818 121.125 179.818 120.615C179.818 120.332 179.79 120.039 179.733 119.737C179.696 119.435 179.601 119.161 179.45 118.916C179.299 118.652 179.101 118.444 178.855 118.293C178.629 118.123 178.327 118.038 177.949 118.038C177.383 118.038 176.864 118.17 176.392 118.435C175.938 118.68 175.551 119.01 175.23 119.426C174.91 119.822 174.664 120.275 174.494 120.785C174.324 121.276 174.239 121.776 174.239 122.286ZM186.417 128.658C186.417 127.563 186.691 126.591 187.238 125.741C187.786 124.892 188.465 124.155 189.277 123.532C190.089 122.89 190.967 122.352 191.911 121.918C192.855 121.465 193.733 121.097 194.545 120.813C195.357 120.511 196.036 120.275 196.584 120.105C197.132 119.917 197.405 119.766 197.405 119.652C197.405 118.992 197.368 118.35 197.292 117.727C197.235 117.085 197.169 116.443 197.094 115.801C197.018 115.159 196.943 114.526 196.867 113.903C196.811 113.261 196.782 112.629 196.782 112.006V110.165C197.556 109.882 198.104 109.91 198.425 110.25C198.765 110.59 198.821 111.175 198.595 112.006C198.67 112.421 198.774 113.073 198.906 113.96C199.038 114.847 199.18 115.848 199.331 116.962C199.501 118.076 199.671 119.246 199.841 120.474C200.03 121.701 200.2 122.881 200.351 124.014C200.521 125.128 200.662 126.128 200.775 127.016C200.889 127.884 200.974 128.535 201.03 128.97C201.049 129.064 201.068 129.253 201.087 129.536C201.106 129.8 201.115 130.093 201.115 130.414C201.134 130.716 201.144 130.999 201.144 131.264C201.162 131.528 201.172 131.717 201.172 131.83C200.454 131.83 199.964 131.802 199.699 131.745C199.454 131.688 199.293 131.575 199.218 131.405C199.161 131.235 199.133 130.99 199.133 130.669C199.133 130.348 199.038 129.904 198.85 129.338C198.151 129.885 197.49 130.339 196.867 130.697C196.244 131.056 195.621 131.349 194.998 131.575C194.375 131.783 193.743 131.924 193.101 132C192.478 132.094 191.807 132.142 191.09 132.142C190.486 132.142 189.9 132.094 189.334 132C188.786 131.887 188.296 131.698 187.861 131.434C187.427 131.169 187.078 130.811 186.813 130.357C186.549 129.904 186.417 129.338 186.417 128.658ZM188.881 128.063C188.881 128.366 188.947 128.611 189.079 128.8C189.211 128.989 189.381 129.149 189.589 129.281C189.797 129.413 190.014 129.508 190.24 129.564C190.486 129.602 190.722 129.621 190.948 129.621C191.609 129.621 192.317 129.498 193.072 129.253C193.846 128.989 194.554 128.63 195.196 128.177C195.857 127.705 196.395 127.148 196.811 126.506C197.245 125.864 197.462 125.165 197.462 124.41C197.462 123.825 197.358 123.419 197.15 123.192C196.943 122.966 196.546 122.853 195.961 122.853C195.357 122.853 194.649 122.994 193.837 123.277C193.044 123.561 192.27 123.938 191.515 124.41C190.778 124.882 190.155 125.439 189.646 126.081C189.136 126.704 188.881 127.365 188.881 128.063Z" fill="#7B61FF"/>
</svg>
