<svg width="497" height="497" viewBox="0 0 497 497" fill="none" xmlns="http://www.w3.org/2000/svg">
<rect width="497" height="497" rx="82" fill="url(#paint0_radial_64_96)"/>
<path d="M134.057 92V332.401" stroke="#0BAFF9" stroke-width="37" stroke-linecap="round"/>
<path d="M138.026 236.707C138.514 236.602 139.76 235.335 140.269 234.924C141.58 233.866 146.3 228.787 147.084 227.255C150.304 223.527 149.816 223.647 152.652 220.021C154.893 217.157 158.675 213.599 160.639 210.591C162.369 207.943 164.035 206.889 166.007 204.46C170.262 200.473 173.365 197.198 180.836 193.032C183.54 191.525 189.478 189.885 192.314 188.784C200.41 187.267 203.404 186.812 207.847 186.712C213.926 186.575 217.024 187.526 223.22 189.093C228.578 190.448 236.337 194.595 240.862 198.021C246.384 202.202 249.118 203.029 254.369 207.581C259.887 212.364 266.763 215.804 272.097 220.781C277.671 225.983 284.762 229.822 291.557 232.951C299.194 236.468 306.419 241.465 314.592 243.582C322.46 245.62 330.684 248.44 338.88 247.948C342.549 247.728 345.983 246.795 349.62 246.493C354.421 246.094 360.015 243.422 364.527 241.983C369.854 240.283 374.24 236.807 378.222 232.805C380.203 230.815 381.953 228.942 383.727 226.757C385.539 224.526 385.339 223.914 386.65 221.423C387.259 220.266 388.237 217.085 388.525 215.808C388.806 214.562 389.549 213.536 389.843 212.374C390.373 210.282 391.208 209.234 391.466 207.109C391.648 205.612 393.294 203.004 393.788 201.496C394.189 200.271 395.649 197.963 395.532 196.686" stroke="#0BAFF9" stroke-width="37" stroke-linecap="round"/>
<path d="M82.5445 399.862H69.6825V436H61.747V399.862H48.885V393.343H82.5445V399.862ZM125.123 405.733L115.506 436H109.665C108.996 436 108.534 435.567 108.279 434.702L102.851 417.208C102.674 416.618 102.506 416.038 102.349 415.468C102.211 414.878 102.093 414.288 101.995 413.698C101.877 414.288 101.739 414.888 101.582 415.497C101.444 416.087 101.287 416.677 101.11 417.267L95.5936 434.702C95.3576 435.567 94.8365 436 94.0301 436H88.4251L78.8376 405.733H84.6491C85.1801 405.733 85.6325 405.861 86.0061 406.116C86.3798 406.372 86.6256 406.697 86.7436 407.09L91.0801 423.256C91.2965 424.141 91.4833 425.006 91.6406 425.852C91.8176 426.698 91.9651 427.543 92.0831 428.389C92.2995 427.543 92.5256 426.698 92.7616 425.852C93.0173 425.006 93.2828 424.141 93.5581 423.256L98.5731 407.031C98.6911 406.638 98.9173 406.313 99.2516 406.057C99.6056 405.802 100.028 405.674 100.52 405.674H103.736C104.247 405.674 104.68 405.802 105.034 406.057C105.407 406.313 105.653 406.638 105.771 407.031L110.639 423.256C110.894 424.141 111.13 425.016 111.347 425.881C111.583 426.727 111.809 427.573 112.025 428.419C112.281 426.747 112.645 425.026 113.117 423.256L117.571 407.09C117.709 406.697 117.955 406.372 118.309 406.116C118.663 405.861 119.085 405.733 119.577 405.733H125.123ZM136.819 405.733V436H129.503V405.733H136.819ZM137.822 396.912C137.822 397.542 137.694 398.132 137.438 398.682C137.183 399.233 136.839 399.715 136.406 400.128C135.993 400.541 135.501 400.875 134.931 401.131C134.361 401.367 133.751 401.485 133.102 401.485C132.473 401.485 131.873 401.367 131.302 401.131C130.752 400.875 130.27 400.541 129.857 400.128C129.444 399.715 129.11 399.233 128.854 398.682C128.618 398.132 128.5 397.542 128.5 396.912C128.5 396.263 128.618 395.654 128.854 395.083C129.11 394.513 129.444 394.021 129.857 393.608C130.27 393.195 130.752 392.871 131.302 392.635C131.873 392.379 132.473 392.251 133.102 392.251C133.751 392.251 134.361 392.379 134.931 392.635C135.501 392.871 135.993 393.195 136.406 393.608C136.839 394.021 137.183 394.513 137.438 395.083C137.694 395.654 137.822 396.263 137.822 396.912ZM163.245 413.462C162.419 412.459 161.515 411.751 160.531 411.338C159.568 410.925 158.525 410.718 157.404 410.718C156.303 410.718 155.31 410.925 154.425 411.338C153.54 411.751 152.783 412.38 152.153 413.226C151.524 414.052 151.042 415.114 150.708 416.412C150.374 417.69 150.206 419.205 150.206 420.955C150.206 422.725 150.344 424.229 150.619 425.468C150.914 426.688 151.327 427.691 151.858 428.477C152.389 429.244 153.038 429.805 153.805 430.159C154.572 430.493 155.428 430.66 156.372 430.66C157.886 430.66 159.174 430.346 160.236 429.716C161.298 429.087 162.301 428.192 163.245 427.032V413.462ZM170.532 392.163V436H166.077C165.114 436 164.504 435.557 164.248 434.672L163.629 431.752C162.41 433.148 161.003 434.279 159.41 435.144C157.837 436.01 155.998 436.443 153.894 436.443C152.242 436.443 150.728 436.098 149.351 435.41C147.974 434.722 146.784 433.728 145.781 432.43C144.798 431.113 144.031 429.49 143.48 427.563C142.949 425.636 142.684 423.433 142.684 420.955C142.684 418.713 142.989 416.628 143.598 414.701C144.208 412.774 145.083 411.102 146.224 409.686C147.365 408.27 148.731 407.169 150.324 406.382C151.917 405.576 153.707 405.172 155.693 405.172C157.385 405.172 158.83 405.438 160.03 405.969C161.23 406.5 162.301 407.218 163.245 408.122V392.163H170.532ZM196.721 413.462C195.895 412.459 194.99 411.751 194.007 411.338C193.043 410.925 192.001 410.718 190.88 410.718C189.779 410.718 188.786 410.925 187.901 411.338C187.016 411.751 186.258 412.38 185.629 413.226C185 414.052 184.518 415.114 184.184 416.412C183.849 417.69 183.682 419.205 183.682 420.955C183.682 422.725 183.82 424.229 184.095 425.468C184.39 426.688 184.803 427.691 185.334 428.477C185.865 429.244 186.514 429.805 187.281 430.159C188.048 430.493 188.904 430.66 189.848 430.66C191.362 430.66 192.65 430.346 193.712 429.716C194.774 429.087 195.777 428.192 196.721 427.032V413.462ZM204.008 392.163V436H199.553C198.589 436 197.98 435.557 197.724 434.672L197.105 431.752C195.885 433.148 194.479 434.279 192.886 435.144C191.313 436.01 189.474 436.443 187.37 436.443C185.718 436.443 184.203 436.098 182.827 435.41C181.45 434.722 180.26 433.728 179.257 432.43C178.274 431.113 177.507 429.49 176.956 427.563C176.425 425.636 176.16 423.433 176.16 420.955C176.16 418.713 176.464 416.628 177.074 414.701C177.684 412.774 178.559 411.102 179.7 409.686C180.84 408.27 182.207 407.169 183.8 406.382C185.393 405.576 187.183 405.172 189.169 405.172C190.86 405.172 192.306 405.438 193.506 405.969C194.705 406.5 195.777 407.218 196.721 408.122V392.163H204.008ZM218.574 392.163V436H211.287V392.163H218.574ZM245.333 417.385C245.333 416.441 245.195 415.556 244.92 414.73C244.664 413.885 244.271 413.147 243.74 412.518C243.209 411.889 242.53 411.397 241.704 411.043C240.898 410.669 239.954 410.482 238.872 410.482C236.768 410.482 235.106 411.082 233.887 412.282C232.687 413.482 231.92 415.183 231.586 417.385H245.333ZM231.438 421.781C231.556 423.335 231.832 424.682 232.264 425.822C232.697 426.943 233.267 427.878 233.975 428.625C234.683 429.353 235.519 429.903 236.483 430.277C237.466 430.631 238.548 430.808 239.728 430.808C240.908 430.808 241.921 430.67 242.766 430.395C243.632 430.12 244.379 429.815 245.008 429.48C245.657 429.146 246.218 428.841 246.69 428.566C247.182 428.291 247.654 428.153 248.106 428.153C248.716 428.153 249.168 428.379 249.463 428.831L251.557 431.486C250.751 432.43 249.846 433.227 248.843 433.876C247.84 434.505 246.788 435.017 245.687 435.41C244.605 435.784 243.494 436.049 242.353 436.207C241.232 436.364 240.141 436.443 239.079 436.443C236.975 436.443 235.018 436.098 233.208 435.41C231.399 434.702 229.826 433.669 228.488 432.312C227.151 430.936 226.099 429.244 225.332 427.238C224.565 425.213 224.181 422.872 224.181 420.217C224.181 418.152 224.516 416.215 225.184 414.406C225.853 412.577 226.807 410.994 228.046 409.656C229.305 408.299 230.829 407.228 232.618 406.441C234.428 405.654 236.463 405.261 238.725 405.261C240.633 405.261 242.393 405.566 244.005 406.175C245.618 406.785 247.005 407.68 248.165 408.86C249.325 410.02 250.23 411.456 250.879 413.167C251.548 414.858 251.882 416.795 251.882 418.978C251.882 420.08 251.764 420.827 251.528 421.22C251.292 421.594 250.84 421.781 250.171 421.781H231.438Z" fill="#DDDDDD"/>
<path d="M286.712 414.789C288.167 414.789 289.436 414.612 290.518 414.258C291.599 413.885 292.494 413.364 293.202 412.695C293.93 412.007 294.471 411.181 294.825 410.217C295.179 409.234 295.356 408.142 295.356 406.942C295.356 405.802 295.179 404.769 294.825 403.845C294.471 402.921 293.94 402.134 293.232 401.485C292.524 400.836 291.629 400.344 290.547 400.01C289.465 399.656 288.187 399.479 286.712 399.479H280.783V414.789H286.712ZM286.712 393.343C289.564 393.343 292.032 393.677 294.117 394.346C296.201 395.015 297.922 395.949 299.279 397.148C300.636 398.348 301.639 399.784 302.288 401.455C302.957 403.127 303.291 404.956 303.291 406.942C303.291 409.007 302.947 410.905 302.259 412.636C301.57 414.347 300.538 415.822 299.161 417.061C297.784 418.3 296.054 419.264 293.969 419.952C291.904 420.64 289.485 420.984 286.712 420.984H280.783V436H272.847V393.343H286.712ZM314.639 410.984C315.583 409.175 316.704 407.759 318.002 406.736C319.3 405.694 320.834 405.172 322.604 405.172C324 405.172 325.121 405.477 325.967 406.087L325.495 411.544C325.396 411.898 325.249 412.154 325.052 412.311C324.875 412.449 324.629 412.518 324.315 412.518C324.02 412.518 323.577 412.469 322.987 412.37C322.417 412.272 321.856 412.223 321.306 412.223C320.499 412.223 319.781 412.341 319.152 412.577C318.523 412.813 317.952 413.157 317.441 413.609C316.949 414.042 316.507 414.573 316.114 415.202C315.74 415.832 315.386 416.55 315.052 417.356V436H307.765V405.733H312.043C312.79 405.733 313.311 405.871 313.606 406.146C313.901 406.402 314.098 406.874 314.196 407.562L314.639 410.984ZM342.304 405.261C344.546 405.261 346.581 405.625 348.41 406.353C350.259 407.08 351.832 408.113 353.13 409.45C354.448 410.787 355.461 412.42 356.169 414.347C356.877 416.274 357.231 418.428 357.231 420.807C357.231 423.207 356.877 425.37 356.169 427.297C355.461 429.225 354.448 430.867 353.13 432.224C351.832 433.581 350.259 434.623 348.41 435.351C346.581 436.079 344.546 436.443 342.304 436.443C340.042 436.443 337.987 436.079 336.138 435.351C334.289 434.623 332.706 433.581 331.389 432.224C330.091 430.867 329.078 429.225 328.35 427.297C327.642 425.37 327.288 423.207 327.288 420.807C327.288 418.428 327.642 416.274 328.35 414.347C329.078 412.42 330.091 410.787 331.389 409.45C332.706 408.113 334.289 407.08 336.138 406.353C337.987 405.625 340.042 405.261 342.304 405.261ZM342.304 430.837C344.821 430.837 346.679 429.992 347.879 428.3C349.098 426.609 349.708 424.131 349.708 420.866C349.708 417.602 349.098 415.114 347.879 413.403C346.679 411.692 344.821 410.836 342.304 410.836C339.747 410.836 337.849 411.702 336.61 413.432C335.391 415.143 334.781 417.621 334.781 420.866C334.781 424.111 335.391 426.589 336.61 428.3C337.849 429.992 339.747 430.837 342.304 430.837ZM370.341 405.733V437.033C370.341 438.35 370.164 439.589 369.81 440.75C369.476 441.91 368.925 442.923 368.158 443.788C367.411 444.673 366.418 445.361 365.179 445.853C363.96 446.364 362.465 446.62 360.695 446.62C360.007 446.62 359.367 446.571 358.777 446.473C358.187 446.394 357.578 446.256 356.948 446.06L357.214 442.136C357.273 441.743 357.43 441.487 357.686 441.369C357.942 441.271 358.433 441.222 359.161 441.222C359.889 441.222 360.498 441.143 360.99 440.986C361.501 440.848 361.904 440.612 362.199 440.278C362.494 439.963 362.701 439.54 362.819 439.009C362.957 438.478 363.025 437.819 363.025 437.033V405.733H370.341ZM371.344 396.912C371.344 397.542 371.217 398.132 370.961 398.682C370.705 399.233 370.361 399.715 369.928 400.128C369.515 400.541 369.014 400.875 368.424 401.131C367.854 401.367 367.244 401.485 366.595 401.485C365.966 401.485 365.376 401.367 364.825 401.131C364.274 400.875 363.792 400.541 363.379 400.128C362.966 399.715 362.632 399.233 362.376 398.682C362.14 398.132 362.022 397.542 362.022 396.912C362.022 396.263 362.14 395.654 362.376 395.083C362.632 394.513 362.966 394.021 363.379 393.608C363.792 393.195 364.274 392.871 364.825 392.635C365.376 392.379 365.966 392.251 366.595 392.251C367.244 392.251 367.854 392.379 368.424 392.635C369.014 392.871 369.515 393.195 369.928 393.608C370.361 394.021 370.705 394.513 370.961 395.083C371.217 395.654 371.344 396.263 371.344 396.912ZM397.269 417.385C397.269 416.441 397.132 415.556 396.856 414.73C396.601 413.885 396.207 413.147 395.676 412.518C395.145 411.889 394.467 411.397 393.641 411.043C392.835 410.669 391.891 410.482 390.809 410.482C388.705 410.482 387.043 411.082 385.823 412.282C384.624 413.482 383.857 415.183 383.522 417.385H397.269ZM383.375 421.781C383.493 423.335 383.768 424.682 384.201 425.822C384.634 426.943 385.204 427.878 385.912 428.625C386.62 429.353 387.456 429.903 388.419 430.277C389.403 430.631 390.484 430.808 391.664 430.808C392.844 430.808 393.857 430.67 394.703 430.395C395.568 430.12 396.316 429.815 396.945 429.48C397.594 429.146 398.154 428.841 398.626 428.566C399.118 428.291 399.59 428.153 400.042 428.153C400.652 428.153 401.104 428.379 401.399 428.831L403.494 431.486C402.688 432.43 401.783 433.227 400.78 433.876C399.777 434.505 398.725 435.017 397.623 435.41C396.542 435.784 395.431 436.049 394.29 436.207C393.169 436.364 392.077 436.443 391.015 436.443C388.911 436.443 386.954 436.098 385.145 435.41C383.336 434.702 381.762 433.669 380.425 432.312C379.088 430.936 378.035 429.244 377.268 427.238C376.501 425.213 376.118 422.872 376.118 420.217C376.118 418.152 376.452 416.215 377.121 414.406C377.79 412.577 378.743 410.994 379.982 409.656C381.241 408.299 382.765 407.228 384.555 406.441C386.364 405.654 388.4 405.261 390.661 405.261C392.569 405.261 394.329 405.566 395.942 406.175C397.555 406.785 398.941 407.68 400.101 408.86C401.262 410.02 402.166 411.456 402.815 413.167C403.484 414.858 403.818 416.795 403.818 418.978C403.818 420.08 403.7 420.827 403.464 421.22C403.228 421.594 402.776 421.781 402.107 421.781H383.375ZM430.969 412.134C430.753 412.41 430.536 412.626 430.32 412.783C430.123 412.941 429.828 413.019 429.435 413.019C429.061 413.019 428.698 412.911 428.344 412.695C427.99 412.459 427.567 412.203 427.075 411.928C426.583 411.633 425.993 411.377 425.305 411.161C424.636 410.925 423.801 410.807 422.798 410.807C421.519 410.807 420.398 411.043 419.435 411.515C418.471 411.967 417.665 412.626 417.016 413.491C416.386 414.357 415.914 415.409 415.6 416.648C415.285 417.867 415.128 419.254 415.128 420.807C415.128 422.42 415.295 423.856 415.629 425.114C415.983 426.373 416.485 427.435 417.134 428.3C417.783 429.146 418.569 429.795 419.494 430.247C420.418 430.68 421.46 430.896 422.621 430.896C423.781 430.896 424.715 430.759 425.423 430.483C426.151 430.188 426.76 429.874 427.252 429.539C427.744 429.185 428.167 428.871 428.521 428.595C428.894 428.3 429.307 428.153 429.76 428.153C430.35 428.153 430.792 428.379 431.087 428.831L433.182 431.486C432.375 432.43 431.5 433.227 430.556 433.876C429.612 434.505 428.629 435.017 427.606 435.41C426.603 435.784 425.561 436.049 424.479 436.207C423.417 436.364 422.355 436.443 421.293 436.443C419.425 436.443 417.665 436.098 416.013 435.41C414.361 434.702 412.915 433.679 411.676 432.342C410.437 431.005 409.454 429.372 408.726 427.445C408.018 425.498 407.664 423.285 407.664 420.807C407.664 418.585 407.979 416.53 408.608 414.642C409.257 412.734 410.201 411.092 411.44 409.715C412.679 408.319 414.213 407.228 416.042 406.441C417.871 405.654 419.975 405.261 422.355 405.261C424.617 405.261 426.593 405.625 428.285 406.353C429.996 407.08 431.53 408.122 432.887 409.479L430.969 412.134ZM447.838 436.472C445.203 436.472 443.177 435.734 441.761 434.259C440.365 432.765 439.667 430.71 439.667 428.094V411.19H436.569C436.176 411.19 435.842 411.063 435.566 410.807C435.291 410.551 435.153 410.168 435.153 409.656V406.765L440.021 405.969L441.555 397.709C441.653 397.316 441.84 397.011 442.115 396.794C442.391 396.578 442.745 396.47 443.177 396.47H446.953V405.998H455.036V411.19H446.953V427.592C446.953 428.536 447.18 429.274 447.632 429.805C448.104 430.336 448.743 430.601 449.549 430.601C450.002 430.601 450.375 430.552 450.67 430.454C450.985 430.336 451.251 430.218 451.467 430.1C451.703 429.982 451.909 429.874 452.086 429.775C452.263 429.657 452.44 429.598 452.617 429.598C452.834 429.598 453.011 429.657 453.148 429.775C453.286 429.874 453.434 430.031 453.591 430.247L455.774 433.787C454.712 434.672 453.493 435.341 452.116 435.793C450.739 436.246 449.313 436.472 447.838 436.472Z" fill="#0BAFF9"/>
<defs>
<radialGradient id="paint0_radial_64_96" cx="0" cy="0" r="1" gradientUnits="userSpaceOnUse" gradientTransform="translate(248.5 248.5) rotate(90) scale(248.5)">
<stop stop-color="#061A37"/>
<stop offset="1" stop-color="#102B50"/>
</radialGradient>
</defs>
</svg>
